<?xml version="1.0" encoding="UTF-8"?><svg id="Layer_1" xmlns="http://www.w3.org/2000/svg" viewBox="0 0 104.2165 110.2168"><defs><style>.cls-1{fill:#fff;}.cls-2{opacity:.25;}.cls-2,.cls-3{fill:#00505a;}.cls-4{fill:#68c6e0;}</style></defs><circle class="cls-2" cx="52.1082" cy="58.1086" r="52.1082"/><g><g><circle class="cls-4" cx="52.1082" cy="49.375" r="48.375"/><path class="cls-1" d="m49.7548,19.9541c5.6357,0,10.0205,1.1348,13.1553,3.4033s4.7021,5.4883,4.7021,9.6602c0,2.8301-.7383,5.3125-2.2139,7.4463-1.4766,2.1357-3.8115,3.9951-7.0068,5.5811,3.9512,2.2441,6.7383,4.4824,8.3613,6.7148,1.6221,2.2314,2.4326,4.6406,2.4326,7.2266,0,4.7568-1.7197,8.4404-5.1592,11.0508s-8.2461,3.915-14.417,3.915c-6.2939,0-11.1123-1.2744-14.4541-3.8232-3.3428-2.5488-5.0137-6.2148-5.0137-10.9961,0-3.0977.7441-5.7393,2.2324-7.9229,1.4873-2.1826,3.9883-4.165,7.501-5.9463-2.8301-1.9023-4.8975-3.9453-6.2021-6.1289-1.3047-2.1826-1.958-4.5801-1.958-7.1904,0-4.0986,1.5977-7.2871,4.7939-9.5684,3.1953-2.2812,7.6113-3.4219,13.2461-3.4219Zm-6.3662,39.5928c0,1.5127.5361,2.7266,1.6094,3.6416,1.0732.9141,2.5615,1.3721,4.4648,1.3721,4.293,0,6.4404-1.5732,6.4404-4.7207,0-1.1953-.4707-2.3721-1.4092-3.5312-.9395-1.1582-2.6162-2.457-5.0312-3.8965-2.1719,1.1465-3.7266,2.2988-4.666,3.457-.9395,1.1592-1.4082,2.3857-1.4082,3.6777Zm6.2939-29.1641c-1.2441,0-2.2939.3604-3.1475,1.0801-.8545.7197-1.2803,1.6523-1.2803,2.7988,0,2.0986,1.4268,3.9521,4.2812,5.5625,1.7314-1,2.9141-1.915,3.5488-2.7451.6348-.8291.9521-1.7686.9521-2.8174,0-1.1709-.4277-2.1094-1.2812-2.8174-.8545-.707-1.8789-1.0615-3.0732-1.0615Z"/></g><path class="cls-3" d="m52.1083,98.75c-27.2256,0-49.375-22.1494-49.375-49.375S24.8827,0,52.1083,0s49.375,22.1494,49.375,49.375-22.1494,49.375-49.375,49.375Zm0-96.75C25.9853,2,4.7333,23.252,4.7333,49.375s21.252,47.375,47.375,47.375,47.375-21.252,47.375-47.375S78.2314,2,52.1083,2Z"/></g></svg>