<?xml version="1.0" encoding="UTF-8"?><svg id="Layer_1" xmlns="http://www.w3.org/2000/svg" viewBox="0 0 104.2165 110.2168"><defs><style>.cls-1{fill:#fff;}.cls-2{opacity:.25;}.cls-2,.cls-3{fill:#00505a;}.cls-4{fill:#5086ca;}</style></defs><circle class="cls-2" cx="52.1082" cy="58.1086" r="52.1082"/><g><g><circle class="cls-4" cx="52.1082" cy="49.375" r="48.375"/><path class="cls-1" d="m68.7097,74.2207H29.885v-9.5137l13.0635-13.21c3.7324-3.9033,6.1719-6.5684,7.3188-7.9961,1.146-1.4268,1.9448-2.6523,2.3965-3.6768.4512-1.0254.6772-2.0977.6772-3.2207,0-1.3906-.4517-2.4883-1.354-3.293-.9028-.8047-2.1714-1.208-3.8057-1.208-1.6831,0-3.3848.4824-5.1045,1.4453-1.7202.9648-3.6655,2.3848-5.8364,4.2637l-7.9409-9.2949c2.7568-2.4639,5.0737-4.2266,6.9526-5.2871,1.8784-1.0615,3.9214-1.8721,6.1294-2.4336,2.2075-.5605,4.6895-.8418,7.4463-.8418,3.4639,0,6.5562.6104,9.2764,1.8301,2.7197,1.2197,4.8301,2.958,6.3306,5.2139,1.5,2.2568,2.2505,4.7881,2.2505,7.5928,0,2.0986-.2627,4.0381-.7871,5.8184-.5249,1.7812-1.3354,3.5312-2.4331,5.251s-2.5557,3.5312-4.373,5.4346c-1.8174,1.9023-5.6899,5.5127-11.6177,10.8311v.3662h20.2354v11.9287Z"/></g><path class="cls-3" d="m52.1082,98.75c-27.2256,0-49.375-22.1494-49.375-49.375S24.8826,0,52.1082,0s49.375,22.1494,49.375,49.375-22.1494,49.375-49.375,49.375Zm0-96.75C25.9856,2,4.7332,23.252,4.7332,49.375s21.2524,47.375,47.375,47.375,47.375-21.252,47.375-47.375S78.2307,2,52.1082,2Z"/></g></svg>