<?xml version="1.0" encoding="UTF-8"?><svg id="Layer_1" xmlns="http://www.w3.org/2000/svg" viewBox="0 0 104.2165 110.2168"><defs><style>.cls-1{fill:#fff;}.cls-2{opacity:.25;}.cls-2,.cls-3{fill:#00505a;}.cls-4{fill:#4ed49f;}</style></defs><circle class="cls-2" cx="52.1082" cy="58.1086" r="52.1082"/><g><g><circle class="cls-4" cx="52.1082" cy="49.375" r="48.375"/><path class="cls-1" d="m70.4297,63.8652h-5.8911v10.3555h-14.271v-10.3555h-21.3335v-10.6123l22.248-32.5303h13.3564v32.3477h5.8911v10.7949Zm-20.1621-10.7949v-6.2207c0-1.1709.042-2.75.1279-4.7383.085-1.9883.1519-3.0312.2012-3.1289h-.4023c-.8296,1.8789-1.769,3.6348-2.8179,5.2695l-5.9277,8.8184h8.8188Z"/></g><path class="cls-3" d="m52.1084,98.75c-27.2256,0-49.375-22.1494-49.375-49.375S24.8828,0,52.1084,0s49.375,22.1494,49.375,49.375-22.1494,49.375-49.375,49.375Zm0-96.75C25.9858,2,4.7334,23.252,4.7334,49.375s21.2524,47.375,47.375,47.375,47.375-21.252,47.375-47.375S78.2309,2,52.1084,2Z"/></g></svg>