<?xml version="1.0" encoding="UTF-8"?><svg id="Layer_1" xmlns="http://www.w3.org/2000/svg" viewBox="0 0 104.2165 110.2168"><defs><style>.cls-1{fill:#fff;}.cls-2{fill:#306366;}.cls-3{opacity:.25;}.cls-3,.cls-4{fill:#00505a;}</style></defs><circle class="cls-3" cx="52.1082" cy="58.1086" r="52.1082"/><g><g><circle class="cls-2" cx="52.1082" cy="49.375" r="48.375"/><path class="cls-1" d="m66.9169,32.3223c0,3.3184-1.0127,6.166-3.0371,8.5449-2.0254,2.3779-4.9526,4.1045-8.7822,5.1777v.2188c8.9287,1.123,13.3926,5.3428,13.3926,12.6611,0,4.9766-1.9702,8.8926-5.9097,11.7461-3.9399,2.8545-9.4102,4.2812-16.4116,4.2812-2.8789,0-5.5435-.207-7.9951-.6221-2.4517-.4141-5.105-1.1709-7.959-2.2686v-12.002c2.3418,1.1953,4.7261,2.0801,7.1538,2.6533,2.4272.5732,4.6655.8594,6.7148.8594,3.1709,0,5.4824-.4443,6.9341-1.3359,1.4512-.8896,2.1772-2.2871,2.1772-4.1895,0-1.4639-.3784-2.5918-1.1343-3.3848-.7563-.793-1.9761-1.3906-3.6592-1.793-1.6836-.4023-3.8789-.6035-6.5869-.6035h-3.293v-10.8682h3.3662c7.3428,0,11.0142-1.8779,11.0142-5.6357,0-1.4141-.543-2.4629-1.6279-3.1465-1.0859-.6826-2.5435-1.0244-4.373-1.0244-3.4155,0-6.9526,1.1465-10.6118,3.4395l-6.001-9.6602c2.8296-1.9512,5.7266-3.3418,8.6904-4.1719,2.9644-.8291,6.3608-1.2441,10.1909-1.2441,5.5376,0,9.8804,1.0977,13.0269,3.293,3.147,2.1963,4.7207,5.2207,4.7207,9.0752Z"/></g><path class="cls-4" d="m52.1083,98.75c-27.2256,0-49.375-22.1494-49.375-49.375S24.8827,0,52.1083,0s49.375,22.1494,49.375,49.375-22.1494,49.375-49.375,49.375Zm0-96.75C25.9857,2,4.7333,23.252,4.7333,49.375s21.2524,47.375,47.375,47.375,47.375-21.252,47.375-47.375S78.2308,2,52.1083,2Z"/></g></svg>