<?xml version="1.0" encoding="UTF-8"?><svg id="Layer_1" xmlns="http://www.w3.org/2000/svg" viewBox="0 0 104.2165 110.2168"><defs><style>.cls-1{fill:#fff;}.cls-2{opacity:.25;}.cls-2,.cls-3{fill:#00505a;}.cls-4{fill:#1b8c8c;}</style></defs><circle class="cls-2" cx="52.1082" cy="58.1086" r="52.1082"/><g><g><circle class="cls-4" cx="52.1082" cy="49.375" r="48.375"/><path class="cls-1" d="m62.1237,74.2207h-14.6738v-28.3223c0-3.4395.0732-6.5869.2197-9.4414-.9028,1.0977-2.0254,2.2451-3.3667,3.4404l-6.0742,5.0127-7.5015-9.2217,18.3696-14.9658h13.0269v53.498Z"/></g><path class="cls-3" d="m52.1081,98.75c-27.2256,0-49.375-22.1494-49.375-49.375S24.8825,0,52.1081,0s49.375,22.1494,49.375,49.375-22.1494,49.375-49.375,49.375Zm0-96.75C25.9855,2,4.7331,23.252,4.7331,49.375s21.2524,47.375,47.375,47.375,47.375-21.252,47.375-47.375S78.2306,2,52.1081,2Z"/></g></svg>