<?xml version="1.0" encoding="UTF-8"?><svg id="Layer_1" xmlns="http://www.w3.org/2000/svg" viewBox="0 0 104.2165 110.2168"><defs><style>.cls-1{fill:#fff;}.cls-2{fill:#c0cc54;}.cls-3{opacity:.25;}.cls-3,.cls-4{fill:#00505a;}</style></defs><circle class="cls-3" cx="52.1082" cy="58.1086" r="52.1082"/><g><g><circle class="cls-2" cx="52.1082" cy="49.375" r="48.375"/><path class="cls-1" d="m30.2145,51.6064c0-7.4648,1.0674-13.5078,3.2021-18.1318,2.1338-4.6221,5.2812-8.0312,9.4404-10.2275,4.1592-2.1953,9.2881-3.293,15.3877-3.293,2.1709,0,4.707.208,7.6113.6221v11.3076c-2.4404-.4639-5.0869-.6953-7.9414-.6953-4.8301,0-8.4287,1.0605-10.7939,3.1836-2.3672,2.1221-3.6592,5.5859-3.8789,10.3916h.4385c2.1963-4.1465,5.7207-6.2207,10.5752-6.2207,4.7578,0,8.4473,1.5312,11.0693,4.5928s3.9336,7.3242,3.9336,12.7891c0,5.8789-1.6592,10.5205-4.9766,13.9229-3.3174,3.4033-7.9531,5.1045-13.9053,5.1045-6.3184,0-11.2578-2.0488-14.8193-6.1475-3.5625-4.0977-5.3428-9.8301-5.3428-17.1982Zm19.833,11.8926c1.5371,0,2.7871-.5791,3.751-1.7383.9639-1.1582,1.4453-3.0059,1.4453-5.5439,0-4.3418-1.6836-6.5127-5.0498-6.5127-1.6592,0-3.0068.5615-4.043,1.6826-1.0371,1.123-1.5557,2.4883-1.5557,4.0986,0,2.3418.5,4.2627,1.5,5.7637,1,1.5,2.3174,2.25,3.9521,2.25Z"/></g><path class="cls-4" d="m52.1081,98.75c-27.2256,0-49.375-22.1494-49.375-49.375S24.8825,0,52.1081,0s49.375,22.1494,49.375,49.375-22.1494,49.375-49.375,49.375Zm0-96.75C25.9851,2,4.7331,23.252,4.7331,49.375s21.252,47.375,47.375,47.375,47.375-21.252,47.375-47.375S78.2312,2,52.1081,2Z"/></g></svg>