<?xml version="1.0" encoding="UTF-8"?><svg id="Layer_1" xmlns="http://www.w3.org/2000/svg" viewBox="0 0 104.2165 110.2168"><defs><style>.cls-1{fill:#fff;}.cls-2{fill:#cc6155;}.cls-3{opacity:.25;}.cls-3,.cls-4{fill:#00505a;}</style></defs><circle class="cls-3" cx="52.1082" cy="58.1086" r="52.1082"/><g><g><circle class="cls-2" cx="52.1082" cy="49.375" r="48.375"/><path class="cls-1" d="m51.9503,39.165c3.0742,0,5.8486.7139,8.3252,2.1406,2.4756,1.4277,4.4033,3.4463,5.7812,6.0566s2.0674,5.623,2.0674,9.0381c0,5.9766-1.7988,10.5635-5.3975,13.7588-3.5986,3.1963-9.0439,4.793-16.3379,4.793-6.2451,0-11.3438-.9629-15.2959-2.8906v-11.8555c2.1221.9756,4.5195,1.7812,7.1904,2.415,2.6709.6348,4.9707.9512,6.8975.9512,2.6836,0,4.7441-.5674,6.1846-1.7012,1.4385-1.1348,2.1582-2.8115,2.1582-5.0322,0-2.0488-.7314-3.6465-2.1953-4.793s-3.6836-1.7197-6.6592-1.7197c-2.2695,0-4.7207.4268-7.3555,1.2803l-5.3057-2.6348,2.0127-28.249h30.5176v12.0391h-18.2227l-.6592,7.0625c1.9033-.3662,3.2568-.5674,4.0625-.6045.8047-.0361,1.5488-.0547,2.2314-.0547Z"/></g><path class="cls-4" d="m52.1085,98.75c-27.2256,0-49.375-22.1494-49.375-49.375S24.8829,0,52.1085,0s49.375,22.1494,49.375,49.375-22.1494,49.375-49.375,49.375Zm0-96.75C25.9854,2,4.7335,23.252,4.7335,49.375s21.252,47.375,47.375,47.375,47.375-21.252,47.375-47.375S78.2315,2,52.1085,2Z"/></g></svg>