<?xml version="1.0" encoding="UTF-8"?><svg id="Camada_1" xmlns="http://www.w3.org/2000/svg" viewBox="0 0 290.8235 290.8235"><defs><style>.cls-1{fill:#fff;}.cls-2{fill:#cc6155;}</style></defs><circle class="cls-2" cx="145.4118" cy="145.4118" r="145.4118"/><g><path class="cls-1" d="m233.8085,182.9176c0-11.9151-9.6942-21.6087-21.6093-21.6087s-21.6087,9.6936-21.6087,21.6087c0,10.6978,7.822,19.5809,18.0422,21.2894v21.509c0,7.057-5.741,12.7981-12.7975,12.7981h-54.9666c-7.0564,0-12.7975-5.741-12.7975-12.7981v-101.9606h7.6227v-12.1682h13.0073v-4.4056h20.2451c10.0645,0,18.2524-8.1878,18.2524-18.2524v-35.6653c0-10.0645-8.1878-18.2524-18.2524-18.2524h-9.4407v-3.7763h-4.3008c-4.345,0-7.8674,3.5223-7.8674,7.8674s3.5223,7.8673,7.8674,7.8673h4.3008v-4.8253h9.4407c6.1311,0,11.1193,4.9882,11.1193,11.1193v35.6653c0,6.1311-4.9882,11.1193-11.1193,11.1193h-20.2451v-3.5667h-49.5119v3.5667h-20.2451c-6.1311,0-11.1193-4.9882-11.1193-11.1193v-35.6653c0-6.1311,4.9882-11.1193,11.1193-11.1193h9.4407v4.8253h4.3008c4.345,0,7.8674-3.5223,7.8674-7.8673s-3.5223-7.8674-7.8674-7.8674h-4.3008v3.7763h-9.4407c-10.0645,0-18.2524,8.1878-18.2524,18.2524v35.6653c0,10.0645,8.1878,18.2524,18.2524,18.2524h20.2451v4.4056h13.0074v12.1682h8.7414v101.9606c0,10.9898,8.9407,19.9311,19.9305,19.9311h54.9666c10.9898,0,19.9305-8.9413,19.9305-19.9311v-21.509c10.2203-1.7085,18.0428-10.5916,18.0428-21.2894Zm-21.6093,14.4763c-7.9817,0-14.4757-6.4939-14.4757-14.4763s6.4939-14.4757,14.4757-14.4757,14.4763,6.4939,14.4763,14.4757-6.4939,14.4763-14.4763,14.4763Z"/><circle class="cls-1" cx="212.1993" cy="182.9178" r="9.6506" transform="translate(-36.3494 53.6468) rotate(-13.2826)"/><g><path class="cls-1" d="m89.6069,139.3385c-.3073-.6378-.6447-1.2584-1.0101-1.8599-.1827-.3008-.3726-.5968-.5692-.8878-.3932-.5821-.8138-1.1442-1.2597-1.6846-.223-.2701-.4523-.535-.6877-.794-4.0029-4.4042-9.7774-7.1691-16.1977-7.1691h0c-1.4084,0-2.7856.1332-4.1198.3875-4.0026.7631-7.6183,2.617-10.5272,5.2398-2.9089-2.6228-6.5245-4.4767-10.5272-5.2398-1.3342-.2543-2.7114-.3875-4.1198-.3875h0c-6.4203,0-12.1948,2.765-16.1977,7.1691-.2355.259-.4648.5239-.6877.794-.4459.5404-.8665,1.1025-1.2597,1.6846-.1966.291-.3865.587-.5692.8878-.3655.6016-.7028,1.2222-1.0101,1.8599-1.3829,2.8699-2.1578,6.0879-2.1578,9.4869,0,2.9719.433,5.7117,1.2946,8.3141,2.6559-2.7672,5.4664-5.7371,8.1583-8.6216.4624-.4956,1.1064-.7822,1.7847-.7939.6553-.0425,1.3315.2524,1.8105.7319l8.9629,8.9629c2.3374-2.1006,7.2471-7.416,11.2939-12.0923.439-.5073,1.0635-.8169,1.7329-.8594.6704-.0464,1.3271.186,1.8267.6338,8.354,7.4922,11.6533,10.8784,12.9629,12.6396,2.1606.0718,7.1797-.0776,11.458-.2939,1.3862-.0801,2.5537.9912,2.623,2.3701.0698,1.3789-.9912,2.5537-2.3701,2.623-14.7085.7456-14.9131.2871-15.6689-1.4141-.0703-.1587-.1226-.3237-.1572-.4922-1.1924-1.4951-5.8008-5.9082-10.3037-10.0088-10.937,12.4761-12.5103,12.5332-13.5674,12.5713-.77.0308-1.4722-.2485-2.001-.7778l-8.499-8.4985c-3.0347,3.2402-5.6113,5.9581-7.8166,8.2525,5.2395,9.0992,16.297,17.1659,33.0049,28.9687,24.1765-17.0787,36.5294-26.3331,36.5294-42.2155,0-3.399-.775-6.6169-2.1578-9.4869Z"/><path class="cls-1" d="m69.1109,161.0672c-.1216.2402-.2773.4604-.4609.6436.1914-.1909.3457-.4087.4609-.6436Z"/></g><g><path class="cls-1" d="m214.2551,45.6099h1.0675c5.8438,0,10.5882,4.7444,10.5882,10.5882v45.5982h-11.6557v-56.1865h0Z" transform="translate(18.9524 -42.1206) rotate(11.421)"/><path class="cls-1" d="m219.5618,105.7141l-11.4249-2.308-7.6441,37.8389c-.6373,3.1549,1.4035,6.2291,4.5584,6.8665h0c3.1549.6373,6.2291-1.4035,6.8665-4.5584l7.6441-37.8389Z"/></g></g></svg>