<?xml version="1.0" encoding="UTF-8"?><svg id="Camada_1" xmlns="http://www.w3.org/2000/svg" viewBox="0 0 290.8235 330.1992"><defs><style>.cls-1{fill:#fff;}.cls-2{fill:#5683c3;}</style></defs><g><circle class="cls-2" cx="145.4118" cy="145.4118" r="145.4118"/><g><circle class="cls-1" cx="206.0466" cy="91.2696" r="22.6225"/><rect class="cls-1" x="31.7647" y="184.5882" width="141.2866" height="5.2941"/><path class="cls-1" d="m39.5294,57.1764v124.2353h133.5219v-21.1422l-15.9209,14.6953c-3.2324,2.9829-7.4355,4.5225-11.8276,4.3389-4.395-.1855-8.4502-2.0747-11.4199-5.3198l-27.3188-29.855c-5.3882-5.8887-5-15.0835.8652-20.4966,5.8906-5.4365,15.106-5.0669,20.5425.8228l18.3613,19.8926c.2949.3203.7974.3408,1.1191.0449l23.1929-21.3232c3.1162-2.8657,7.1655-4.4629,11.4009-4.4961l50.8936-.397h.0312c5.2501,0,10.2504,1.0847,14.794,3.036V57.1764H39.5294Zm22.9144,111.1761l-3.9844-6.4805-3.9844,6.4805h-3.8906l5.6836-8.8359-5.3203-8.2969h4.0078l3.6914,6.1641,3.6211-6.1641h3.9141l-5.3789,8.4961,5.7891,8.6367h-4.1484Zm26.9878-62.1499v22.3354h-12.0898v-21.9429l-19.0381-35.4458h13.189l11.894,23.6309,11.9722-23.6309h13.1108l-19.0381,35.0532Zm65.2749-9.7271h-16.3989v-3.3428l9.6201-13.0933h-9.0444v-4.3276h15.4893v3.6772l-9.3604,12.7593h9.6943v4.3271Zm51.3398,21.4165c-14.6797,0-26.6226-11.9429-26.6226-26.6226s11.9429-26.6226,26.6226-26.6226,26.6226,11.9429,26.6226,26.6226-11.9429,26.6226-26.6226,26.6226Z"/><path class="cls-1" d="m256.071,220.3137h0c5.8071,0,10.5147-4.7076,10.5147-10.5147v-54.0074c0-18.5652-15.0501-33.6152-33.6152-33.6152l-50.8937.397c-3.2344.0252-6.344,1.2515-8.7251,3.4407l-23.1862,21.3175c-1.9448,1.7952-4.9767,1.6738-6.7719-.271l-18.3615-19.8927c-3.9473-4.2764-10.6138-4.5433-14.8903-.596-4.2634,3.9352-4.5436,10.5764-.6269,14.8568l27.3187,29.8549c4.6439,5.075,12.5286,5.4077,17.5835.7419l22.6341-20.8918v136.2275c7.2267-1.6038,14.2516-3.7418,21.0294-6.3768v-54.0325c0-2.7276,2.2111-4.9387,4.9387-4.9387h8.6029c2.7276,0,4.9387,2.2111,4.9387,4.9387v45.2941c7.4385-4.1818,14.4747-8.9935,21.0295-14.3725v-103.0377c0-2.1996,1.7831-3.9828,3.9828-3.9828h0c2.1996,0,3.9828,1.7832,3.9828,3.9828v54.9633c0,5.8071,4.7076,10.5147,10.5146,10.5147Z"/></g></g><g><path class="cls-2" d="m80.8563,317.4882c0,3.999-1.1377,7.0615-3.415,9.1885-2.2764,2.127-5.5635,3.1904-9.8613,3.1904h-6.8789v-24.293h7.627c3.9648,0,7.0449,1.0469,9.2383,3.1406,2.1934,2.0928,3.29,5.0176,3.29,8.7734Zm-5.3506.1328c0-5.2178-2.3037-7.8262-6.9121-7.8262h-2.7422v15.8184h2.21c4.9629,0,7.4443-2.6641,7.4443-7.9922Z"/><path class="cls-2" d="m99.8817,329.8671h-13.9902v-24.293h13.9902v4.2207h-8.8398v5.333h8.2256v4.2207h-8.2256v6.2646h8.8398v4.2539Z"/><path class="cls-2" d="m119.2908,323.121c0,2.1934-.7891,3.9209-2.3682,5.1846-1.5781,1.2627-3.7744,1.8936-6.5879,1.8936-2.5928,0-4.8857-.4873-6.8799-1.4619v-4.7852c1.6396.7305,3.0273,1.2461,4.1631,1.5449,1.1348.2988,2.1738.4482,3.1152.4482,1.1299,0,1.9961-.2158,2.6006-.6475.6035-.4326.9053-1.0742.9053-1.9277,0-.4766-.1328-.8994-.3984-1.2715-.2656-.3711-.6562-.7275-1.1719-1.0713-.5146-.3438-1.5645-.8916-3.1484-1.6455-1.4844-.6973-2.5977-1.3682-3.3398-2.0107-.7422-.6416-1.335-1.3896-1.7783-2.2432-.4434-.8525-.665-1.8496-.665-2.9902,0-2.1494.7285-3.8389,2.1855-5.0684,1.4561-1.2295,3.4697-1.8447,6.04-1.8447,1.2627,0,2.4678.1494,3.6143.4492,1.1465.2988,2.3457.7197,3.5977,1.2627l-1.6621,4.0049c-1.2959-.5322-2.3682-.9033-3.2148-1.1133-.8477-.2109-1.6816-.3164-2.501-.3164-.9746,0-1.7227.2275-2.2432.6816-.5215.4541-.7812,1.0469-.7812,1.7783,0,.4541.1055.8496.3154,1.1875.2109.3379.5459.665,1.0059.9805.459.3154,1.5479.8838,3.2646,1.7031,2.2715,1.0859,3.8271,2.1738,4.6699,3.2656.8418,1.0908,1.2627,2.4287,1.2627,4.0127Z"/><path class="cls-2" d="m128.7615,329.8671h-5.0674v-24.293h13.9238v4.2207h-8.8564v6.2637h8.2422v4.2041h-8.2422v9.6045Z"/><path class="cls-2" d="m156.3612,329.8671h-13.9902v-24.293h13.9902v4.2207h-8.8398v5.333h8.2256v4.2207h-8.2256v6.2646h8.8398v4.2539Z"/><path class="cls-2" d="m171.7489,309.5117c-1.9385,0-3.4395.7285-4.5029,2.1855s-1.5957,3.4863-1.5957,6.0898c0,5.417,2.0332,8.125,6.0986,8.125,1.7061,0,3.7725-.4258,6.1982-1.2793v4.3203c-1.9941.8311-4.2207,1.2461-6.6797,1.2461-3.5342,0-6.2373-1.0713-8.1094-3.2148s-2.8076-5.2207-2.8076-9.2305c0-2.5254.459-4.7383,1.3789-6.6387.9189-1.8994,2.2402-3.3564,3.9629-4.3701s3.7412-1.5205,6.0566-1.5205c2.3594,0,4.7305.5713,7.1123,1.7119l-1.6621,4.1875c-.9082-.4326-1.8223-.8086-2.7412-1.1299-.9199-.3213-1.8232-.4824-2.709-.4824Z"/><path class="cls-2" d="m203.0213,329.8671h-5.1348v-10.4854h-9.6211v10.4854h-5.1504v-24.293h5.1504v9.5205h9.6211v-9.5205h5.1348v24.293Z"/><path class="cls-2" d="m231.203,317.6874c0,4.0205-.9971,7.1113-2.9912,9.2715s-4.8516,3.2402-8.5742,3.2402-6.5801-1.0801-8.5742-3.2402-2.9902-5.2617-2.9902-9.3047.999-7.1309,2.999-9.2637c1.999-2.1328,4.8652-3.1992,8.5986-3.1992s6.5889,1.0752,8.5664,3.2236c1.9766,2.1494,2.9658,5.2402,2.9658,9.2725Zm-17.7295,0c0,2.7139.5146,4.7578,1.5449,6.1309,1.0303,1.374,2.5693,2.0605,4.6191,2.0605,4.1104,0,6.165-2.7305,6.165-8.1914,0-5.4727-2.0439-8.209-6.1318-8.209-2.0488,0-3.5947.6895-4.6357,2.0693-1.041,1.3789-1.5615,3.4258-1.5615,6.1396Z"/></g><g><path class="cls-2" d="m80.8563,317.4882c0,3.999-1.1377,7.0615-3.415,9.1885-2.2764,2.127-5.5635,3.1904-9.8613,3.1904h-6.8789v-24.293h7.627c3.9648,0,7.0449,1.0469,9.2383,3.1406,2.1934,2.0928,3.29,5.0176,3.29,8.7734Zm-5.3506.1328c0-5.2178-2.3037-7.8262-6.9121-7.8262h-2.7422v15.8184h2.21c4.9629,0,7.4443-2.6641,7.4443-7.9922Z"/><path class="cls-2" d="m99.8817,329.8671h-13.9902v-24.293h13.9902v4.2207h-8.8398v5.333h8.2256v4.2207h-8.2256v6.2646h8.8398v4.2539Z"/><path class="cls-2" d="m119.2908,323.121c0,2.1934-.7891,3.9209-2.3682,5.1846-1.5781,1.2627-3.7744,1.8936-6.5879,1.8936-2.5928,0-4.8857-.4873-6.8799-1.4619v-4.7852c1.6396.7305,3.0273,1.2461,4.1631,1.5449,1.1348.2988,2.1738.4482,3.1152.4482,1.1299,0,1.9961-.2158,2.6006-.6475.6035-.4326.9053-1.0742.9053-1.9277,0-.4766-.1328-.8994-.3984-1.2715-.2656-.3711-.6562-.7275-1.1719-1.0713-.5146-.3438-1.5645-.8916-3.1484-1.6455-1.4844-.6973-2.5977-1.3682-3.3398-2.0107-.7422-.6416-1.335-1.3896-1.7783-2.2432-.4434-.8525-.665-1.8496-.665-2.9902,0-2.1494.7285-3.8389,2.1855-5.0684,1.4561-1.2295,3.4697-1.8447,6.04-1.8447,1.2627,0,2.4678.1494,3.6143.4492,1.1465.2988,2.3457.7197,3.5977,1.2627l-1.6621,4.0049c-1.2959-.5322-2.3682-.9033-3.2148-1.1133-.8477-.2109-1.6816-.3164-2.501-.3164-.9746,0-1.7227.2275-2.2432.6816-.5215.4541-.7812,1.0469-.7812,1.7783,0,.4541.1055.8496.3154,1.1875.2109.3379.5459.665,1.0059.9805.459.3154,1.5479.8838,3.2646,1.7031,2.2715,1.0859,3.8271,2.1738,4.6699,3.2656.8418,1.0908,1.2627,2.4287,1.2627,4.0127Z"/><path class="cls-2" d="m128.7615,329.8671h-5.0674v-24.293h13.9238v4.2207h-8.8564v6.2637h8.2422v4.2041h-8.2422v9.6045Z"/><path class="cls-2" d="m156.3612,329.8671h-13.9902v-24.293h13.9902v4.2207h-8.8398v5.333h8.2256v4.2207h-8.2256v6.2646h8.8398v4.2539Z"/><path class="cls-2" d="m171.7489,309.5117c-1.9385,0-3.4395.7285-4.5029,2.1855s-1.5957,3.4863-1.5957,6.0898c0,5.417,2.0332,8.125,6.0986,8.125,1.7061,0,3.7725-.4258,6.1982-1.2793v4.3203c-1.9941.8311-4.2207,1.2461-6.6797,1.2461-3.5342,0-6.2373-1.0713-8.1094-3.2148s-2.8076-5.2207-2.8076-9.2305c0-2.5254.459-4.7383,1.3789-6.6387.9189-1.8994,2.2402-3.3564,3.9629-4.3701s3.7412-1.5205,6.0566-1.5205c2.3594,0,4.7305.5713,7.1123,1.7119l-1.6621,4.1875c-.9082-.4326-1.8223-.8086-2.7412-1.1299-.9199-.3213-1.8232-.4824-2.709-.4824Z"/><path class="cls-2" d="m203.0213,329.8671h-5.1348v-10.4854h-9.6211v10.4854h-5.1504v-24.293h5.1504v9.5205h9.6211v-9.5205h5.1348v24.293Z"/><path class="cls-2" d="m231.203,317.6874c0,4.0205-.9971,7.1113-2.9912,9.2715s-4.8516,3.2402-8.5742,3.2402-6.5801-1.0801-8.5742-3.2402-2.9902-5.2617-2.9902-9.3047.999-7.1309,2.999-9.2637c1.999-2.1328,4.8652-3.1992,8.5986-3.1992s6.5889,1.0752,8.5664,3.2236c1.9766,2.1494,2.9658,5.2402,2.9658,9.2725Zm-17.7295,0c0,2.7139.5146,4.7578,1.5449,6.1309,1.0303,1.374,2.5693,2.0605,4.6191,2.0605,4.1104,0,6.165-2.7305,6.165-8.1914,0-5.4727-2.0439-8.209-6.1318-8.209-2.0488,0-3.5947.6895-4.6357,2.0693-1.041,1.3789-1.5615,3.4258-1.5615,6.1396Z"/></g><g><path class="cls-2" d="m79.1317,317.4882c0,3.999-1.1387,7.0615-3.416,9.1885-2.2754,2.127-5.5625,3.1904-9.8613,3.1904h-6.8789v-24.293h7.627c3.9648,0,7.0449,1.0469,9.2383,3.1406,2.1934,2.0928,3.291,5.0176,3.291,8.7734Zm-5.3516.1328c0-5.2178-2.3037-7.8262-6.9121-7.8262h-2.7422v15.8184h2.2109c4.9629,0,7.4434-2.6641,7.4434-7.9922Z"/><path class="cls-2" d="m98.1571,329.8671h-13.9912v-24.293h13.9912v4.2207h-8.8398v5.333h8.2246v4.2207h-8.2246v6.2646h8.8398v4.2539Z"/><path class="cls-2" d="m117.5653,323.121c0,2.1934-.7891,3.9209-2.3672,5.1846-1.5791,1.2627-3.7754,1.8936-6.5889,1.8936-2.5928,0-4.8857-.4873-6.8799-1.4619v-4.7852c1.6396.7305,3.0273,1.2461,4.1631,1.5449s2.1738.4482,3.1152.4482c1.1299,0,1.9971-.2158,2.6006-.6475.6035-.4326.9062-1.0742.9062-1.9277,0-.4766-.1328-.8994-.3994-1.2715-.2656-.3711-.6562-.7275-1.1709-1.0713-.5156-.3438-1.5654-.8916-3.1494-1.6455-1.4844-.6973-2.5977-1.3682-3.3398-2.0107-.7422-.6416-1.335-1.3896-1.7783-2.2432-.4434-.8525-.6641-1.8496-.6641-2.9902,0-2.1494.7285-3.8389,2.1846-5.0684s3.4697-1.8447,6.04-1.8447c1.2637,0,2.4678.1494,3.6143.4492,1.1465.2988,2.3457.7197,3.5977,1.2627l-1.6611,4.0049c-1.2969-.5322-2.3691-.9033-3.2158-1.1133-.8477-.2109-1.6807-.3164-2.501-.3164-.9746,0-1.7227.2275-2.2432.6816s-.7803,1.0469-.7803,1.7783c0,.4541.1045.8496.3145,1.1875.2109.3379.5459.665,1.0059.9805.459.3154,1.5479.8838,3.2656,1.7031,2.2705,1.0859,3.8262,2.1738,4.6689,3.2656.8418,1.0908,1.2627,2.4287,1.2627,4.0127Z"/><path class="cls-2" d="m127.036,329.8671h-5.0674v-24.293h13.9248v4.2207h-8.8574v6.2637h8.2422v4.2041h-8.2422v9.6045Z"/><path class="cls-2" d="m154.6356,329.8671h-13.9902v-24.293h13.9902v4.2207h-8.8398v5.333h8.2256v4.2207h-8.2256v6.2646h8.8398v4.2539Z"/><path class="cls-2" d="m170.0242,309.5117c-1.9395,0-3.4404.7285-4.5039,2.1855s-1.5957,3.4863-1.5957,6.0898c0,5.417,2.0332,8.125,6.0996,8.125,1.7051,0,3.7715-.4258,6.1973-1.2793v4.3203c-1.9941.8311-4.2207,1.2461-6.6797,1.2461-3.5342,0-6.2363-1.0713-8.1094-3.2148-1.8711-2.1436-2.8076-5.2207-2.8076-9.2305,0-2.5254.46-4.7383,1.3789-6.6387.9189-1.8994,2.2402-3.3564,3.9629-4.3701s3.7412-1.5205,6.0576-1.5205c2.3594,0,4.7295.5713,7.1113,1.7119l-1.6621,4.1875c-.9082-.4326-1.8223-.8086-2.7412-1.1299-.9199-.3213-1.8232-.4824-2.708-.4824Z"/><path class="cls-2" d="m201.2957,329.8671h-5.1348v-10.4854h-9.6211v10.4854h-5.1504v-24.293h5.1504v9.5205h9.6211v-9.5205h5.1348v24.293Z"/><path class="cls-2" d="m229.4774,317.6874c0,4.0205-.9971,7.1113-2.9902,9.2715-1.9941,2.1602-4.8525,3.2402-8.5742,3.2402s-6.5801-1.0801-8.5742-3.2402-2.9912-5.2617-2.9912-9.3047.999-7.1309,2.999-9.2637,4.8652-3.1992,8.5996-3.1992c3.7324,0,6.5879,1.0752,8.5654,3.2236,1.9775,2.1494,2.9658,5.2402,2.9658,9.2725Zm-17.7295,0c0,2.7139.5146,4.7578,1.5449,6.1309,1.0303,1.374,2.5693,2.0605,4.6201,2.0605,4.1094,0,6.1641-2.7305,6.1641-8.1914,0-5.4727-2.043-8.209-6.1309-8.209-2.0498,0-3.5957.6895-4.6367,2.0693-1.041,1.3789-1.5615,3.4258-1.5615,6.1396Z"/></g></svg>