<?xml version="1.0" encoding="UTF-8"?><svg id="Camada_1" xmlns="http://www.w3.org/2000/svg" viewBox="0 0 636.2349 282.1177"><defs><style>.cls-1{fill:#00505a;}</style></defs><rect class="cls-1" x="628.2349" y="276.1177" width="8" height="6"/><path class="cls-1" d="m636.2349,264.5474h-8v-11.5703h8v11.5703Zm0-23.1406h-8v-11.5703h8v11.5703Zm0-23.1406h-8v-11.5703h8v11.5703Zm0-23.1406h-8v-11.5703h8v11.5703Zm0-23.1406h-8v-11.5703h8v11.5703Zm0-23.1406h-8v-11.5703h8v11.5703Zm0-23.1411h-8v-11.5703h8v11.5703Zm0-23.1406h-8v-11.5703h8v11.5703Zm0-23.1406h-8v-11.5703h8v11.5703Zm0-23.1406h-8v-11.5703h8v11.5703Zm0-23.1406h-8v-11.5703h8v11.5703Z"/><polygon class="cls-1" points="636.2349 10 628.2349 10 628.2349 8 626.2349 8 626.2349 0 636.2349 0 636.2349 10"/><path class="cls-1" d="m614.1519,8h-12.083V0h12.083v8Zm-24.166,0h-12.083V0h12.083v8Zm-24.166,0h-12.083V0h12.083v8Zm-24.166,0h-12.083V0h12.083v8Zm-24.1665,0h-12.083V0h12.083v8Zm-24.166,0h-12.083V0h12.083v8Zm-24.166,0h-12.083V0h12.083v8Zm-24.166,0h-12.083V0h12.083v8Zm-24.166,0h-12.083V0h12.083v8Zm-24.166,0h-12.083V0h12.083v8Zm-24.166,0h-12.083V0h12.083v8Zm-24.1665,0h-12.083V0h12.083v8Zm-24.166,0h-12.083V0h12.083v8Zm-24.166,0h-12.083V0h12.083v8Zm-24.166,0h-12.083V0h12.083v8Zm-24.166,0h-12.083V0h12.083v8Zm-24.166,0h-12.083V0h12.083v8Zm-24.166,0h-12.083V0h12.083v8Zm-24.166,0h-12.083V0h12.083v8Zm-24.1665,0h-12.083V0h12.083v8Zm-24.166,0h-12.083V0h12.083v8Zm-24.166,0h-12.083V0h12.083v8Zm-24.166,0h-12.083V0h12.083v8Zm-24.166,0h-12.083V0h12.083v8Zm-24.1665,0h-12.083V0h12.083v8Z"/><polygon class="cls-1" points="8 10 0 10 0 0 10 0 10 8 8 8 8 10"/><path class="cls-1" d="m8,264.5474H0v-11.5703h8v11.5703Zm0-23.1406H0v-11.5703h8v11.5703Zm0-23.1406H0v-11.5703h8v11.5703Zm0-23.1406H0v-11.5703h8v11.5703Zm0-23.1406H0v-11.5703h8v11.5703Zm0-23.1411H0v-11.5703h8v11.5703Zm0-23.1406H0v-11.5703h8v11.5703Zm0-23.1406H0v-11.5703h8v11.5703Zm0-23.1406H0v-11.5703h8v11.5703Zm0-23.1406H0v-11.5703h8v11.5703Zm0-23.1406H0v-11.5703h8v11.5703Z"/><rect class="cls-1" y="276.1177" width="8" height="6"/></svg>