<?xml version="1.0" encoding="UTF-8"?><svg id="Camada_1" xmlns="http://www.w3.org/2000/svg" viewBox="0 0 290.8235 290.8235"><defs><style>.cls-1{fill:#fff;}.cls-2{fill:#63bc98;}</style></defs><circle class="cls-2" cx="145.4118" cy="145.4118" r="145.4118"/><g><circle class="cls-1" cx="206.0466" cy="91.2696" r="22.6225"/><rect class="cls-1" x="31.7647" y="184.5882" width="141.2866" height="5.2941"/><path class="cls-1" d="m39.5294,57.1764v124.2353h133.5219v-21.1422l-15.9209,14.6953c-3.2324,2.9829-7.4355,4.5225-11.8276,4.3389-4.395-.1855-8.4502-2.0747-11.4199-5.3198l-27.3188-29.855c-5.3882-5.8887-5-15.0835.8652-20.4966,5.8906-5.4365,15.106-5.0669,20.5425.8228l18.3613,19.8926c.2949.3203.7974.3408,1.1191.0449l23.1929-21.3232c3.1162-2.8657,7.1655-4.4629,11.4009-4.4961l50.8936-.397h.0312c5.2501,0,10.2504,1.0847,14.794,3.036V57.1764H39.5294Zm53.7374,57.9997l-11.5731-18.8233-11.5731,18.8233h-11.3008l16.5087-25.6651-15.4535-24.0993h11.6412l10.7221,17.9043,10.5179-17.9043h11.3689l-15.6237,24.6779,16.815,25.0864h-12.0496Zm-20.2138,37.8125v8.726h-4.7232v-8.5726l-7.4378-13.8479h5.1526l4.6467,9.2321,4.6773-9.2321h5.1221l-7.4378,13.6945Zm81.6536-56.513h-16.3989v-3.3428l9.6201-13.0933h-9.0444v-4.3276h15.4893v3.6772l-9.3604,12.7593h9.6943v4.3271Zm51.3398,21.4165c-14.6797,0-26.6226-11.9429-26.6226-26.6226s11.9429-26.6226,26.6226-26.6226,26.6226,11.9429,26.6226,26.6226-11.9429,26.6226-26.6226,26.6226Z"/><path class="cls-1" d="m256.071,220.3137h0c5.8071,0,10.5147-4.7076,10.5147-10.5147v-54.0074c0-18.5652-15.0501-33.6152-33.6152-33.6152l-50.8937.397c-3.2344.0252-6.344,1.2515-8.7251,3.4407l-23.1862,21.3175c-1.9448,1.7952-4.9767,1.6738-6.7719-.271l-18.3615-19.8927c-3.9473-4.2764-10.6138-4.5433-14.8903-.596-4.2634,3.9352-4.5436,10.5764-.6269,14.8568l27.3187,29.8549c4.6439,5.075,12.5286,5.4077,17.5835.7419l22.6341-20.8918v136.2275c7.2267-1.6038,14.2516-3.7418,21.0294-6.3768v-54.0325c0-2.7276,2.2111-4.9387,4.9387-4.9387h8.6029c2.7276,0,4.9387,2.2111,4.9387,4.9387v45.2941c7.4385-4.1818,14.4747-8.9935,21.0295-14.3725v-103.0377c0-2.1996,1.7831-3.9828,3.9828-3.9828h0c2.1996,0,3.9828,1.7832,3.9828,3.9828v54.9633c0,5.8071,4.7076,10.5147,10.5146,10.5147Z"/></g></svg>