<?xml version="1.0" encoding="UTF-8"?><svg id="Camada_1" xmlns="http://www.w3.org/2000/svg" viewBox="0 0 290.8235 338.0429"><defs><style>.cls-1{fill:#fff;}.cls-2{fill:#63bc98;}</style></defs><g><circle class="cls-2" cx="145.4118" cy="145.4118" r="145.4118"/><g><circle class="cls-1" cx="206.0466" cy="91.2696" r="22.6225"/><rect class="cls-1" x="31.7647" y="184.5882" width="141.2866" height="5.2941"/><path class="cls-1" d="m39.5294,57.1764v124.2353h133.5219v-21.1422l-15.9209,14.6953c-3.2324,2.9829-7.4355,4.5225-11.8276,4.3389-4.395-.1855-8.4502-2.0747-11.4199-5.3198l-27.3188-29.855c-5.3882-5.8887-5-15.0835.8652-20.4966,5.8906-5.4365,15.106-5.0669,20.5425.8228l18.3613,19.8926c.2949.3203.7974.3408,1.1191.0449l23.1929-21.3232c3.1162-2.8657,7.1655-4.4629,11.4009-4.4961l50.8936-.397h.0312c5.2501,0,10.2504,1.0847,14.794,3.036V57.1764H39.5294Zm53.7374,57.9997l-11.5731-18.8233-11.5731,18.8233h-11.3008l16.5087-25.6651-15.4535-24.0993h11.6412l10.7221,17.9043,10.5179-17.9043h11.3689l-15.6237,24.6779,16.815,25.0864h-12.0496Zm-20.2138,37.8125v8.726h-4.7232v-8.5726l-7.4378-13.8479h5.1526l4.6467,9.2321,4.6773-9.2321h5.1221l-7.4378,13.6945Zm81.6536-56.513h-16.3989v-3.3428l9.6201-13.0933h-9.0444v-4.3276h15.4893v3.6772l-9.3604,12.7593h9.6943v4.3271Zm51.3398,21.4165c-14.6797,0-26.6226-11.9429-26.6226-26.6226s11.9429-26.6226,26.6226-26.6226,26.6226,11.9429,26.6226,26.6226-11.9429,26.6226-26.6226,26.6226Z"/><path class="cls-1" d="m256.071,220.3137h0c5.8071,0,10.5147-4.7076,10.5147-10.5147v-54.0074c0-18.5652-15.0501-33.6152-33.6152-33.6152l-50.8937.397c-3.2344.0252-6.344,1.2515-8.7251,3.4407l-23.1862,21.3175c-1.9448,1.7952-4.9767,1.6738-6.7719-.271l-18.3615-19.8927c-3.9473-4.2764-10.6138-4.5433-14.8903-.596-4.2634,3.9352-4.5436,10.5764-.6269,14.8568l27.3187,29.8549c4.6439,5.075,12.5286,5.4077,17.5835.7419l22.6341-20.8918v136.2275c7.2267-1.6038,14.2516-3.7418,21.0294-6.3768v-54.0325c0-2.7276,2.2111-4.9387,4.9387-4.9387h8.6029c2.7276,0,4.9387,2.2111,4.9387,4.9387v45.2941c7.4385-4.1818,14.4747-8.9935,21.0295-14.3725v-103.0377c0-2.1996,1.7831-3.9828,3.9828-3.9828h0c2.1996,0,3.9828,1.7832,3.9828,3.9828v54.9633c0,5.8071,4.7076,10.5147,10.5146,10.5147Z"/></g></g><g><path class="cls-2" d="m66.2251,329.8671h-13.9902v-24.293h13.9902v4.2207h-8.8398v5.333h8.2256v4.2207h-8.2256v6.2646h8.8398v4.2539Z"/><path class="cls-2" d="m90.9341,329.8671h-5.8818l-5.6494-9.1885-5.6504,9.1885h-5.5166l8.0596-12.5293-7.5439-11.7637h5.6826l5.2344,8.7402,5.1348-8.7402h5.5498l-7.627,12.0469,8.208,12.2461Z"/><path class="cls-2" d="m110.7749,313.1513c0,2.6143-.8174,4.6133-2.4512,5.998-1.6348,1.3848-3.958,2.0771-6.9707,2.0771h-2.21v8.6406h-5.1514v-24.293h7.7598c2.9473,0,5.1875.6338,6.7217,1.9023s2.3018,3.1602,2.3018,5.6748Zm-11.6318,3.8545h1.6943c1.584,0,2.7695-.3125,3.5566-.9385.7861-.626,1.1797-1.5371,1.1797-2.7334,0-1.208-.3301-2.0996-.9893-2.6758-.6592-.5752-1.6924-.8633-3.0986-.8633h-2.3428v7.2109Z"/><path class="cls-2" d="m137.4106,317.6874c0,4.0205-.9971,7.1113-2.9912,9.2715s-4.8516,3.2402-8.5742,3.2402-6.5801-1.0801-8.5742-3.2402-2.9902-5.2617-2.9902-9.3047.999-7.1309,2.999-9.2637c1.999-2.1328,4.8652-3.1992,8.5986-3.1992s6.5889,1.0752,8.5664,3.2236c1.9766,2.1494,2.9658,5.2402,2.9658,9.2725Zm-17.7295,0c0,2.7139.5146,4.7578,1.5449,6.1309,1.0303,1.374,2.5693,2.0605,4.6191,2.0605,4.1104,0,6.165-2.7305,6.165-8.1914,0-5.4727-2.0439-8.209-6.1318-8.209-2.0488,0-3.5947.6895-4.6357,2.0693-1.041,1.3789-1.5615,3.4258-1.5615,6.1396Z"/><path class="cls-2" d="m156.7856,323.121c0,2.1934-.7891,3.9209-2.3682,5.1846-1.5781,1.2627-3.7744,1.8936-6.5879,1.8936-2.5928,0-4.8857-.4873-6.8799-1.4619v-4.7852c1.6396.7305,3.0273,1.2461,4.1631,1.5449,1.1348.2988,2.1738.4482,3.1152.4482,1.1299,0,1.9961-.2158,2.6006-.6475.6035-.4326.9053-1.0742.9053-1.9277,0-.4766-.1328-.8994-.3984-1.2715-.2656-.3711-.6562-.7275-1.1719-1.0713-.5146-.3438-1.5645-.8916-3.1484-1.6455-1.4844-.6973-2.5977-1.3682-3.3398-2.0107-.7422-.6416-1.335-1.3896-1.7783-2.2432-.4434-.8525-.665-1.8496-.665-2.9902,0-2.1494.7285-3.8389,2.1855-5.0684,1.4561-1.2295,3.4697-1.8447,6.04-1.8447,1.2627,0,2.4678.1494,3.6143.4492,1.1465.2988,2.3457.7197,3.5977,1.2627l-1.6621,4.0049c-1.2959-.5322-2.3682-.9033-3.2148-1.1133-.8477-.2109-1.6816-.3164-2.501-.3164-.9746,0-1.7227.2275-2.2432.6816-.5215.4541-.7812,1.0469-.7812,1.7783,0,.4541.1055.8496.3154,1.1875.2109.3379.5459.665,1.0059.9805.459.3154,1.5479.8838,3.2646,1.7031,2.2715,1.0859,3.8271,2.1738,4.6699,3.2656.8418,1.0908,1.2627,2.4287,1.2627,4.0127Z"/><path class="cls-2" d="m161.1889,329.8671v-24.293h5.1514v24.293h-5.1514Z"/><path class="cls-2" d="m182.7739,309.5117c-1.9385,0-3.4395.7285-4.5029,2.1855s-1.5957,3.4863-1.5957,6.0898c0,5.417,2.0332,8.125,6.0986,8.125,1.7061,0,3.7725-.4258,6.1982-1.2793v4.3203c-1.9941.8311-4.2207,1.2461-6.6797,1.2461-3.5342,0-6.2373-1.0713-8.1094-3.2148s-2.8076-5.2207-2.8076-9.2305c0-2.5254.459-4.7383,1.3789-6.6387.9189-1.8994,2.2402-3.3564,3.9629-4.3701s3.7412-1.5205,6.0566-1.5205c2.3594,0,4.7305.5713,7.1123,1.7119l-1.6621,4.1875c-.9082-.4326-1.8223-.8086-2.7412-1.1299-.9199-.3213-1.8232-.4824-2.709-.4824Zm2.5586,24.5098c0,1.418-.418,2.4424-1.2539,3.0742-.8369.6309-2.1299.9473-3.8799.9473-.8643,0-1.6729-.1172-2.4268-.3496v-2.791c.2998.0771.7012.1543,1.2051.2324.5039.0771.8945.1162,1.1719.1162.7969,0,1.1963-.3438,1.1963-1.0303,0-.9199-.9199-1.5176-2.7588-1.7949l1.2959-2.5586h3.207l-.4482,1.0137c.8193.2656,1.4727.6787,1.9609,1.2383.4873.5586.7305,1.1934.7305,1.9023Z"/><path class="cls-2" d="m209.0112,329.8671l-1.7617-5.7822h-8.8564l-1.7617,5.7822h-5.5498l8.5742-24.3926h6.2979l8.6074,24.3926h-5.5498Zm-8.9062-27.9824c-.3438,0-.6738.1475-.9893.4404-.3154.2939-.5459.7393-.6895,1.3379h-2.4756c.1211-1.6064.5781-2.8633,1.3701-3.7725.792-.9082,1.8418-1.3623,3.1494-1.3623.4541,0,.8994.0918,1.3379.2744.4375.1826.8691.3818,1.2959.5977.4258.2168.8447.4131,1.2539.5898.4102.1777.8145.2666,1.2139.2666.3428,0,.6729-.1445.9883-.4326s.5459-.7305.6895-1.3291h2.4756c-.1221,1.6064-.584,2.8643-1.3867,3.7725-.8037.9082-1.8477,1.3623-3.1328,1.3623-.4541,0-.8994-.0918-1.3369-.2744-.4385-.1826-.8701-.3818-1.2969-.5977-.4258-.2168-.8447-.416-1.2539-.5986-.4102-.1826-.8145-.2744-1.2129-.2744Zm5.915,17.8799c-1.6279-5.2402-2.5449-8.2031-2.75-8.8906-.2051-.6865-.3516-1.2295-.4404-1.6279-.3652,1.418-1.4121,4.9238-3.1406,10.5186h6.3311Z"/><path class="cls-2" d="m239.6684,317.6874c0,4.0205-.9971,7.1113-2.9902,9.2715-1.9941,2.1602-4.8525,3.2402-8.5742,3.2402s-6.5801-1.0801-8.5742-3.2402-2.9912-5.2617-2.9912-9.3047,1-7.1309,2.999-9.2637c2-2.1328,4.8662-3.1992,8.5996-3.1992s6.5879,1.0752,8.5654,3.2236c1.9775,2.1494,2.9658,5.2402,2.9658,9.2725Zm-17.7295,0c0,2.7139.5156,4.7578,1.5449,6.1309,1.0303,1.374,2.5703,2.0605,4.6201,2.0605,4.1094,0,6.1641-2.7305,6.1641-8.1914,0-5.4727-2.043-8.209-6.1309-8.209-2.0498,0-3.5947.6895-4.6367,2.0693-1.041,1.3789-1.5615,3.4258-1.5615,6.1396Z"/></g></svg>