<?xml version="1.0" encoding="UTF-8"?>
<svg id="Camada_1" data-name="Camada 1" xmlns="http://www.w3.org/2000/svg" viewBox="0 0 1773.87 541.95">
  <defs>
    <style>
      .cls-1 {
        fill: #fff;
      }

      .cls-2 {
        fill: #dcfff0;
      }

      .cls-3 {
        fill: #cc6155;
      }

      .cls-4 {
        fill: #63bc98;
      }

      .cls-5 {
        fill: #56bfcc;
      }
    </style>
  </defs>
  <rect class="cls-2" y="98.48" width="1773.87" height="443.47"/>
  <g>
    <rect class="cls-4" y="61.48" width="1773.87" height="9"/>
    <rect class="cls-4" y="79.48" width="1773.87" height="9"/>
  </g>
  <g>
    <g>
      <g>
        <path class="cls-1" d="m36.53,200.11v46.71c0,4.06,3.29,7.34,7.34,7.34h0c4.06,0,7.34-3.29,7.34-7.34v-37.76c0-.76.52-1.47,1.27-1.59.96-.16,1.79.58,1.79,1.51v97.76c0,.93.75,1.68,1.68,1.68h11.32c.93,0,1.68-.75,1.68-1.68v-45.74c0-1.18.96-2.14,2.14-2.14h4.28c1.18,0,2.14.96,2.14,2.14v45.74c0,.93.75,1.68,1.68,1.68h11.32c.93,0,1.68-.75,1.68-1.68v-97.68c0-.76.52-1.47,1.27-1.59.96-.16,1.79.58,1.79,1.51v37.84c0,4.06,3.29,7.34,7.34,7.34h0c4.06,0,7.34-3.29,7.34-7.34v-46.71c0-7.1-5.75-12.85-12.85-12.85h-47.73c-7.1,0-12.85,5.75-12.85,12.85Z"/>
        <circle class="cls-1" cx="73.24" cy="166.05" r="17.75"/>
      </g>
      <g>
        <path class="cls-5" d="m97.11,191.26c4.88,0,8.85,3.97,8.85,8.85v46.71c0,1.84-1.5,3.34-3.34,3.34s-3.34-1.5-3.34-3.34v-37.84c0-3.05-2.48-5.53-5.53-5.53-.3,0-.6.02-.9.07-2.68.44-4.63,2.77-4.63,5.54v95.36h-6.69v-43.43c0-3.39-2.76-6.14-6.14-6.14h-4.28c-3.39,0-6.14,2.76-6.14,6.14v43.43h-6.69v-95.44c0-3.05-2.48-5.53-5.53-5.53-.3,0-.6.02-.9.07-2.68.44-4.63,2.77-4.63,5.54v37.76c0,1.84-1.5,3.34-3.34,3.34s-3.34-1.5-3.34-3.34v-46.71c0-4.88,3.97-8.85,8.85-8.85h47.73m0-4h-47.73c-7.1,0-12.85,5.75-12.85,12.85v46.71c0,4.06,3.29,7.34,7.34,7.34s7.34-3.29,7.34-7.34v-37.76c0-.76.52-1.47,1.27-1.59.09-.01.17-.02.26-.02.84,0,1.53.68,1.53,1.53v97.76c0,.93.75,1.68,1.68,1.68h11.32c.93,0,1.68-.75,1.68-1.68v-45.74c0-1.18.96-2.14,2.14-2.14h4.28c1.18,0,2.14.96,2.14,2.14v45.74c0,.93.75,1.68,1.68,1.68h11.32c.93,0,1.68-.75,1.68-1.68v-97.68c0-.76.52-1.47,1.27-1.59.09-.01.17-.02.26-.02.84,0,1.53.68,1.53,1.53v37.84c0,4.06,3.29,7.34,7.34,7.34s7.34-3.29,7.34-7.34v-46.71c0-7.1-5.75-12.85-12.85-12.85h0Z"/>
        <path class="cls-5" d="m73.24,152.3c7.58,0,13.75,6.17,13.75,13.75s-6.17,13.75-13.75,13.75-13.75-6.17-13.75-13.75,6.17-13.75,13.75-13.75m0-4c-9.8,0-17.75,7.95-17.75,17.75s7.95,17.75,17.75,17.75,17.75-7.95,17.75-17.75-7.95-17.75-17.75-17.75h0Z"/>
      </g>
    </g>
    <g>
      <g>
        <path class="cls-1" d="m144.95,200.11v46.71c0,4.06,3.29,7.34,7.34,7.34h0c4.06,0,7.34-3.29,7.34-7.34v-37.76c0-.76.52-1.47,1.27-1.59.96-.16,1.79.58,1.79,1.51v97.76c0,.93.75,1.68,1.68,1.68h11.32c.93,0,1.68-.75,1.68-1.68v-45.74c0-1.18.96-2.14,2.14-2.14h4.28c1.18,0,2.14.96,2.14,2.14v45.74c0,.93.75,1.68,1.68,1.68h11.32c.93,0,1.68-.75,1.68-1.68v-97.68c0-.76.52-1.47,1.27-1.59.96-.16,1.79.58,1.79,1.51v37.84c0,4.06,3.29,7.34,7.34,7.34h0c4.06,0,7.34-3.29,7.34-7.34v-46.71c0-7.1-5.75-12.85-12.85-12.85h-47.73c-7.1,0-12.85,5.75-12.85,12.85Z"/>
        <circle class="cls-1" cx="181.66" cy="166.05" r="17.75"/>
      </g>
      <g>
        <path class="cls-5" d="m205.53,191.26c4.88,0,8.85,3.97,8.85,8.85v46.71c0,1.84-1.5,3.34-3.34,3.34s-3.34-1.5-3.34-3.34v-37.84c0-3.05-2.48-5.53-5.53-5.53-.3,0-.6.02-.9.07-2.68.44-4.63,2.77-4.63,5.54v95.36h-6.69v-43.43c0-3.39-2.76-6.14-6.14-6.14h-4.28c-3.39,0-6.14,2.76-6.14,6.14v43.43h-6.69v-95.44c0-3.05-2.48-5.53-5.53-5.53-.3,0-.6.02-.9.07-2.68.44-4.63,2.77-4.63,5.54v37.76c0,1.84-1.5,3.34-3.34,3.34s-3.34-1.5-3.34-3.34v-46.71c0-4.88,3.97-8.85,8.85-8.85h47.73m0-4h-47.73c-7.1,0-12.85,5.75-12.85,12.85v46.71c0,4.06,3.29,7.34,7.34,7.34s7.34-3.29,7.34-7.34v-37.76c0-.76.52-1.47,1.27-1.59.09-.01.17-.02.26-.02.84,0,1.53.68,1.53,1.53v97.76c0,.93.75,1.68,1.68,1.68h11.32c.93,0,1.68-.75,1.68-1.68v-45.74c0-1.18.96-2.14,2.14-2.14h4.28c1.18,0,2.14.96,2.14,2.14v45.74c0,.93.75,1.68,1.68,1.68h11.32c.93,0,1.68-.75,1.68-1.68v-97.68c0-.76.52-1.47,1.27-1.59.09-.01.17-.02.26-.02.84,0,1.53.68,1.53,1.53v37.84c0,4.06,3.29,7.34,7.34,7.34h0c4.06,0,7.34-3.29,7.34-7.34v-46.71c0-7.1-5.75-12.85-12.85-12.85h0Z"/>
        <path class="cls-5" d="m181.66,152.3c7.58,0,13.75,6.17,13.75,13.75s-6.17,13.75-13.75,13.75-13.75-6.17-13.75-13.75,6.17-13.75,13.75-13.75m0-4c-9.8,0-17.75,7.95-17.75,17.75s7.95,17.75,17.75,17.75,17.75-7.95,17.75-17.75-7.95-17.75-17.75-17.75h0Z"/>
      </g>
    </g>
    <g>
      <g>
        <path class="cls-1" d="m253.36,200.11v46.71c0,4.06,3.29,7.34,7.34,7.34h0c4.06,0,7.34-3.29,7.34-7.34v-37.76c0-.76.52-1.47,1.27-1.59.96-.16,1.79.58,1.79,1.51v97.76c0,.93.75,1.68,1.68,1.68h11.32c.93,0,1.68-.75,1.68-1.68v-45.74c0-1.18.96-2.14,2.14-2.14h4.28c1.18,0,2.14.96,2.14,2.14v45.74c0,.93.75,1.68,1.68,1.68h11.32c.93,0,1.68-.75,1.68-1.68v-97.68c0-.76.52-1.47,1.27-1.59.96-.16,1.79.58,1.79,1.51v37.84c0,4.06,3.29,7.34,7.34,7.34h0c4.06,0,7.34-3.29,7.34-7.34v-46.71c0-7.1-5.75-12.85-12.85-12.85h-47.73c-7.1,0-12.85,5.75-12.85,12.85Z"/>
        <circle class="cls-1" cx="290.08" cy="166.05" r="17.75"/>
      </g>
      <g>
        <path class="cls-5" d="m313.94,191.26c4.88,0,8.85,3.97,8.85,8.85v46.71c0,1.84-1.5,3.34-3.34,3.34s-3.34-1.5-3.34-3.34v-37.84c0-3.05-2.48-5.53-5.53-5.53-.3,0-.6.02-.9.07-2.68.44-4.63,2.77-4.63,5.54v95.36h-6.69v-43.43c0-3.39-2.76-6.14-6.14-6.14h-4.28c-3.39,0-6.14,2.76-6.14,6.14v43.43h-6.69v-95.44c0-3.05-2.48-5.53-5.53-5.53-.3,0-.6.02-.9.07-2.68.44-4.63,2.77-4.63,5.54v37.76c0,1.84-1.5,3.34-3.34,3.34s-3.34-1.5-3.34-3.34v-46.71c0-4.88,3.97-8.85,8.85-8.85h47.73m0-4h-47.73c-7.1,0-12.85,5.75-12.85,12.85v46.71c0,4.06,3.29,7.34,7.34,7.34s7.34-3.29,7.34-7.34v-37.76c0-.76.52-1.47,1.27-1.59.09-.01.17-.02.26-.02.84,0,1.53.68,1.53,1.53v97.76c0,.93.75,1.68,1.68,1.68h11.32c.93,0,1.68-.75,1.68-1.68v-45.74c0-1.18.96-2.14,2.14-2.14h4.28c1.18,0,2.14.96,2.14,2.14v45.74c0,.93.75,1.68,1.68,1.68h11.32c.93,0,1.68-.75,1.68-1.68v-97.68c0-.76.52-1.47,1.27-1.59.09-.01.17-.02.26-.02.84,0,1.53.68,1.53,1.53v37.84c0,4.06,3.29,7.34,7.34,7.34h0c4.06,0,7.34-3.29,7.34-7.34v-46.71c0-7.1-5.75-12.85-12.85-12.85h0Z"/>
        <path class="cls-5" d="m290.08,152.3c7.58,0,13.75,6.17,13.75,13.75s-6.17,13.75-13.75,13.75-13.75-6.17-13.75-13.75,6.17-13.75,13.75-13.75m0-4c-9.8,0-17.75,7.95-17.75,17.75s7.95,17.75,17.75,17.75,17.75-7.95,17.75-17.75-7.95-17.75-17.75-17.75h0Z"/>
      </g>
    </g>
    <g>
      <path class="cls-5" d="m361.78,200.11v46.71c0,4.06,3.29,7.34,7.34,7.34h0c4.06,0,7.34-3.29,7.34-7.34v-37.76c0-.76.52-1.47,1.27-1.59.96-.16,1.79.58,1.79,1.51v97.76c0,.93.75,1.68,1.68,1.68h11.32c.93,0,1.68-.75,1.68-1.68v-45.74c0-1.18.96-2.14,2.14-2.14h4.28c1.18,0,2.14.96,2.14,2.14v45.74c0,.93.75,1.68,1.68,1.68h11.32c.93,0,1.68-.75,1.68-1.68v-97.68c0-.76.52-1.47,1.27-1.59.96-.16,1.79.58,1.79,1.51v37.84c0,4.06,3.29,7.34,7.34,7.34h0c4.06,0,7.34-3.29,7.34-7.34v-46.71c0-7.1-5.75-12.85-12.85-12.85h-47.73c-7.1,0-12.85,5.75-12.85,12.85Z"/>
      <circle class="cls-5" cx="398.5" cy="166.05" r="17.75"/>
    </g>
    <g>
      <path class="cls-5" d="m470.2,200.11v46.71c0,4.06,3.29,7.34,7.34,7.34h0c4.06,0,7.34-3.29,7.34-7.34v-37.76c0-.76.52-1.47,1.27-1.59.96-.16,1.79.58,1.79,1.51v97.76c0,.93.75,1.68,1.68,1.68h11.32c.93,0,1.68-.75,1.68-1.68v-45.74c0-1.18.96-2.14,2.14-2.14h4.28c1.18,0,2.14.96,2.14,2.14v45.74c0,.93.75,1.68,1.68,1.68h11.32c.93,0,1.68-.75,1.68-1.68v-97.68c0-.76.52-1.47,1.27-1.59.96-.16,1.79.58,1.79,1.51v37.84c0,4.06,3.29,7.34,7.34,7.34h0c4.06,0,7.34-3.29,7.34-7.34v-46.71c0-7.1-5.75-12.85-12.85-12.85h-47.73c-7.1,0-12.85,5.75-12.85,12.85Z"/>
      <circle class="cls-5" cx="506.91" cy="166.05" r="17.75"/>
    </g>
  </g>
  <g>
    <g>
      <g>
        <circle class="cls-1" cx="74.72" cy="357.95" r="17.75"/>
        <path class="cls-1" d="m126.62,439.12l-20.44-50.31c-2.45-5.09-7.58-8.01-12.89-7.91v-.02h-37.16v.02c-5.31-.1-10.44,2.82-12.89,7.91l-20.44,50.31c-1.68,3.48-.21,7.67,3.27,9.34,3.48,1.68,7.67.21,9.34-3.27l15.21-34.56-8.64,44.06h15.75v43.94c0,.93.75,1.68,1.68,1.68h11.32c.93,0,1.68-.75,1.68-1.68v-43.94h4.57v43.94c0,.93.75,1.68,1.68,1.68h11.32c.93,0,1.68-.75,1.68-1.68v-43.94h15.75l-8.64-44.06,15.21,34.56c1.68,3.48,5.86,4.95,9.34,3.27,3.48-1.68,4.95-5.86,3.27-9.34Z"/>
      </g>
      <g>
        <path class="cls-3" d="m74.72,344.2c7.58,0,13.75,6.17,13.75,13.75s-6.17,13.75-13.75,13.75-13.75-6.17-13.75-13.75,6.17-13.75,13.75-13.75m0-4c-9.8,0-17.75,7.95-17.75,17.75s7.95,17.75,17.75,17.75,17.75-7.95,17.75-17.75-7.95-17.75-17.75-17.75h0Z"/>
        <path class="cls-3" d="m92.93,384.88c.12.01.24.02.37.02.03,0,.05,0,.08,0h.19c3.85,0,7.27,2.12,8.97,5.54l20.38,50.19c.03.08.07.16.1.23.35.72.39,1.54.13,2.29-.26.76-.81,1.36-1.53,1.71-.41.2-.85.3-1.3.3-1.15,0-2.17-.63-2.68-1.65l-15.17-34.48c-.65-1.48-2.11-2.39-3.66-2.39-.4,0-.8.06-1.2.18-1.94.61-3.12,2.59-2.73,4.59l7.7,39.29h-10.89c-2.21,0-4,1.79-4,4v41.62h-6.69v-41.62c0-2.21-1.79-4-4-4h-4.57c-2.21,0-4,1.79-4,4v41.62h-6.69v-41.62c0-2.21-1.79-4-4-4h-10.89l7.7-39.29c.39-2-.78-3.98-2.73-4.59-.4-.12-.8-.18-1.2-.18-1.55,0-3.01.9-3.66,2.39l-15.17,34.48c-.51,1.02-1.54,1.65-2.68,1.65-.45,0-.89-.1-1.3-.3-.72-.35-1.27-.96-1.53-1.71-.26-.76-.22-1.57.13-2.29.04-.08.07-.15.1-.23l20.38-50.19c1.7-3.42,5.12-5.54,8.97-5.54h.19s.05,0,.08,0c.12,0,.24,0,.36-.02h36.43m.36-4h-37.15v.02c-.09,0-.18,0-.27,0-5.21,0-10.21,2.91-12.62,7.91l-20.44,50.31c-1.68,3.48-.21,7.67,3.27,9.34.98.47,2.01.7,3.03.7,2.6,0,5.11-1.46,6.31-3.96l15.21-34.56-8.64,44.06h15.75v43.94c0,.93.75,1.68,1.68,1.68h11.32c.93,0,1.68-.75,1.68-1.68v-43.94h4.57v43.94c0,.93.75,1.68,1.68,1.68h11.32c.93,0,1.68-.75,1.68-1.68v-43.94h15.75l-8.64-44.06,15.21,34.56c1.21,2.5,3.71,3.96,6.31,3.96,1.02,0,2.05-.22,3.03-.7,3.48-1.68,4.95-5.86,3.27-9.34l-20.44-50.31c-2.41-5.01-7.41-7.91-12.62-7.91-.09,0-.18,0-.26,0v-.02h0Z"/>
      </g>
    </g>
    <g>
      <g>
        <circle class="cls-1" cx="182.77" cy="357.95" r="17.75"/>
        <path class="cls-1" d="m234.67,439.12l-20.44-50.31c-2.45-5.09-7.58-8.01-12.89-7.91v-.02h-37.16v.02c-5.31-.1-10.44,2.82-12.89,7.91l-20.44,50.31c-1.68,3.48-.21,7.67,3.27,9.34,3.48,1.68,7.67.21,9.34-3.27l15.21-34.56-8.64,44.06h15.75v43.94c0,.93.75,1.68,1.68,1.68h11.32c.93,0,1.68-.75,1.68-1.68v-43.94h4.57v43.94c0,.93.75,1.68,1.68,1.68h11.32c.93,0,1.68-.75,1.68-1.68v-43.94h15.75l-8.64-44.06,15.21,34.56c1.68,3.48,5.86,4.95,9.34,3.27,3.48-1.68,4.95-5.86,3.27-9.34Z"/>
      </g>
      <g>
        <path class="cls-3" d="m182.77,344.2c7.58,0,13.75,6.17,13.75,13.75s-6.17,13.75-13.75,13.75-13.75-6.17-13.75-13.75,6.17-13.75,13.75-13.75m0-4c-9.8,0-17.75,7.95-17.75,17.75s7.95,17.75,17.75,17.75,17.75-7.95,17.75-17.75-7.95-17.75-17.75-17.75h0Z"/>
        <path class="cls-3" d="m200.98,384.88c.12.01.24.02.37.02.03,0,.05,0,.08,0h.19c3.85,0,7.27,2.12,8.97,5.54l20.38,50.19c.03.08.07.16.1.23.35.72.39,1.54.13,2.29-.26.76-.81,1.36-1.53,1.71-.41.2-.85.3-1.3.3-1.15,0-2.17-.63-2.68-1.65l-15.17-34.48c-.65-1.48-2.11-2.39-3.66-2.39-.4,0-.8.06-1.2.18-1.94.61-3.12,2.59-2.73,4.59l7.7,39.29h-10.89c-2.21,0-4,1.79-4,4v41.62h-6.69v-41.62c0-2.21-1.79-4-4-4h-4.57c-2.21,0-4,1.79-4,4v41.62h-6.69v-41.62c0-2.21-1.79-4-4-4h-10.89l7.7-39.29c.39-2-.78-3.98-2.73-4.59-.4-.12-.8-.18-1.2-.18-1.55,0-3.01.9-3.66,2.39l-15.17,34.48c-.51,1.02-1.54,1.65-2.68,1.65-.45,0-.89-.1-1.3-.3-1.49-.72-2.12-2.51-1.4-4,.04-.08.07-.15.1-.23l20.38-50.19c1.7-3.42,5.12-5.54,8.97-5.54h.19s.05,0,.08,0c.12,0,.24,0,.36-.02h36.43m.36-4h-37.15v.02c-.09,0-.18,0-.27,0-5.21,0-10.21,2.91-12.62,7.91l-20.44,50.31c-1.68,3.48-.21,7.67,3.27,9.34.98.47,2.01.7,3.03.7,2.6,0,5.11-1.46,6.31-3.96l15.21-34.56-8.64,44.06h15.75v43.94c0,.93.75,1.68,1.68,1.68h11.32c.93,0,1.68-.75,1.68-1.68v-43.94h4.57v43.94c0,.93.75,1.68,1.68,1.68h11.32c.93,0,1.68-.75,1.68-1.68v-43.94h15.75l-8.64-44.06,15.21,34.56c1.21,2.5,3.71,3.96,6.31,3.96,1.02,0,2.05-.22,3.03-.7,3.48-1.68,4.95-5.86,3.27-9.34l-20.44-50.31c-2.41-5.01-7.41-7.91-12.62-7.91-.09,0-.18,0-.26,0v-.02h0Z"/>
      </g>
    </g>
    <g>
      <g>
        <circle class="cls-1" cx="290.82" cy="357.95" r="17.75"/>
        <path class="cls-1" d="m342.72,439.12l-20.44-50.31c-2.45-5.09-7.58-8.01-12.89-7.91v-.02h-37.16v.02c-5.31-.1-10.44,2.82-12.89,7.91l-20.44,50.31c-1.68,3.48-.21,7.67,3.27,9.34,3.48,1.68,7.67.21,9.34-3.27l15.21-34.56-8.64,44.06h15.75v43.94c0,.93.75,1.68,1.68,1.68h11.32c.93,0,1.68-.75,1.68-1.68v-43.94h4.57v43.94c0,.93.75,1.68,1.68,1.68h11.32c.93,0,1.68-.75,1.68-1.68v-43.94h15.75l-8.64-44.06,15.21,34.56c1.68,3.48,5.86,4.95,9.34,3.27,3.48-1.68,4.95-5.86,3.27-9.34Z"/>
      </g>
      <g>
        <path class="cls-3" d="m290.82,344.2c7.58,0,13.75,6.17,13.75,13.75s-6.17,13.75-13.75,13.75-13.75-6.17-13.75-13.75,6.17-13.75,13.75-13.75m0-4c-9.8,0-17.75,7.95-17.75,17.75s7.95,17.75,17.75,17.75,17.75-7.95,17.75-17.75-7.95-17.75-17.75-17.75h0Z"/>
        <path class="cls-3" d="m309.03,384.88c.12.01.24.02.37.02.03,0,.05,0,.08,0h.19c3.85,0,7.27,2.12,8.97,5.54l20.38,50.19c.03.08.07.16.1.23.35.72.39,1.54.13,2.29-.26.76-.81,1.36-1.53,1.71-.41.2-.85.3-1.3.3-1.15,0-2.17-.63-2.68-1.65l-15.17-34.48c-.65-1.48-2.11-2.39-3.66-2.39-.4,0-.8.06-1.2.18-1.94.61-3.12,2.59-2.73,4.59l7.7,39.29h-10.89c-2.21,0-4,1.79-4,4v41.62h-6.69v-41.62c0-2.21-1.79-4-4-4h-4.57c-2.21,0-4,1.79-4,4v41.62h-6.69v-41.62c0-2.21-1.79-4-4-4h-10.89l7.7-39.29c.39-2-.78-3.98-2.73-4.59-.4-.12-.8-.18-1.2-.18-1.55,0-3.01.9-3.66,2.39l-15.17,34.48c-.51,1.02-1.54,1.65-2.68,1.65-.45,0-.89-.1-1.3-.3-.72-.35-1.27-.96-1.53-1.71-.26-.76-.22-1.57.13-2.29.04-.08.07-.15.1-.23l20.38-50.19c1.7-3.42,5.12-5.54,8.97-5.54h.19s.05,0,.08,0c.12,0,.24,0,.36-.02h36.43m.36-4h-37.15v.02c-.09,0-.18,0-.27,0-5.21,0-10.21,2.91-12.62,7.91l-20.44,50.31c-1.68,3.48-.21,7.67,3.27,9.34.98.47,2.01.7,3.03.7,2.6,0,5.11-1.46,6.31-3.96l15.21-34.56-8.64,44.06h15.75v43.94c0,.93.75,1.68,1.68,1.68h11.32c.93,0,1.68-.75,1.68-1.68v-43.94h4.57v43.94c0,.93.75,1.68,1.68,1.68h11.32c.93,0,1.68-.75,1.68-1.68v-43.94h15.75l-8.64-44.06,15.21,34.56c1.21,2.5,3.71,3.96,6.31,3.96,1.02,0,2.05-.22,3.03-.7,3.48-1.68,4.95-5.86,3.27-9.34l-20.44-50.31c-2.41-5.01-7.41-7.91-12.62-7.91-.09,0-.18,0-.26,0v-.02h0Z"/>
      </g>
    </g>
    <g>
      <g>
        <circle class="cls-1" cx="398.86" cy="357.95" r="17.75"/>
        <path class="cls-1" d="m450.77,439.12l-20.44-50.31c-2.45-5.09-7.58-8.01-12.89-7.91v-.02h-37.16v.02c-5.31-.1-10.44,2.82-12.89,7.91l-20.44,50.31c-1.68,3.48-.21,7.67,3.27,9.34,3.48,1.68,7.67.21,9.34-3.27l15.21-34.56-8.64,44.06h15.75v43.94c0,.93.75,1.68,1.68,1.68h11.32c.93,0,1.68-.75,1.68-1.68v-43.94h4.57v43.94c0,.93.75,1.68,1.68,1.68h11.32c.93,0,1.68-.75,1.68-1.68v-43.94h15.75l-8.64-44.06,15.21,34.56c1.68,3.48,5.86,4.95,9.34,3.27,3.48-1.68,4.95-5.86,3.27-9.34Z"/>
      </g>
      <g>
        <path class="cls-3" d="m398.86,344.2c7.58,0,13.75,6.17,13.75,13.75s-6.17,13.75-13.75,13.75-13.75-6.17-13.75-13.75,6.17-13.75,13.75-13.75m0-4c-9.8,0-17.75,7.95-17.75,17.75s7.95,17.75,17.75,17.75,17.75-7.95,17.75-17.75-7.95-17.75-17.75-17.75h0Z"/>
        <path class="cls-3" d="m417.08,384.88c.12.01.24.02.37.02.03,0,.05,0,.08,0h.19c3.85,0,7.27,2.12,8.97,5.54l20.38,50.19c.03.08.07.16.1.23.35.72.39,1.54.13,2.29-.26.76-.81,1.36-1.53,1.71-.41.2-.85.3-1.3.3-1.15,0-2.17-.63-2.68-1.65l-15.17-34.48c-.65-1.48-2.11-2.39-3.66-2.39-.4,0-.8.06-1.2.18-1.94.61-3.12,2.59-2.73,4.59l7.7,39.29h-10.89c-2.21,0-4,1.79-4,4v41.62h-6.69v-41.62c0-2.21-1.79-4-4-4h-4.57c-2.21,0-4,1.79-4,4v41.62h-6.69v-41.62c0-2.21-1.79-4-4-4h-10.89l7.7-39.29c.39-2-.78-3.98-2.73-4.59-.4-.12-.8-.18-1.2-.18-1.55,0-3.01.9-3.66,2.39l-15.17,34.48c-.51,1.02-1.54,1.65-2.68,1.65-.45,0-.89-.1-1.3-.3-.72-.35-1.27-.96-1.53-1.71-.26-.76-.22-1.57.13-2.29.04-.08.07-.15.1-.23l20.38-50.19c1.7-3.42,5.12-5.54,8.97-5.54h.19s.05,0,.08,0c.12,0,.24,0,.36-.02h36.43m.36-4h-37.15v.02c-.09,0-.18,0-.27,0-5.21,0-10.21,2.91-12.62,7.91l-20.44,50.31c-1.68,3.48-.21,7.67,3.27,9.34.98.47,2.01.7,3.03.7,2.6,0,5.11-1.46,6.31-3.96l15.21-34.56-8.64,44.06h15.75v43.94c0,.93.75,1.68,1.68,1.68h11.32c.93,0,1.68-.75,1.68-1.68v-43.94h4.57v43.94c0,.93.75,1.68,1.68,1.68h11.32c.93,0,1.68-.75,1.68-1.68v-43.94h15.75l-8.64-44.06,15.21,34.56c1.21,2.5,3.71,3.96,6.31,3.96,1.02,0,2.05-.22,3.03-.7,3.48-1.68,4.95-5.86,3.27-9.34l-20.44-50.31c-2.41-5.01-7.41-7.91-12.62-7.91-.09,0-.18,0-.26,0v-.02h0Z"/>
      </g>
    </g>
    <g>
      <circle class="cls-3" cx="506.91" cy="357.95" r="17.75"/>
      <path class="cls-3" d="m558.82,439.12l-20.44-50.31c-2.45-5.09-7.58-8.01-12.89-7.91v-.02h-37.16v.02c-5.31-.1-10.44,2.82-12.89,7.91l-20.44,50.31c-1.68,3.48-.21,7.67,3.27,9.34,3.48,1.68,7.67.21,9.34-3.27l15.21-34.56-8.64,44.06h15.75v43.94c0,.93.75,1.68,1.68,1.68h11.32c.93,0,1.68-.75,1.68-1.68v-43.94h4.57v43.94c0,.93.75,1.68,1.68,1.68h11.32c.93,0,1.68-.75,1.68-1.68v-43.94h15.75l-8.64-44.06,15.21,34.56c1.68,3.48,5.86,4.95,9.34,3.27,3.48-1.68,4.95-5.86,3.27-9.34Z"/>
    </g>
  </g>
  <rect class="cls-4" x="829.12" y="98.48" width="944.75" height="443.47"/>
  <g>
    <path class="cls-4" d="m360.7.67l-14.56,42.83h-9.9L321.71.67h9.17l8.06,25.49c.14.43.36,1.23.67,2.42.31,1.18.63,2.43.95,3.75s.54,2.41.66,3.27c.12-.86.33-1.94.63-3.25.3-1.31.6-2.55.91-3.74.3-1.18.52-2,.66-2.45l8.12-25.49h9.17Z"/>
    <path class="cls-4" d="m392.32,43.51l-3.11-10.2h-15.62l-3.11,10.2h-9.79L375.82.5h11.1l15.18,43.01h-9.79Zm-5.27-17.81l-3.11-9.96c-.2-.66-.45-1.52-.78-2.56-.32-1.04-.64-2.11-.97-3.19s-.58-2.03-.78-2.83c-.2.8-.46,1.79-.81,2.97-.34,1.18-.67,2.3-.98,3.35s-.54,1.81-.67,2.26l-3.08,9.96h11.16Z"/>
    <path class="cls-4" d="m407.49,43.51V.67h9.08v35.33h17.37v7.5h-26.46Z"/>
    <path class="cls-4" d="m480.26,22.03c0,3.3-.41,6.3-1.23,9.01-.82,2.71-2.07,5.04-3.74,6.99s-3.78,3.45-6.34,4.5c-2.56,1.04-5.59,1.57-9.08,1.57s-6.52-.52-9.08-1.57c-2.56-1.04-4.67-2.54-6.34-4.5s-2.92-4.29-3.74-7-1.23-5.73-1.23-9.05c0-4.43.73-8.3,2.18-11.59,1.45-3.29,3.7-5.84,6.72-7.66s6.88-2.72,11.54-2.72,8.47.91,11.47,2.72c3,1.82,5.22,4.38,6.68,7.68,1.45,3.3,2.18,7.18,2.18,11.63Zm-31.26,0c0,2.99.38,5.56,1.13,7.72.75,2.16,1.93,3.82,3.53,4.98,1.6,1.16,3.67,1.74,6.21,1.74s4.67-.58,6.27-1.74c1.6-1.16,2.77-2.82,3.5-4.98.73-2.16,1.1-4.73,1.1-7.72,0-4.49-.84-8.03-2.52-10.61s-4.44-3.87-8.29-3.87c-2.56,0-4.64.58-6.25,1.74-1.61,1.16-2.79,2.82-3.54,4.98-.75,2.16-1.13,4.74-1.13,7.75Z"/>
    <path class="cls-4" d="m501.62.67c3.89,0,7.09.47,9.62,1.41,2.53.94,4.41,2.35,5.64,4.25,1.23,1.89,1.85,4.29,1.85,7.18,0,1.95-.37,3.66-1.11,5.13s-1.72,2.71-2.93,3.72c-1.21,1.02-2.52,1.85-3.93,2.49l12.6,18.66h-10.08l-10.22-16.44h-4.83v16.44h-9.08V.67h12.48Zm-.64,7.44h-2.75v11.57h2.93c3.01,0,5.16-.5,6.46-1.51,1.3-1.01,1.95-2.49,1.95-4.44s-.7-3.48-2.09-4.34c-1.4-.86-3.56-1.29-6.49-1.29Z"/>
    <path class="cls-4" d="m525.15,31.08v-7.32h15.73v7.32h-15.73Z"/>
    <path class="cls-4" d="m561.74.67c5.53,0,9.56,1.19,12.1,3.56s3.81,5.64,3.81,9.8c0,1.88-.28,3.67-.85,5.38-.57,1.71-1.49,3.23-2.77,4.56-1.28,1.33-2.98,2.38-5.11,3.15-2.13.77-4.76,1.16-7.88,1.16h-3.9v15.23h-9.08V.67h13.68Zm-.47,7.44h-4.13v12.71h2.99c1.7,0,3.17-.22,4.42-.67,1.25-.45,2.22-1.15,2.9-2.11.68-.96,1.03-2.19,1.03-3.69,0-2.11-.59-3.68-1.76-4.7s-2.99-1.54-5.45-1.54Z"/>
    <path class="cls-4" d="m614.12,10.14c3.03,0,5.63.58,7.82,1.74,2.19,1.16,3.88,2.85,5.07,5.05,1.19,2.21,1.79,4.9,1.79,8.09v4.34h-21.12c.1,2.52.85,4.5,2.27,5.93,1.42,1.44,3.38,2.15,5.9,2.15,2.09,0,4-.21,5.74-.64s3.53-1.07,5.36-1.93v6.91c-1.62.8-3.32,1.39-5.08,1.76-1.77.37-3.91.56-6.43.56-3.28,0-6.19-.61-8.72-1.82-2.53-1.21-4.51-3.06-5.95-5.54s-2.15-5.61-2.15-9.38.65-7.02,1.95-9.57c1.3-2.55,3.11-4.46,5.43-5.74,2.32-1.28,5.03-1.92,8.12-1.92Zm.06,6.36c-1.74,0-3.18.56-4.32,1.67s-1.8,2.86-1.98,5.24h12.54c-.02-1.33-.26-2.51-.72-3.55-.46-1.04-1.14-1.86-2.05-2.46-.91-.6-2.07-.91-3.47-.91Z"/>
    <path class="cls-4" d="m652.35,43.51V.67h9.08v42.83h-9.08Z"/>
    <path class="cls-4" d="m710.22,43.51h-11.54l-18.63-32.4h-.26c.08,1.35.15,2.71.21,4.07.06,1.37.12,2.73.18,4.09.06,1.36.12,2.72.18,4.09v20.16h-8.12V.67h11.46l18.6,32.08h.21c-.04-1.33-.09-2.65-.15-3.96s-.11-2.62-.16-3.93c-.05-1.31-.09-2.62-.13-3.93V.67h8.17v42.83Z"/>
    <path class="cls-4" d="m737.52,43.51h-9.08V8.23h-11.63V.67h32.34v7.56h-11.63v35.27Z"/>
    <path class="cls-4" d="m780.41,43.51h-24.67V.67h24.67v7.44h-15.59v9.4h14.5v7.44h-14.5v11.04h15.59v7.5Z"/>
    <path class="cls-4" d="m801.83.67c3.89,0,7.09.47,9.62,1.41,2.53.94,4.41,2.35,5.64,4.25,1.23,1.89,1.85,4.29,1.85,7.18,0,1.95-.37,3.66-1.11,5.13s-1.72,2.71-2.93,3.72c-1.21,1.02-2.52,1.85-3.93,2.49l12.6,18.66h-10.08l-10.22-16.44h-4.83v16.44h-9.08V.67h12.48Zm-.64,7.44h-2.75v11.57h2.93c3.01,0,5.16-.5,6.46-1.51,1.3-1.01,1.95-2.49,1.95-4.44s-.7-3.48-2.09-4.34c-1.4-.86-3.56-1.29-6.49-1.29Z"/>
    <path class="cls-4" d="m862.56.67l-14.56,42.83h-9.9l-14.53-42.83h9.17l8.06,25.49c.14.43.36,1.23.67,2.42.31,1.18.63,2.43.95,3.75s.54,2.41.66,3.27c.12-.86.33-1.94.63-3.25.3-1.31.6-2.55.91-3.74.3-1.18.52-2,.66-2.45l8.12-25.49h9.17Z"/>
    <path class="cls-4" d="m894.17,43.51l-3.11-10.2h-15.62l-3.11,10.2h-9.79L877.68.5h11.1l15.18,43.01h-9.79Zm-5.27-17.81l-3.11-9.96c-.2-.66-.45-1.52-.78-2.56-.32-1.04-.64-2.11-.97-3.19s-.58-2.03-.78-2.83c-.2.8-.46,1.79-.81,2.97-.34,1.18-.67,2.3-.98,3.35s-.54,1.81-.67,2.26l-3.08,9.96h11.16Z"/>
    <path class="cls-4" d="m909.35,43.51V.67h9.08v35.33h17.37v7.5h-26.46Z"/>
    <path class="cls-4" d="m982.12,22.03c0,3.3-.41,6.3-1.23,9.01-.82,2.71-2.07,5.04-3.74,6.99s-3.78,3.45-6.34,4.5c-2.56,1.04-5.59,1.57-9.08,1.57s-6.52-.52-9.08-1.57c-2.56-1.04-4.67-2.54-6.34-4.5s-2.92-4.29-3.74-7-1.23-5.73-1.23-9.05c0-4.43.73-8.3,2.18-11.59,1.45-3.29,3.7-5.84,6.72-7.66s6.88-2.72,11.54-2.72,8.47.91,11.47,2.72c3,1.82,5.22,4.38,6.68,7.68,1.46,3.3,2.18,7.18,2.18,11.63Zm-31.26,0c0,2.99.38,5.56,1.13,7.72.75,2.16,1.93,3.82,3.53,4.98,1.6,1.16,3.67,1.74,6.21,1.74s4.67-.58,6.27-1.74c1.6-1.16,2.77-2.82,3.5-4.98.73-2.16,1.1-4.73,1.1-7.72,0-4.49-.84-8.03-2.52-10.61s-4.44-3.87-8.29-3.87c-2.56,0-4.64.58-6.25,1.74-1.61,1.16-2.79,2.82-3.54,4.98-.75,2.16-1.13,4.74-1.13,7.75Z"/>
    <path class="cls-4" d="m1042.12,21.68c0,4.82-.92,8.85-2.77,12.08-1.85,3.23-4.52,5.67-8.01,7.29-3.5,1.63-7.71,2.45-12.63,2.45h-12.13V.67h13.45c4.49,0,8.39.8,11.69,2.39,3.3,1.59,5.86,3.95,7.68,7.06,1.82,3.12,2.72,6.97,2.72,11.56Zm-9.43.23c0-3.16-.46-5.77-1.39-7.81-.93-2.04-2.29-3.55-4.1-4.53-1.81-.98-4.04-1.46-6.69-1.46h-4.83v27.89h3.9c4.43,0,7.73-1.18,9.89-3.54s3.24-5.88,3.24-10.55Z"/>
    <path class="cls-4" d="m1075.67,43.51h-24.67V.67h24.67v7.44h-15.59v9.4h14.5v7.44h-14.5v11.04h15.59v7.5Z"/>
    <path class="cls-4" d="m1118.38,7.62c-1.74,0-3.28.34-4.61,1.01s-2.46,1.65-3.37,2.92c-.91,1.27-1.6,2.8-2.07,4.6-.47,1.8-.7,3.82-.7,6.06,0,3.03.38,5.61,1.13,7.75s1.92,3.77,3.5,4.89c1.58,1.12,3.62,1.69,6.12,1.69,1.74,0,3.48-.2,5.23-.59s3.65-.95,5.7-1.67v7.62c-1.89.78-3.76,1.34-5.6,1.68-1.84.34-3.9.51-6.18.51-4.41,0-8.04-.91-10.88-2.74-2.84-1.83-4.95-4.38-6.31-7.68-1.37-3.29-2.05-7.13-2.05-11.53,0-3.24.44-6.21,1.32-8.91s2.17-5.03,3.87-7c1.7-1.97,3.8-3.5,6.3-4.57,2.5-1.07,5.37-1.61,8.61-1.61,2.13,0,4.26.27,6.4.81,2.14.54,4.18,1.27,6.14,2.21l-2.93,7.38c-1.6-.76-3.21-1.43-4.83-1.99-1.62-.57-3.21-.85-4.78-.85Z"/>
    <path class="cls-4" d="m1177.3,22.03c0,3.3-.41,6.3-1.23,9.01-.82,2.71-2.07,5.04-3.74,6.99s-3.78,3.45-6.34,4.5c-2.56,1.04-5.59,1.57-9.08,1.57s-6.52-.52-9.08-1.57c-2.56-1.04-4.67-2.54-6.34-4.5s-2.92-4.29-3.74-7-1.23-5.73-1.23-9.05c0-4.43.73-8.3,2.18-11.59,1.46-3.29,3.7-5.84,6.72-7.66s6.88-2.72,11.54-2.72,8.47.91,11.47,2.72,5.22,4.38,6.68,7.68c1.46,3.3,2.18,7.18,2.18,11.63Zm-31.26,0c0,2.99.38,5.56,1.13,7.72.75,2.16,1.93,3.82,3.53,4.98,1.6,1.16,3.67,1.74,6.21,1.74s4.67-.58,6.27-1.74c1.6-1.16,2.77-2.82,3.5-4.98.73-2.16,1.1-4.73,1.1-7.72,0-4.49-.84-8.03-2.52-10.61s-4.44-3.87-8.29-3.87c-2.56,0-4.64.58-6.25,1.74-1.61,1.16-2.79,2.82-3.54,4.98-.75,2.16-1.13,4.74-1.13,7.75Z"/>
    <path class="cls-4" d="m1224.17,43.51h-11.54l-18.63-32.4h-.26c.08,1.35.15,2.71.21,4.07.06,1.37.12,2.73.18,4.09.06,1.36.12,2.72.18,4.09v20.16h-8.12V.67h11.46l18.6,32.08h.21c-.04-1.33-.09-2.65-.15-3.96s-.11-2.62-.16-3.93-.09-2.62-.13-3.93V.67h8.17v42.83Z"/>
    <path class="cls-4" d="m1243.89,43.51h-8.94V.67h24.55v7.44h-15.62v11.04h14.53v7.41h-14.53v16.93Z"/>
    <path class="cls-4" d="m1267.88,43.51V.67h9.08v42.83h-9.08Z"/>
    <path class="cls-4" d="m1313.97,43.51l-3.11-10.2h-15.62l-3.11,10.2h-9.79l15.12-43.01h11.1l15.18,43.01h-9.79Zm-5.27-17.81l-3.11-9.96c-.2-.66-.45-1.52-.78-2.56-.32-1.04-.64-2.11-.97-3.19s-.58-2.03-.78-2.83c-.2.8-.46,1.79-.81,2.97-.34,1.18-.67,2.3-.98,3.35s-.54,1.81-.67,2.26l-3.08,9.96h11.16Z"/>
    <path class="cls-4" d="m1367.14,43.51h-11.54l-18.63-32.4h-.26c.08,1.35.15,2.71.21,4.07.06,1.37.12,2.73.18,4.09.06,1.36.12,2.72.18,4.09v20.16h-8.12V.67h11.46l18.6,32.08h.21c-.04-1.33-.09-2.65-.15-3.96s-.11-2.62-.16-3.93-.09-2.62-.13-3.93V.67h8.17v42.83Z"/>
    <path class="cls-4" d="m1396.11,7.62c-1.74,0-3.28.34-4.61,1.01s-2.46,1.65-3.37,2.92c-.91,1.27-1.6,2.8-2.07,4.6-.47,1.8-.7,3.82-.7,6.06,0,3.03.38,5.61,1.13,7.75s1.92,3.77,3.5,4.89c1.58,1.12,3.62,1.69,6.12,1.69,1.74,0,3.48-.2,5.23-.59s3.65-.95,5.7-1.67v7.62c-1.89.78-3.76,1.34-5.6,1.68-1.84.34-3.9.51-6.18.51-4.41,0-8.04-.91-10.88-2.74-2.84-1.83-4.95-4.38-6.31-7.68-1.37-3.29-2.05-7.13-2.05-11.53,0-3.24.44-6.21,1.32-8.91s2.17-5.03,3.87-7c1.7-1.97,3.8-3.5,6.3-4.57,2.5-1.07,5.37-1.61,8.61-1.61,2.13,0,4.26.27,6.4.81,2.14.54,4.18,1.27,6.14,2.21l-2.93,7.38c-1.6-.76-3.21-1.43-4.83-1.99-1.62-.57-3.21-.85-4.78-.85Zm5.6,43.21c0,2.25-.65,3.99-1.96,5.23s-3.67,1.86-7.09,1.86c-.88,0-1.67-.06-2.37-.18s-1.34-.26-1.9-.44v-4.92c.57.14,1.26.27,2.08.41.82.14,1.52.21,2.11.21s1.06-.13,1.48-.4.63-.74.63-1.42c0-.72-.36-1.37-1.08-1.93-.72-.57-1.98-.98-3.78-1.23l2.29-4.51h5.65l-.79,1.79c.8.25,1.56.63,2.29,1.13s1.31,1.11,1.77,1.85.69,1.59.69,2.56Z"/>
    <path class="cls-4" d="m1442.37,43.51l-3.11-10.2h-15.62l-3.11,10.2h-9.79l15.12-43.01h11.1l15.18,43.01h-9.79Zm-5.27-17.81l-3.11-9.96c-.2-.66-.45-1.52-.78-2.56-.32-1.04-.64-2.11-.97-3.19s-.58-2.03-.78-2.83c-.2.8-.46,1.79-.81,2.97-.34,1.18-.67,2.3-.98,3.35s-.54,1.81-.67,2.26l-3.08,9.96h11.16Z"/>
  </g>
</svg>