<?xml version="1.0" encoding="UTF-8"?>
<svg id="Camada_1" data-name="Camada 1" xmlns="http://www.w3.org/2000/svg" viewBox="0 0 266.17 363.05">
  <defs>
    <style>
      .cls-1 {
        fill: #fff;
      }

      .cls-2 {
        fill: #6eb7ff;
      }

      .cls-3 {
        fill: #cc6155;
      }

      .cls-4 {
        fill: #00505a;
      }
    </style>
  </defs>
  <g>
    <circle class="cls-1" cx="132.03" cy="121.16" r="121.16"/>
    <g>
      <path class="cls-2" d="m57.97,135.9h17.81v-6c0-.83.67-1.5,1.5-1.5.52,0,.98.27,1.25.67v-19.13c-5.62,11.68-11.97,21.31-20.56,25.95Z"/>
      <path class="cls-2" d="m185.28,128.4c.83,0,1.5.67,1.5,1.5v6h19.31c-9.5-5.13-16.25-16.35-22.31-29.7v23.7c0-.83.67-1.5,1.5-1.5Z"/>
    </g>
    <g>
      <path class="cls-4" d="m218.03,138.9H46.03c-.83,0-1.5-.67-1.5-1.5s.67-1.5,1.5-1.5h172c.83,0,1.5.67,1.5,1.5s-.67,1.5-1.5,1.5Z"/>
      <rect class="cls-3" x="131.03" y="33.9" width="2" height="103.5"/>
      <path class="cls-4" d="m23.28,138.9c-.83,0-1.5-.67-1.5-1.5v-7.5c0-.83.67-1.5,1.5-1.5s1.5.67,1.5,1.5v7.5c0,.83-.67,1.5-1.5,1.5Z"/>
      <path class="cls-4" d="m50.28,138.9c-.83,0-1.5-.67-1.5-1.5v-7.5c0-.83.67-1.5,1.5-1.5s1.5.67,1.5,1.5v7.5c0,.83-.67,1.5-1.5,1.5Z"/>
      <path class="cls-4" d="m77.28,138.9c-.83,0-1.5-.67-1.5-1.5v-7.5c0-.83.67-1.5,1.5-1.5s1.5.67,1.5,1.5v7.5c0,.83-.67,1.5-1.5,1.5Z"/>
      <path class="cls-4" d="m104.28,138.9c-.83,0-1.5-.67-1.5-1.5v-7.5c0-.83.67-1.5,1.5-1.5s1.5.67,1.5,1.5v7.5c0,.83-.67,1.5-1.5,1.5Z"/>
      <path class="cls-4" d="m158.28,138.9c-.83,0-1.5-.67-1.5-1.5v-7.5c0-.83.67-1.5,1.5-1.5s1.5.67,1.5,1.5v7.5c0,.83-.67,1.5-1.5,1.5Z"/>
      <path class="cls-4" d="m185.28,138.9c-.83,0-1.5-.67-1.5-1.5v-7.5c0-.83.67-1.5,1.5-1.5s1.5.67,1.5,1.5v7.5c0,.83-.67,1.5-1.5,1.5Z"/>
      <path class="cls-4" d="m212.28,138.9c-.83,0-1.5-.67-1.5-1.5v-7.5c0-.83.67-1.5,1.5-1.5s1.5.67,1.5,1.5v7.5c0,.83-.67,1.5-1.5,1.5Z"/>
      <path class="cls-4" d="m239.28,138.9c-.83,0-1.5-.67-1.5-1.5v-7.5c0-.83.67-1.5,1.5-1.5s1.5.67,1.5,1.5v7.5c0,.83-.67,1.5-1.5,1.5Z"/>
      <path class="cls-4" d="m218.03,135.9c-19.3,0-28.86-23.67-38.98-48.72-10.88-26.93-22.13-54.78-47.02-54.78s-36.14,27.85-47.02,54.78c-10.12,25.06-19.68,48.72-38.98,48.72H11.76c.12,1,.26,2,.4,3h33.87c21.32,0,31.25-24.58,41.76-50.6,10.51-26.01,21.37-52.9,44.24-52.9s33.73,26.89,44.24,52.9c10.51,26.02,20.44,50.6,41.76,50.6h33.87c.15-1,.28-2,.4-3h-34.27Z"/>
    </g>
    <g>
      <path class="cls-3" d="m78.53,135.87c-.55,0-1-.45-1-1v-3c0-.55.45-1,1-1s1,.45,1,1v3c0,.55-.45,1-1,1Z"/>
      <path class="cls-3" d="m78.53,126.98c-.55,0-1-.45-1-1v-5.89c0-.55.45-1,1-1s1,.45,1,1v5.89c0,.55-.45,1-1,1Zm0-11.79c-.55,0-1-.45-1-1v-5.89c0-.55.45-1,1-1s1,.45,1,1v5.89c0,.55-.45,1-1,1Zm0-11.79c-.55,0-1-.45-1-1v-5.89c0-.55.45-1,1-1s1,.45,1,1v5.89c0,.55-.45,1-1,1Z"/>
      <path class="cls-3" d="m78.53,91.62c-.55,0-1-.45-1-1v-3c0-.55.45-1,1-1s1,.45,1,1v3c0,.55-.45,1-1,1Z"/>
    </g>
    <g>
      <path class="cls-3" d="m183.91,135.87c-.55,0-1-.45-1-1v-3c0-.55.45-1,1-1s1,.45,1,1v3c0,.55-.45,1-1,1Z"/>
      <path class="cls-3" d="m183.91,126.98c-.55,0-1-.45-1-1v-5.89c0-.55.45-1,1-1s1,.45,1,1v5.89c0,.55-.45,1-1,1Zm0-11.79c-.55,0-1-.45-1-1v-5.89c0-.55.45-1,1-1s1,.45,1,1v5.89c0,.55-.45,1-1,1Zm0-11.79c-.55,0-1-.45-1-1v-5.89c0-.55.45-1,1-1s1,.45,1,1v5.89c0,.55-.45,1-1,1Z"/>
      <path class="cls-3" d="m183.91,91.62c-.55,0-1-.45-1-1v-3c0-.55.45-1,1-1s1,.45,1,1v3c0,.55-.45,1-1,1Z"/>
    </g>
  </g>
  <g>
    <path class="cls-1" d="m0,298.23v-32.12h6.81v32.12H0Z"/>
    <path class="cls-1" d="m28.32,273.21c2.62,0,4.73.71,6.33,2.14,1.6,1.43,2.39,3.72,2.39,6.87v16.02h-6.7v-14.35c0-1.76-.32-3.08-.96-3.98-.64-.89-1.64-1.34-3-1.34-2.05,0-3.45.7-4.2,2.09s-1.12,3.4-1.12,6.02v11.56h-6.7v-24.57h5.12l.9,3.14h.37c.53-.85,1.18-1.54,1.97-2.06.78-.53,1.66-.92,2.62-1.17.96-.25,1.95-.37,2.98-.37Z"/>
    <path class="cls-1" d="m54.29,293.33c.73,0,1.45-.07,2.14-.22.7-.15,1.39-.33,2.08-.55v4.99c-.72.32-1.61.59-2.67.8-1.06.21-2.22.32-3.48.32-1.47,0-2.78-.24-3.94-.71-1.17-.48-2.08-1.3-2.75-2.48-.67-1.18-1-2.82-1-4.93v-11.84h-3.21v-2.83l3.69-2.24,1.93-5.19h4.28v5.23h6.88v5.03h-6.88v11.84c0,.94.27,1.64.8,2.1.54.46,1.24.69,2.12.69Z"/>
    <path class="cls-1" d="m73.61,273.21c2.27,0,4.23.44,5.87,1.31,1.64.87,2.91,2.14,3.8,3.79.89,1.66,1.34,3.68,1.34,6.06v3.25h-15.84c.07,1.89.64,3.37,1.7,4.45,1.06,1.08,2.54,1.61,4.43,1.61,1.57,0,3-.16,4.31-.48s2.64-.81,4.02-1.45v5.19c-1.22.6-2.49,1.04-3.81,1.32-1.33.28-2.93.42-4.82.42-2.46,0-4.64-.45-6.54-1.36-1.9-.91-3.38-2.29-4.46-4.15-1.08-1.86-1.62-4.2-1.62-7.03s.49-5.26,1.46-7.17c.97-1.91,2.33-3.35,4.08-4.31,1.74-.96,3.77-1.44,6.09-1.44Zm.04,4.77c-1.3,0-2.38.42-3.24,1.25-.86.83-1.35,2.15-1.48,3.93h9.4c-.01-1-.19-1.88-.54-2.66-.34-.78-.86-1.39-1.54-1.85-.68-.45-1.55-.68-2.6-.68Z"/>
    <path class="cls-1" d="m103.78,273.21c.34,0,.73.02,1.18.06.45.04.81.08,1.09.14l-.51,6.28c-.22-.07-.53-.13-.93-.17-.4-.04-.75-.05-1.04-.05-.86,0-1.7.11-2.52.33-.81.22-1.54.58-2.19,1.07-.64.49-1.15,1.13-1.53,1.93-.37.8-.56,1.78-.56,2.93v12.5h-6.7v-24.57h5.08l.99,4.13h.33c.48-.83,1.09-1.6,1.81-2.3.72-.7,1.55-1.25,2.48-1.67.93-.42,1.94-.63,3.02-.63Z"/>
    <path class="cls-1" d="m116.34,298.23l-9.36-24.57h7.01l4.75,14c.26.82.47,1.68.63,2.59.15.91.26,1.72.32,2.44h.18c.04-.78.15-1.6.32-2.48.17-.88.39-1.73.67-2.55l4.72-14h7.01l-9.36,24.57h-6.88Z"/>
    <path class="cls-1" d="m146.16,273.16c3.3,0,5.82.72,7.58,2.15,1.76,1.44,2.64,3.62,2.64,6.55v16.37h-4.68l-1.3-3.34h-.18c-.7.88-1.42,1.6-2.15,2.15s-1.57.97-2.53,1.23-2.11.4-3.47.4c-1.45,0-2.75-.28-3.9-.83-1.15-.56-2.05-1.41-2.71-2.56-.66-1.15-.99-2.61-.99-4.38,0-2.61.92-4.53,2.75-5.77,1.83-1.24,4.58-1.92,8.24-2.05l4.26-.13v-1.08c0-1.29-.34-2.23-1.01-2.83s-1.61-.9-2.81-.9-2.35.17-3.49.51-2.29.76-3.43,1.27l-2.22-4.53c1.3-.69,2.76-1.23,4.38-1.63,1.62-.4,3.29-.59,5.02-.59Zm3.56,13.69l-2.59.09c-2.17.06-3.67.45-4.52,1.17-.84.72-1.26,1.66-1.26,2.83,0,1.03.3,1.75.9,2.19.6.43,1.38.65,2.35.65,1.43,0,2.65-.42,3.64-1.27.99-.85,1.48-2.06,1.48-3.63v-2.02Z"/>
    <path class="cls-1" d="m169.98,298.23h-6.7v-34.19h6.7v34.19Z"/>
    <path class="cls-1" d="m199.33,285.91c0,2.05-.27,3.87-.82,5.45-.55,1.58-1.35,2.92-2.39,4.01-1.05,1.09-2.31,1.92-3.78,2.47-1.47.56-3.13.83-4.98.83-1.73,0-3.31-.28-4.76-.83-1.44-.56-2.7-1.38-3.76-2.47-1.06-1.09-1.88-2.43-2.46-4.01-.58-1.58-.87-3.4-.87-5.45,0-2.72.48-5.03,1.45-6.92s2.34-3.33,4.13-4.31,3.92-1.47,6.39-1.47c2.3,0,4.34.49,6.12,1.47,1.78.98,3.18,2.42,4.2,4.31,1.02,1.89,1.53,4.2,1.53,6.92Zm-16.98,0c0,1.61.18,2.97.53,4.06s.9,1.93,1.65,2.48c.75.56,1.72.84,2.92.84s2.15-.28,2.89-.84c.74-.56,1.28-1.38,1.63-2.48.34-1.1.52-2.45.52-4.06s-.17-2.98-.52-4.05c-.34-1.08-.89-1.89-1.64-2.43s-1.72-.81-2.92-.81c-1.77,0-3.06.61-3.86,1.82-.8,1.22-1.2,3.04-1.2,5.47Z"/>
    <path class="cls-1" d="m224.34,298.67c-2.74,0-4.97-1.07-6.69-3.22-1.72-2.15-2.58-5.3-2.58-9.46s.87-7.39,2.62-9.55c1.74-2.16,4.02-3.24,6.83-3.24,1.17,0,2.2.16,3.1.48.89.32,1.67.75,2.32,1.3.65.54,1.21,1.15,1.66,1.82h.22c-.09-.47-.19-1.16-.32-2.08-.12-.92-.19-1.86-.19-2.82v-7.87h6.72v34.19h-5.14l-1.3-3.19h-.29c-.43.67-.96,1.29-1.59,1.83-.64.55-1.39.99-2.27,1.31s-1.91.48-3.1.48Zm2.35-5.34c1.83,0,3.12-.54,3.88-1.64.75-1.09,1.15-2.74,1.2-4.93v-.73c0-2.39-.37-4.21-1.1-5.48-.73-1.27-2.09-1.9-4.09-1.9-1.48,0-2.64.64-3.47,1.91s-1.25,3.11-1.25,5.52.42,4.21,1.26,5.43c.84,1.22,2.03,1.82,3.57,1.82Z"/>
    <path class="cls-1" d="m255.17,273.21c2.27,0,4.23.44,5.87,1.31,1.64.87,2.91,2.14,3.8,3.79.89,1.66,1.34,3.68,1.34,6.06v3.25h-15.84c.07,1.89.64,3.37,1.7,4.45,1.06,1.08,2.54,1.61,4.43,1.61,1.57,0,3-.16,4.31-.48s2.64-.81,4.02-1.45v5.19c-1.22.6-2.49,1.04-3.81,1.32-1.33.28-2.93.42-4.82.42-2.46,0-4.64-.45-6.54-1.36-1.9-.91-3.38-2.29-4.46-4.15-1.08-1.86-1.62-4.2-1.62-7.03s.49-5.26,1.46-7.17c.97-1.91,2.33-3.35,4.08-4.31,1.74-.96,3.77-1.44,6.09-1.44Zm.04,4.77c-1.3,0-2.38.42-3.24,1.25-.86.83-1.35,2.15-1.48,3.93h9.4c-.01-1-.19-1.88-.54-2.66-.34-.78-.86-1.39-1.54-1.85-.68-.45-1.55-.68-2.6-.68Z"/>
    <path class="cls-1" d="m36.13,352.67c-2.43,0-4.5-.44-6.22-1.33-1.71-.89-3.02-2.26-3.91-4.12s-1.34-4.24-1.34-7.14.51-5.45,1.53-7.35c1.02-1.9,2.43-3.29,4.24-4.19,1.81-.89,3.91-1.34,6.29-1.34,1.7,0,3.17.17,4.41.5,1.24.33,2.32.72,3.24,1.17l-1.98,5.19c-1.05-.42-2.04-.77-2.95-1.04-.91-.27-1.82-.41-2.72-.41-1.17,0-2.15.27-2.92.82-.78.55-1.36,1.37-1.74,2.47-.38,1.1-.57,2.48-.57,4.13s.2,2.97.62,4.04c.41,1.07,1,1.86,1.78,2.38.78.52,1.72.78,2.83.78,1.39,0,2.63-.19,3.71-.56,1.08-.37,2.14-.9,3.16-1.57v5.73c-1.03.65-2.1,1.11-3.22,1.4-1.12.29-2.54.43-4.25.43Z"/>
    <path class="cls-1" d="m71.62,339.91c0,2.05-.27,3.87-.82,5.45-.55,1.58-1.35,2.92-2.39,4.01-1.05,1.09-2.31,1.92-3.78,2.47-1.47.56-3.13.83-4.98.83-1.73,0-3.31-.28-4.76-.83-1.44-.56-2.7-1.38-3.76-2.47-1.06-1.09-1.88-2.43-2.46-4.01-.58-1.58-.87-3.4-.87-5.45,0-2.72.48-5.03,1.45-6.92s2.34-3.33,4.13-4.31,3.92-1.47,6.39-1.47c2.3,0,4.34.49,6.12,1.47,1.78.98,3.18,2.42,4.2,4.31,1.02,1.89,1.53,4.2,1.53,6.92Zm-16.98,0c0,1.61.18,2.97.53,4.06s.9,1.93,1.65,2.48c.75.56,1.72.84,2.92.84s2.15-.28,2.89-.84c.74-.56,1.28-1.38,1.63-2.48.34-1.1.52-2.45.52-4.06s-.17-2.98-.52-4.05c-.34-1.08-.89-1.89-1.64-2.43s-1.72-.81-2.92-.81c-1.77,0-3.06.61-3.86,1.82-.8,1.22-1.2,3.04-1.2,5.47Z"/>
    <path class="cls-1" d="m91.11,327.21c2.62,0,4.73.71,6.33,2.14,1.6,1.43,2.39,3.72,2.39,6.87v16.02h-6.7v-14.35c0-1.76-.32-3.08-.96-3.98-.64-.89-1.64-1.34-3-1.34-2.05,0-3.45.7-4.2,2.09s-1.12,3.4-1.12,6.02v11.56h-6.7v-24.57h5.12l.9,3.14h.37c.53-.85,1.18-1.54,1.97-2.06.78-.53,1.66-.92,2.62-1.17.96-.25,1.95-.37,2.98-.37Z"/>
    <path class="cls-1" d="m120.31,332.7h-5.8v19.53h-6.7v-19.53h-3.69v-3.23l3.69-1.8v-1.8c0-2.09.36-3.72,1.07-4.89.71-1.17,1.71-1.99,3.01-2.46,1.3-.48,2.83-.71,4.6-.71,1.3,0,2.49.11,3.56.32,1.07.21,1.94.45,2.61.71l-1.71,4.92c-.51-.16-1.07-.31-1.67-.44-.6-.13-1.29-.2-2.07-.2-.94,0-1.62.28-2.05.85-.43.56-.65,1.29-.65,2.16v1.54h5.8v5.03Zm7.21-14.66c1,0,1.85.23,2.57.69.72.46,1.08,1.32,1.08,2.58s-.36,2.11-1.08,2.58c-.72.48-1.58.71-2.57.71s-1.87-.24-2.58-.71c-.71-.48-1.07-1.34-1.07-2.58s.36-2.12,1.07-2.58c.71-.46,1.57-.69,2.58-.69Zm3.34,9.62v24.57h-6.7v-24.57h6.7Z"/>
    <path class="cls-1" d="m147.93,327.16c3.3,0,5.82.72,7.58,2.15,1.76,1.44,2.64,3.62,2.64,6.55v16.37h-4.68l-1.3-3.34h-.18c-.7.88-1.42,1.6-2.15,2.15s-1.57.97-2.53,1.23-2.11.4-3.47.4c-1.45,0-2.75-.28-3.9-.83-1.15-.56-2.05-1.41-2.71-2.56-.66-1.15-.99-2.61-.99-4.38,0-2.61.92-4.53,2.75-5.77,1.83-1.24,4.58-1.92,8.24-2.05l4.26-.13v-1.08c0-1.29-.34-2.23-1.01-2.83s-1.61-.9-2.81-.9-2.35.17-3.49.51-2.29.76-3.43,1.27l-2.22-4.53c1.3-.69,2.76-1.23,4.38-1.63,1.62-.4,3.29-.59,5.02-.59Zm3.56,13.69l-2.59.09c-2.17.06-3.67.45-4.52,1.17-.84.72-1.26,1.66-1.26,2.83,0,1.03.3,1.75.9,2.19.6.43,1.38.65,2.35.65,1.43,0,2.65-.42,3.64-1.27.99-.85,1.48-2.06,1.48-3.63v-2.02Z"/>
    <path class="cls-1" d="m179,327.21c2.62,0,4.73.71,6.33,2.14,1.6,1.43,2.39,3.72,2.39,6.87v16.02h-6.7v-14.35c0-1.76-.32-3.08-.96-3.98-.64-.89-1.64-1.34-3-1.34-2.05,0-3.45.7-4.2,2.09s-1.12,3.4-1.12,6.02v11.56h-6.7v-24.57h5.12l.9,3.14h.37c.53-.85,1.18-1.54,1.97-2.06.78-.53,1.66-.92,2.62-1.17.96-.25,1.95-.37,2.98-.37Z"/>
    <path class="cls-1" d="m204.6,352.67c-2.43,0-4.5-.44-6.22-1.33-1.71-.89-3.02-2.26-3.91-4.12s-1.34-4.24-1.34-7.14.51-5.45,1.53-7.35c1.02-1.9,2.43-3.29,4.24-4.19,1.81-.89,3.91-1.34,6.29-1.34,1.7,0,3.17.17,4.41.5,1.24.33,2.32.72,3.24,1.17l-1.98,5.19c-1.05-.42-2.04-.77-2.95-1.04-.91-.27-1.82-.41-2.72-.41-1.17,0-2.15.27-2.92.82-.78.55-1.36,1.37-1.74,2.47-.38,1.1-.57,2.48-.57,4.13s.2,2.97.62,4.04c.41,1.07,1,1.86,1.78,2.38.78.52,1.72.78,2.83.78,1.39,0,2.63-.19,3.71-.56,1.08-.37,2.14-.9,3.16-1.57v5.73c-1.03.65-2.1,1.11-3.22,1.4-1.12.29-2.54.43-4.25.43Zm4.83,5.05c0,1.68-.49,2.99-1.47,3.92-.98.93-2.75,1.4-5.32,1.4-.66,0-1.25-.04-1.78-.13s-1-.2-1.43-.33v-3.69c.42.1.94.2,1.56.31s1.14.15,1.58.15.79-.1,1.11-.3c.32-.2.47-.55.47-1.07,0-.54-.27-1.03-.81-1.45s-1.49-.73-2.83-.92l1.71-3.38h4.24l-.59,1.34c.6.19,1.17.47,1.71.85.54.37.99.83,1.33,1.38.34.55.52,1.19.52,1.92Z"/>
    <path class="cls-1" d="m227.82,327.16c3.3,0,5.82.72,7.58,2.15,1.76,1.44,2.64,3.62,2.64,6.55v16.37h-4.68l-1.3-3.34h-.18c-.7.88-1.42,1.6-2.15,2.15s-1.57.97-2.53,1.23-2.11.4-3.47.4c-1.45,0-2.75-.28-3.9-.83-1.15-.56-2.05-1.41-2.71-2.56-.66-1.15-.99-2.61-.99-4.38,0-2.61.92-4.53,2.75-5.77,1.83-1.24,4.58-1.92,8.24-2.05l4.26-.13v-1.08c0-1.29-.34-2.23-1.01-2.83s-1.61-.9-2.81-.9-2.35.17-3.49.51-2.29.76-3.43,1.27l-2.22-4.53c1.3-.69,2.76-1.23,4.38-1.63,1.62-.4,3.29-.59,5.02-.59Zm3.56,13.69l-2.59.09c-2.17.06-3.67.45-4.52,1.17-.84.72-1.26,1.66-1.26,2.83,0,1.03.3,1.75.9,2.19.6.43,1.38.65,2.35.65,1.43,0,2.65-.42,3.64-1.27.99-.85,1.48-2.06,1.48-3.63v-2.02Z"/>
  </g>
</svg>