<?xml version="1.0" encoding="UTF-8"?>
<svg id="Camada_1" data-name="Camada 1" xmlns="http://www.w3.org/2000/svg" viewBox="0 0 242.33 312">
  <defs>
    <style>
      .cls-1 {
        fill: #fff;
      }

      .cls-2 {
        fill: #afefd2;
      }

      .cls-3 {
        fill: #ff8980;
      }

      .cls-4 {
        fill: #8af7ff;
      }

      .cls-5 {
        fill: #cc6155;
      }

      .cls-6 {
        fill: #00505a;
      }
    </style>
  </defs>
  <g>
    <circle class="cls-1" cx="121.16" cy="121.16" r="121.16"/>
    <g>
      <g>
        <path class="cls-2" d="m120.16,135.9V35.44c-22.18.78-32.88,27.24-43.24,52.87-8.32,20.6-16.29,40.29-29.83,47.6h17.81v-6c0-.83.67-1.5,1.5-1.5s1.5.67,1.5,1.5v6h24v-6c0-.83.67-1.5,1.5-1.5s1.5.67,1.5,1.5v6h25.25Z"/>
        <g>
          <path class="cls-2" d="m122.16,35.44v100.46h23.75v-6c0-.83.67-1.5,1.5-1.5.47,0,.89.22,1.17.57,0-24.5.14-56.02.24-75.5-6.86-10.4-15.23-17.63-26.65-18.03Z"/>
          <path class="cls-4" d="m195.23,135.9c-9.5-5.13-16.25-16.35-22.31-29.7v23.7c0-.83.67-1.5,1.5-1.5s1.5.67,1.5,1.5v6h19.31Z"/>
          <path class="cls-3" d="m165.4,88.3c-5.02-12.43-10.13-25.04-16.58-34.84-.1,19.48-.23,51.01-.24,75.5.21.26.33.58.33.93v6h24v-29.7c-2.58-5.68-5.03-11.74-7.51-17.89Z"/>
        </g>
      </g>
      <path class="cls-6" d="m207.16,138.9H35.16c-.83,0-1.5-.67-1.5-1.5s.67-1.5,1.5-1.5h172c.83,0,1.5.67,1.5,1.5s-.67,1.5-1.5,1.5Z"/>
      <rect class="cls-5" x="120.16" y="33.9" width="2" height="103.5"/>
      <path class="cls-6" d="m12.41,138.9c-.83,0-1.5-.67-1.5-1.5v-7.5c0-.83.67-1.5,1.5-1.5s1.5.67,1.5,1.5v7.5c0,.83-.67,1.5-1.5,1.5Z"/>
      <path class="cls-6" d="m39.41,138.9c-.83,0-1.5-.67-1.5-1.5v-7.5c0-.83.67-1.5,1.5-1.5s1.5.67,1.5,1.5v7.5c0,.83-.67,1.5-1.5,1.5Z"/>
      <path class="cls-6" d="m66.41,138.9c-.83,0-1.5-.67-1.5-1.5v-7.5c0-.83.67-1.5,1.5-1.5s1.5.67,1.5,1.5v7.5c0,.83-.67,1.5-1.5,1.5Z"/>
      <path class="cls-6" d="m93.41,138.9c-.83,0-1.5-.67-1.5-1.5v-7.5c0-.83.67-1.5,1.5-1.5s1.5.67,1.5,1.5v7.5c0,.83-.67,1.5-1.5,1.5Z"/>
      <path class="cls-6" d="m147.41,138.9c-.83,0-1.5-.67-1.5-1.5v-7.5c0-.83.67-1.5,1.5-1.5s1.5.67,1.5,1.5v7.5c0,.83-.67,1.5-1.5,1.5Z"/>
      <path class="cls-6" d="m174.41,138.9c-.83,0-1.5-.67-1.5-1.5v-7.5c0-.83.67-1.5,1.5-1.5s1.5.67,1.5,1.5v7.5c0,.83-.67,1.5-1.5,1.5Z"/>
      <path class="cls-6" d="m201.41,138.9c-.83,0-1.5-.67-1.5-1.5v-7.5c0-.83.67-1.5,1.5-1.5s1.5.67,1.5,1.5v7.5c0,.83-.67,1.5-1.5,1.5Z"/>
      <path class="cls-6" d="m228.41,138.9c-.83,0-1.5-.67-1.5-1.5v-7.5c0-.83.67-1.5,1.5-1.5s1.5.67,1.5,1.5v7.5c0,.83-.67,1.5-1.5,1.5Z"/>
      <path class="cls-6" d="m207.16,135.9c-19.3,0-28.86-23.67-38.98-48.72-10.88-26.93-22.13-54.78-47.02-54.78s-36.14,27.85-47.02,54.78c-10.12,25.06-19.68,48.72-38.98,48.72H.89c.12,1,.26,2,.4,3h33.87c21.32,0,31.25-24.58,41.76-50.6,10.51-26.01,21.37-52.9,44.24-52.9s33.73,26.89,44.24,52.9c10.51,26.02,20.44,50.6,41.76,50.6h33.87c.15-1,.28-2,.4-3h-34.27Z"/>
    </g>
  </g>
  <g>
    <path class="cls-1" d="m69.7,269.06l-10.92,32.12h-7.43l-10.9-32.12h6.88l6.04,19.12c.1.32.27.93.51,1.81.23.89.47,1.82.71,2.81.24.99.41,1.81.49,2.45.09-.64.25-1.46.47-2.44.23-.98.45-1.92.68-2.8.23-.89.39-1.5.49-1.83l6.09-19.12h6.88Z"/>
    <path class="cls-1" d="m83.28,276.12c3.3,0,5.82.72,7.58,2.15,1.76,1.44,2.64,3.62,2.64,6.55v16.37h-4.68l-1.3-3.34h-.18c-.7.88-1.42,1.6-2.15,2.15s-1.57.97-2.53,1.23-2.11.4-3.47.4c-1.45,0-2.75-.28-3.9-.83-1.15-.56-2.05-1.41-2.71-2.56-.66-1.15-.99-2.61-.99-4.38,0-2.61.92-4.53,2.75-5.77,1.83-1.24,4.58-1.92,8.24-2.05l4.26-.13v-1.08c0-1.29-.34-2.23-1.01-2.83s-1.61-.9-2.81-.9-2.35.17-3.49.51-2.29.76-3.43,1.27l-2.22-4.53c1.3-.69,2.76-1.23,4.38-1.63,1.62-.4,3.29-.59,5.02-.59Zm3.56,13.69l-2.59.09c-2.17.06-3.67.45-4.52,1.17-.84.72-1.26,1.66-1.26,2.83,0,1.03.3,1.75.9,2.19.6.43,1.38.65,2.35.65,1.43,0,2.65-.42,3.64-1.27.99-.85,1.48-2.06,1.48-3.63v-2.02Z"/>
    <path class="cls-1" d="m107.1,301.19h-6.7v-34.19h6.7v34.19Z"/>
    <path class="cls-1" d="m136.46,288.86c0,2.05-.27,3.87-.82,5.45-.55,1.58-1.35,2.92-2.39,4.01-1.05,1.09-2.31,1.92-3.78,2.47-1.47.56-3.13.83-4.98.83-1.73,0-3.31-.28-4.76-.83-1.44-.56-2.7-1.38-3.76-2.47-1.06-1.09-1.88-2.43-2.46-4.01-.58-1.58-.87-3.4-.87-5.45,0-2.72.48-5.03,1.45-6.92s2.34-3.33,4.13-4.31,3.92-1.47,6.39-1.47c2.3,0,4.34.49,6.12,1.47,1.78.98,3.18,2.42,4.2,4.31,1.02,1.89,1.53,4.2,1.53,6.92Zm-16.98,0c0,1.61.18,2.97.53,4.06s.9,1.93,1.65,2.48c.75.56,1.72.84,2.92.84s2.15-.28,2.89-.84c.74-.56,1.28-1.38,1.63-2.48.34-1.1.52-2.45.52-4.06s-.17-2.98-.52-4.05c-.34-1.08-.89-1.89-1.64-2.43s-1.72-.81-2.92-.81c-1.77,0-3.06.61-3.86,1.82-.8,1.22-1.2,3.04-1.2,5.47Z"/>
    <path class="cls-1" d="m155.7,276.16c.34,0,.73.02,1.18.06.45.04.81.08,1.09.14l-.51,6.28c-.22-.07-.53-.13-.93-.17-.4-.04-.75-.05-1.04-.05-.86,0-1.7.11-2.52.33-.81.22-1.54.58-2.19,1.07-.64.49-1.15,1.13-1.53,1.93-.37.8-.56,1.78-.56,2.93v12.5h-6.7v-24.57h5.08l.99,4.13h.33c.48-.83,1.09-1.6,1.81-2.3.72-.7,1.55-1.25,2.48-1.67.93-.42,1.94-.63,3.02-.63Z"/>
    <path class="cls-1" d="m160.25,291.87v-5.49h11.8v5.49h-11.8Z"/>
    <path class="cls-1" d="m190.57,276.16c2.77,0,5.01,1.08,6.71,3.23,1.71,2.15,2.56,5.31,2.56,9.47,0,2.78-.4,5.12-1.21,7.02-.81,1.9-1.92,3.33-3.34,4.3s-3.05,1.45-4.9,1.45c-1.19,0-2.21-.15-3.05-.45-.85-.3-1.58-.69-2.18-1.17-.6-.48-1.12-.98-1.56-1.53h-.35c.12.59.21,1.19.26,1.8s.09,1.21.09,1.8v9.91h-6.7v-35.38h5.45l.95,3.19h.31c.44-.66.97-1.27,1.6-1.82s1.39-1,2.27-1.33c.89-.33,1.92-.5,3.09-.5Zm-2.15,5.36c-1.17,0-2.1.24-2.79.73s-1.19,1.21-1.5,2.17c-.31.97-.49,2.19-.52,3.67v.72c0,1.58.15,2.92.45,4.02.3,1.1.81,1.93,1.52,2.5.71.57,1.69.86,2.93.86,1.03,0,1.87-.29,2.53-.86.66-.57,1.15-1.41,1.48-2.52.33-1.11.49-2.46.49-4.05,0-2.4-.37-4.21-1.12-5.43s-1.9-1.82-3.47-1.82Z"/>
  </g>
</svg>