<?xml version="1.0" encoding="UTF-8"?><svg id="Layer_1" xmlns="http://www.w3.org/2000/svg" viewBox="0 0 512 512"><defs><style>.cls-1{fill:#55cb9c;}</style></defs><path class="cls-1" d="m362.792,430.365l-17.17,17.17c-2.763,2.763-7.487,1.433-8.402-2.366l-25.68-106.629,106.629,25.68c3.8.915,5.13,5.638,2.366,8.401l-17.17,17.17,67.553,67.553V183.109l-.018.009V13l-171.704,85.029v30.391l-189.684,93.892v44.45l-68.431,33.927v180.595h.138l.014,17.71h142.755v.007h247.438l-68.635-68.635Zm-34.254-98.243l-7.814-1.882c.165-1.059.276-2.136.276-3.241,0-11.579-9.421-21-21-21s-21,9.421-21,21,9.421,21,21,21c1.105,0,2.182-.111,3.241-.276l1.882,7.814c-1.664.298-3.374.462-5.123.462-15.99,0-29-13.01-29-29s13.01-29,29-29,29,13.01,29,29c0,1.748-.164,3.458-.462,5.122Zm-18.538-5.122c0,5.523-4.477,10-10,10s-10-4.477-10-10,4.477-10,10-10,10,4.477,10,10Zm82.743,6.92l-19.797-4.768c.021-.717.055-1.431.055-2.152,0-40.252-32.748-73-73-73s-73,32.748-73,73,32.748,73,73,73c.722,0,1.436-.034,2.152-.055l4.768,19.797c-2.285.169-4.593.257-6.92.257-51.28,0-93-41.72-93-93s41.72-93,93-93,93,41.72,93,93c0,2.328-.088,4.635-.257,6.92Zm-92.743,144.08c-83.262,0-151-67.738-151-151s67.738-151,151-151,151,67.738,151,151c0,6.714-.456,13.322-1.311,19.807l-29.451-6.265c.498-4.447.762-8.964.762-13.542,0-66.72-54.28-121-121-121s-121,54.28-121,121,54.28,121,121,121c4.578,0,9.095-.264,13.542-.762l6.933,29.363c-6.698.913-13.531,1.399-20.475,1.399Z"/><path class="cls-1" d="m362.792,430.365l-17.17,17.17c-2.763,2.763-7.487,1.433-8.402-2.366l-25.68-106.629,106.629,25.68c3.8.915,5.13,5.638,2.366,8.401l-17.17,17.17,67.553,67.553V183.109l-.018.009V13l-171.704,85.029v30.391l-189.684,93.892v44.45l-68.431,33.927v180.595h.138l.014,17.71h142.755v.007h247.438l-68.635-68.635Zm-34.254-98.243l-7.814-1.882c.165-1.059.276-2.136.276-3.241,0-11.579-9.421-21-21-21s-21,9.421-21,21,9.421,21,21,21c1.105,0,2.182-.111,3.241-.276l1.882,7.814c-1.664.298-3.374.462-5.123.462-15.99,0-29-13.01-29-29s13.01-29,29-29,29,13.01,29,29c0,1.748-.164,3.458-.462,5.122Zm-18.538-5.122c0,5.523-4.477,10-10,10s-10-4.477-10-10,4.477-10,10-10,10,4.477,10,10Zm82.743,6.92l-19.797-4.768c.021-.717.055-1.431.055-2.152,0-40.252-32.748-73-73-73s-73,32.748-73,73,32.748,73,73,73c.722,0,1.436-.034,2.152-.055l4.768,19.797c-2.285.169-4.593.257-6.92.257-51.28,0-93-41.72-93-93s41.72-93,93-93,93,41.72,93,93c0,2.328-.088,4.635-.257,6.92Zm-92.743,144.08c-83.262,0-151-67.738-151-151s67.738-151,151-151,151,67.738,151,151c0,6.714-.456,13.322-1.311,19.807l-29.451-6.265c.498-4.447.762-8.964.762-13.542,0-66.72-54.28-121-121-121s-121,54.28-121,121,54.28,121,121,121c4.578,0,9.095-.264,13.542-.762l6.933,29.363c-6.698.913-13.531,1.399-20.475,1.399Z"/></svg>