<?xml version="1.0" encoding="UTF-8"?><svg id="Layer_1" xmlns="http://www.w3.org/2000/svg" viewBox="0 0 512 512"><defs><style>.cls-1{fill:#ffda00;}</style></defs><g><path class="cls-1" d="m360.373,423.881c-15.901,9.164-34.332,14.411-53.965,14.411-59.776,0-108.407-48.631-108.407-108.407s48.631-108.408,108.407-108.408,108.407,48.631,108.407,108.408c0,20.445-5.691,39.584-15.569,55.921l71.673,73.193V183.109l-.018.009V13l-171.704,85.029v30.391l-189.684,93.892v44.45l-68.431,33.927v180.595h.138l.014,17.71h142.755v.007h249.943l-73.559-75.119Z"/><path class="cls-1" d="m306.407,241.477c-48.748,0-88.407,39.66-88.407,88.408s39.659,88.407,88.407,88.407,88.407-39.659,88.407-88.407-39.659-88.408-88.407-88.408Zm51.519,99.985h-39.942v39.942h-23.155v-39.942h-39.942v-23.155h39.942v-39.942h23.155v39.942h39.942v23.155Z"/></g><g><path class="cls-1" d="m360.373,423.881c-15.901,9.164-34.332,14.411-53.965,14.411-59.776,0-108.407-48.631-108.407-108.407s48.631-108.408,108.407-108.408,108.407,48.631,108.407,108.408c0,20.445-5.691,39.584-15.569,55.921l71.673,73.193V183.109l-.018.009V13l-171.704,85.029v30.391l-189.684,93.892v44.45l-68.431,33.927v180.595h.138l.014,17.71h142.755v.007h249.943l-73.559-75.119Z"/><path class="cls-1" d="m306.407,241.477c-48.748,0-88.407,39.66-88.407,88.408s39.659,88.407,88.407,88.407,88.407-39.659,88.407-88.407-39.659-88.408-88.407-88.408Zm51.519,99.985h-39.942v39.942h-23.155v-39.942h-39.942v-23.155h39.942v-39.942h23.155v39.942h39.942v23.155Z"/></g></svg>