<?xml version="1.0" encoding="UTF-8"?><svg id="Layer_1" xmlns="http://www.w3.org/2000/svg" viewBox="0 0 512 512"><defs><style>.cls-1{fill:#29b5ba;}</style></defs><g><rect class="cls-1" x="215" y="470" width="92" height="16"/><g><polygon class="cls-1" points="423.95 350.583 423.95 499 470.901 499 470.901 498.993 470.919 498.993 470.919 276.645 423.95 350.583"/><path class="cls-1" d="m176.011,216.2h19.877v21.446c0,2.18.379,4.268,1.046,6.225v255.129h206.092v-115.48l-38.526,60.648-52.089,40.101,14.163-64.193,76.452-120.35v-62.603h-2.092v-20.923h23.015v50.589l44.164-69.524c.829-1.305,1.771-2.496,2.804-3.567v-10.589l-.018.009V13l-171.704,85.029v30.391l-189.684,93.892v44.45l-68.431,33.927v180.595h.138l.014,17.71h134.778V216.2Zm166.293,161.8h-127.304v-16h137.468l-10.164,16Zm21.598-34h-148.902v-16h159.066l-10.164,16Zm-148.902-37v-16h158v16h-158Zm152.458-104.5c0-7.456,6.044-13.5,13.5-13.5h1.246c7.456,0,13.5,6.044,13.5,13.5v35.769c0,7.456-6.044,13.5-13.5,13.5h-1.246c-7.456,0-13.5-6.044-13.5-13.5v-35.769Zm-21.969,13.7h16.739v20.923h-16.739v-20.923Zm-33.477-13.7c0-7.456,6.044-13.5,13.5-13.5h1.246c7.456,0,13.5,6.044,13.5,13.5v35.769c0,7.456-6.044,13.5-13.5,13.5h-1.246c-7.456,0-13.5-6.044-13.5-13.5v-35.769Zm-21.969,13.7h16.739v20.923h-16.739v-20.923Zm-33.477-13.7c0-7.456,6.044-13.5,13.5-13.5h1.246c7.456,0,13.5,6.044,13.5,13.5v35.769c0,7.456-6.044,13.5-13.5,13.5h-1.246c-7.456,0-13.5-6.044-13.5-13.5v-35.769Zm-21.969,13.7h16.738v20.923h-16.738v-20.923Zm-33.477-13.7c0-7.456,6.044-13.5,13.5-13.5h1.246c7.456,0,13.5,6.044,13.5,13.5v35.769c0,7.456-6.044,13.5-13.5,13.5h-1.246c-7.456,0-13.5-6.044-13.5-13.5v-35.769Z"/></g></g><g><rect class="cls-1" x="215" y="470" width="92" height="16"/><g><polygon class="cls-1" points="423.95 350.583 423.95 499 470.901 499 470.901 498.993 470.919 498.993 470.919 276.645 423.95 350.583"/><path class="cls-1" d="m176.011,216.2h19.877v21.446c0,2.18.379,4.268,1.046,6.225v255.129h206.092v-115.48l-38.526,60.648-52.089,40.101,14.163-64.193,76.452-120.35v-62.603h-2.092v-20.923h23.015v50.589l44.164-69.524c.829-1.305,1.771-2.496,2.804-3.567v-10.589l-.018.009V13l-171.704,85.029v30.391l-189.684,93.892v44.45l-68.431,33.927v180.595h.138l.014,17.71h134.778V216.2Zm166.293,161.8h-127.304v-16h137.468l-10.164,16Zm21.598-34h-148.902v-16h159.066l-10.164,16Zm-148.902-37v-16h158v16h-158Zm152.458-104.5c0-7.456,6.044-13.5,13.5-13.5h1.246c7.456,0,13.5,6.044,13.5,13.5v35.769c0,7.456-6.044,13.5-13.5,13.5h-1.246c-7.456,0-13.5-6.044-13.5-13.5v-35.769Zm-21.969,13.7h16.739v20.923h-16.739v-20.923Zm-33.477-13.7c0-7.456,6.044-13.5,13.5-13.5h1.246c7.456,0,13.5,6.044,13.5,13.5v35.769c0,7.456-6.044,13.5-13.5,13.5h-1.246c-7.456,0-13.5-6.044-13.5-13.5v-35.769Zm-21.969,13.7h16.739v20.923h-16.739v-20.923Zm-33.477-13.7c0-7.456,6.044-13.5,13.5-13.5h1.246c7.456,0,13.5,6.044,13.5,13.5v35.769c0,7.456-6.044,13.5-13.5,13.5h-1.246c-7.456,0-13.5-6.044-13.5-13.5v-35.769Zm-21.969,13.7h16.738v20.923h-16.738v-20.923Zm-33.477-13.7c0-7.456,6.044-13.5,13.5-13.5h1.246c7.456,0,13.5,6.044,13.5,13.5v35.769c0,7.456-6.044,13.5-13.5,13.5h-1.246c-7.456,0-13.5-6.044-13.5-13.5v-35.769Z"/></g></g></svg>