<?xml version="1.0" encoding="UTF-8"?><svg id="Layer_1" xmlns="http://www.w3.org/2000/svg" viewBox="0 0 512 512"><defs><style>.cls-1{fill:#2a2ae8;}</style></defs><g><path class="cls-1" d="m470.901,183.117V13l-171.704,85.029v30.391l-189.684,93.892v44.45l-68.431,33.927v180.595h.138l.014,17.71h116.184v-207.993h267v208h46.484v-.007h.018V183.109l-.018.009Zm-313.484,92.883v-12.562c0-14.049,11.389-25.438,25.438-25.438h25.42l-38,38h-12.857Zm41.143,0l38-38h31.715l-38,38h-31.715Zm60,0l38-38h31.715l-38,38h-31.715Zm60,0l38-38h31.715l-38,38h-31.715Zm105.857,0h-45.857l34.041-34.041c7.101,4.513,11.816,12.442,11.816,21.479v12.562Z"/><path class="cls-1" d="m346.328,396.047l-75.656-43.68c-7.854-4.535-17.672,1.134-17.672,10.203v87.361c0,9.069,9.818,14.737,17.672,10.203l75.656-43.68c7.854-4.535,7.854-15.871,0-20.406Z"/></g><g><path class="cls-1" d="m470.901,183.117V13l-171.704,85.029v30.391l-189.684,93.892v44.45l-68.431,33.927v180.595h.138l.014,17.71h116.184v-207.993h267v208h46.484v-.007h.018V183.109l-.018.009Zm-313.484,92.883v-12.562c0-14.049,11.389-25.438,25.438-25.438h25.42l-38,38h-12.857Zm41.143,0l38-38h31.715l-38,38h-31.715Zm60,0l38-38h31.715l-38,38h-31.715Zm60,0l38-38h31.715l-38,38h-31.715Zm105.857,0h-45.857l34.041-34.041c7.101,4.513,11.816,12.442,11.816,21.479v12.562Z"/><path class="cls-1" d="m346.328,396.047l-75.656-43.68c-7.854-4.535-17.672,1.134-17.672,10.203v87.361c0,9.069,9.818,14.737,17.672,10.203l75.656-43.68c7.854-4.535,7.854-15.871,0-20.406Z"/></g></svg>