<?xml version="1.0" encoding="UTF-8"?><svg id="Layer_1" xmlns="http://www.w3.org/2000/svg" viewBox="0 0 512 512"><defs><style>.cls-1{fill:#5584cb;}</style></defs><g><polygon class="cls-1" points="318.885 287.018 289.332 251.54 285.281 297.536 242.407 314.68 284.9 332.746 287.956 378.819 318.269 343.989 363.031 355.32 339.273 315.727 363.882 276.657 318.885 287.018"/><path class="cls-1" d="m470.901,183.117V13l-171.704,85.029v30.391l-189.684,93.892v44.45l-68.431,33.927v180.595h.138l.014,17.71h142.755v.007h126.504l-2.091-6.679,90.559-28.345,2.363,7.548c3.299,10.541-2.571,21.762-13.113,25.061l-7.716,2.415h90.406v-.007h.018V183.109l-.018.009Zm-74.008,164.434c-12.527,32.546-12.926,68.52-2.509,101.802l.825,2.637-90.558,28.345-.799-2.553c-10.528-33.635-32.63-62.164-61.725-82.056-19.256-13.165-34.213-32.922-41.065-57.295-14.764-52.516,14.524-108.104,66.181-125.639,55.115-18.709,114.513,11.689,131.8,66.919,7.236,23.119,5.924,46.864-2.15,67.841Z"/></g><g><polygon class="cls-1" points="318.885 287.018 289.332 251.54 285.281 297.536 242.407 314.68 284.9 332.746 287.956 378.819 318.269 343.989 363.031 355.32 339.273 315.727 363.882 276.657 318.885 287.018"/><path class="cls-1" d="m470.901,183.117V13l-171.704,85.029v30.391l-189.684,93.892v44.45l-68.431,33.927v180.595h.138l.014,17.71h142.755v.007h126.504l-2.091-6.679,90.559-28.345,2.363,7.548c3.299,10.541-2.571,21.762-13.113,25.061l-7.716,2.415h90.406v-.007h.018V183.109l-.018.009Zm-74.008,164.434c-12.527,32.546-12.926,68.52-2.509,101.802l.825,2.637-90.558,28.345-.799-2.553c-10.528-33.635-32.63-62.164-61.725-82.056-19.256-13.165-34.213-32.922-41.065-57.295-14.764-52.516,14.524-108.104,66.181-125.639,55.115-18.709,114.513,11.689,131.8,66.919,7.236,23.119,5.924,46.864-2.15,67.841Z"/></g></svg>