<?xml version="1.0" encoding="UTF-8"?><svg id="Layer_1" xmlns="http://www.w3.org/2000/svg" viewBox="0 0 512 512"><defs><style>.cls-1{fill:#4c8933;}</style></defs><path class="cls-1" d="m410.057,230.106l60.844-60.844V13l-171.704,85.029v30.391l-189.684,93.892v44.45l-68.431,33.927v180.595h.138l.014,17.71h142.755v.007h286.912v-.007h.018v-208.025l-60.862-60.862Zm-183.891-49.641v44.795h-42.491l42.491-44.795Zm202.439,307.535h-244.65v-248.957h59.439v-58.578h185.21v9.88l-17.229,17.229v-9.88h-150.752v58.578h-59.44v214.499h210.192v-95.803l17.229-6.274v119.306Zm-39.438-257.572h-104.423v-13.783h108.542v9.018l-4.442,4.442.323.323Zm-71.845,124.048h-98.909v-13.783h104.038l-5.129,13.783Zm82.856,83.56v13.783h-115.433v-13.783h115.433Zm-181.765-114.572v-13.783h115.577l-5.129,13.783h-110.448Zm0-31.012v-13.783h127.116l-5.129,13.783h-121.988Zm66.331-31.012v-13.783h101.936l-18.378,13.783h-83.558Zm139.78,92.776l-95.8,34.887,51.773-51.773c5.891,3.243,13.456,2.382,18.444-2.606,6.046-6.046,6.046-15.883,0-21.929-6.045-6.046-15.883-6.046-21.929,0-4.988,4.988-5.849,12.553-2.606,18.444l-51.652,51.652,35.375-95.07,53.604-40.203,52.995,52.995-40.203,53.604Zm-36.944-30.752c.014-.021.019-.043.039-.063.046-.045.141-.14.356-.14s.312.095.358.141c.018.018.025.042.04.062h-.793Z"/><path class="cls-1" d="m410.057,230.106l60.844-60.844V13l-171.704,85.029v30.391l-189.684,93.892v44.45l-68.431,33.927v180.595h.138l.014,17.71h142.755v.007h286.912v-.007h.018v-208.025l-60.862-60.862Zm-183.891-49.641v44.795h-42.491l42.491-44.795Zm202.439,307.535h-244.65v-248.957h59.439v-58.578h185.21v9.88l-17.229,17.229v-9.88h-150.752v58.578h-59.44v214.499h210.192v-95.803l17.229-6.274v119.306Zm-39.438-257.572h-104.423v-13.783h108.542v9.018l-4.442,4.442.323.323Zm-71.845,124.048h-98.909v-13.783h104.038l-5.129,13.783Zm82.856,83.56v13.783h-115.433v-13.783h115.433Zm-181.765-114.572v-13.783h115.577l-5.129,13.783h-110.448Zm0-31.012v-13.783h127.116l-5.129,13.783h-121.988Zm66.331-31.012v-13.783h101.936l-18.378,13.783h-83.558Zm139.78,92.776l-95.8,34.887,51.773-51.773c5.891,3.243,13.456,2.382,18.444-2.606,6.046-6.046,6.046-15.883,0-21.929-6.045-6.046-15.883-6.046-21.929,0-4.988,4.988-5.849,12.553-2.606,18.444l-51.652,51.652,35.375-95.07,53.604-40.203,52.995,52.995-40.203,53.604Zm-36.944-30.752c.014-.021.019-.043.039-.063.046-.045.141-.14.356-.14s.312.095.358.141c.018.018.025.042.04.062h-.793Z"/></svg>