<?xml version="1.0" encoding="UTF-8"?><svg id="Layer_1" xmlns="http://www.w3.org/2000/svg" viewBox="0 0 512 512"><defs><style>.cls-1{fill:#d31b0d;}</style></defs><g><path class="cls-1" d="m130.351,498.993h53.637v.007h254.665l-154.153-267-154.149,266.993Zm173.866-16.993h-45.434v-39h45.434v39Zm-11-54h-23.434l-11-108h45.434l-11,108Z"/><polygon class="cls-1" points="284.5 172 470.919 494.886 470.919 183.109 470.901 183.117 470.901 43.428 470.901 13 299.197 98.029 299.197 128.42 109.513 222.311 109.513 266.761 41.081 300.688 41.081 481.283 41.219 481.283 41.233 498.993 95.711 498.993 284.5 172"/></g><g><path class="cls-1" d="m130.351,498.993h53.637v.007h254.665l-154.153-267-154.149,266.993Zm173.866-16.993h-45.434v-39h45.434v39Zm-11-54h-23.434l-11-108h45.434l-11,108Z"/><polygon class="cls-1" points="284.5 172 470.919 494.886 470.919 183.109 470.901 183.117 470.901 43.428 470.901 13 299.197 98.029 299.197 128.42 109.513 222.311 109.513 266.761 41.081 300.688 41.081 481.283 41.219 481.283 41.233 498.993 95.711 498.993 284.5 172"/></g></svg>