<?xml version="1.0" encoding="UTF-8"?><svg id="Layer_1" xmlns="http://www.w3.org/2000/svg" viewBox="0 0 512 512"><defs><style>.cls-1{fill:#cb6155;}</style></defs><g><path class="cls-1" d="m470.901,183.117V13l-171.704,85.029v30.391l-189.684,93.892v44.45l-68.431,33.927v180.595h.138l.014,17.71h142.755v.007h223.062c.524-10.578,9.241-19,19.949-19s19.425,8.422,19.949,19h23.951v-.007h.018V183.109l-.018.009Zm-74.901,302.883c-14.912,0-27-12.088-27-27s12.088-27,27-27,27,12.088,27,27-12.088,27-27,27Zm-31.291-56.261c-.108,0-.214-.008-.321-.008.396,2.129.613,4.32.613,6.564,0,19.72-15.986,35.706-35.706,35.706-16.835,0-30.94-11.655-34.709-27.333-8.351,2.551-17.215,3.928-26.401,3.928-37.267,0-69.255-22.593-83.022-54.828-36.414-1.17-65.58-31.037-65.58-67.735,0-36.076,28.183-65.558,63.731-67.66,9.775-39.271,45.269-68.372,87.565-68.372,12.319,0,24.06,2.472,34.758,6.941,9.018-4.438,19.161-6.941,29.891-6.941,37.44,0,67.791,30.351,67.791,67.791,0,5.908-.76,11.639-2.18,17.102,26.837,13.394,45.279,41.104,45.279,73.136,0,45.126-36.582,81.709-81.709,81.709Z"/><g><path class="cls-1" d="m344.176,279.987c-7.512-32.948-41.029-53.218-73.964-44.097-29.435,8.151-48.057,37.818-42.606,67.87,2.702,14.899,10.653,27.394,21.537,36.032,14.261,11.318,24.54,26.885,28.587,44.636l.32,1.406,56.549-12.893-.628-2.756c-3.968-17.404-1.579-35.517,6.033-51.663,5.471-11.605,7.246-25.055,4.172-38.536Z"/><path class="cls-1" d="m336.155,379.766l-56.549,12.893.181.792c2.478,10.87,13.3,17.673,24.17,15.195l17.184-3.918c10.87-2.478,17.673-13.3,15.195-24.17l-.181-.792Z"/></g></g><g><path class="cls-1" d="m470.901,183.117V13l-171.704,85.029v30.391l-189.684,93.892v44.45l-68.431,33.927v180.595h.138l.014,17.71h142.755v.007h223.062c.524-10.578,9.241-19,19.949-19s19.425,8.422,19.949,19h23.951v-.007h.018V183.109l-.018.009Zm-74.901,302.883c-14.912,0-27-12.088-27-27s12.088-27,27-27,27,12.088,27,27-12.088,27-27,27Zm-31.291-56.261c-.108,0-.214-.008-.321-.008.396,2.129.613,4.32.613,6.564,0,19.72-15.986,35.706-35.706,35.706-16.835,0-30.94-11.655-34.709-27.333-8.351,2.551-17.215,3.928-26.401,3.928-37.267,0-69.255-22.593-83.022-54.828-36.414-1.17-65.58-31.037-65.58-67.735,0-36.076,28.183-65.558,63.731-67.66,9.775-39.271,45.269-68.372,87.565-68.372,12.319,0,24.06,2.472,34.758,6.941,9.018-4.438,19.161-6.941,29.891-6.941,37.44,0,67.791,30.351,67.791,67.791,0,5.908-.76,11.639-2.18,17.102,26.837,13.394,45.279,41.104,45.279,73.136,0,45.126-36.582,81.709-81.709,81.709Z"/><g><path class="cls-1" d="m344.176,279.987c-7.512-32.948-41.029-53.218-73.964-44.097-29.435,8.151-48.057,37.818-42.606,67.87,2.702,14.899,10.653,27.394,21.537,36.032,14.261,11.318,24.54,26.885,28.587,44.636l.32,1.406,56.549-12.893-.628-2.756c-3.968-17.404-1.579-35.517,6.033-51.663,5.471-11.605,7.246-25.055,4.172-38.536Z"/><path class="cls-1" d="m336.155,379.766l-56.549,12.893.181.792c2.478,10.87,13.3,17.673,24.17,15.195l17.184-3.918c10.87-2.478,17.673-13.3,15.195-24.17l-.181-.792Z"/></g></g></svg>