<?xml version="1.0" encoding="UTF-8"?><svg id="Layer_1" xmlns="http://www.w3.org/2000/svg" viewBox="0 0 512 512"><defs><style>.cls-1{fill:#01505a;}</style></defs><g><path class="cls-1" d="m470.901,183.117V13l-171.704,85.029v30.391l-189.684,93.892v44.45l-68.431,33.927v180.595h.138l.014,17.71h108.744c-5.888-7.132-9.425-16.276-9.425-26.246v-157.962c0-55.109,44.675-99.784,99.784-99.784h85.328c55.109,0,99.784,44.675,99.784,99.784v157.962c0,9.974-3.54,19.121-9.431,26.253h54.884v-.007h.018V183.109l-.018.009Z"/><path class="cls-1" d="m345.057,474.862v-74.045c0-21.615,17.523-39.138,39.138-39.138h13.046v-46.895c0-39.531-32.046-71.577-71.577-71.577h-85.328c-39.531,0-71.577,32.046-71.577,71.577v46.895h13.046c21.615,0,39.138,17.523,39.138,39.138v74.045c0,9.111-3.122,17.487-8.342,24.138h140.797c-5.22-6.651-8.342-15.027-8.342-24.138Zm-94.633-196.395c-26.246,0-47.6,21.353-47.6,47.6h-14.104c0-34.024,27.68-61.704,61.704-61.704h65.153c34.024,0,61.704,27.68,61.704,61.704h-14.104c0-26.247-21.354-47.6-47.6-47.6h-65.153Z"/></g><g><path class="cls-1" d="m470.901,183.117V13l-171.704,85.029v30.391l-189.684,93.892v44.45l-68.431,33.927v180.595h.138l.014,17.71h108.744c-5.888-7.132-9.425-16.276-9.425-26.246v-157.962c0-55.109,44.675-99.784,99.784-99.784h85.328c55.109,0,99.784,44.675,99.784,99.784v157.962c0,9.974-3.54,19.121-9.431,26.253h54.884v-.007h.018V183.109l-.018.009Z"/><path class="cls-1" d="m345.057,474.862v-74.045c0-21.615,17.523-39.138,39.138-39.138h13.046v-46.895c0-39.531-32.046-71.577-71.577-71.577h-85.328c-39.531,0-71.577,32.046-71.577,71.577v46.895h13.046c21.615,0,39.138,17.523,39.138,39.138v74.045c0,9.111-3.122,17.487-8.342,24.138h140.797c-5.22-6.651-8.342-15.027-8.342-24.138Zm-94.633-196.395c-26.246,0-47.6,21.353-47.6,47.6h-14.104c0-34.024,27.68-61.704,61.704-61.704h65.153c34.024,0,61.704,27.68,61.704,61.704h-14.104c0-26.247-21.354-47.6-47.6-47.6h-65.153Z"/></g></svg>