<?xml version="1.0" encoding="UTF-8"?><svg id="Layer_1" xmlns="http://www.w3.org/2000/svg" viewBox="0 0 512 512"><defs><style>.cls-1{fill:#e8a010;}</style></defs><g><polygon class="cls-1" points="332.172 333.45 305.5 286 278.828 333.45 225.457 344.154 262.343 384.184 256.031 438.25 305.5 415.539 354.969 438.25 348.657 384.184 385.543 344.154 332.172 333.45"/><path class="cls-1" d="m470.901,183.117V13l-171.704,85.029v30.391l-189.684,93.892v44.45l-68.431,33.927v180.595h.138l.014,17.71h125.767V219h209.5v56h56.5v224h37.901v-.007h.018V183.109l-.018.009Zm-82.901,80.883v-45l40.5,45h-40.5Z"/></g><g><polygon class="cls-1" points="332.172 333.45 305.5 286 278.828 333.45 225.457 344.154 262.343 384.184 256.031 438.25 305.5 415.539 354.969 438.25 348.657 384.184 385.543 344.154 332.172 333.45"/><path class="cls-1" d="m470.901,183.117V13l-171.704,85.029v30.391l-189.684,93.892v44.45l-68.431,33.927v180.595h.138l.014,17.71h125.767V219h209.5v56h56.5v224h37.901v-.007h.018V183.109l-.018.009Zm-82.901,80.883v-45l40.5,45h-40.5Z"/></g></svg>