<?xml version="1.0" encoding="UTF-8"?><svg id="Layer_1" xmlns="http://www.w3.org/2000/svg" viewBox="0 0 512 512"><defs><style>.cls-1{fill:#86979a;}</style></defs><g><circle class="cls-1" cx="217.414" cy="353.032" r="24.245" transform="translate(-53.742 39.384) rotate(-9.217)"/><path class="cls-1" d="m470.901,183.117V13l-171.704,85.029v30.391l-189.684,93.892v44.45l-68.431,33.927v180.595h.138l.014,17.71h79.38v-163.722c0-41.571,33.7-75.271,75.271-75.271h174.223c41.571,0,75.271,33.7,75.271,75.271v50.181c0,41.571-33.7,75.271-75.271,75.271h-185.218l-38.27,38.27h37.368v.007h286.912v-.007h.018V183.109l-.018.009Z"/><polygon class="cls-1" points="300.908 414.591 292.611 399.83 284.313 414.591 267.711 417.92 279.186 430.373 277.222 447.191 292.611 440.127 308 447.191 306.036 430.373 317.51 417.92 300.908 414.591"/><circle class="cls-1" cx="358.726" cy="353.032" r="24.245" transform="translate(-107.793 164.151) rotate(-22.5)"/><circle class="cls-1" cx="288.07" cy="353.032" r="24.245" transform="translate(-163.684 412.479) rotate(-58.283)"/></g><g><circle class="cls-1" cx="217.414" cy="353.032" r="24.245" transform="translate(-53.742 39.384) rotate(-9.217)"/><path class="cls-1" d="m470.901,183.117V13l-171.704,85.029v30.391l-189.684,93.892v44.45l-68.431,33.927v180.595h.138l.014,17.71h79.38v-163.722c0-41.571,33.7-75.271,75.271-75.271h174.223c41.571,0,75.271,33.7,75.271,75.271v50.181c0,41.571-33.7,75.271-75.271,75.271h-185.218l-38.27,38.27h37.368v.007h286.912v-.007h.018V183.109l-.018.009Z"/><polygon class="cls-1" points="300.908 414.591 292.611 399.83 284.313 414.591 267.711 417.92 279.186 430.373 277.222 447.191 292.611 440.127 308 447.191 306.036 430.373 317.51 417.92 300.908 414.591"/><circle class="cls-1" cx="358.726" cy="353.032" r="24.245" transform="translate(-107.793 164.151) rotate(-22.5)"/><circle class="cls-1" cx="288.07" cy="353.032" r="24.245" transform="translate(-163.684 412.479) rotate(-58.283)"/></g></svg>