<?xml version="1.0" encoding="UTF-8"?><svg id="Layer_1" xmlns="http://www.w3.org/2000/svg" viewBox="0 0 512 512"><defs><style>.cls-1{fill:#c23aef;}</style></defs><path class="cls-1" d="m470.901,183.117V13l-171.704,85.029v30.391l-189.684,93.892v44.45l-68.431,33.927v180.595h.138l.014,17.71h142.755v.007h92.908v-33.313c-16.809-3.627-31.656-15.098-41.824-32.383-2.33-3.96-1.008-9.059,2.952-11.388,3.959-2.329,9.059-1.008,11.388,2.952,4.573,7.774,14.761,21.319,31.61,24.689,22.168,4.587,40.117-8.902,48.098-24.3,2.115-4.078,7.135-5.671,11.215-3.557,4.079,2.115,5.671,7.135,3.557,11.215-6.035,11.642-15.611,21.348-26.966,27.333-4.847,2.555-9.902,4.402-15.073,5.528v33.224h169.047v-.007h.018V183.109l-.018.009Zm-129.115,195.566c0,28.945-23.465,52.41-52.41,52.41s-52.41-23.465-52.41-52.41v-59.897c0-28.945,23.465-52.41,52.41-52.41s52.41,23.465,52.41,52.41v59.897Zm-8.247-107.379c-10.828-12.197-26.609-19.903-44.163-19.903s-33.335,7.706-44.163,19.903c-12.738,11.856-20.726,28.75-20.726,47.482v9.803c-1.614-5.771-2.496-11.844-2.496-18.122,0-37.156,30.229-67.385,67.385-67.385s67.385,30.229,67.385,67.385c0,6.279-.882,12.352-2.496,18.122v-9.803c0-18.732-7.988-35.626-20.726-47.482Zm-109.052,88.459v12.784c-15.451-16.144-24.957-38.022-24.957-62.08,0-49.541,40.304-89.846,89.846-89.846s89.846,40.305,89.846,89.846c0,24.058-9.506,45.936-24.957,62.08v-12.784c10.434-13.7,16.638-30.786,16.638-49.296,0-44.954-36.573-81.527-81.527-81.527s-81.527,36.573-81.527,81.527c0,18.51,6.205,35.596,16.638,49.296Zm122.941,51.644c-.442-.272-.883-.543-1.349-.784l-.002-.002c-.065-.034-.13-.062-.195-.095.559-.988,1.086-1.995,1.594-3.013,32.946-19.799,55.039-55.889,55.039-97.046,0-62.385-50.754-113.139-113.139-113.139s-113.139,50.754-113.139,113.139c0,41.157,22.093,77.247,55.039,97.046.508,1.018,1.035,2.025,1.594,3.012-.395.2-.786.408-1.17.634-.13.077-.248.168-.376.247-34.885-20.142-58.414-57.844-58.414-100.939,0-64.22,52.247-116.467,116.467-116.467s116.467,52.247,116.467,116.467c0,43.096-23.529,80.798-58.415,100.94Z"/><path class="cls-1" d="m470.901,183.117V13l-171.704,85.029v30.391l-189.684,93.892v44.45l-68.431,33.927v180.595h.138l.014,17.71h142.755v.007h92.908v-33.313c-16.809-3.627-31.656-15.098-41.824-32.383-2.33-3.96-1.008-9.059,2.952-11.388,3.959-2.329,9.059-1.008,11.388,2.952,4.573,7.774,14.761,21.319,31.61,24.689,22.168,4.587,40.117-8.902,48.098-24.3,2.115-4.078,7.135-5.671,11.215-3.557,4.079,2.115,5.671,7.135,3.557,11.215-6.035,11.642-15.611,21.348-26.966,27.333-4.847,2.555-9.902,4.402-15.073,5.528v33.224h169.047v-.007h.018V183.109l-.018.009Zm-129.115,195.566c0,28.945-23.465,52.41-52.41,52.41s-52.41-23.465-52.41-52.41v-59.897c0-28.945,23.465-52.41,52.41-52.41s52.41,23.465,52.41,52.41v59.897Zm-8.247-107.379c-10.828-12.197-26.609-19.903-44.163-19.903s-33.335,7.706-44.163,19.903c-12.738,11.856-20.726,28.75-20.726,47.482v9.803c-1.614-5.771-2.496-11.844-2.496-18.122,0-37.156,30.229-67.385,67.385-67.385s67.385,30.229,67.385,67.385c0,6.279-.882,12.352-2.496,18.122v-9.803c0-18.732-7.988-35.626-20.726-47.482Zm-109.052,88.459v12.784c-15.451-16.144-24.957-38.022-24.957-62.08,0-49.541,40.304-89.846,89.846-89.846s89.846,40.305,89.846,89.846c0,24.058-9.506,45.936-24.957,62.08v-12.784c10.434-13.7,16.638-30.786,16.638-49.296,0-44.954-36.573-81.527-81.527-81.527s-81.527,36.573-81.527,81.527c0,18.51,6.205,35.596,16.638,49.296Zm122.941,51.644c-.442-.272-.883-.543-1.349-.784l-.002-.002c-.065-.034-.13-.062-.195-.095.559-.988,1.086-1.995,1.594-3.013,32.946-19.799,55.039-55.889,55.039-97.046,0-62.385-50.754-113.139-113.139-113.139s-113.139,50.754-113.139,113.139c0,41.157,22.093,77.247,55.039,97.046.508,1.018,1.035,2.025,1.594,3.012-.395.2-.786.408-1.17.634-.13.077-.248.168-.376.247-34.885-20.142-58.414-57.844-58.414-100.939,0-64.22,52.247-116.467,116.467-116.467s116.467,52.247,116.467,116.467c0,43.096-23.529,80.798-58.415,100.94Z"/></svg>