<?xml version="1.0" encoding="UTF-8"?><svg id="Layer_1" xmlns="http://www.w3.org/2000/svg" viewBox="0 0 512 512"><defs><style>.cls-1{fill:#e52421;}.cls-2{fill:#fff;}.cls-3{fill:#009981;}.cls-4{opacity:.2;}.cls-4,.cls-5,.cls-6{fill:#0e1020;}.cls-7{fill:#27347e;}.cls-5{opacity:.3;}.cls-8{fill:#991868;}</style></defs><ellipse class="cls-5" cx="201.08" cy="434.508" rx="31.404" ry="197.887" transform="translate(-247.955 600.636) rotate(-85.469)"/><g><polygon class="cls-7" points="301.311 274.108 106.982 430.5 116.625 430.5 305.893 276.75 301.311 274.108"/><polygon class="cls-3" points="116.625 430.5 152.304 430.5 309.75 282 305.893 276.75 116.625 430.5"/><path class="cls-5" d="M152.304,430.5l99.72-95.865c-3.875-1.586-7.797-3.135-11.759-4.647l-113.715,92.246c6.418,3.05,19.045,5.429,25.754,8.266Z"/></g><g><path class="cls-7" d="M501.268,279.305c23.122,103.23-52.734,188.538-170.139,189.09-117.833,.554-230.121-84.426-250.13-188.34-19.703-102.325,57.851-184.035,172.582-183.915,114.326,.12,224.917,81.504,247.687,183.165Z"/><g><ellipse class="cls-1" cx="303.936" cy="274.108" rx="167.907" ry="213.34" transform="translate(-83.11 407.178) rotate(-61.019)"/><ellipse class="cls-2" cx="303.936" cy="274.108" rx="134.019" ry="170.282" transform="translate(-83.11 407.178) rotate(-61.019)"/><ellipse class="cls-1" cx="303.936" cy="274.108" rx="104.342" ry="132.575" transform="translate(-83.11 407.178) rotate(-61.019)"/><ellipse class="cls-2" cx="303.936" cy="274.108" rx="75.297" ry="95.671" transform="translate(-83.11 407.178) rotate(-61.019)"/><ellipse class="cls-1" cx="303.936" cy="274.108" rx="41.693" ry="52.975" transform="translate(-83.11 407.178) rotate(-61.019)"/></g><path class="cls-4" d="M344.727,108.911l-43.416,165.196,7.689-12.358,39.83-151.353c-1.363-.508-2.732-1-4.103-1.485Z"/></g><path class="cls-8" d="M428.844,153.754c7.553-1.259,15.106-2.517,22.659-3.776l9.61-8.15c-7.466-.635-14.933-1.269-22.399-1.904,9.14-.785,18.28-1.569,27.42-2.354l.906-.768c-7.805,.137-15.62-.261-23.366-1.237,10.165-3.174,20.827-4.308,31.439-5.61l7.518-6.376c-10.347-.195-20.695-.39-31.042-.585,12.432-1.573,24.865-3.146,37.297-4.719l12.115-10.274h-37.5l-60.75,57.75,39-7.5,6.705-5.687c-6.541,.327-13.08,.707-19.612,1.191Z"/><path class="cls-6" d="M296.25,270.75c4.5-1.5,173.25-174,173.25-174l3,3-171.189,174.358-5.061-3.358Z"/><path class="cls-8" d="M453.531,77.234c-.606,8.868-1.473,17.719-2.631,26.533-1.027-6.366-2.09-12.726-3.151-19.086l-11.558,14.883c-.559,7.307-.992,14.623-1.263,21.946-.846-5.709-.885-11.503-.922-17.274l-.012-1.842-8.856,11.403c-.367,6.447-.459,12.906-.178,19.375-1.544-4.818-2.599-9.749-3.426-14.733l-4.306,5.545c.593,5.665,1.116,11.333,1.34,17.004-1.029-4.942-2.032-9.89-3.021-14.84l-4.545,5.853-8.25,33.75,61.5-61.5,1.5-42.75-12.219,15.734Z"/></svg>