<?xml version="1.0" encoding="UTF-8"?>
<svg id="Layer_1" data-name="Layer 1" xmlns="http://www.w3.org/2000/svg" viewBox="0 0 720.66 579.55">
  <defs>
    <style>
      .cls-1 {
        fill: #fff;
      }

      .cls-2 {
        fill: #5683c3;
      }

      .cls-3 {
        fill: #c0cc54;
      }

      .cls-4 {
        fill: #3cb098;
      }

      .cls-5 {
        fill: #1f8b93;
      }

      .cls-6 {
        fill: #8ab66a;
      }

      .cls-7 {
        fill: #cc6155;
      }

      .cls-8 {
        fill: none;
      }

      .cls-9 {
        fill: #b0f4ff;
      }

      .cls-10 {
        fill: #63bc98;
      }

      .cls-11 {
        fill: #1d627f;
      }

      .cls-12 {
        fill: #d7e2f3;
      }
    </style>
  </defs>
  <ellipse class="cls-12" cx="360.33" cy="293.5" rx="371.43" ry="241.29" transform="translate(-75.01 130.84) rotate(-18.68)"/>
  <g>
    <g>
      <polygon class="cls-10" points="264.01 273.87 153.93 273.87 153.93 215 161.11 215 161.11 266.68 264.01 266.68 264.01 273.87"/>
      <rect class="cls-3" x="140.67" y="308.47" width="125.36" height="7.19"/>
      <polygon class="cls-2" points="285.8 431.58 218.18 431.58 218.18 424.39 278.61 424.39 278.61 358.57 285.8 358.57 285.8 431.58"/>
      <polygon class="cls-5" points="357.92 488.65 350.73 488.65 350.73 470.67 319.73 470.67 319.73 373.39 326.92 373.39 326.92 463.48 357.92 463.48 357.92 488.65"/>
      <polygon class="cls-7" points="478.34 439.67 393.87 439.67 393.87 369.35 401.06 369.35 401.06 432.48 478.34 432.48 478.34 439.67"/>
      <polygon class="cls-10" points="592.25 323.74 532.71 323.74 532.71 282.63 423.75 282.63 423.75 275.44 539.9 275.44 539.9 316.55 592.25 316.55 592.25 323.74"/>
      <polygon class="cls-3" points="405.1 237.25 397.91 237.25 397.91 162.21 472.28 162.21 472.28 169.4 405.1 169.4 405.1 237.25"/>
      <polygon class="cls-5" points="289.85 248.7 282.66 248.7 282.66 161.53 355.45 161.53 355.45 106.49 362.64 106.49 362.64 168.72 289.85 168.72 289.85 248.7"/>
      <polygon class="cls-2" points="383.53 235.22 376.34 235.22 376.34 132.55 430.94 132.55 430.94 94.81 480.14 94.81 480.14 62.01 487.33 62.01 487.33 102 438.13 102 438.13 139.74 383.53 139.74 383.53 235.22"/>
    </g>
    <g>
      <circle class="cls-9" cx="345.55" cy="302.57" r="97.89"/>
      <path class="cls-4" d="m452.34,305.44c-1.59,0-2.88-1.29-2.88-2.88,0-57.3-46.61-103.91-103.91-103.91-1.59,0-2.88-1.29-2.88-2.88s1.29-2.88,2.88-2.88c60.47,0,109.66,49.2,109.66,109.66,0,1.59-1.29,2.88-2.88,2.88Z"/>
      <path class="cls-4" d="m345.55,412.23c-60.47,0-109.66-49.2-109.66-109.66,0-1.59,1.29-2.88,2.88-2.88s2.88,1.29,2.88,2.88c0,57.3,46.61,103.91,103.91,103.91,1.59,0,2.88,1.29,2.88,2.88s-1.29,2.88-2.88,2.88Z"/>
      <path class="cls-6" d="m345.45,433.36c-66.3,0-123.29-50.41-130.04-117.75-.3-2.96,1.86-5.61,4.83-5.9,2.97-.3,5.61,1.87,5.9,4.83,6.6,65.84,65.54,114.04,131.37,107.44,65.84-6.6,114.03-65.53,107.44-131.37-6.6-65.84-65.53-114.03-131.37-107.44-2.96.31-5.61-1.86-5.9-4.83-.3-2.96,1.86-5.61,4.83-5.9,71.76-7.19,135.99,45.34,143.18,117.09,7.19,71.76-45.34,135.99-117.09,143.18-4.41.44-8.8.66-13.14.66Z"/>
      <path class="cls-3" d="m197.5,311.56c-4.96,0-8.99-4.02-8.99-8.99,0-41.95,16.33-81.38,45.99-111.04s69.1-45.99,111.04-45.99c4.96,0,8.99,4.02,8.99,8.99s-4.02,8.99-8.99,8.99c-76.68,0-139.06,62.38-139.06,139.06,0,4.96-4.02,8.99-8.99,8.99Z"/>
      <path class="cls-3" d="m345.55,459.6c-4.96,0-8.99-4.02-8.99-8.99s4.02-8.99,8.99-8.99c76.68,0,139.06-62.38,139.06-139.06,0-4.96,4.02-8.99,8.99-8.99s8.99,4.02,8.99,8.99c0,41.95-16.33,81.38-46,111.04-29.66,29.66-69.1,46-111.04,46Z"/>
    </g>
    <g>
      <path class="cls-11" d="m297.97,291.43l-1.57-5.14h-7.87l-1.57,5.14h-4.93l7.62-21.68h5.6l7.65,21.68h-4.93Zm-2.66-8.98l-1.57-5.02c-.1-.33-.23-.77-.39-1.29-.16-.53-.32-1.06-.49-1.61-.16-.55-.29-1.02-.39-1.43-.1.4-.23.9-.41,1.5-.17.6-.34,1.16-.49,1.69-.16.53-.27.91-.34,1.14l-1.55,5.02h5.63Z"/>
      <path class="cls-11" d="m324.77,291.43h-5.82l-9.39-16.34h-.13c.04.68.07,1.36.1,2.05.03.69.06,1.38.09,2.06.03.68.06,1.37.09,2.06v10.16h-4.09v-21.59h5.77l9.38,16.17h.1c-.02-.67-.04-1.33-.07-1.99-.03-.66-.06-1.32-.08-1.98-.02-.66-.05-1.32-.07-1.98v-10.22h4.12v21.59Z"/>
      <path class="cls-11" d="m343.43,291.43l-1.57-5.14h-7.87l-1.57,5.14h-4.93l7.62-21.68h5.6l7.65,21.68h-4.93Zm-2.66-8.98l-1.57-5.02c-.1-.33-.23-.77-.39-1.29-.16-.53-.32-1.06-.49-1.61-.16-.55-.29-1.02-.39-1.43-.1.4-.23.9-.41,1.5-.17.6-.34,1.16-.49,1.69-.16.53-.27.91-.34,1.14l-1.55,5.02h5.63Zm2.95-19.27v.31c-.29.28-.66.62-1.12,1.02-.46.4-.96.82-1.49,1.26s-1.05.86-1.57,1.26c-.51.4-.96.73-1.34,1h-3v-.4c.33-.37.7-.82,1.13-1.34.43-.52.85-1.05,1.28-1.6.42-.55.78-1.05,1.06-1.51h5.05Z"/>
      <path class="cls-11" d="m351.08,291.43v-21.59h4.58v17.81h8.76v3.78h-13.34Z"/>
      <path class="cls-11" d="m368.17,291.43v-21.59h4.58v21.59h-4.58Z"/>
      <path class="cls-11" d="m390.93,285.43c0,1.28-.31,2.39-.93,3.34-.62.95-1.52,1.67-2.71,2.19-1.19.51-2.63.77-4.32.77-.75,0-1.48-.05-2.19-.15-.71-.1-1.4-.24-2.05-.44s-1.28-.43-1.87-.72v-4.25c1.02.45,2.09.86,3.19,1.23s2.2.55,3.28.55c.75,0,1.35-.1,1.81-.3.46-.2.79-.47,1-.81.21-.34.31-.74.31-1.18,0-.54-.18-1-.55-1.39-.36-.38-.86-.74-1.5-1.08-.64-.33-1.35-.69-2.15-1.08-.5-.24-1.05-.52-1.64-.86-.59-.34-1.15-.76-1.68-1.25-.53-.49-.97-1.09-1.31-1.79-.34-.7-.51-1.55-.51-2.53,0-1.29.3-2.39.89-3.31s1.44-1.62,2.53-2.1c1.1-.49,2.4-.73,3.89-.73,1.12,0,2.19.13,3.21.39s2.08.64,3.2,1.13l-1.48,3.56c-.99-.4-1.89-.72-2.67-.94s-1.59-.33-2.41-.33c-.57,0-1.06.09-1.46.27-.4.18-.71.44-.92.77-.21.33-.31.71-.31,1.14,0,.51.15.94.45,1.29.3.35.75.69,1.36,1.01.61.33,1.36.7,2.27,1.14,1.1.52,2.05,1.07,2.83,1.63.78.57,1.39,1.23,1.81,1.99s.64,1.71.64,2.84Z"/>
      <path class="cls-11" d="m407.28,291.43h-12.44v-21.59h12.44v3.75h-7.86v4.74h7.31v3.75h-7.31v5.57h7.86v3.78Z"/>
      <path class="cls-11" d="m276.98,306.13c2.79,0,4.82.6,6.1,1.79,1.28,1.2,1.92,2.84,1.92,4.94,0,.95-.14,1.85-.43,2.71s-.75,1.63-1.4,2.3c-.65.67-1.5,1.2-2.58,1.59s-2.4.58-3.97.58h-1.96v7.68h-4.58v-21.59h6.9Zm-.24,3.75h-2.08v6.41h1.51c.86,0,1.6-.11,2.23-.34s1.12-.58,1.46-1.06.52-1.1.52-1.86c0-1.06-.3-1.85-.89-2.37-.59-.52-1.51-.78-2.75-.78Z"/>
      <path class="cls-11" d="m295.37,306.13c1.96,0,3.58.24,4.85.71,1.27.47,2.22,1.19,2.84,2.14.62.96.93,2.16.93,3.62,0,.99-.19,1.85-.56,2.58-.37.74-.87,1.36-1.48,1.88s-1.27.93-1.98,1.26l6.35,9.41h-5.08l-5.15-8.29h-2.44v8.29h-4.58v-21.59h6.29Zm-.32,3.75h-1.39v5.83h1.48c1.52,0,2.6-.25,3.26-.76s.98-1.25.98-2.24-.35-1.75-1.06-2.19c-.7-.43-1.79-.65-3.27-.65Z"/>
      <path class="cls-11" d="m321.48,327.73h-12.44v-21.59h12.44v3.75h-7.86v4.74h7.31v3.75h-7.31v5.57h7.86v3.78Z"/>
      <path class="cls-11" d="m343.9,316.72c0,2.43-.47,4.46-1.4,6.09-.93,1.63-2.28,2.86-4.04,3.68s-3.88,1.23-6.37,1.23h-6.11v-21.59h6.78c2.26,0,4.23.4,5.89,1.2,1.66.8,2.95,1.99,3.87,3.56.92,1.57,1.37,3.51,1.37,5.83Zm-4.76.12c0-1.59-.23-2.91-.7-3.94-.47-1.03-1.16-1.79-2.07-2.28s-2.04-.74-3.38-.74h-2.44v14.06h1.96c2.24,0,3.9-.6,4.98-1.79s1.63-2.96,1.63-5.32Z"/>
      <path class="cls-11" d="m348.38,327.73v-21.59h4.58v21.59h-4.58Z"/>
      <path class="cls-11" d="m366.72,327.73h-4.58v-17.78h-5.86v-3.81h16.31v3.81h-5.86v17.78Z"/>
      <path class="cls-11" d="m375.91,327.73v-21.59h4.58v21.59h-4.58Z"/>
      <path class="cls-11" d="m402.87,306.13l-7.34,21.59h-4.99l-7.33-21.59h4.62l4.06,12.85c.07.22.18.62.34,1.22s.32,1.23.48,1.89c.16.67.27,1.21.33,1.65.06-.43.16-.98.32-1.64.15-.66.31-1.29.46-1.88.15-.6.26-1.01.33-1.23l4.09-12.85h4.62Z"/>
      <path class="cls-11" d="m418.8,327.73l-1.57-5.14h-7.87l-1.57,5.14h-4.93l7.62-21.68h5.6l7.65,21.68h-4.93Zm-2.66-8.98l-1.57-5.02c-.1-.33-.23-.77-.39-1.29-.16-.53-.32-1.06-.49-1.61-.16-.55-.29-1.02-.39-1.43-.1.4-.23.9-.41,1.5-.17.6-.34,1.16-.49,1.69-.16.53-.27.91-.34,1.14l-1.55,5.02h5.63Z"/>
    </g>
    <g>
      <circle class="cls-5" cx="362.74" cy="61.01" r="61.01"/>
      <g>
        <path class="cls-1" d="m386.22,53.69h-46.96c-2.51,0-4.57,2.06-4.57,4.57v31.97c0,2.51,2.06,4.57,4.57,4.57h46.96c2.51,0,4.57-2.06,4.57-4.57v-31.97c0-2.51-2.06-4.57-4.57-4.57Zm-29.04,22.69h-12.42v-6.42h12.42v6.42Zm23.55,0h-12.42v-6.42h12.42v6.42Z"/>
        <g>
          <g>
            <circle class="cls-1" cx="394.82" cy="34.2" r="6.97"/>
            <rect class="cls-1" x="377.3" y="45.61" width="26.89" height="2.82" transform="translate(227.53 405.14) rotate(-72.36)"/>
          </g>
          <g>
            <circle class="cls-1" cx="330.67" cy="34.2" r="6.97"/>
            <rect class="cls-1" x="333.33" y="33.57" width="2.82" height="26.89" transform="translate(1.49 103.66) rotate(-17.64)"/>
          </g>
        </g>
      </g>
    </g>
    <g>
      <circle class="cls-10" cx="162.03" cy="146.37" r="82.66"/>
      <g>
        <path class="cls-1" d="m135.33,110.68v89.27h58.87l.71-13.49,14.27-.93v-74.86h-73.86Zm9.63,21.84h43.17v5.14h-43.17v-5.14Zm0,10.28h31.76v5.14h-31.76v-5.14Zm0,20.55h43.17v5.14h-43.17v-5.14Zm48.88,15.41h-48.88v-5.14h48.88v5.14Zm5.71-20.55h-54.59v-5.14h54.59v5.14Zm0-30.83h-54.59v-5.14h54.59v5.14Z"/>
        <polygon class="cls-1" points="118.92 96.69 188.72 96.69 188.72 92.79 114.86 92.79 114.86 182.06 118.92 182.06 118.92 96.69"/>
        <polygon class="cls-1" points="131.09 106.92 196.68 106.92 196.68 99.94 122.82 99.94 122.82 189.21 131.09 189.21 131.09 106.92"/>
      </g>
    </g>
    <g>
      <circle class="cls-2" cx="155.55" cy="428.71" r="74.91"/>
      <g>
        <path class="cls-1" d="m196.66,465.56h-78.63c-.3,0-.55-.25-.55-.55v-78.63c0-.3.25-.55.55-.55h78.63c.3,0,.55.25.55.55v78.63c0,.3-.25.55-.55.55Zm-78.08-1.1h77.53v-77.53h-77.53v77.53Z"/>
        <path class="cls-1" d="m196.66,452.45h-78.63c-.3,0-.55-.25-.55-.55s.25-.55.55-.55h78.63c.3,0,.55.25.55.55s-.25.55-.55.55Z"/>
        <path class="cls-1" d="m196.66,439.35h-78.63c-.3,0-.55-.25-.55-.55s.25-.55.55-.55h78.63c.3,0,.55.25.55.55s-.25.55-.55.55Z"/>
        <path class="cls-1" d="m196.66,426.25h-78.63c-.3,0-.55-.25-.55-.55s.25-.55.55-.55h78.63c.3,0,.55.25.55.55s-.25.55-.55.55Z"/>
        <path class="cls-1" d="m196.66,413.14h-78.63c-.3,0-.55-.25-.55-.55s.25-.55.55-.55h78.63c.3,0,.55.25.55.55s-.25.55-.55.55Z"/>
        <path class="cls-1" d="m196.66,400.04h-78.63c-.3,0-.55-.25-.55-.55s.25-.55.55-.55h78.63c.3,0,.55.25.55.55s-.25.55-.55.55Z"/>
        <path class="cls-1" d="m183.55,465.56c-.3,0-.55-.25-.55-.55v-78.63c0-.3.25-.55.55-.55s.55.25.55.55v78.63c0,.3-.25.55-.55.55Z"/>
        <path class="cls-1" d="m170.45,465.56c-.3,0-.55-.25-.55-.55v-78.63c0-.3.25-.55.55-.55s.55.25.55.55v78.63c0,.3-.25.55-.55.55Z"/>
        <path class="cls-1" d="m157.34,465.56c-.3,0-.55-.25-.55-.55v-78.63c0-.3.25-.55.55-.55s.55.25.55.55v78.63c0,.3-.25.55-.55.55Z"/>
        <path class="cls-1" d="m144.24,465.56c-.3,0-.55-.25-.55-.55v-78.63c0-.3.25-.55.55-.55s.55.25.55.55v78.63c0,.3-.25.55-.55.55Z"/>
        <path class="cls-1" d="m131.14,465.56c-.3,0-.55-.25-.55-.55v-78.63c0-.3.25-.55.55-.55s.55.25.55.55v78.63c0,.3-.25.55-.55.55Z"/>
      </g>
      <g>
        <path class="cls-1" d="m204.3,466.66h-86.27c-.91,0-1.65-.74-1.65-1.65v-87.23c0-.91.74-1.65,1.65-1.65s1.65.74,1.65,1.65v85.58h84.62c.91,0,1.65.74,1.65,1.65s-.74,1.65-1.65,1.65Z"/>
        <polygon class="cls-1" points="203.34 461.72 209.04 465.01 203.34 468.3 203.34 461.72"/>
        <polygon class="cls-1" points="121.32 378.74 118.03 373.04 114.74 378.74 121.32 378.74"/>
      </g>
      <path class="cls-1" d="m124.84,458.34c-.43,0-.85-.16-1.17-.49-.64-.65-.64-1.69.01-2.33l75.39-74.57c.65-.64,1.69-.64,2.33.01.64.65.64,1.69-.01,2.33l-75.39,74.57c-.32.32-.74.48-1.16.48Z"/>
      <circle class="cls-1" cx="173.96" cy="393.95" r="2.61"/>
      <circle class="cls-1" cx="161.85" cy="396.7" r="2.61"/>
      <circle class="cls-1" cx="158" cy="411.56" r="2.61"/>
      <circle class="cls-1" cx="145.34" cy="422.57" r="2.61"/>
      <circle class="cls-1" cx="130.76" cy="420.64" r="2.61"/>
      <circle class="cls-1" cx="127.73" cy="439.63" r="2.61"/>
      <circle class="cls-1" cx="160.2" cy="439.63" r="2.61"/>
      <circle class="cls-1" cx="144.24" cy="450.91" r="2.61"/>
      <circle class="cls-1" cx="183.04" cy="412.66" r="2.61"/>
      <circle class="cls-1" cx="177.26" cy="428.62" r="2.61"/>
      <circle class="cls-1" cx="183.59" cy="442.65" r="2.61"/>
      <circle class="cls-1" cx="146.99" cy="409.36" r="2.61"/>
    </g>
    <g>
      <circle class="cls-3" cx="512.32" cy="178.38" r="72.13"/>
      <g>
        <path class="cls-1" d="m547.31,150.08c-1.12-16.1-14.53-28.82-30.91-28.82-11.77,0-22.01,6.56-27.26,16.22-10.22,1.06-18.47,8.73-20.4,18.66-5.98,1.64-10.37,7.11-10.37,13.6,0,7.79,6.32,14.11,14.11,14.11h74.71c9.33,0,16.89-7.56,16.89-16.89s-7.5-16.83-16.78-16.89Z"/>
        <path class="cls-1" d="m540.59,192.75c-.83.83-.83,2.17,0,3,.41.41.96.62,1.5.62s1.08-.21,1.5-.62l5.76-8.76-8.76,5.76Z"/>
        <path class="cls-1" d="m519.33,208.19c-.83.83-.83,2.17,0,3,.41.41.96.62,1.5.62s1.08-.21,1.5-.62l5.76-8.76-8.76,5.76Z"/>
        <path class="cls-1" d="m469.39,218.92c-.83.83-.83,2.17,0,3,.41.41.96.62,1.5.62s1.08-.21,1.5-.62l5.76-8.76-8.76,5.76Z"/>
        <path class="cls-1" d="m491.49,205.98c-.83.83-.83,2.17,0,3,.41.41.96.62,1.5.62s1.08-.21,1.5-.62l5.76-8.76-8.76,5.76Z"/>
        <path class="cls-1" d="m495.55,223.35c-.83.83-.83,2.17,0,3,.41.41.96.62,1.5.62s1.08-.21,1.5-.62l5.76-8.76-8.76,5.76Z"/>
        <path class="cls-1" d="m479.12,228.52c-.83.83-.83,2.17,0,3,.41.41.96.62,1.5.62s1.08-.21,1.5-.62l5.76-8.76-8.76,5.76Z"/>
        <path class="cls-1" d="m515.62,192.62c-.83.83-.83,2.17,0,3,.41.41.96.62,1.5.62s1.08-.21,1.5-.62l5.76-8.76-8.76,5.76Z"/>
        <path class="cls-1" d="m487.01,192.62c-.83.83-.83,2.17,0,3,.41.41.96.62,1.5.62s1.08-.21,1.5-.62l5.76-8.76-8.76,5.76Z"/>
        <path class="cls-1" d="m466.41,204.35c-.83.83-.83,2.17,0,3,.41.41.96.62,1.5.62s1.08-.21,1.5-.62l5.76-8.76-8.76,5.76Z"/>
        <path class="cls-1" d="m457.86,194.41c-.83.83-.83,2.17,0,3,.41.41.96.62,1.5.62s1.08-.21,1.5-.62l5.76-8.76-8.76,5.76Z"/>
      </g>
    </g>
    <g>
      <circle class="cls-7" cx="515.84" cy="415.75" r="50.82"/>
      <g>
        <path class="cls-1" d="m524.56,421.28v-26.67h-46.16v26.67h19.56v12.6h-1.64c-2.65,0-4.8,2.15-4.8,4.8h19.92c0-2.65-2.15-4.8-4.8-4.8h-1.64v-12.6h19.56Zm-43.4-4.2v-20.13h40.64v20.13h-40.64Z"/>
        <path class="cls-1" d="m547.07,395.23h-13.44c-2.86,0-5.18,2.32-5.18,5.18v33.09c0,2.86,2.32,5.18,5.18,5.18h13.44c2.86,0,5.18-2.32,5.18-5.18v-33.09c0-2.86-2.32-5.18-5.18-5.18Zm.28,27.73h-14v-3.92h14v3.92Zm0-5.6h-14v-3.92h14v3.92Zm0-13.16h-14v-3.92h14v3.92Z"/>
      </g>
    </g>
    <g>
      <circle class="cls-3" cx="105.51" cy="297.94" r="43.17"/>
      <g>
        <g>
          <circle class="cls-1" cx="105.51" cy="293.1" r="9.23"/>
          <path class="cls-1" d="m105.35,304.22h.33c7.95,0,14.41,6.46,14.41,14.41v.19c0,1.32-1.07,2.38-2.38,2.38h-24.39c-1.32,0-2.38-1.07-2.38-2.38v-.19c0-7.95,6.46-14.41,14.41-14.41Z"/>
        </g>
        <path class="cls-1" d="m118.69,292.5c-.18,0-.36,0-.53.01.07.56.11,1.13.11,1.71,0,3.29-1.15,6.32-3.08,8.7,1.68.97,3.18,2.23,4.43,3.7h9.19c1.11,0,2.01-.9,2.01-2.01h0c0-6.7-5.43-12.12-12.12-12.12Z"/>
        <path class="cls-1" d="m118.69,275.58c-3.84,0-7.02,2.83-7.58,6.51,3.32,1.85,5.81,5.02,6.74,8.79.27.03.55.05.83.05,4.24,0,7.68-3.44,7.68-7.68s-3.44-7.68-7.68-7.68Z"/>
        <path class="cls-1" d="m93.17,290.88c.94-3.78,3.42-6.94,6.74-8.79-.56-3.69-3.74-6.51-7.58-6.51-4.24,0-7.68,3.44-7.68,7.68s3.44,7.68,7.68,7.68c.28,0,.56-.02.83-.05Z"/>
        <path class="cls-1" d="m95.84,302.93c-1.92-2.38-3.08-5.41-3.08-8.7,0-.58.04-1.15.11-1.71-.18,0-.36-.01-.53-.01-6.7,0-12.12,5.43-12.12,12.12h0c0,1.11.9,2.01,2.01,2.01h9.19c1.25-1.47,2.75-2.73,4.43-3.7Z"/>
      </g>
    </g>
    <g>
      <circle class="cls-2" cx="484.05" cy="46.07" r="38.38"/>
      <g>
        <path class="cls-1" d="m489.49,48v-17.65c0-4.68-3.8-8.48-8.48-8.48s-8.48,3.8-8.48,8.48v17.65c-3.06,2.47-5.01,6.25-5.01,10.49,0,7.45,6.04,13.5,13.5,13.5s13.5-6.04,13.5-13.5c0-4.24-1.96-8.02-5.01-10.49Zm-8.48,17.13c-3.66,0-6.64-2.98-6.64-6.64,0-2.01.9-3.89,2.47-5.17l2.54-2.06v-20.92c0-.9.73-1.63,1.63-1.63s1.63.73,1.63,1.63v1.55h3.14c.43,0,.77.35.77.77s-.35.77-.77.77h-3.14v1.93h3.14c.43,0,.77.35.77.77s-.35.77-.77.77h-3.14v1.93h3.14c.43,0,.77.35.77.77s-.35.77-.77.77h-3.14v1.93h3.14c.43,0,.77.35.77.77s-.35.77-.77.77h-3.14v1.93h3.14c.43,0,.77.35.77.77s-.35.77-.77.77h-3.14v3.95l2.54,2.06c1.57,1.27,2.47,3.15,2.47,5.17,0,3.66-2.98,6.64-6.64,6.64Z"/>
        <path class="cls-1" d="m498.54,34.9c-3.4,0-6.17-2.77-6.17-6.17s2.77-6.17,6.17-6.17,6.17,2.77,6.17,6.17-2.77,6.17-6.17,6.17Zm0-8.91c-1.51,0-2.74,1.23-2.74,2.74s1.23,2.74,2.74,2.74,2.74-1.23,2.74-2.74-1.23-2.74-2.74-2.74Z"/>
      </g>
    </g>
    <g>
      <circle class="cls-5" cx="353.86" cy="531.23" r="48.33"/>
      <g>
        <path class="cls-8" d="m359.48,536.85c-.82-.53-1.84-1.06-3.06-1.6v10.08c1.89-.32,3.28-.88,4.17-1.68.89-.8,1.34-1.83,1.34-3.1,0-.76-.2-1.43-.61-2.03-.4-.59-1.02-1.15-1.84-1.68Z"/>
        <path class="cls-8" d="m346.26,513.96c-.4.57-.61,1.24-.61,2.03s.18,1.47.55,2.06c.36.59.93,1.15,1.7,1.66.77.51,1.76,1.04,2.98,1.58v-9.51c-1.11.16-2.05.42-2.83.79-.78.36-1.38.83-1.78,1.4Z"/>
        <path class="cls-8" d="m341.77,543.98c3.18.9,6.22,1.45,9.11,1.64v-12.55c-1.13-.44-2.19-.88-3.2-1.32l-10.67,10.67c1.46.55,3.04,1.07,4.76,1.56Z"/>
        <path class="cls-1" d="m351.42,528.01l-3.74,3.74c1.01.44,2.07.88,3.2,1.32v12.55c-2.89-.19-5.92-.73-9.11-1.64-1.72-.49-3.3-1.01-4.76-1.56l-3.46,3.46v5.77c2.32,1.03,4.89,1.84,7.71,2.45,2.82.61,6.02.95,9.61,1.03v8.14h5.55v-8.3c5.94-.54,10.37-2.17,13.3-4.9,2.93-2.73,4.39-6.1,4.39-10.12,0-1.05-.1-2.03-.28-2.95l-6.71,6.71-15.7-15.7Zm9.17,15.65c-.89.8-2.28,1.36-4.17,1.68v-10.08c1.21.54,2.23,1.07,3.06,1.6.82.53,1.44,1.09,1.84,1.68.41.59.61,1.27.61,2.03,0,1.27-.45,2.3-1.34,3.1Z"/>
        <path class="cls-1" d="m367.12,536.46l4.4-4.4c-1.7-1.98-3.88-3.61-6.56-4.9-2.7-1.3-5.55-2.5-8.54-3.6v-11.94c1.97.16,4.07.5,6.3,1.01,2.23.51,4.45,1.23,6.66,2.15l3.81-9.47c-2.62-1.16-5.28-2.04-8-2.65-2.71-.61-5.63-.97-8.76-1.07v-6.03h-5.55v6.19c-3.43.3-6.45,1.05-9.07,2.27-2.62,1.21-4.66,2.83-6.13,4.84-1.47,2.01-2.21,4.39-2.21,7.15s.56,5.01,1.68,6.94c1.12,1.93,2.96,3.68,5.51,5.26.65.4,1.36.81,2.12,1.21l8.65-8.65,15.7,15.7Zm-16.24-15.17c-1.21-.54-2.21-1.07-2.98-1.58-.77-.51-1.34-1.07-1.7-1.66-.36-.59-.55-1.28-.55-2.06s.2-1.46.61-2.03c.41-.57,1-1.03,1.78-1.4.78-.36,1.73-.63,2.83-.79v9.51Z"/>
        <path class="cls-1" d="m379.04,520.94l1.8,1.8-9.31,9.31s.03.03.04.04c1.15,1.35,1.9,2.99,2.27,4.9l10.63-10.63,1.8,1.8,2.65-9.88-9.88,2.65Z"/>
        <path class="cls-1" d="m337.01,542.42l10.67-10.67c-1.83-.79-3.47-1.57-4.91-2.35l-21.05,21.05,3.63,3.63,8.2-8.2v-4.91c1.05.51,2.21.99,3.46,1.46Z"/>
      </g>
    </g>
    <g>
      <circle class="cls-10" cx="648.19" cy="326.83" r="72.13"/>
      <g>
        <rect class="cls-1" x="611.96" y="316.78" width="12.13" height="36.73"/>
        <rect class="cls-1" x="628.14" y="293.86" width="12.13" height="59.65"/>
        <rect class="cls-1" x="658.81" y="340.37" width="12.13" height="13.14"/>
        <rect class="cls-1" x="597.13" y="340.37" width="12.13" height="13.14"/>
        <rect class="cls-1" x="687.11" y="340.37" width="12.13" height="13.14"/>
        <rect class="cls-1" x="642.97" y="331.61" width="12.13" height="21.9"/>
        <rect class="cls-1" x="672.96" y="311.72" width="12.13" height="41.79"/>
      </g>
    </g>
  </g>
</svg>