<?xml version="1.0" encoding="UTF-8"?>
<svg id="Camada_1" data-name="Camada 1" xmlns="http://www.w3.org/2000/svg" viewBox="0 0 1920 1080">
  <defs>
    <style>
      .cls-1 {
        fill: #fff;
      }

      .cls-2 {
        fill: #5683c3;
      }

      .cls-3 {
        fill: #cc6155;
      }

      .cls-4 {
        fill: #00505a;
      }
    </style>
  </defs>
  <g>
    <rect class="cls-2" x="49.92" y="270.23" width="412.37" height="190.33"/>
    <g>
      <g>
        <g>
          <path class="cls-1" d="m155.16,313.66l-10.64,4.53,8.17,19.21,10.64-4.53c5.3-2.26,7.77-8.39,5.52-13.69s-8.39-7.77-13.69-5.52Z"/>
          <path class="cls-1" d="m129.13,324.73c-5.3,2.26-7.77,8.39-5.52,13.69s8.39,7.77,13.69,5.52l12.91-5.49-8.17-19.21-12.91,5.49Z"/>
        </g>
        <g>
          <path class="cls-1" d="m165.66,350.03l-7.3-1.73-3.12,13.19,7.3,1.73c3.64.86,7.29-1.39,8.16-5.03.86-3.64-1.39-7.29-5.03-8.16Z"/>
          <path class="cls-1" d="m147.8,345.8c-3.64-.86-7.29,1.39-8.16,5.03s1.39,7.29,5.03,8.16l8.86,2.1,3.12-13.19-8.86-2.1Z"/>
        </g>
        <g>
          <path class="cls-1" d="m109.21,352.42l3.03,5.44,9.83-5.47-3.03-5.44c-1.51-2.71-4.93-3.69-7.65-2.18s-3.69,4.93-2.18,7.65Z"/>
          <path class="cls-1" d="m116.63,365.73c1.51,2.71,4.93,3.69,7.65,2.18s3.69-4.93,2.18-7.65l-3.68-6.6-9.83,5.47,3.68,6.6Z"/>
        </g>
      </g>
      <path class="cls-1" d="m189.33,363.07h0c-2.51-2.51-6.58-2.51-9.09,0l-13.69,13.69c1.19,1.59,1.86,3.58,1.76,5.73-.24,4.78-4.44,8.42-9.23,8.42h-20.34c-.6,0-1.09-.49-1.09-1.09h0c0-.6.49-1.09,1.09-1.09h20.43c3.5,0,6.62-2.56,6.95-6.04.38-3.99-2.75-7.35-6.66-7.35h-53.38l-2.17,2.17-17.19,17.19,22.26,22.26,17.73-17.73s35.47-.72,35.47,0c0,.55,18.49-18.23,27.21-27.12,2.47-2.52,2.45-6.55-.05-9.05Z"/>
    </g>
    <g>
      <path class="cls-1" d="m280.48,312.38c1.91,0,3.48.23,4.73.69,1.24.46,2.17,1.16,2.77,2.09.6.93.91,2.11.91,3.53,0,.96-.18,1.8-.55,2.52-.36.72-.84,1.33-1.44,1.83s-1.24.91-1.93,1.22l6.19,9.17h-4.95l-5.02-8.07h-2.37v8.07h-4.46v-21.04h6.13Zm-.32,3.65h-1.35v5.68h1.44c1.48,0,2.53-.25,3.17-.74.64-.49.96-1.22.96-2.18s-.34-1.71-1.03-2.13c-.69-.42-1.75-.63-3.19-.63Z"/>
      <path class="cls-1" d="m300.09,317.03c1.49,0,2.77.29,3.84.86,1.07.57,1.9,1.4,2.49,2.48.58,1.08.88,2.41.88,3.97v2.13h-10.38c.05,1.24.42,2.21,1.12,2.91.7.71,1.66,1.06,2.9,1.06,1.03,0,1.97-.11,2.82-.32.85-.21,1.73-.53,2.63-.95v3.4c-.8.39-1.63.68-2.5.86-.87.18-1.92.27-3.16.27-1.61,0-3.04-.3-4.28-.89-1.24-.59-2.22-1.5-2.92-2.72-.71-1.22-1.06-2.75-1.06-4.6s.32-3.45.96-4.7c.64-1.25,1.53-2.19,2.67-2.82,1.14-.63,2.47-.94,3.99-.94Zm.03,3.12c-.85,0-1.56.27-2.12.82-.56.55-.88,1.41-.97,2.58h6.16c0-.65-.13-1.23-.35-1.74-.23-.51-.56-.91-1.01-1.21-.45-.3-1.01-.45-1.71-.45Z"/>
      <path class="cls-1" d="m317.4,333.71c-1.59,0-2.95-.29-4.07-.87-1.12-.58-1.98-1.48-2.56-2.7-.59-1.22-.88-2.78-.88-4.68s.33-3.57,1-4.81c.67-1.24,1.59-2.16,2.78-2.74,1.18-.58,2.56-.88,4.12-.88,1.11,0,2.07.11,2.89.32.81.22,1.52.47,2.12.77l-1.3,3.4c-.69-.28-1.33-.51-1.93-.68-.59-.18-1.19-.27-1.78-.27-.77,0-1.41.18-1.91.54-.51.36-.89.9-1.14,1.62-.25.72-.37,1.62-.37,2.71s.13,1.95.4,2.65c.27.7.66,1.22,1.17,1.56.51.34,1.13.51,1.86.51.91,0,1.72-.12,2.43-.37.71-.24,1.4-.59,2.07-1.03v3.76c-.67.42-1.37.73-2.11.91s-1.66.28-2.78.28Z"/>
      <path class="cls-1" d="m332.65,317.03c1.49,0,2.77.29,3.84.86,1.07.57,1.9,1.4,2.49,2.48.58,1.08.88,2.41.88,3.97v2.13h-10.38c.05,1.24.42,2.21,1.12,2.91.7.71,1.66,1.06,2.9,1.06,1.03,0,1.97-.11,2.82-.32.85-.21,1.73-.53,2.63-.95v3.4c-.8.39-1.63.68-2.5.86-.87.18-1.92.27-3.16.27-1.61,0-3.04-.3-4.28-.89-1.24-.59-2.22-1.5-2.92-2.72-.71-1.22-1.06-2.75-1.06-4.6s.32-3.45.96-4.7c.64-1.25,1.53-2.19,2.67-2.82,1.14-.63,2.47-.94,3.99-.94Zm.03,3.12c-.85,0-1.56.27-2.12.82-.56.55-.88,1.41-.97,2.58h6.16c0-.65-.13-1.23-.35-1.74-.23-.51-.56-.91-1.01-1.21-.45-.3-1.01-.45-1.71-.45Z"/>
      <path class="cls-1" d="m347.82,311.03v5.21c0,.6-.02,1.2-.05,1.8s-.07,1.06-.12,1.38h.17c.42-.66,1-1.23,1.73-1.69s1.67-.7,2.83-.7c1.8,0,3.27.71,4.39,2.12,1.12,1.41,1.68,3.48,1.68,6.2,0,1.83-.26,3.37-.78,4.61-.52,1.24-1.24,2.18-2.17,2.81-.93.63-2.01.94-3.24.94s-2.11-.21-2.79-.63c-.68-.42-1.23-.9-1.65-1.42h-.3l-.73,1.77h-3.35v-22.39h4.39Zm3.15,9.51c-.77,0-1.38.16-1.83.48-.45.32-.78.79-.99,1.42-.21.63-.32,1.43-.34,2.4v.47c0,1.56.23,2.76.69,3.59.46.83,1.3,1.24,2.52,1.24.9,0,1.62-.42,2.15-1.25.53-.83.8-2.04.8-3.61s-.27-2.76-.81-3.55c-.54-.8-1.27-1.19-2.2-1.19Z"/>
      <path class="cls-1" d="m368.71,317.03c1.49,0,2.77.29,3.84.86,1.07.57,1.9,1.4,2.49,2.48.58,1.08.88,2.41.88,3.97v2.13h-10.38c.05,1.24.42,2.21,1.12,2.91.7.71,1.66,1.06,2.9,1.06,1.03,0,1.97-.11,2.82-.32.85-.21,1.73-.53,2.63-.95v3.4c-.8.39-1.63.68-2.5.86-.87.18-1.92.27-3.16.27-1.61,0-3.04-.3-4.28-.89-1.24-.59-2.22-1.5-2.92-2.72-.71-1.22-1.06-2.75-1.06-4.6s.32-3.45.96-4.7c.64-1.25,1.53-2.19,2.67-2.82,1.14-.63,2.47-.94,3.99-.94Zm.03,3.12c-.85,0-1.56.27-2.12.82-.56.55-.88,1.41-.97,2.58h6.16c0-.65-.13-1.23-.35-1.74-.23-.51-.56-.91-1.01-1.21-.45-.3-1.01-.45-1.71-.45Z"/>
      <path class="cls-1" d="m394.26,317.33v16.09h-3.37l-.59-2.06h-.23c-.35.55-.78.99-1.3,1.34-.52.35-1.09.6-1.71.76-.62.16-1.27.24-1.94.24-1.15,0-2.15-.2-3.01-.61-.85-.41-1.52-1.04-1.99-1.91-.47-.86-.71-1.99-.71-3.37v-10.49h4.39v9.4c0,1.15.21,2.02.62,2.6.41.58,1.07.88,1.97.88s1.59-.2,2.1-.61c.51-.41.87-1.01,1.07-1.8.21-.79.31-1.76.31-2.9v-7.57h4.39Z"/>
      <path class="cls-1" d="m253.47,352.39c1.82,0,3.2.47,4.14,1.4.94.94,1.4,2.43,1.4,4.5v10.49h-4.4v-9.4c0-1.15-.2-2.02-.59-2.6-.39-.58-1-.88-1.83-.88-1.16,0-1.99.42-2.47,1.25-.49.83-.73,2.02-.73,3.56v8.07h-4.39v-9.4c0-.77-.09-1.41-.26-1.93-.17-.52-.44-.91-.79-1.17-.35-.26-.81-.39-1.37-.39-.82,0-1.46.2-1.92.61s-.8,1.01-.99,1.8c-.2.79-.29,1.76-.29,2.9v7.57h-4.39v-16.09h3.35l.59,2.06h.24c.33-.56.74-1.01,1.23-1.35.49-.35,1.04-.6,1.63-.76s1.2-.24,1.81-.24c1.18,0,2.18.19,3,.58s1.45.98,1.89,1.78h.39c.48-.83,1.16-1.42,2.04-1.8s1.78-.56,2.71-.56Z"/>
      <path class="cls-1" d="m270.15,352.39c1.49,0,2.77.29,3.84.86,1.07.57,1.9,1.4,2.49,2.48.58,1.08.88,2.41.88,3.97v2.13h-10.38c.05,1.24.42,2.21,1.12,2.91.7.71,1.66,1.06,2.9,1.06,1.03,0,1.97-.11,2.82-.32.85-.21,1.73-.53,2.63-.95v3.4c-.8.39-1.63.68-2.5.86-.87.18-1.92.27-3.16.27-1.61,0-3.04-.3-4.28-.89-1.24-.59-2.22-1.5-2.92-2.72-.71-1.22-1.06-2.75-1.06-4.6s.32-3.45.96-4.7c.64-1.25,1.53-2.19,2.67-2.82,1.14-.63,2.47-.94,3.99-.94Zm.03,3.12c-.85,0-1.56.27-2.12.82-.56.55-.88,1.41-.97,2.58h6.16c0-.65-.13-1.23-.35-1.74-.23-.51-.56-.91-1.01-1.21-.45-.3-1.01-.45-1.71-.45Z"/>
      <path class="cls-1" d="m286.02,369.07c-1.79,0-3.25-.7-4.38-2.11-1.13-1.41-1.69-3.47-1.69-6.19s.57-4.84,1.71-6.25,2.63-2.12,4.48-2.12c.77,0,1.44.11,2.03.32.58.21,1.09.49,1.52.85.43.35.79.75,1.09,1.19h.14c-.06-.31-.13-.76-.21-1.36s-.12-1.22-.12-1.85v-5.15h4.4v22.39h-3.37l-.85-2.09h-.19c-.28.44-.63.84-1.04,1.2-.42.36-.91.65-1.49.86s-1.25.32-2.03.32Zm1.54-3.5c1.2,0,2.05-.36,2.54-1.07s.76-1.79.78-3.23v-.48c0-1.56-.24-2.76-.72-3.59-.48-.83-1.37-1.24-2.68-1.24-.97,0-1.73.42-2.27,1.25s-.82,2.04-.82,3.61.28,2.76.83,3.55c.55.8,1.33,1.19,2.34,1.19Z"/>
      <path class="cls-1" d="m301.78,346.39c.65,0,1.21.15,1.68.45.47.3.71.87.71,1.69s-.24,1.38-.71,1.69c-.47.31-1.03.47-1.68.47s-1.23-.16-1.69-.47c-.47-.31-.7-.88-.7-1.69s.23-1.39.7-1.69,1.03-.45,1.69-.45Zm2.19,6.3v16.09h-4.39v-16.09h4.39Z"/>
      <path class="cls-1" d="m315.11,369.07c-1.59,0-2.95-.29-4.07-.87-1.12-.58-1.98-1.48-2.56-2.7-.59-1.22-.88-2.78-.88-4.68s.33-3.57,1-4.81c.67-1.24,1.59-2.16,2.78-2.74,1.18-.58,2.56-.88,4.12-.88,1.11,0,2.07.11,2.89.32.81.22,1.52.47,2.12.77l-1.3,3.4c-.69-.28-1.33-.51-1.93-.68-.59-.18-1.19-.27-1.78-.27-.77,0-1.41.18-1.91.54-.51.36-.89.9-1.14,1.62-.25.72-.37,1.62-.37,2.71s.13,1.95.4,2.65c.27.7.66,1.22,1.17,1.56.51.34,1.13.51,1.86.51.91,0,1.72-.12,2.43-.37.71-.24,1.4-.59,2.07-1.03v3.76c-.67.42-1.37.73-2.11.91s-1.66.28-2.78.28Z"/>
      <path class="cls-1" d="m330.31,352.36c2.16,0,3.81.47,4.96,1.41,1.15.94,1.73,2.37,1.73,4.29v10.72h-3.06l-.85-2.19h-.12c-.46.58-.93,1.05-1.41,1.41s-1.03.63-1.65.81-1.38.26-2.27.26c-.95,0-1.8-.18-2.55-.55-.75-.36-1.35-.92-1.78-1.68-.43-.75-.65-1.71-.65-2.87,0-1.71.6-2.97,1.8-3.78,1.2-.81,3-1.26,5.4-1.35l2.79-.09v-.71c0-.84-.22-1.46-.66-1.86-.44-.39-1.06-.59-1.84-.59s-1.54.11-2.29.33-1.5.5-2.24.83l-1.45-2.96c.85-.45,1.81-.81,2.87-1.06,1.06-.26,2.16-.39,3.29-.39Zm2.33,8.96l-1.7.06c-1.42.04-2.41.29-2.96.76-.55.47-.83,1.09-.83,1.86,0,.67.2,1.15.59,1.43.39.28.91.42,1.54.42.94,0,1.73-.28,2.38-.83.65-.56.97-1.35.97-2.37v-1.32Z"/>
      <path class="cls-1" d="m360.42,352.39c1.82,0,3.2.47,4.14,1.4.94.94,1.4,2.43,1.4,4.5v10.49h-4.4v-9.4c0-1.15-.2-2.02-.59-2.6-.39-.58-1-.88-1.83-.88-1.16,0-1.99.42-2.47,1.25-.49.83-.73,2.02-.73,3.56v8.07h-4.39v-9.4c0-.77-.09-1.41-.26-1.93-.17-.52-.44-.91-.79-1.17-.35-.26-.81-.39-1.37-.39-.82,0-1.46.2-1.92.61s-.8,1.01-.99,1.8c-.2.79-.29,1.76-.29,2.9v7.57h-4.39v-16.09h3.35l.59,2.06h.24c.33-.56.74-1.01,1.23-1.35.49-.35,1.04-.6,1.63-.76s1.2-.24,1.81-.24c1.18,0,2.18.19,3,.58s1.45.98,1.89,1.78h.39c.48-.83,1.16-1.42,2.04-1.8s1.78-.56,2.71-.56Z"/>
      <path class="cls-1" d="m377.1,352.39c1.49,0,2.77.29,3.84.86,1.07.57,1.9,1.4,2.49,2.48.58,1.08.88,2.41.88,3.97v2.13h-10.38c.05,1.24.42,2.21,1.12,2.91.7.71,1.66,1.06,2.9,1.06,1.03,0,1.97-.11,2.82-.32.85-.21,1.73-.53,2.63-.95v3.4c-.8.39-1.63.68-2.5.86-.87.18-1.92.27-3.16.27-1.61,0-3.04-.3-4.28-.89-1.24-.59-2.22-1.5-2.92-2.72-.71-1.22-1.06-2.75-1.06-4.6s.32-3.45.96-4.7c.64-1.25,1.53-2.19,2.67-2.82,1.14-.63,2.47-.94,3.99-.94Zm.03,3.12c-.85,0-1.56.27-2.12.82-.56.55-.88,1.41-.97,2.58h6.16c0-.65-.13-1.23-.35-1.74-.23-.51-.56-.91-1.01-1.21-.45-.3-1.01-.45-1.71-.45Z"/>
      <path class="cls-1" d="m397.01,352.39c1.72,0,3.1.47,4.14,1.4,1.05.94,1.57,2.43,1.57,4.5v10.49h-4.39v-9.4c0-1.15-.21-2.02-.63-2.6-.42-.58-1.07-.88-1.96-.88-1.34,0-2.26.46-2.75,1.37-.49.91-.73,2.23-.73,3.94v7.57h-4.39v-16.09h3.35l.59,2.06h.24c.35-.56.77-1.01,1.29-1.35.51-.35,1.08-.6,1.71-.76s1.28-.24,1.95-.24Z"/>
      <path class="cls-1" d="m414.02,365.57c.48,0,.95-.05,1.4-.14.46-.1.91-.22,1.36-.36v3.27c-.47.21-1.05.39-1.75.53-.7.14-1.46.21-2.28.21-.96,0-1.82-.16-2.58-.47-.76-.31-1.36-.85-1.8-1.63-.44-.77-.65-1.85-.65-3.23v-7.76h-2.1v-1.86l2.42-1.47,1.27-3.4h2.81v3.42h4.5v3.29h-4.5v7.76c0,.61.17,1.07.53,1.37.35.3.81.45,1.39.45Z"/>
      <path class="cls-1" d="m434.65,360.71c0,1.34-.18,2.53-.54,3.57-.36,1.04-.88,1.91-1.57,2.63-.69.71-1.51,1.25-2.48,1.62-.96.36-2.05.55-3.26.55-1.13,0-2.17-.18-3.12-.55-.94-.36-1.77-.9-2.46-1.62-.7-.71-1.23-1.59-1.61-2.63s-.57-2.23-.57-3.57c0-1.78.32-3.29.95-4.53.63-1.24,1.53-2.18,2.71-2.82,1.17-.64,2.57-.96,4.19-.96,1.51,0,2.84.32,4.01.96,1.17.64,2.08,1.58,2.75,2.82.67,1.24,1,2.75,1,4.53Zm-11.12,0c0,1.06.12,1.94.35,2.66.23.72.59,1.26,1.08,1.63.49.36,1.13.55,1.91.55s1.41-.18,1.89-.55c.48-.36.84-.91,1.06-1.63.23-.72.34-1.61.34-2.66s-.11-1.95-.34-2.65c-.23-.71-.58-1.23-1.07-1.59s-1.13-.53-1.91-.53c-1.16,0-2,.4-2.53,1.19-.52.8-.78,1.99-.78,3.58Z"/>
      <path class="cls-1" d="m341.27,415.93l-2.03-6.68h-10.23l-2.03,6.68h-6.41l9.9-28.17h7.27l9.94,28.17h-6.41Zm-3.45-11.67l-2.03-6.52c-.13-.43-.3-.99-.51-1.68-.21-.68-.42-1.38-.63-2.09-.21-.71-.38-1.33-.51-1.85-.13.52-.3,1.17-.53,1.95-.22.77-.44,1.51-.64,2.2-.2.69-.35,1.18-.44,1.48l-2.01,6.52h7.31Z"/>
    </g>
  </g>
  <rect class="cls-2" x="471.53" y="270.23" width="9.82" height="190.33"/>
  <g>
    <g>
      <path class="cls-2" d="m638.37,392.89h-11.12v-30.43c0-.84.01-1.88.04-3.11.02-1.23.06-2.51.11-3.81.05-1.31.1-2.49.14-3.54-.26.31-.8.85-1.6,1.6-.8.76-1.55,1.43-2.25,2.03l-6.04,4.86-5.36-6.69,16.94-13.49h9.14v52.59Z"/>
      <path class="cls-2" d="m672.15,359.29c3.21,0,6.07.61,8.58,1.83,2.51,1.22,4.48,3.02,5.92,5.4,1.44,2.37,2.16,5.3,2.16,8.78,0,3.79-.79,7.06-2.36,9.8-1.57,2.75-3.91,4.85-7.02,6.31-3.11,1.46-6.97,2.19-11.6,2.19-2.76,0-5.35-.23-7.79-.7-2.43-.47-4.56-1.18-6.39-2.14v-9.6c1.82.96,4.01,1.77,6.57,2.43,2.55.66,4.96.99,7.21.99s4.06-.29,5.58-.88c1.51-.59,2.66-1.5,3.44-2.73.78-1.23,1.17-2.81,1.17-4.73,0-2.57-.86-4.53-2.59-5.9-1.73-1.37-4.38-2.05-7.95-2.05-1.37,0-2.79.13-4.26.4-1.48.26-2.7.53-3.69.79l-4.42-2.37,1.98-26.8h28.53v9.42h-18.78l-.97,10.32c.81-.17,1.7-.34,2.66-.5.96-.17,2.3-.25,4.03-.25Z"/>
    </g>
    <g>
      <path class="cls-2" d="m799.76,277.6v175.59h-299.41v-175.59h299.41m7.37-7.37h-314.14v190.33h314.14v-190.33h0Z"/>
      <rect class="cls-2" x="719.69" y="270.23" width="87.44" height="52.98"/>
      <path class="cls-1" d="m762.81,290.63c2.61,0,4.61.57,6,1.7,1.39,1.14,2.09,2.86,2.09,5.18v12.95h-3.7l-1.03-2.64h-.14c-.56.7-1.12,1.26-1.7,1.7-.58.44-1.25.77-2,.97-.75.21-1.67.31-2.75.31-1.15,0-2.18-.22-3.09-.66-.91-.44-1.63-1.12-2.15-2.03-.52-.91-.78-2.07-.78-3.47,0-2.06.72-3.58,2.17-4.56,1.45-.98,3.62-1.52,6.52-1.63l3.37-.1v-.85c0-1.02-.27-1.77-.8-2.24-.53-.48-1.27-.71-2.23-.71s-1.86.13-2.76.4c-.9.27-1.81.6-2.71,1.01l-1.76-3.58c1.03-.54,2.19-.97,3.47-1.29,1.28-.31,2.6-.47,3.97-.47Zm2.82,10.83l-2.05.07c-1.72.05-2.91.35-3.57.92-.67.57-1,1.32-1,2.24,0,.81.24,1.39.71,1.73.48.34,1.1.51,1.86.51,1.14,0,2.1-.34,2.88-1.01.78-.67,1.17-1.63,1.17-2.87v-1.6Z"/>
    </g>
  </g>
  <g>
    <g>
      <path class="cls-2" d="m972.28,392.89h-36.76v-7.73l13.2-13.35c2.66-2.73,4.8-5.02,6.42-6.85,1.62-1.83,2.79-3.51,3.53-5.02.73-1.51,1.1-3.13,1.1-4.86,0-2.09-.58-3.65-1.74-4.69-1.16-1.04-2.72-1.56-4.66-1.56-2.04,0-4.02.47-5.94,1.4-1.92.94-3.92,2.27-6.01,3.99l-6.04-7.16c1.51-1.29,3.11-2.52,4.8-3.67,1.69-1.15,3.66-2.08,5.9-2.79,2.24-.71,4.93-1.06,8.08-1.06,3.45,0,6.42.62,8.9,1.87,2.48,1.25,4.39,2.94,5.74,5.09,1.34,2.15,2.01,4.58,2.01,7.29,0,2.9-.57,5.55-1.73,7.95-1.15,2.4-2.82,4.77-5.02,7.12-2.2,2.35-4.84,4.95-7.93,7.81l-6.76,6.37v.5h22.91v9.35Z"/>
      <path class="cls-2" d="m982.85,392.89l19.75-43.24h-25.94v-9.35h37.74v6.98l-19.89,45.62h-11.66Z"/>
    </g>
    <g>
      <path class="cls-2" d="m1124.39,277.6v175.59h-299.41v-175.59h299.41m7.37-7.37h-314.14v190.33h314.14v-190.33h0Z"/>
      <rect class="cls-2" x="1044.32" y="270.23" width="87.44" height="52.98"/>
      <path class="cls-1" d="m1084.27,283.42v6.29c0,.73-.02,1.46-.06,2.17-.04.72-.09,1.28-.15,1.67h.21c.51-.8,1.21-1.48,2.09-2.04.88-.56,2.02-.84,3.42-.84,2.18,0,3.95.85,5.3,2.56,1.36,1.7,2.03,4.2,2.03,7.49,0,2.21-.31,4.07-.94,5.57-.63,1.5-1.5,2.63-2.62,3.39-1.12.76-2.43,1.14-3.91,1.14s-2.55-.25-3.37-.77c-.82-.51-1.49-1.08-2-1.72h-.37l-.89,2.14h-4.05v-27.05h5.3Zm3.81,11.49c-.93,0-1.66.19-2.21.57-.54.38-.94.96-1.19,1.72-.25.77-.39,1.73-.41,2.9v.57c0,1.89.28,3.34.83,4.34.56,1,1.57,1.5,3.04,1.5,1.09,0,1.96-.5,2.6-1.51.64-1.01.97-2.46.97-4.36s-.33-3.33-.97-4.29c-.65-.96-1.54-1.44-2.66-1.44Z"/>
    </g>
  </g>
  <g>
    <g>
      <path class="cls-2" d="m1298.09,381.99h-6.33v10.9h-10.86v-10.9h-22.45v-7.73l23.06-33.96h10.25v33.06h6.33v8.63Zm-17.2-8.63v-8.92c0-.84.02-1.83.05-2.99.04-1.15.08-2.3.13-3.45.05-1.15.1-2.18.16-3.08.06-.9.1-1.53.13-1.89h-.29c-.46.98-.94,1.94-1.44,2.86-.5.92-1.09,1.89-1.76,2.9l-9.64,14.57h12.66Z"/>
      <path class="cls-2" d="m1339.03,392.89h-36.76v-7.73l13.2-13.35c2.66-2.73,4.8-5.02,6.42-6.85,1.62-1.83,2.79-3.51,3.53-5.02.73-1.51,1.1-3.13,1.1-4.86,0-2.09-.58-3.65-1.75-4.69-1.16-1.04-2.72-1.56-4.66-1.56-2.04,0-4.02.47-5.94,1.4-1.92.94-3.92,2.27-6.01,3.99l-6.04-7.16c1.51-1.29,3.11-2.52,4.8-3.67,1.69-1.15,3.66-2.08,5.9-2.79,2.24-.71,4.93-1.06,8.08-1.06,3.45,0,6.42.62,8.9,1.87,2.48,1.25,4.39,2.94,5.74,5.09,1.34,2.15,2.01,4.58,2.01,7.29,0,2.9-.58,5.55-1.73,7.95-1.15,2.4-2.82,4.77-5.02,7.12-2.19,2.35-4.84,4.95-7.93,7.81l-6.76,6.37v.5h22.92v9.35Z"/>
    </g>
    <g>
      <path class="cls-2" d="m1449.02,277.6v175.59h-299.41v-175.59h299.41m7.37-7.37h-314.14v190.33h314.14v-190.33h0Z"/>
      <rect class="cls-2" x="1368.95" y="270.23" width="87.44" height="52.98"/>
      <g>
        <path class="cls-1" d="m1390.62,290.63c2.61,0,4.61.57,6,1.7,1.39,1.14,2.09,2.86,2.09,5.18v12.95h-3.7l-1.03-2.64h-.14c-.56.7-1.12,1.26-1.7,1.7-.58.44-1.25.77-2,.97-.75.21-1.67.31-2.75.31-1.15,0-2.18-.22-3.09-.66s-1.62-1.12-2.15-2.03c-.52-.91-.78-2.07-.78-3.47,0-2.06.72-3.58,2.17-4.56,1.45-.98,3.62-1.52,6.52-1.63l3.37-.1v-.85c0-1.02-.27-1.77-.8-2.24-.53-.48-1.28-.71-2.23-.71s-1.86.13-2.76.4c-.9.27-1.81.6-2.71,1.01l-1.76-3.58c1.03-.54,2.19-.97,3.47-1.29,1.28-.31,2.61-.47,3.97-.47Zm2.82,10.83l-2.05.07c-1.72.05-2.91.35-3.57.92-.67.57-1,1.32-1,2.24,0,.81.24,1.39.71,1.73s1.1.51,1.86.51c1.14,0,2.1-.34,2.88-1.01s1.17-1.63,1.17-2.87v-1.6Z"/>
        <path class="cls-1" d="m1413.45,296.02h6.73v3.81h-6.73v6.69h-3.81v-6.69h-6.73v-3.81h6.73v-6.78h3.81v6.78Z"/>
        <path class="cls-1" d="m1429.83,283.42v6.29c0,.73-.02,1.46-.06,2.17-.04.72-.09,1.28-.15,1.67h.21c.51-.8,1.21-1.48,2.09-2.04.88-.56,2.02-.84,3.42-.84,2.18,0,3.95.85,5.3,2.56,1.36,1.7,2.03,4.2,2.03,7.49,0,2.21-.31,4.07-.94,5.57-.63,1.5-1.5,2.63-2.62,3.39-1.12.76-2.43,1.14-3.91,1.14s-2.55-.25-3.37-.77c-.82-.51-1.49-1.08-2-1.72h-.37l-.89,2.14h-4.05v-27.05h5.3Zm3.81,11.49c-.93,0-1.66.19-2.21.57-.54.38-.94.96-1.19,1.72-.25.77-.39,1.73-.41,2.9v.57c0,1.89.28,3.34.83,4.34.56,1,1.57,1.5,3.04,1.5,1.09,0,1.96-.5,2.6-1.51.64-1.01.97-2.46.97-4.36s-.33-3.33-.97-4.29c-.65-.96-1.54-1.44-2.66-1.44Z"/>
      </g>
    </g>
  </g>
  <g>
    <rect class="cls-3" x="49.92" y="482.89" width="412.37" height="190.33"/>
    <g>
      <g>
        <g>
          <path class="cls-1" d="m155.16,526.32l-10.64,4.53,8.17,19.21,10.64-4.53c5.3-2.26,7.77-8.39,5.52-13.69s-8.39-7.77-13.69-5.52Z"/>
          <path class="cls-1" d="m129.13,537.39c-5.3,2.26-7.77,8.39-5.52,13.69s8.39,7.77,13.69,5.52l12.91-5.49-8.17-19.21-12.91,5.49Z"/>
        </g>
        <g>
          <path class="cls-1" d="m165.66,562.69l-7.3-1.73-3.12,13.19,7.3,1.73c3.64.86,7.29-1.39,8.16-5.03.86-3.64-1.39-7.29-5.03-8.16Z"/>
          <path class="cls-1" d="m147.8,558.46c-3.64-.86-7.29,1.39-8.16,5.03s1.39,7.29,5.03,8.16l8.86,2.1,3.12-13.19-8.86-2.1Z"/>
        </g>
        <g>
          <path class="cls-1" d="m109.21,565.08l3.03,5.44,9.83-5.47-3.03-5.44c-1.51-2.71-4.93-3.69-7.65-2.18s-3.69,4.93-2.18,7.65Z"/>
          <path class="cls-1" d="m116.63,578.39c1.51,2.71,4.93,3.69,7.65,2.18s3.69-4.93,2.18-7.65l-3.68-6.6-9.83,5.47,3.68,6.6Z"/>
        </g>
      </g>
      <path class="cls-1" d="m189.33,575.73h0c-2.51-2.51-6.58-2.51-9.09,0l-13.69,13.69c1.19,1.59,1.86,3.58,1.76,5.73-.24,4.78-4.44,8.42-9.23,8.42h-20.34c-.6,0-1.09-.49-1.09-1.09h0c0-.6.49-1.09,1.09-1.09h20.43c3.5,0,6.62-2.56,6.95-6.04.38-3.99-2.75-7.35-6.66-7.35h-53.38l-2.17,2.17-17.19,17.19,22.26,22.26,17.73-17.73s35.47-.72,35.47,0c0,.55,18.49-18.23,27.21-27.12,2.47-2.52,2.45-6.55-.05-9.05Z"/>
    </g>
    <g>
      <path class="cls-1" d="m280.48,525.04c1.91,0,3.48.23,4.73.69,1.24.46,2.17,1.16,2.77,2.09.6.93.91,2.11.91,3.53,0,.96-.18,1.8-.55,2.52-.36.72-.84,1.33-1.44,1.83s-1.24.91-1.93,1.22l6.19,9.17h-4.95l-5.02-8.07h-2.37v8.07h-4.46v-21.04h6.13Zm-.32,3.65h-1.35v5.68h1.44c1.48,0,2.53-.25,3.17-.74.64-.49.96-1.22.96-2.18s-.34-1.71-1.03-2.13c-.69-.42-1.75-.63-3.19-.63Z"/>
      <path class="cls-1" d="m300.09,529.69c1.49,0,2.77.29,3.84.86,1.07.57,1.9,1.4,2.49,2.48.58,1.08.88,2.41.88,3.97v2.13h-10.38c.05,1.24.42,2.21,1.12,2.91.7.71,1.66,1.06,2.9,1.06,1.03,0,1.97-.11,2.82-.32.85-.21,1.73-.53,2.63-.95v3.4c-.8.39-1.63.68-2.5.86-.87.18-1.92.27-3.16.27-1.61,0-3.04-.3-4.28-.89-1.24-.59-2.22-1.5-2.92-2.72-.71-1.22-1.06-2.75-1.06-4.6s.32-3.45.96-4.7c.64-1.25,1.53-2.19,2.67-2.82,1.14-.63,2.47-.94,3.99-.94Zm.03,3.12c-.85,0-1.56.27-2.12.82-.56.55-.88,1.41-.97,2.58h6.16c0-.65-.13-1.23-.35-1.74-.23-.51-.56-.91-1.01-1.21-.45-.3-1.01-.45-1.71-.45Z"/>
      <path class="cls-1" d="m317.4,546.36c-1.59,0-2.95-.29-4.07-.87-1.12-.58-1.98-1.48-2.56-2.7-.59-1.22-.88-2.78-.88-4.68s.33-3.57,1-4.81c.67-1.24,1.59-2.16,2.78-2.74,1.18-.58,2.56-.88,4.12-.88,1.11,0,2.07.11,2.89.32.81.22,1.52.47,2.12.77l-1.3,3.4c-.69-.28-1.33-.51-1.93-.68-.59-.18-1.19-.27-1.78-.27-.77,0-1.41.18-1.91.54-.51.36-.89.9-1.14,1.62-.25.72-.37,1.62-.37,2.71s.13,1.95.4,2.65c.27.7.66,1.22,1.17,1.56.51.34,1.13.51,1.86.51.91,0,1.72-.12,2.43-.37.71-.24,1.4-.59,2.07-1.03v3.76c-.67.42-1.37.73-2.11.91-.73.19-1.66.28-2.78.28Z"/>
      <path class="cls-1" d="m332.65,529.69c1.49,0,2.77.29,3.84.86,1.07.57,1.9,1.4,2.49,2.48.58,1.08.88,2.41.88,3.97v2.13h-10.38c.05,1.24.42,2.21,1.12,2.91.7.71,1.66,1.06,2.9,1.06,1.03,0,1.97-.11,2.82-.32.85-.21,1.73-.53,2.63-.95v3.4c-.8.39-1.63.68-2.5.86-.87.18-1.92.27-3.16.27-1.61,0-3.04-.3-4.28-.89-1.24-.59-2.22-1.5-2.92-2.72-.71-1.22-1.06-2.75-1.06-4.6s.32-3.45.96-4.7c.64-1.25,1.53-2.19,2.67-2.82,1.14-.63,2.47-.94,3.99-.94Zm.03,3.12c-.85,0-1.56.27-2.12.82-.56.55-.88,1.41-.97,2.58h6.16c0-.65-.13-1.23-.35-1.74-.23-.51-.56-.91-1.01-1.21-.45-.3-1.01-.45-1.71-.45Z"/>
      <path class="cls-1" d="m347.82,523.69v5.21c0,.6-.02,1.2-.05,1.8s-.07,1.06-.12,1.38h.17c.42-.66,1-1.23,1.73-1.69s1.67-.7,2.83-.7c1.8,0,3.27.71,4.39,2.12,1.12,1.41,1.68,3.48,1.68,6.2,0,1.83-.26,3.37-.78,4.61-.52,1.24-1.24,2.18-2.17,2.81-.93.63-2.01.94-3.24.94s-2.11-.21-2.79-.63c-.68-.42-1.23-.9-1.65-1.42h-.3l-.73,1.77h-3.35v-22.39h4.39Zm3.15,9.51c-.77,0-1.38.16-1.83.48-.45.32-.78.79-.99,1.42-.21.63-.32,1.43-.34,2.4v.47c0,1.56.23,2.76.69,3.59.46.83,1.3,1.24,2.52,1.24.9,0,1.62-.42,2.15-1.25.53-.83.8-2.04.8-3.61s-.27-2.76-.81-3.55c-.54-.8-1.27-1.19-2.2-1.19Z"/>
      <path class="cls-1" d="m368.71,529.69c1.49,0,2.77.29,3.84.86,1.07.57,1.9,1.4,2.49,2.48.58,1.08.88,2.41.88,3.97v2.13h-10.38c.05,1.24.42,2.21,1.12,2.91.7.71,1.66,1.06,2.9,1.06,1.03,0,1.97-.11,2.82-.32.85-.21,1.73-.53,2.63-.95v3.4c-.8.39-1.63.68-2.5.86-.87.18-1.92.27-3.16.27-1.61,0-3.04-.3-4.28-.89-1.24-.59-2.22-1.5-2.92-2.72-.71-1.22-1.06-2.75-1.06-4.6s.32-3.45.96-4.7c.64-1.25,1.53-2.19,2.67-2.82,1.14-.63,2.47-.94,3.99-.94Zm.03,3.12c-.85,0-1.56.27-2.12.82-.56.55-.88,1.41-.97,2.58h6.16c0-.65-.13-1.23-.35-1.74-.23-.51-.56-.91-1.01-1.21-.45-.3-1.01-.45-1.71-.45Z"/>
      <path class="cls-1" d="m394.26,529.99v16.09h-3.37l-.59-2.06h-.23c-.35.55-.78.99-1.3,1.34-.52.35-1.09.6-1.71.76s-1.27.25-1.94.25c-1.15,0-2.15-.2-3.01-.61-.85-.41-1.52-1.04-1.99-1.91-.47-.86-.71-1.99-.71-3.37v-10.49h4.39v9.4c0,1.15.21,2.02.62,2.6.41.59,1.07.88,1.97.88s1.59-.2,2.1-.61c.51-.41.87-1.01,1.07-1.8.21-.79.31-1.76.31-2.9v-7.57h4.39Z"/>
      <path class="cls-1" d="m253.47,565.05c1.82,0,3.2.47,4.14,1.4.94.93,1.4,2.43,1.4,4.5v10.49h-4.4v-9.4c0-1.15-.2-2.02-.59-2.6-.39-.58-1-.88-1.83-.88-1.16,0-1.99.42-2.47,1.25-.49.83-.73,2.02-.73,3.56v8.07h-4.39v-9.4c0-.77-.09-1.41-.26-1.93-.17-.52-.44-.91-.79-1.17s-.81-.39-1.37-.39c-.82,0-1.46.2-1.92.61-.47.41-.8,1.01-.99,1.8-.2.79-.29,1.76-.29,2.9v7.57h-4.39v-16.09h3.35l.59,2.06h.24c.33-.56.74-1.01,1.23-1.35.49-.34,1.04-.6,1.63-.76.59-.16,1.2-.24,1.81-.24,1.18,0,2.18.19,3,.58.82.38,1.45.98,1.89,1.78h.39c.48-.82,1.16-1.42,2.04-1.8.88-.38,1.78-.56,2.71-.56Z"/>
      <path class="cls-1" d="m270.15,565.05c1.49,0,2.77.29,3.84.86,1.07.57,1.9,1.4,2.49,2.48.58,1.08.88,2.41.88,3.97v2.13h-10.38c.05,1.24.42,2.21,1.12,2.91.7.71,1.66,1.06,2.9,1.06,1.03,0,1.97-.11,2.82-.32.85-.21,1.73-.53,2.63-.95v3.4c-.8.39-1.63.68-2.5.86-.87.18-1.92.27-3.16.27-1.61,0-3.04-.3-4.28-.89-1.24-.59-2.22-1.5-2.92-2.72-.71-1.22-1.06-2.75-1.06-4.6s.32-3.45.96-4.7c.64-1.25,1.53-2.19,2.67-2.82,1.14-.63,2.47-.94,3.99-.94Zm.03,3.12c-.85,0-1.56.27-2.12.82s-.88,1.41-.97,2.58h6.16c0-.65-.13-1.23-.35-1.74-.23-.51-.56-.91-1.01-1.21-.45-.3-1.01-.45-1.71-.45Z"/>
      <path class="cls-1" d="m286.02,581.73c-1.79,0-3.25-.7-4.38-2.11-1.13-1.41-1.69-3.47-1.69-6.19s.57-4.84,1.71-6.25,2.63-2.12,4.48-2.12c.77,0,1.44.11,2.03.32.58.21,1.09.49,1.52.85.43.36.79.75,1.09,1.19h.14c-.06-.31-.13-.76-.21-1.36s-.12-1.22-.12-1.85v-5.15h4.4v22.39h-3.37l-.85-2.09h-.19c-.28.44-.63.84-1.04,1.2-.42.36-.91.65-1.49.86-.58.21-1.25.32-2.03.32Zm1.54-3.5c1.2,0,2.05-.36,2.54-1.07.49-.71.76-1.79.78-3.23v-.47c0-1.56-.24-2.76-.72-3.59-.48-.83-1.37-1.25-2.68-1.25-.97,0-1.73.42-2.27,1.25s-.82,2.04-.82,3.61.28,2.76.83,3.55c.55.8,1.33,1.19,2.34,1.19Z"/>
      <path class="cls-1" d="m301.78,559.05c.65,0,1.21.15,1.68.45.47.3.71.87.71,1.69s-.24,1.38-.71,1.69c-.47.31-1.03.47-1.68.47s-1.23-.16-1.69-.47c-.47-.31-.7-.88-.7-1.69s.23-1.39.7-1.69c.47-.3,1.03-.45,1.69-.45Zm2.19,6.3v16.09h-4.39v-16.09h4.39Z"/>
      <path class="cls-1" d="m315.11,581.73c-1.59,0-2.95-.29-4.07-.87-1.12-.58-1.98-1.48-2.56-2.7-.59-1.22-.88-2.78-.88-4.68s.33-3.57,1-4.81c.67-1.24,1.59-2.16,2.78-2.74,1.18-.58,2.56-.88,4.12-.88,1.11,0,2.07.11,2.89.32.81.22,1.52.47,2.12.77l-1.3,3.4c-.69-.28-1.33-.51-1.93-.68-.59-.18-1.19-.27-1.78-.27-.77,0-1.41.18-1.91.54-.51.36-.89.9-1.14,1.62-.25.72-.37,1.62-.37,2.71s.13,1.95.4,2.65c.27.7.66,1.22,1.17,1.56.51.34,1.13.51,1.86.51.91,0,1.72-.12,2.43-.37.71-.24,1.4-.59,2.07-1.03v3.76c-.67.42-1.37.73-2.11.91-.73.19-1.66.28-2.78.28Z"/>
      <path class="cls-1" d="m330.31,565.02c2.16,0,3.81.47,4.96,1.41,1.15.94,1.73,2.37,1.73,4.29v10.72h-3.06l-.85-2.19h-.12c-.46.58-.93,1.05-1.41,1.41-.48.37-1.03.63-1.65.81-.62.17-1.38.26-2.27.26-.95,0-1.8-.18-2.55-.55s-1.35-.92-1.78-1.68c-.43-.75-.65-1.71-.65-2.87,0-1.71.6-2.97,1.8-3.78s3-1.26,5.4-1.35l2.79-.09v-.71c0-.84-.22-1.46-.66-1.86-.44-.39-1.06-.59-1.84-.59s-1.54.11-2.29.33c-.75.22-1.5.5-2.24.83l-1.45-2.96c.85-.45,1.81-.81,2.87-1.07,1.06-.26,2.16-.39,3.29-.39Zm2.33,8.96l-1.7.06c-1.42.04-2.41.29-2.96.76-.55.47-.83,1.09-.83,1.86,0,.67.2,1.15.59,1.43.39.28.91.42,1.54.42.94,0,1.73-.28,2.38-.83.65-.56.97-1.35.97-2.37v-1.32Z"/>
      <path class="cls-1" d="m360.42,565.05c1.82,0,3.2.47,4.14,1.4.94.93,1.4,2.43,1.4,4.5v10.49h-4.4v-9.4c0-1.15-.2-2.02-.59-2.6-.39-.58-1-.88-1.83-.88-1.16,0-1.99.42-2.47,1.25-.49.83-.73,2.02-.73,3.56v8.07h-4.39v-9.4c0-.77-.09-1.41-.26-1.93-.17-.52-.44-.91-.79-1.17s-.81-.39-1.37-.39c-.82,0-1.46.2-1.92.61-.47.41-.8,1.01-.99,1.8-.2.79-.29,1.76-.29,2.9v7.57h-4.39v-16.09h3.35l.59,2.06h.24c.33-.56.74-1.01,1.23-1.35.49-.34,1.04-.6,1.63-.76.59-.16,1.2-.24,1.81-.24,1.18,0,2.18.19,3,.58.82.38,1.45.98,1.89,1.78h.39c.48-.82,1.16-1.42,2.04-1.8.88-.38,1.78-.56,2.71-.56Z"/>
      <path class="cls-1" d="m377.1,565.05c1.49,0,2.77.29,3.84.86,1.07.57,1.9,1.4,2.49,2.48.58,1.08.88,2.41.88,3.97v2.13h-10.38c.05,1.24.42,2.21,1.12,2.91.7.71,1.66,1.06,2.9,1.06,1.03,0,1.97-.11,2.82-.32.85-.21,1.73-.53,2.63-.95v3.4c-.8.39-1.63.68-2.5.86-.87.18-1.92.27-3.16.27-1.61,0-3.04-.3-4.28-.89-1.24-.59-2.22-1.5-2.92-2.72-.71-1.22-1.06-2.75-1.06-4.6s.32-3.45.96-4.7c.64-1.25,1.53-2.19,2.67-2.82,1.14-.63,2.47-.94,3.99-.94Zm.03,3.12c-.85,0-1.56.27-2.12.82s-.88,1.41-.97,2.58h6.16c0-.65-.13-1.23-.35-1.74-.23-.51-.56-.91-1.01-1.21-.45-.3-1.01-.45-1.71-.45Z"/>
      <path class="cls-1" d="m397.01,565.05c1.72,0,3.1.47,4.14,1.4,1.05.93,1.57,2.43,1.57,4.5v10.49h-4.39v-9.4c0-1.15-.21-2.02-.63-2.6-.42-.58-1.07-.88-1.96-.88-1.34,0-2.26.46-2.75,1.37s-.73,2.23-.73,3.94v7.57h-4.39v-16.09h3.35l.59,2.06h.24c.35-.56.77-1.01,1.29-1.35.51-.34,1.08-.6,1.71-.76.63-.16,1.28-.24,1.95-.24Z"/>
      <path class="cls-1" d="m414.02,578.23c.48,0,.95-.05,1.4-.14.46-.1.91-.22,1.36-.36v3.27c-.47.21-1.05.39-1.75.53-.7.14-1.46.21-2.28.21-.96,0-1.82-.16-2.58-.47s-1.36-.85-1.8-1.63c-.44-.77-.65-1.85-.65-3.23v-7.76h-2.1v-1.86l2.42-1.47,1.27-3.4h2.81v3.42h4.5v3.3h-4.5v7.76c0,.61.17,1.07.53,1.37.35.3.81.45,1.39.45Z"/>
      <path class="cls-1" d="m434.65,573.37c0,1.34-.18,2.53-.54,3.57-.36,1.04-.88,1.91-1.57,2.63s-1.51,1.25-2.48,1.62c-.96.36-2.05.55-3.26.55-1.13,0-2.17-.18-3.12-.55s-1.77-.9-2.46-1.62c-.7-.71-1.23-1.59-1.61-2.63s-.57-2.23-.57-3.57c0-1.78.32-3.3.95-4.53.63-1.24,1.53-2.18,2.71-2.82,1.17-.64,2.57-.96,4.19-.96,1.51,0,2.84.32,4.01.96s2.08,1.58,2.75,2.82c.67,1.24,1,2.75,1,4.53Zm-11.12,0c0,1.05.12,1.94.35,2.66.23.72.59,1.26,1.08,1.63s1.13.55,1.91.55,1.41-.18,1.89-.55c.48-.36.84-.91,1.06-1.63.23-.72.34-1.61.34-2.66s-.11-1.95-.34-2.66c-.23-.71-.58-1.24-1.07-1.59s-1.13-.53-1.91-.53c-1.16,0-2,.4-2.53,1.19-.52.8-.78,1.99-.78,3.58Z"/>
      <path class="cls-1" d="m324.46,600.54h8.73c3.73,0,6.56.52,8.48,1.57s2.88,2.89,2.88,5.53c0,1.06-.17,2.02-.51,2.88-.34.86-.83,1.56-1.47,2.11-.64.55-1.42.91-2.34,1.07v.19c.93.19,1.78.52,2.53.99.75.47,1.36,1.14,1.81,2.03.45.89.68,2.07.68,3.54,0,1.7-.42,3.16-1.25,4.37-.83,1.22-2.02,2.15-3.56,2.79-1.54.65-3.37.97-5.5.97h-10.49v-28.05Zm5.95,11.11h3.45c1.73,0,2.92-.27,3.59-.82.67-.54,1-1.35,1-2.41s-.39-1.84-1.18-2.31-2.03-.7-3.73-.7h-3.13v6.24Zm0,4.72v7.31h3.88c1.79,0,3.04-.34,3.74-1.04.7-.69,1.06-1.62,1.06-2.78,0-.69-.15-1.3-.46-1.82-.31-.52-.82-.93-1.54-1.23s-1.72-.44-2.98-.44h-3.68Z"/>
    </g>
  </g>
  <rect class="cls-3" x="471.53" y="482.89" width="9.82" height="190.33"/>
  <g>
    <path class="cls-3" d="m651.08,571.95c3.21,0,6.07.61,8.58,1.83,2.51,1.22,4.48,3.02,5.92,5.4s2.16,5.3,2.16,8.78c0,3.79-.79,7.06-2.36,9.8-1.57,2.75-3.91,4.85-7.02,6.31s-6.97,2.19-11.6,2.19c-2.76,0-5.35-.23-7.79-.7-2.43-.47-4.56-1.18-6.39-2.14v-9.61c1.82.96,4.01,1.77,6.57,2.43,2.55.66,4.96.99,7.21.99s4.06-.29,5.58-.88c1.51-.59,2.66-1.5,3.44-2.73.78-1.23,1.17-2.81,1.17-4.73,0-2.57-.86-4.53-2.59-5.9-1.73-1.37-4.38-2.05-7.95-2.05-1.37,0-2.79.13-4.26.4-1.48.26-2.7.53-3.69.79l-4.42-2.37,1.98-26.8h28.53v9.42h-18.78l-.97,10.32c.81-.17,1.7-.33,2.66-.5.96-.17,2.3-.25,4.03-.25Z"/>
    <g>
      <path class="cls-3" d="m799.76,490.26v175.59h-299.41v-175.59h299.41m7.37-7.37h-314.14v190.33h314.14v-190.33h0Z"/>
      <rect class="cls-3" x="719.69" y="482.89" width="87.44" height="52.98"/>
      <path class="cls-1" d="m764.34,523.48c-1.92,0-3.56-.35-4.92-1.05-1.36-.7-2.39-1.79-3.1-3.26s-1.06-3.36-1.06-5.65.4-4.31,1.21-5.82,1.92-2.61,3.36-3.31c1.43-.71,3.09-1.06,4.98-1.06,1.34,0,2.51.13,3.49.39s1.83.57,2.56.93l-1.56,4.1c-.83-.34-1.61-.61-2.33-.83s-1.44-.32-2.16-.32c-.93,0-1.7.22-2.31.65-.61.43-1.07,1.09-1.37,1.96-.3.87-.45,1.96-.45,3.27s.16,2.35.49,3.2c.32.85.79,1.48,1.41,1.89.61.41,1.36.62,2.24.62,1.1,0,2.08-.15,2.94-.44.86-.3,1.69-.71,2.5-1.24v4.54c-.81.51-1.66.88-2.55,1.1s-2.01.34-3.36.34Z"/>
    </g>
  </g>
  <g>
    <g>
      <path class="cls-3" d="m954.65,571.95c3.21,0,6.07.61,8.58,1.83,2.51,1.22,4.48,3.02,5.92,5.4s2.16,5.3,2.16,8.78c0,3.79-.79,7.06-2.36,9.8-1.57,2.75-3.91,4.85-7.02,6.31-3.11,1.46-6.97,2.19-11.6,2.19-2.76,0-5.35-.23-7.79-.7-2.43-.47-4.56-1.18-6.39-2.14v-9.61c1.82.96,4.01,1.77,6.57,2.43,2.55.66,4.96.99,7.21.99s4.06-.29,5.58-.88c1.51-.59,2.66-1.5,3.44-2.73.78-1.23,1.17-2.81,1.17-4.73,0-2.57-.86-4.53-2.59-5.9-1.73-1.37-4.38-2.05-7.95-2.05-1.37,0-2.79.13-4.26.4-1.48.26-2.7.53-3.69.79l-4.42-2.37,1.98-26.8h28.53v9.42h-18.78l-.97,10.32c.81-.17,1.7-.33,2.66-.5.96-.17,2.3-.25,4.03-.25Z"/>
      <path class="cls-3" d="m1012.35,564.72c0,2.42-.5,4.52-1.51,6.29-1.01,1.78-2.37,3.23-4.08,4.35-1.72,1.13-3.64,1.96-5.77,2.48v.22c4.22.53,7.43,1.82,9.62,3.89s3.29,4.82,3.29,8.27c0,3.07-.75,5.82-2.25,8.24-1.5,2.42-3.81,4.33-6.92,5.72-3.12,1.39-7.13,2.09-12.05,2.09-2.9,0-5.61-.23-8.11-.7-2.51-.47-4.86-1.18-7.07-2.14v-9.46c2.25,1.15,4.62,2.02,7.09,2.61,2.47.59,4.77.88,6.91.88,3.98,0,6.77-.69,8.36-2.07,1.59-1.38,2.39-3.31,2.39-5.81,0-1.46-.37-2.7-1.12-3.71s-2.03-1.77-3.87-2.3c-1.83-.53-4.39-.79-7.68-.79h-3.99v-8.53h4.06c3.24,0,5.7-.31,7.39-.92,1.69-.61,2.84-1.45,3.45-2.52s.92-2.29.92-3.65c0-1.87-.58-3.33-1.73-4.39-1.15-1.05-3.07-1.58-5.76-1.58-1.68,0-3.21.21-4.59.63-1.38.42-2.62.92-3.72,1.51-1.1.59-2.08,1.16-2.91,1.71l-5.14-7.66c2.06-1.49,4.48-2.72,7.25-3.71,2.77-.98,6.07-1.48,9.91-1.48,5.42,0,9.71,1.09,12.88,3.27,3.17,2.18,4.75,5.26,4.75,9.25Z"/>
    </g>
    <g>
      <path class="cls-3" d="m1124.39,490.26v175.59h-299.41v-175.59h299.41m7.37-7.37h-314.14v190.33h314.14v-190.33h0Z"/>
      <rect class="cls-3" x="1044.32" y="482.89" width="87.44" height="52.98"/>
      <path class="cls-1" d="m1085.12,523.48c-2.17,0-3.93-.85-5.29-2.55-1.36-1.7-2.04-4.19-2.04-7.48s.69-5.85,2.07-7.56c1.38-1.71,3.18-2.56,5.41-2.56.93,0,1.74.13,2.45.38.71.26,1.32.6,1.83,1.03.52.43.95.91,1.31,1.44h.17c-.07-.37-.15-.92-.25-1.64s-.15-1.47-.15-2.23v-6.22h5.32v27.05h-4.07l-1.03-2.52h-.23c-.34.53-.76,1.02-1.26,1.45s-1.1.78-1.8,1.03-1.51.38-2.45.38Zm1.86-4.23c1.45,0,2.47-.43,3.07-1.3.6-.86.91-2.16.95-3.9v-.57c0-1.89-.29-3.34-.87-4.34-.58-1-1.66-1.5-3.23-1.5-1.17,0-2.09.5-2.75,1.51-.66,1.01-.99,2.46-.99,4.36s.33,3.33,1,4.29c.67.96,1.61,1.44,2.83,1.44Z"/>
    </g>
  </g>
  <g>
    <g>
      <path class="cls-3" d="m1279.28,571.95c3.21,0,6.07.61,8.58,1.83,2.51,1.22,4.48,3.02,5.92,5.4,1.44,2.37,2.16,5.3,2.16,8.78,0,3.79-.79,7.06-2.36,9.8-1.57,2.75-3.91,4.85-7.01,6.31-3.11,1.46-6.97,2.19-11.6,2.19-2.76,0-5.35-.23-7.79-.7-2.43-.47-4.56-1.18-6.38-2.14v-9.61c1.82.96,4.01,1.77,6.57,2.43,2.55.66,4.96.99,7.21.99s4.07-.29,5.58-.88c1.51-.59,2.66-1.5,3.44-2.73.78-1.23,1.17-2.81,1.17-4.73,0-2.57-.86-4.53-2.59-5.9s-4.38-2.05-7.95-2.05c-1.37,0-2.79.13-4.26.4-1.47.26-2.7.53-3.69.79l-4.42-2.37,1.98-26.8h28.53v9.42h-18.78l-.97,10.32c.82-.17,1.7-.33,2.66-.5s2.3-.25,4.03-.25Z"/>
      <path class="cls-3" d="m1320.4,552.27c3.02,0,5.81.47,8.36,1.4,2.55.93,4.6,2.34,6.13,4.23,1.53,1.88,2.3,4.24,2.3,7.07,0,2.11-.41,3.96-1.24,5.54-.83,1.58-1.95,2.97-3.36,4.16-1.42,1.19-3.02,2.22-4.82,3.11,1.87.98,3.65,2.13,5.32,3.44,1.68,1.31,3.05,2.84,4.12,4.59,1.07,1.75,1.6,3.79,1.6,6.12,0,2.93-.78,5.46-2.34,7.61-1.56,2.15-3.72,3.81-6.48,4.98s-5.96,1.76-9.6,1.76c-3.93,0-7.28-.56-10.04-1.69s-4.86-2.74-6.29-4.84c-1.44-2.1-2.16-4.61-2.16-7.54,0-2.4.45-4.48,1.35-6.26s2.12-3.3,3.65-4.59c1.53-1.28,3.22-2.38,5.07-3.29-1.56-.98-2.98-2.1-4.26-3.35-1.28-1.25-2.3-2.67-3.06-4.28-.75-1.61-1.13-3.45-1.13-5.54,0-2.78.79-5.11,2.36-6.98,1.57-1.87,3.64-3.28,6.21-4.23s5.34-1.42,8.31-1.42Zm-8.2,39.28c0,1.9.68,3.46,2.03,4.7,1.35,1.24,3.36,1.85,6.03,1.85s4.82-.59,6.19-1.78c1.37-1.19,2.05-2.75,2.05-4.69,0-1.34-.39-2.52-1.17-3.53-.78-1.01-1.76-1.91-2.93-2.72-1.18-.8-2.36-1.55-3.56-2.25l-.97-.5c-1.54.7-2.87,1.47-4.01,2.34-1.14.86-2.03,1.83-2.68,2.91s-.97,2.3-.97,3.67Zm8.13-31.15c-1.82,0-3.33.47-4.53,1.4-1.2.94-1.8,2.25-1.8,3.96,0,1.2.29,2.25.88,3.15s1.37,1.69,2.34,2.36c.97.67,2.03,1.29,3.18,1.87,1.1-.53,2.13-1.12,3.09-1.76.96-.65,1.74-1.43,2.34-2.34.6-.91.9-2,.9-3.27,0-1.7-.61-3.02-1.82-3.96-1.21-.94-2.74-1.4-4.59-1.4Z"/>
    </g>
    <g>
      <path class="cls-3" d="m1449.02,490.26v175.59h-299.41v-175.59h299.41m7.37-7.37h-314.14v190.33h314.14v-190.33h0Z"/>
      <rect class="cls-3" x="1368.95" y="482.89" width="87.44" height="52.98"/>
      <g>
        <path class="cls-1" d="m1392.15,523.48c-1.92,0-3.56-.35-4.92-1.05-1.36-.7-2.39-1.79-3.09-3.26s-1.06-3.36-1.06-5.65.4-4.31,1.21-5.82,1.92-2.61,3.36-3.31,3.09-1.06,4.98-1.06c1.34,0,2.51.13,3.49.39.98.26,1.83.57,2.56.93l-1.57,4.1c-.83-.34-1.61-.61-2.33-.83-.72-.21-1.44-.32-2.16-.32-.93,0-1.7.22-2.31.65s-1.07,1.09-1.37,1.96c-.3.87-.45,1.96-.45,3.27s.16,2.35.49,3.2c.32.85.79,1.48,1.41,1.89.61.41,1.36.62,2.24.62,1.1,0,2.08-.15,2.94-.44.86-.3,1.69-.71,2.5-1.24v4.54c-.81.51-1.66.88-2.55,1.1s-2.01.34-3.36.34Z"/>
        <path class="cls-1" d="m1411.85,508.68h6.73v3.81h-6.73v6.69h-3.81v-6.69h-6.73v-3.81h6.73v-6.78h3.81v6.78Z"/>
        <path class="cls-1" d="m1429.08,523.48c-2.17,0-3.93-.85-5.29-2.55-1.36-1.7-2.04-4.19-2.04-7.48s.69-5.85,2.07-7.56c1.38-1.71,3.18-2.56,5.41-2.56.93,0,1.74.13,2.45.38.71.26,1.32.6,1.83,1.03.52.43.95.91,1.31,1.44h.17c-.07-.37-.15-.92-.25-1.64s-.15-1.47-.15-2.23v-6.22h5.32v27.05h-4.07l-1.03-2.52h-.23c-.34.53-.76,1.02-1.26,1.45s-1.1.78-1.8,1.03-1.51.38-2.45.38Zm1.86-4.23c1.45,0,2.47-.43,3.07-1.3.6-.86.91-2.16.95-3.9v-.57c0-1.89-.29-3.34-.87-4.34-.58-1-1.66-1.5-3.23-1.5-1.17,0-2.09.5-2.75,1.51-.66,1.01-.99,2.46-.99,4.36s.33,3.33,1,4.29c.67.96,1.61,1.44,2.83,1.44Z"/>
      </g>
    </g>
  </g>
  <g>
    <rect class="cls-4" x="49.92" y="695.55" width="412.37" height="190.33"/>
    <path class="cls-4" d="m1871.88,277.6v600.91h-397.64V277.6h397.64m7.37-7.37h-412.37v615.64h412.37V270.23h0Z"/>
    <g>
      <path class="cls-1" d="m213.74,805.14h-7.58v-21.85h-6.85v-6.2h21.26v6.2h-6.83v21.85Z"/>
      <path class="cls-1" d="m250.83,791.08c0,2.16-.26,4.13-.78,5.9-.52,1.77-1.33,3.3-2.43,4.58-1.1,1.28-2.51,2.26-4.24,2.95-1.73.68-3.79,1.03-6.2,1.03s-4.39-.34-6.11-1.03c-1.72-.68-3.14-1.66-4.25-2.94s-1.94-2.8-2.48-4.58c-.54-1.78-.81-3.76-.81-5.95,0-2.92.48-5.45,1.45-7.61s2.46-3.82,4.48-5.01c2.02-1.18,4.6-1.77,7.75-1.77s5.8.59,7.8,1.78,3.47,2.87,4.4,5.03c.93,2.16,1.4,4.7,1.4,7.62Zm-19.3,0c0,1.69.19,3.14.58,4.36s.99,2.15,1.82,2.8,1.92.98,3.26.98,2.5-.33,3.33-.98c.83-.65,1.42-1.59,1.78-2.8.36-1.21.55-2.67.55-4.36,0-2.53-.42-4.53-1.27-6s-2.3-2.21-4.35-2.21c-1.37,0-2.47.33-3.31,1s-1.45,1.61-1.82,2.84c-.38,1.23-.57,2.69-.57,4.37Z"/>
      <path class="cls-1" d="m268.27,805.14h-7.58v-21.85h-6.85v-6.2h21.26v6.2h-6.83v21.85Z"/>
      <path class="cls-1" d="m296.32,805.14l-1.38-5.26h-9.11l-1.42,5.26h-8.33l9.15-28.17h10.11l9.27,28.17h-8.29Zm-2.95-11.47l-1.21-4.6c-.13-.5-.31-1.21-.56-2.14-.24-.93-.48-1.89-.72-2.88-.24-.99-.42-1.81-.55-2.45-.12.64-.28,1.43-.49,2.37s-.43,1.87-.65,2.79c-.22.92-.42,1.69-.59,2.3l-1.21,4.6h5.97Z"/>
      <path class="cls-1" d="m307.64,805.14v-28.05h7.58v21.93h10.8v6.12h-18.38Z"/>
    </g>
  </g>
  <rect class="cls-4" x="471.53" y="695.55" width="9.82" height="190.33"/>
  <g>
    <g>
      <path class="cls-4" d="m647.65,818.21h-36.77v-7.73l13.2-13.35c2.66-2.73,4.8-5.02,6.42-6.85,1.62-1.83,2.79-3.51,3.53-5.02.73-1.51,1.1-3.13,1.1-4.86,0-2.09-.58-3.65-1.74-4.69-1.16-1.04-2.72-1.57-4.66-1.57-2.04,0-4.02.47-5.94,1.4-1.92.94-3.92,2.27-6.01,3.99l-6.04-7.16c1.51-1.29,3.11-2.52,4.8-3.67s3.66-2.08,5.9-2.79c2.24-.71,4.93-1.06,8.08-1.06,3.45,0,6.42.62,8.9,1.87,2.48,1.25,4.39,2.94,5.74,5.09,1.34,2.15,2.01,4.58,2.01,7.29,0,2.9-.58,5.55-1.73,7.95-1.15,2.4-2.82,4.77-5.02,7.12s-4.84,4.95-7.93,7.81l-6.76,6.37v.5h22.92v9.35Z"/>
      <path class="cls-4" d="m689.49,791.91c0,4.25-.33,8.03-.99,11.37-.66,3.33-1.71,6.16-3.17,8.49-1.45,2.33-3.35,4.1-5.7,5.32-2.35,1.22-5.2,1.83-8.56,1.83-4.22,0-7.69-1.07-10.4-3.22-2.71-2.15-4.71-5.24-6.01-9.28-1.29-4.04-1.94-8.88-1.94-14.52s.59-10.55,1.78-14.59c1.19-4.04,3.12-7.14,5.81-9.3s6.27-3.24,10.76-3.24c4.2,0,7.66,1.07,10.38,3.22,2.72,2.15,4.74,5.24,6.06,9.28s1.98,8.92,1.98,14.62Zm-25.72,0c0,4,.22,7.34.67,10.02.44,2.67,1.19,4.68,2.25,6.03,1.05,1.34,2.52,2.01,4.39,2.01s3.3-.67,4.37-2c1.07-1.33,1.83-3.33,2.28-6.01.46-2.67.68-6.03.68-10.05s-.23-7.35-.68-10.04c-.46-2.69-1.22-4.71-2.28-6.06-1.07-1.35-2.52-2.03-4.37-2.03s-3.33.68-4.39,2.03c-1.06,1.36-1.81,3.38-2.25,6.06-.44,2.69-.67,6.03-.67,10.04Z"/>
    </g>
    <g>
      <path class="cls-4" d="m799.76,702.92v175.59h-299.41v-175.59h299.41m7.37-7.37h-314.14v190.33h314.14v-190.33h0Z"/>
      <rect class="cls-4" x="719.69" y="695.55" width="87.44" height="52.98"/>
      <g>
        <path class="cls-1" d="m743.48,715.95c2.61,0,4.61.57,6,1.7s2.09,2.86,2.09,5.18v12.95h-3.7l-1.03-2.64h-.14c-.56.7-1.12,1.26-1.7,1.7-.58.44-1.25.76-2,.97-.75.21-1.67.31-2.75.31-1.15,0-2.18-.22-3.09-.66-.91-.44-1.63-1.12-2.15-2.03-.52-.91-.78-2.07-.78-3.47,0-2.06.72-3.58,2.17-4.56,1.45-.98,3.62-1.52,6.52-1.62l3.37-.1v-.85c0-1.02-.27-1.77-.8-2.24s-1.27-.71-2.23-.71-1.86.13-2.76.4c-.9.27-1.81.6-2.71,1.01l-1.76-3.58c1.03-.54,2.19-.97,3.47-1.29,1.28-.31,2.6-.47,3.97-.47Zm2.82,10.83l-2.05.07c-1.72.05-2.91.35-3.57.92-.67.57-1,1.32-1,2.24,0,.81.24,1.39.71,1.73.48.34,1.1.51,1.86.51,1.14,0,2.1-.34,2.88-1.01.78-.67,1.17-1.63,1.17-2.87v-1.6Z"/>
        <path class="cls-1" d="m766.31,721.34h6.73v3.81h-6.73v6.69h-3.81v-6.69h-6.73v-3.81h6.73v-6.78h3.81v6.78Z"/>
        <path class="cls-1" d="m785.28,736.13c-1.92,0-3.56-.35-4.92-1.05-1.36-.7-2.39-1.79-3.1-3.26-.71-1.47-1.06-3.36-1.06-5.65s.4-4.31,1.21-5.82c.81-1.5,1.92-2.6,3.36-3.31,1.43-.71,3.09-1.06,4.98-1.06,1.34,0,2.51.13,3.49.39s1.83.57,2.56.93l-1.56,4.1c-.83-.34-1.61-.61-2.33-.83s-1.44-.32-2.16-.32c-.93,0-1.7.22-2.31.65-.61.43-1.07,1.09-1.37,1.96-.3.87-.45,1.96-.45,3.27s.16,2.35.49,3.2c.32.85.79,1.48,1.41,1.89.61.41,1.36.62,2.24.62,1.1,0,2.08-.15,2.94-.44.86-.29,1.69-.71,2.5-1.24v4.54c-.81.51-1.66.88-2.55,1.1-.89.23-2.01.34-3.36.34Z"/>
      </g>
    </g>
  </g>
  <g>
    <g>
      <path class="cls-4" d="m953.64,764.93c3.02,0,5.81.47,8.36,1.4,2.55.93,4.6,2.34,6.13,4.23s2.3,4.24,2.3,7.07c0,2.11-.41,3.96-1.24,5.54-.83,1.58-1.95,2.97-3.36,4.16-1.42,1.19-3.02,2.22-4.82,3.11,1.87.98,3.65,2.13,5.32,3.44,1.68,1.31,3.05,2.84,4.12,4.59,1.07,1.75,1.6,3.79,1.6,6.12,0,2.93-.78,5.46-2.34,7.61-1.56,2.15-3.72,3.81-6.48,4.98-2.76,1.17-5.96,1.76-9.6,1.76-3.93,0-7.28-.56-10.04-1.69-2.76-1.13-4.86-2.74-6.3-4.84s-2.16-4.61-2.16-7.54c0-2.4.45-4.48,1.35-6.26.9-1.77,2.12-3.3,3.65-4.59s3.23-2.38,5.07-3.29c-1.56-.98-2.98-2.1-4.26-3.35-1.28-1.25-2.3-2.67-3.06-4.28s-1.13-3.45-1.13-5.54c0-2.78.79-5.11,2.36-6.98,1.57-1.87,3.64-3.28,6.21-4.23,2.57-.95,5.34-1.42,8.31-1.42Zm-8.2,39.28c0,1.9.68,3.46,2.03,4.7,1.35,1.24,3.36,1.85,6.03,1.85s4.82-.59,6.19-1.78c1.37-1.19,2.05-2.75,2.05-4.69,0-1.34-.39-2.52-1.17-3.53-.78-1.01-1.76-1.91-2.93-2.72-1.18-.8-2.36-1.55-3.56-2.25l-.97-.5c-1.54.7-2.87,1.47-4.01,2.34-1.14.86-2.03,1.83-2.68,2.91s-.97,2.3-.97,3.67Zm8.13-31.15c-1.82,0-3.33.47-4.53,1.4-1.2.94-1.8,2.25-1.8,3.96,0,1.2.29,2.25.88,3.15.59.9,1.37,1.69,2.34,2.36.97.67,2.03,1.29,3.18,1.87,1.1-.53,2.13-1.12,3.09-1.76.96-.65,1.74-1.43,2.34-2.34.6-.91.9-2,.9-3.27,0-1.7-.61-3.02-1.82-3.96-1.21-.94-2.74-1.4-4.59-1.4Z"/>
      <path class="cls-4" d="m1014.12,791.91c0,4.25-.33,8.03-.99,11.37-.66,3.33-1.71,6.16-3.17,8.49s-3.35,4.1-5.7,5.32c-2.35,1.22-5.2,1.83-8.56,1.83-4.22,0-7.69-1.07-10.4-3.22s-4.71-5.24-6.01-9.28-1.94-8.88-1.94-14.52.59-10.55,1.78-14.59c1.19-4.04,3.12-7.14,5.81-9.3,2.69-2.16,6.27-3.24,10.76-3.24,4.2,0,7.66,1.07,10.38,3.22,2.72,2.15,4.74,5.24,6.06,9.28,1.32,4.04,1.98,8.92,1.98,14.62Zm-25.72,0c0,4,.22,7.34.67,10.02.44,2.67,1.19,4.68,2.25,6.03,1.05,1.34,2.52,2.01,4.39,2.01s3.3-.67,4.37-2c1.07-1.33,1.83-3.33,2.28-6.01.46-2.67.68-6.03.68-10.05s-.23-7.35-.68-10.04c-.46-2.69-1.22-4.71-2.28-6.06-1.07-1.35-2.52-2.03-4.37-2.03s-3.33.68-4.39,2.03c-1.06,1.36-1.8,3.38-2.25,6.06-.44,2.69-.67,6.03-.67,10.04Z"/>
    </g>
    <g>
      <path class="cls-4" d="m1124.39,702.92v175.59h-299.41v-175.59h299.41m7.37-7.37h-314.14v190.33h314.14v-190.33h0Z"/>
      <rect class="cls-4" x="1044.32" y="695.55" width="87.44" height="52.98"/>
      <g>
        <path class="cls-1" d="m1063.67,709.2v6.08c0,.71-.02,1.41-.06,2.1-.04.69-.09,1.23-.14,1.61h.2c.49-.77,1.16-1.43,2.01-1.97.85-.54,1.95-.81,3.31-.81,2.1,0,3.81.82,5.12,2.47,1.31,1.64,1.96,4.06,1.96,7.24,0,2.14-.3,3.93-.91,5.38-.6,1.45-1.45,2.54-2.53,3.27-1.09.73-2.34,1.1-3.78,1.1s-2.46-.25-3.26-.74c-.79-.49-1.44-1.05-1.93-1.66h-.35l-.86,2.06h-3.91v-26.12h5.12Zm3.68,11.1c-.9,0-1.61.18-2.13.55-.53.37-.91.92-1.15,1.66-.24.74-.37,1.67-.39,2.8v.55c0,1.82.27,3.22.81,4.19s1.52,1.45,2.94,1.45c1.05,0,1.89-.49,2.51-1.46s.93-2.38.93-4.21-.31-3.22-.94-4.15c-.63-.93-1.48-1.39-2.57-1.39Z"/>
        <path class="cls-1" d="m1089.27,721.37h6.5v3.68h-6.5v6.46h-3.68v-6.46h-6.5v-3.68h6.5v-6.55h3.68v6.55Z"/>
        <path class="cls-1" d="m1105.91,735.66c-2.09,0-3.8-.82-5.11-2.46-1.31-1.64-1.97-4.05-1.97-7.23s.67-5.64,2-7.29c1.33-1.65,3.07-2.48,5.22-2.48.89,0,1.68.12,2.37.37s1.27.58,1.77.99.92.88,1.27,1.39h.17c-.07-.36-.15-.89-.24-1.59-.1-.7-.14-1.42-.14-2.16v-6.01h5.14v26.12h-3.93l-.99-2.43h-.22c-.33.52-.73.98-1.22,1.4-.49.42-1.07.75-1.74,1s-1.46.37-2.37.37Zm1.8-4.08c1.4,0,2.39-.42,2.96-1.25.58-.83.88-2.09.92-3.77v-.55c0-1.82-.28-3.22-.84-4.19s-1.6-1.45-3.12-1.45c-1.13,0-2.01.49-2.65,1.46-.64.97-.96,2.38-.96,4.21s.32,3.22.97,4.15c.64.93,1.55,1.39,2.73,1.39Z"/>
      </g>
    </g>
  </g>
  <g>
    <g>
      <path class="cls-4" d="m1266.56,818.21h-11.12v-30.43c0-.84.01-1.88.04-3.11.02-1.23.06-2.51.11-3.81.05-1.31.1-2.49.14-3.54-.26.31-.8.85-1.6,1.6-.8.76-1.55,1.43-2.25,2.03l-6.04,4.86-5.36-6.69,16.94-13.49h9.14v52.59Z"/>
      <path class="cls-4" d="m1317.68,791.91c0,4.25-.33,8.03-.99,11.37-.66,3.33-1.71,6.16-3.17,8.49s-3.35,4.1-5.7,5.32c-2.35,1.22-5.2,1.83-8.56,1.83-4.22,0-7.69-1.07-10.4-3.22s-4.71-5.24-6.01-9.28-1.94-8.88-1.94-14.52.59-10.55,1.78-14.59c1.19-4.04,3.12-7.14,5.81-9.3,2.69-2.16,6.27-3.24,10.76-3.24,4.2,0,7.66,1.07,10.38,3.22,2.72,2.15,4.74,5.24,6.06,9.28,1.32,4.04,1.98,8.92,1.98,14.62Zm-25.72,0c0,4,.22,7.34.67,10.02.44,2.67,1.19,4.68,2.25,6.03,1.05,1.34,2.52,2.01,4.39,2.01s3.3-.67,4.37-2c1.07-1.33,1.83-3.33,2.28-6.01.46-2.67.68-6.03.68-10.05s-.23-7.35-.68-10.04c-.46-2.69-1.22-4.71-2.28-6.06-1.07-1.35-2.52-2.03-4.37-2.03s-3.33.68-4.39,2.03c-1.06,1.36-1.8,3.38-2.25,6.06-.44,2.69-.67,6.03-.67,10.04Z"/>
      <path class="cls-4" d="m1359.81,791.91c0,4.25-.33,8.03-.99,11.37-.66,3.33-1.71,6.16-3.17,8.49s-3.35,4.1-5.7,5.32c-2.35,1.22-5.2,1.83-8.56,1.83-4.22,0-7.69-1.07-10.4-3.22s-4.71-5.24-6.01-9.28-1.94-8.88-1.94-14.52.59-10.55,1.78-14.59c1.19-4.04,3.12-7.14,5.81-9.3,2.69-2.16,6.27-3.24,10.76-3.24,4.2,0,7.66,1.07,10.38,3.22,2.72,2.15,4.74,5.24,6.06,9.28,1.32,4.04,1.98,8.92,1.98,14.62Zm-25.72,0c0,4,.22,7.34.67,10.02.44,2.67,1.19,4.68,2.25,6.03,1.05,1.34,2.52,2.01,4.39,2.01s3.3-.67,4.37-2c1.07-1.33,1.83-3.33,2.28-6.01.46-2.67.68-6.03.68-10.05s-.23-7.35-.68-10.04c-.46-2.69-1.22-4.71-2.28-6.06-1.07-1.35-2.52-2.03-4.37-2.03s-3.33.68-4.39,2.03c-1.06,1.36-1.8,3.38-2.25,6.06-.44,2.69-.67,6.03-.67,10.04Z"/>
    </g>
    <g>
      <path class="cls-4" d="m1449.02,702.92v175.59h-299.41v-175.59h299.41m7.37-7.37h-314.14v190.33h314.14v-190.33h0Z"/>
      <rect class="cls-4" x="1368.95" y="695.55" width="87.44" height="52.98"/>
      <g>
        <path class="cls-1" d="m1392.15,736.13c-1.92,0-3.56-.35-4.92-1.05-1.36-.7-2.39-1.79-3.09-3.26-.71-1.47-1.06-3.36-1.06-5.65s.4-4.31,1.21-5.82c.81-1.5,1.92-2.6,3.36-3.31s3.09-1.06,4.98-1.06c1.34,0,2.51.13,3.49.39.98.26,1.83.57,2.56.93l-1.57,4.1c-.83-.34-1.61-.61-2.33-.83-.72-.21-1.44-.32-2.16-.32-.93,0-1.7.22-2.31.65s-1.07,1.09-1.37,1.96-.45,1.96-.45,3.27.16,2.35.49,3.2c.32.85.79,1.48,1.41,1.89.61.41,1.36.62,2.24.62,1.1,0,2.08-.15,2.94-.44.86-.29,1.69-.71,2.5-1.24v4.54c-.81.51-1.66.88-2.55,1.1-.89.23-2.01.34-3.36.34Z"/>
        <path class="cls-1" d="m1411.85,721.34h6.73v3.81h-6.73v6.69h-3.81v-6.69h-6.73v-3.81h6.73v-6.78h3.81v6.78Z"/>
        <path class="cls-1" d="m1429.08,736.13c-2.17,0-3.93-.85-5.29-2.55s-2.04-4.19-2.04-7.49.69-5.84,2.07-7.55c1.38-1.71,3.18-2.57,5.41-2.57.93,0,1.74.13,2.45.38.71.25,1.32.6,1.83,1.03s.95.91,1.31,1.44h.17c-.07-.37-.15-.92-.25-1.64s-.15-1.47-.15-2.23v-6.22h5.32v27.05h-4.07l-1.03-2.52h-.23c-.34.53-.76,1.02-1.26,1.45s-1.1.78-1.8,1.03-1.51.38-2.45.38Zm1.86-4.22c1.45,0,2.47-.43,3.07-1.3s.91-2.17.95-3.9v-.57c0-1.89-.29-3.33-.87-4.34-.58-1-1.66-1.5-3.23-1.5-1.17,0-2.09.5-2.75,1.51-.66,1.01-.99,2.46-.99,4.36s.33,3.33,1,4.29c.67.96,1.61,1.44,2.83,1.44Z"/>
      </g>
    </g>
  </g>
  <g>
    <path class="cls-4" d="m584.08,179.77c-1.07,0-2.01.21-2.83.62s-1.51,1.01-2.07,1.79c-.56.78-.98,1.72-1.27,2.82-.29,1.1-.43,2.34-.43,3.72,0,1.86.23,3.44.69,4.76.46,1.31,1.18,2.31,2.15,3s2.22,1.03,3.76,1.03c1.07,0,2.14-.12,3.21-.36,1.07-.24,2.24-.58,3.5-1.03v4.68c-1.16.48-2.31.82-3.44,1.03-1.13.21-2.39.31-3.79.31-2.71,0-4.94-.56-6.68-1.68-1.75-1.12-3.04-2.69-3.88-4.71-.84-2.02-1.26-4.38-1.26-7.08,0-1.99.27-3.81.81-5.47s1.33-3.09,2.37-4.3c1.04-1.21,2.33-2.15,3.87-2.81,1.53-.66,3.3-.99,5.29-.99,1.31,0,2.62.17,3.93.49,1.31.33,2.57.78,3.77,1.36l-1.8,4.53c-.98-.47-1.97-.88-2.97-1.22-1-.35-1.97-.52-2.93-.52Z"/>
    <path class="cls-4" d="m614.23,191.71c0,1.68-.23,3.17-.67,4.46s-1.1,2.39-1.96,3.28c-.86.89-1.89,1.57-3.09,2.02s-2.56.68-4.07.68c-1.42,0-2.71-.23-3.89-.68s-2.21-1.13-3.08-2.02c-.87-.89-1.54-1.99-2.01-3.28s-.71-2.78-.71-4.46c0-2.23.4-4.12,1.19-5.67s1.92-2.72,3.38-3.53c1.46-.8,3.21-1.21,5.23-1.21,1.88,0,3.55.4,5.01,1.21,1.46.8,2.6,1.98,3.44,3.53.83,1.55,1.25,3.44,1.25,5.67Zm-13.9,0c0,1.32.14,2.43.43,3.33.29.9.74,1.58,1.35,2.03.61.46,1.41.68,2.39.68s1.76-.23,2.37-.68c.61-.46,1.05-1.13,1.33-2.03.28-.9.42-2.01.42-3.33s-.14-2.44-.42-3.32c-.28-.88-.73-1.54-1.34-1.99-.61-.44-1.41-.67-2.39-.67-1.45,0-2.5.5-3.16,1.49-.65,1-.98,2.49-.98,4.48Z"/>
    <path class="cls-4" d="m630.18,181.32c2.15,0,3.87.58,5.18,1.75,1.31,1.17,1.96,3.04,1.96,5.62v13.11h-5.49v-11.75c0-1.44-.26-2.52-.78-3.26-.52-.73-1.34-1.1-2.46-1.1-1.68,0-2.82.57-3.44,1.71-.61,1.14-.92,2.78-.92,4.93v9.46h-5.49v-20.11h4.19l.74,2.57h.31c.43-.7.97-1.26,1.61-1.69.64-.43,1.35-.75,2.14-.95.79-.2,1.6-.31,2.44-.31Z"/>
    <path class="cls-4" d="m651.44,197.79c.6,0,1.18-.06,1.75-.18.57-.12,1.14-.27,1.7-.45v4.08c-.59.26-1.32.48-2.19.66-.87.17-1.82.26-2.85.26-1.2,0-2.28-.2-3.23-.58-.95-.39-1.7-1.07-2.25-2.03-.55-.97-.82-2.31-.82-4.04v-9.69h-2.63v-2.32l3.02-1.83,1.58-4.24h3.51v4.28h5.63v4.12h-5.63v9.69c0,.77.22,1.34.66,1.72.44.38,1.02.57,1.74.57Z"/>
    <path class="cls-4" d="m670.19,181.32c.28,0,.6.02.96.04.37.03.66.07.89.12l-.41,5.14c-.18-.06-.43-.1-.76-.13-.33-.03-.61-.04-.85-.04-.71,0-1.39.09-2.06.27-.67.18-1.26.47-1.79.87-.53.4-.94.93-1.25,1.58-.31.65-.46,1.45-.46,2.4v10.23h-5.49v-20.11h4.15l.81,3.38h.27c.4-.68.89-1.31,1.48-1.88.59-.57,1.27-1.03,2.03-1.37.76-.34,1.59-.51,2.47-.51Z"/>
    <path class="cls-4" d="m683.93,181.28c2.7,0,4.77.59,6.21,1.76s2.16,2.96,2.16,5.36v13.4h-3.83l-1.06-2.73h-.14c-.58.72-1.16,1.31-1.76,1.76s-1.29.79-2.07,1.01c-.78.22-1.73.32-2.84.32-1.19,0-2.25-.23-3.19-.68s-1.68-1.15-2.22-2.1c-.54-.94-.81-2.14-.81-3.59,0-2.13.75-3.71,2.25-4.72,1.5-1.01,3.75-1.57,6.75-1.68l3.49-.11v-.88c0-1.06-.28-1.83-.83-2.32-.55-.49-1.32-.74-2.3-.74s-1.92.14-2.86.41c-.94.28-1.87.62-2.81,1.04l-1.82-3.71c1.07-.56,2.26-1.01,3.59-1.33,1.32-.32,2.69-.49,4.11-.49Zm2.91,11.21l-2.12.07c-1.77.05-3.01.37-3.7.95-.69.59-1.03,1.36-1.03,2.32,0,.84.25,1.44.74,1.79.49.35,1.13.53,1.92.53,1.18,0,2.17-.35,2.98-1.04.81-.7,1.21-1.68,1.21-2.97v-1.65Z"/>
    <path class="cls-4" d="m700.69,173.82c.82,0,1.52.19,2.1.57.59.38.88,1.08.88,2.11s-.29,1.72-.88,2.11c-.59.39-1.29.58-2.1.58s-1.53-.19-2.11-.58c-.58-.39-.87-1.09-.87-2.11s.29-1.74.87-2.11c.58-.38,1.29-.57,2.11-.57Zm2.73,7.88v20.11h-5.49v-20.11h5.49Z"/>
    <path class="cls-4" d="m727.64,181.7v20.11h-4.21l-.74-2.57h-.29c-.43.68-.97,1.24-1.62,1.67s-1.36.75-2.14.95c-.78.2-1.59.31-2.43.31-1.44,0-2.69-.25-3.76-.76-1.07-.51-1.9-1.3-2.49-2.38-.59-1.08-.89-2.48-.89-4.21v-13.11h5.49v11.75c0,1.44.26,2.52.77,3.26.52.73,1.34,1.1,2.46,1.1s1.99-.25,2.63-.76,1.08-1.26,1.34-2.25c.26-.99.39-2.2.39-3.62v-9.46h5.49Z"/>
    <path class="cls-4" d="m592.66,246.37c-2.24,0-4.07-.88-5.48-2.64-1.41-1.76-2.11-4.34-2.11-7.74s.71-6.05,2.14-7.82c1.43-1.77,3.29-2.65,5.59-2.65.96,0,1.8.13,2.54.4s1.36.62,1.9,1.06c.53.44.99.94,1.36,1.49h.18c-.07-.38-.16-.95-.26-1.7-.1-.75-.15-1.52-.15-2.31v-6.44h5.5v27.99h-4.21l-1.06-2.61h-.23c-.35.55-.78,1.05-1.3,1.5-.52.45-1.14.81-1.86,1.07-.72.26-1.56.4-2.54.4Zm1.92-4.37c1.5,0,2.56-.45,3.17-1.34.62-.89.94-2.24.98-4.04v-.59c0-1.95-.3-3.45-.9-4.49-.6-1.04-1.72-1.56-3.35-1.56-1.21,0-2.16.52-2.84,1.56-.68,1.04-1.03,2.55-1.03,4.51s.34,3.45,1.03,4.44c.69,1,1.66,1.49,2.92,1.49Z"/>
    <path class="cls-4" d="m627.88,235.92c0,1.68-.23,3.17-.67,4.46s-1.1,2.39-1.96,3.28c-.86.89-1.89,1.57-3.09,2.02s-2.56.68-4.07.68c-1.42,0-2.71-.23-3.89-.68s-2.21-1.13-3.08-2.02c-.87-.89-1.54-1.99-2.01-3.28s-.71-2.78-.71-4.46c0-2.23.4-4.12,1.19-5.67s1.92-2.72,3.38-3.53c1.46-.8,3.21-1.21,5.23-1.21,1.88,0,3.55.4,5.01,1.21,1.46.8,2.6,1.98,3.44,3.53.83,1.55,1.25,3.44,1.25,5.67Zm-13.9,0c0,1.32.14,2.43.43,3.33.29.9.74,1.58,1.35,2.03.61.46,1.41.68,2.39.68s1.76-.23,2.37-.68c.61-.46,1.05-1.13,1.33-2.03.28-.9.42-2.01.42-3.33s-.14-2.44-.42-3.32c-.28-.88-.73-1.54-1.34-1.99-.61-.44-1.41-.67-2.39-.67-1.45,0-2.5.5-3.16,1.49-.65,1-.98,2.49-.98,4.48Z"/>
    <path class="cls-4" d="m640.71,225.52c1.86,0,3.46.36,4.8,1.07,1.34.71,2.38,1.75,3.11,3.1s1.1,3.01,1.1,4.96v2.66h-12.97c.06,1.55.52,2.76,1.39,3.64.87.88,2.08,1.32,3.62,1.32,1.28,0,2.46-.13,3.53-.4,1.07-.26,2.16-.66,3.29-1.19v4.25c-1,.49-2.04.85-3.12,1.08-1.08.23-2.4.34-3.95.34-2.01,0-3.8-.37-5.35-1.12-1.55-.74-2.77-1.88-3.65-3.4s-1.32-3.44-1.32-5.76.4-4.31,1.2-5.87c.8-1.56,1.91-2.74,3.34-3.53,1.43-.79,3.09-1.18,4.98-1.18Zm.04,3.9c-1.07,0-1.95.34-2.65,1.03-.7.68-1.11,1.76-1.21,3.22h7.7c-.01-.82-.16-1.54-.44-2.18-.28-.64-.7-1.14-1.26-1.51s-1.27-.56-2.13-.56Z"/>
    <path class="cls-4" d="m665.6,225.52c2.15,0,3.87.58,5.18,1.75,1.31,1.17,1.96,3.04,1.96,5.62v13.11h-5.49v-11.75c0-1.44-.26-2.52-.78-3.26-.52-.73-1.34-1.1-2.46-1.1-1.68,0-2.82.57-3.44,1.71-.61,1.14-.92,2.78-.92,4.93v9.46h-5.49v-20.11h4.19l.74,2.57h.31c.43-.7.97-1.26,1.61-1.69.64-.43,1.35-.75,2.14-.95.79-.2,1.6-.31,2.44-.31Z"/>
    <path class="cls-4" d="m686.55,246.37c-1.99,0-3.69-.36-5.09-1.09-1.4-.73-2.47-1.85-3.2-3.37-.73-1.52-1.1-3.47-1.1-5.85s.42-4.46,1.25-6.02c.83-1.55,1.99-2.69,3.47-3.43,1.48-.73,3.2-1.1,5.15-1.1,1.39,0,2.59.14,3.61.4,1.01.27,1.9.59,2.65.96l-1.62,4.25c-.86-.35-1.67-.63-2.41-.85-.74-.22-1.49-.33-2.23-.33-.96,0-1.76.23-2.39.67s-1.11,1.12-1.42,2.02-.47,2.03-.47,3.38.17,2.43.5,3.31c.34.88.82,1.53,1.46,1.95.64.43,1.41.64,2.32.64,1.14,0,2.15-.15,3.04-.46.89-.31,1.75-.73,2.59-1.29v4.69c-.84.53-1.72.91-2.64,1.14-.92.23-2.08.35-3.48.35Zm3.96,4.14c0,1.38-.4,2.45-1.21,3.21-.8.76-2.25,1.14-4.35,1.14-.54,0-1.03-.04-1.46-.11s-.82-.16-1.17-.27v-3.02c.35.08.77.17,1.28.25.5.08.94.13,1.29.13s.65-.08.91-.24.39-.45.39-.87c0-.44-.22-.84-.67-1.19-.44-.35-1.22-.6-2.32-.76l1.4-2.77h3.47l-.49,1.1c.49.16.96.39,1.4.69.44.31.81.68,1.09,1.13.28.45.42.97.42,1.57Z"/>
    <path class="cls-4" d="m705.57,225.49c2.7,0,4.77.59,6.21,1.76s2.16,2.96,2.16,5.36v13.4h-3.83l-1.06-2.73h-.14c-.58.72-1.16,1.31-1.76,1.76s-1.29.79-2.07,1.01c-.78.22-1.73.32-2.84.32-1.19,0-2.25-.23-3.19-.68s-1.68-1.15-2.22-2.1c-.54-.94-.81-2.14-.81-3.59,0-2.13.75-3.71,2.25-4.72,1.5-1.01,3.75-1.57,6.75-1.68l3.49-.11v-.88c0-1.06-.28-1.83-.83-2.32-.55-.49-1.32-.74-2.3-.74s-1.92.14-2.86.41c-.94.28-1.87.62-2.81,1.04l-1.82-3.71c1.07-.56,2.26-1.01,3.59-1.33,1.32-.32,2.69-.49,4.11-.49Zm2.91,11.21l-2.12.07c-1.77.05-3.01.37-3.7.95-.69.59-1.03,1.36-1.03,2.32,0,.84.25,1.44.74,1.79.49.35,1.13.53,1.92.53,1.18,0,2.17-.35,2.98-1.04.81-.7,1.21-1.68,1.21-2.97v-1.65Z"/>
  </g>
  <g>
    <path class="cls-4" d="m880.85,201.81h-7.09l-11.44-19.89h-.16c.05.83.09,1.66.13,2.5.04.84.07,1.68.11,2.51s.07,1.67.11,2.51v12.38h-4.98v-26.3h7.03l11.42,19.7h.13c-.02-.82-.05-1.62-.09-2.43s-.07-1.61-.1-2.41c-.03-.8-.06-1.61-.08-2.41v-12.45h5.02v26.3Z"/>
    <path class="cls-4" d="m895.28,181.28c2.7,0,4.77.59,6.21,1.76s2.16,2.96,2.16,5.36v13.4h-3.83l-1.06-2.73h-.14c-.58.72-1.16,1.31-1.76,1.76s-1.29.79-2.07,1.01c-.78.22-1.73.32-2.84.32-1.19,0-2.25-.23-3.19-.68s-1.68-1.15-2.22-2.1c-.54-.94-.81-2.14-.81-3.59,0-2.13.75-3.71,2.25-4.72,1.5-1.01,3.75-1.57,6.75-1.68l3.49-.11v-.88c0-1.06-.28-1.83-.83-2.32-.55-.49-1.32-.74-2.3-.74s-1.92.14-2.86.41c-.94.28-1.87.62-2.81,1.04l-1.82-3.71c1.07-.56,2.26-1.01,3.59-1.33,1.32-.32,2.69-.49,4.11-.49Zm-7.46-1.76c.07-.96.25-1.79.52-2.49.28-.7.64-1.28,1.08-1.73.44-.45.94-.79,1.5-1.01.56-.22,1.15-.33,1.79-.33.49,0,.97.09,1.45.28s.94.4,1.4.66c.46.25.92.47,1.37.66s.89.28,1.32.28c.36,0,.71-.16,1.05-.48s.59-.79.75-1.43h2.68c-.14,1.9-.68,3.29-1.62,4.2-.94.91-2.03,1.36-3.27,1.36-.49,0-.97-.1-1.45-.29-.47-.19-.94-.41-1.4-.66-.46-.25-.91-.46-1.36-.66-.44-.19-.88-.29-1.31-.29-.37,0-.73.16-1.07.48-.34.32-.59.8-.75,1.45h-2.68Zm10.38,12.97l-2.12.07c-1.77.05-3.01.37-3.7.95-.69.59-1.03,1.36-1.03,2.32,0,.84.25,1.44.74,1.79.49.35,1.13.53,1.92.53,1.18,0,2.17-.35,2.98-1.04.81-.7,1.21-1.68,1.21-2.97v-1.65Z"/>
    <path class="cls-4" d="m927.56,191.71c0,1.68-.23,3.17-.67,4.46s-1.1,2.39-1.96,3.28c-.86.89-1.89,1.57-3.09,2.02s-2.56.68-4.07.68c-1.42,0-2.71-.23-3.89-.68s-2.21-1.13-3.08-2.02c-.87-.89-1.54-1.99-2.01-3.28s-.71-2.78-.71-4.46c0-2.23.4-4.12,1.19-5.67s1.92-2.72,3.38-3.53c1.46-.8,3.21-1.21,5.23-1.21,1.88,0,3.55.4,5.01,1.21,1.46.8,2.6,1.98,3.44,3.53.83,1.55,1.25,3.44,1.25,5.67Zm-13.9,0c0,1.32.14,2.43.43,3.33.29.9.74,1.58,1.35,2.03.61.46,1.41.68,2.39.68s1.76-.23,2.37-.68c.61-.46,1.05-1.13,1.33-2.03.28-.9.42-2.01.42-3.33s-.14-2.44-.42-3.32c-.28-.88-.73-1.54-1.34-1.99-.61-.44-1.41-.67-2.39-.67-1.45,0-2.5.5-3.16,1.49-.65,1-.98,2.49-.98,4.48Z"/>
    <path class="cls-4" d="m949.83,202.17c-1.99,0-3.69-.36-5.09-1.09-1.4-.73-2.47-1.85-3.2-3.37-.73-1.52-1.1-3.47-1.1-5.85s.42-4.46,1.25-6.02c.83-1.55,1.99-2.69,3.47-3.43,1.48-.73,3.2-1.1,5.15-1.1,1.39,0,2.59.14,3.61.4,1.01.27,1.9.59,2.65.96l-1.62,4.25c-.86-.35-1.67-.63-2.41-.85-.74-.22-1.49-.33-2.23-.33-.96,0-1.76.23-2.39.67s-1.11,1.12-1.42,2.02-.47,2.03-.47,3.38.17,2.43.5,3.31c.34.88.82,1.53,1.46,1.95.64.43,1.41.64,2.32.64,1.14,0,2.15-.15,3.04-.46.89-.31,1.75-.73,2.59-1.29v4.69c-.84.53-1.72.91-2.64,1.14-.92.23-2.08.35-3.48.35Z"/>
    <path class="cls-4" d="m978.88,191.71c0,1.68-.22,3.17-.67,4.46-.45,1.29-1.1,2.39-1.96,3.28-.86.89-1.89,1.57-3.09,2.02s-2.56.68-4.07.68c-1.42,0-2.71-.23-3.89-.68-1.18-.46-2.21-1.13-3.08-2.02-.87-.89-1.54-1.99-2.01-3.28s-.71-2.78-.71-4.46c0-2.23.4-4.12,1.19-5.67.79-1.55,1.92-2.72,3.38-3.53,1.46-.8,3.21-1.21,5.23-1.21,1.88,0,3.55.4,5.01,1.21,1.46.8,2.6,1.98,3.44,3.53.83,1.55,1.25,3.44,1.25,5.67Zm-13.9,0c0,1.32.14,2.43.43,3.33.29.9.74,1.58,1.35,2.03s1.41.68,2.39.68,1.76-.23,2.37-.68,1.05-1.13,1.33-2.03c.28-.9.42-2.01.42-3.33s-.14-2.44-.42-3.32c-.28-.88-.73-1.54-1.34-1.99-.61-.44-1.41-.67-2.39-.67-1.45,0-2.5.5-3.16,1.49-.65,1-.98,2.49-.98,4.48Z"/>
    <path class="cls-4" d="m994.83,181.32c2.15,0,3.87.58,5.18,1.75,1.31,1.17,1.96,3.04,1.96,5.62v13.11h-5.49v-11.75c0-1.44-.26-2.52-.78-3.26s-1.34-1.1-2.46-1.1c-1.68,0-2.82.57-3.44,1.71-.61,1.14-.92,2.78-.92,4.93v9.46h-5.49v-20.11h4.19l.74,2.57h.31c.43-.7.97-1.26,1.61-1.69s1.36-.75,2.14-.95c.79-.2,1.6-.31,2.44-.31Z"/>
    <path class="cls-4" d="m1016.09,197.79c.6,0,1.18-.06,1.75-.18.57-.12,1.14-.27,1.7-.45v4.08c-.59.26-1.32.48-2.19.66-.87.17-1.82.26-2.85.26-1.2,0-2.28-.2-3.23-.58-.95-.39-1.7-1.07-2.25-2.03-.55-.97-.82-2.31-.82-4.04v-9.69h-2.63v-2.32l3.02-1.83,1.58-4.24h3.51v4.28h5.63v4.12h-5.63v9.69c0,.77.22,1.34.66,1.72.44.38,1.02.57,1.74.57Z"/>
    <path class="cls-4" d="m1034.84,181.32c.28,0,.6.02.96.04.37.03.66.07.89.12l-.41,5.14c-.18-.06-.43-.1-.76-.13-.33-.03-.61-.04-.85-.04-.71,0-1.39.09-2.06.27-.67.18-1.26.47-1.79.87-.53.4-.94.93-1.25,1.58-.31.65-.46,1.45-.46,2.4v10.23h-5.49v-20.11h4.16l.81,3.38h.27c.4-.68.89-1.31,1.48-1.88.59-.57,1.27-1.03,2.03-1.37.76-.34,1.58-.51,2.47-.51Z"/>
    <path class="cls-4" d="m1048.58,181.28c2.7,0,4.77.59,6.21,1.76,1.44,1.18,2.16,2.96,2.16,5.36v13.4h-3.83l-1.06-2.73h-.14c-.58.72-1.16,1.31-1.76,1.76s-1.29.79-2.07,1.01-1.73.32-2.84.32c-1.19,0-2.25-.23-3.19-.68-.94-.46-1.68-1.15-2.22-2.1-.54-.94-.81-2.14-.81-3.59,0-2.13.75-3.71,2.25-4.72s3.75-1.57,6.75-1.68l3.49-.11v-.88c0-1.06-.28-1.83-.83-2.32s-1.32-.74-2.3-.74-1.92.14-2.86.41-1.87.62-2.81,1.04l-1.82-3.71c1.07-.56,2.26-1.01,3.59-1.33s2.7-.49,4.11-.49Zm2.91,11.21l-2.12.07c-1.77.05-3.01.37-3.7.95-.69.59-1.03,1.36-1.03,2.32,0,.84.25,1.44.74,1.79.49.35,1.13.53,1.92.53,1.17,0,2.17-.35,2.98-1.04.81-.7,1.21-1.68,1.21-2.97v-1.65Z"/>
    <path class="cls-4" d="m1065.34,173.82c.82,0,1.52.19,2.1.57.59.38.88,1.08.88,2.11s-.29,1.72-.88,2.11c-.59.39-1.29.58-2.1.58s-1.53-.19-2.11-.58c-.58-.39-.87-1.09-.87-2.11s.29-1.74.87-2.11c.58-.38,1.29-.57,2.11-.57Zm2.73,7.88v20.11h-5.49v-20.11h5.49Z"/>
    <path class="cls-4" d="m1092.29,181.7v20.11h-4.21l-.74-2.57h-.29c-.43.68-.97,1.24-1.62,1.67s-1.36.75-2.14.95c-.78.2-1.59.31-2.43.31-1.44,0-2.69-.25-3.76-.76-1.07-.51-1.9-1.3-2.49-2.38s-.89-2.48-.89-4.21v-13.11h5.49v11.75c0,1.44.26,2.52.77,3.26.52.73,1.34,1.1,2.46,1.1s1.99-.25,2.63-.76c.63-.51,1.08-1.26,1.34-2.25s.39-2.2.39-3.62v-9.46h5.49Z"/>
    <path class="cls-4" d="m917.29,246.37c-2.24,0-4.07-.88-5.48-2.64-1.41-1.76-2.11-4.34-2.11-7.74s.71-6.05,2.14-7.82c1.43-1.77,3.29-2.65,5.59-2.65.96,0,1.8.13,2.54.4s1.36.62,1.9,1.06c.53.44.99.94,1.36,1.49h.18c-.07-.38-.16-.95-.26-1.7-.1-.75-.15-1.52-.15-2.31v-6.44h5.5v27.99h-4.21l-1.06-2.61h-.23c-.35.55-.78,1.05-1.3,1.5-.52.45-1.14.81-1.86,1.07-.72.26-1.56.4-2.54.4Zm1.92-4.37c1.5,0,2.56-.45,3.17-1.34.62-.89.94-2.24.98-4.04v-.59c0-1.95-.3-3.45-.9-4.49-.6-1.04-1.72-1.56-3.35-1.56-1.21,0-2.16.52-2.84,1.56-.68,1.04-1.03,2.55-1.03,4.51s.34,3.45,1.03,4.44c.69,1,1.66,1.49,2.92,1.49Z"/>
    <path class="cls-4" d="m952.51,235.92c0,1.68-.23,3.17-.67,4.46s-1.1,2.39-1.96,3.28c-.86.89-1.89,1.57-3.09,2.02s-2.56.68-4.07.68c-1.42,0-2.71-.23-3.89-.68s-2.21-1.13-3.08-2.02c-.87-.89-1.54-1.99-2.01-3.28s-.71-2.78-.71-4.46c0-2.23.4-4.12,1.19-5.67s1.92-2.72,3.38-3.53c1.46-.8,3.21-1.21,5.23-1.21,1.88,0,3.55.4,5.01,1.21,1.46.8,2.6,1.98,3.44,3.53.83,1.55,1.25,3.44,1.25,5.67Zm-13.9,0c0,1.32.14,2.43.43,3.33.29.9.74,1.58,1.35,2.03.61.46,1.41.68,2.39.68s1.76-.23,2.37-.68c.61-.46,1.05-1.13,1.33-2.03.28-.9.42-2.01.42-3.33s-.14-2.44-.42-3.32c-.28-.88-.73-1.54-1.34-1.99-.61-.44-1.41-.67-2.39-.67-1.45,0-2.5.5-3.16,1.49-.65,1-.98,2.49-.98,4.48Z"/>
    <path class="cls-4" d="m965.33,225.52c1.86,0,3.46.36,4.8,1.07,1.34.71,2.38,1.75,3.11,3.1s1.1,3.01,1.1,4.96v2.66h-12.97c.06,1.55.52,2.76,1.39,3.64s2.08,1.32,3.62,1.32c1.28,0,2.46-.13,3.53-.4,1.07-.26,2.16-.66,3.29-1.19v4.25c-1,.49-2.04.85-3.12,1.08-1.09.23-2.4.34-3.95.34-2.01,0-3.8-.37-5.35-1.12-1.55-.74-2.77-1.88-3.65-3.4s-1.32-3.44-1.32-5.76.4-4.31,1.2-5.87c.8-1.56,1.91-2.74,3.34-3.53,1.43-.79,3.09-1.18,4.98-1.18Zm.04,3.9c-1.07,0-1.95.34-2.65,1.03s-1.11,1.76-1.21,3.22h7.7c-.01-.82-.16-1.54-.44-2.18-.28-.64-.7-1.14-1.26-1.51s-1.27-.56-2.13-.56Z"/>
    <path class="cls-4" d="m990.23,225.52c2.15,0,3.87.58,5.18,1.75,1.31,1.17,1.96,3.04,1.96,5.62v13.11h-5.49v-11.75c0-1.44-.26-2.52-.78-3.26s-1.34-1.1-2.46-1.1c-1.68,0-2.82.57-3.44,1.71-.61,1.14-.92,2.78-.92,4.93v9.46h-5.49v-20.11h4.19l.74,2.57h.31c.43-.7.97-1.26,1.61-1.69s1.36-.75,2.14-.95c.79-.2,1.6-.31,2.44-.31Z"/>
    <path class="cls-4" d="m1011.18,246.37c-1.99,0-3.69-.36-5.09-1.09-1.4-.73-2.47-1.85-3.2-3.37-.73-1.52-1.1-3.47-1.1-5.85s.42-4.46,1.25-6.02c.83-1.55,1.99-2.69,3.47-3.43,1.48-.73,3.2-1.1,5.15-1.1,1.39,0,2.59.14,3.61.4,1.01.27,1.9.59,2.65.96l-1.62,4.25c-.86-.35-1.67-.63-2.41-.85-.74-.22-1.49-.33-2.23-.33-.96,0-1.76.23-2.39.67-.64.45-1.11,1.12-1.42,2.02-.31.9-.47,2.03-.47,3.38s.17,2.43.5,3.31c.34.88.82,1.53,1.46,1.95.64.43,1.41.64,2.32.64,1.14,0,2.15-.15,3.04-.46.89-.31,1.75-.73,2.59-1.29v4.69c-.84.53-1.72.91-2.63,1.14-.92.23-2.08.35-3.48.35Zm3.96,4.14c0,1.38-.4,2.45-1.21,3.21-.8.76-2.25,1.14-4.35,1.14-.54,0-1.03-.04-1.46-.11s-.82-.16-1.17-.27v-3.02c.35.08.77.17,1.28.25.5.08.94.13,1.3.13s.65-.08.91-.24.39-.45.39-.87c0-.44-.22-.84-.67-1.19s-1.22-.6-2.32-.76l1.4-2.77h3.47l-.49,1.1c.49.16.96.39,1.4.69.44.31.81.68,1.09,1.13.28.45.42.97.42,1.57Z"/>
    <path class="cls-4" d="m1030.2,225.49c2.7,0,4.77.59,6.21,1.76,1.44,1.18,2.16,2.96,2.16,5.36v13.4h-3.83l-1.06-2.73h-.14c-.58.72-1.16,1.31-1.76,1.76s-1.29.79-2.07,1.01-1.73.32-2.84.32c-1.19,0-2.25-.23-3.19-.68-.94-.46-1.68-1.15-2.22-2.1-.54-.94-.81-2.14-.81-3.59,0-2.13.75-3.71,2.25-4.72s3.75-1.57,6.75-1.68l3.49-.11v-.88c0-1.06-.28-1.83-.83-2.32s-1.32-.74-2.3-.74-1.92.14-2.86.41-1.87.62-2.81,1.04l-1.82-3.71c1.07-.56,2.26-1.01,3.59-1.33s2.7-.49,4.11-.49Zm2.91,11.21l-2.12.07c-1.77.05-3.01.37-3.7.95-.69.59-1.03,1.36-1.03,2.32,0,.84.25,1.44.74,1.79.49.35,1.13.53,1.92.53,1.17,0,2.17-.35,2.98-1.04.81-.7,1.21-1.68,1.21-2.97v-1.65Z"/>
  </g>
  <g>
    <path class="cls-4" d="m1265.96,223.91h-5.58v-21.66h-7.14v-4.64h19.86v4.64h-7.14v21.66Z"/>
    <path class="cls-4" d="m1294.99,213.82c0,1.68-.22,3.17-.67,4.46-.45,1.29-1.1,2.39-1.96,3.28-.86.89-1.89,1.57-3.09,2.02s-2.56.68-4.07.68c-1.42,0-2.71-.23-3.89-.68-1.18-.46-2.21-1.13-3.08-2.02-.87-.89-1.54-1.99-2.01-3.28s-.71-2.78-.71-4.46c0-2.23.4-4.12,1.19-5.67.79-1.55,1.92-2.72,3.38-3.53,1.46-.8,3.21-1.21,5.23-1.21,1.88,0,3.55.4,5.01,1.21,1.46.8,2.6,1.98,3.44,3.53.83,1.55,1.25,3.44,1.25,5.67Zm-13.9,0c0,1.32.14,2.43.43,3.33.29.9.74,1.58,1.35,2.03s1.41.68,2.39.68,1.76-.23,2.37-.68,1.05-1.13,1.33-2.03c.28-.9.42-2.01.42-3.33s-.14-2.44-.42-3.32c-.28-.88-.73-1.54-1.34-1.99-.61-.44-1.41-.67-2.39-.67-1.45,0-2.5.5-3.16,1.49-.65,1-.98,2.49-.98,4.48Z"/>
    <path class="cls-4" d="m1308,219.9c.6,0,1.18-.06,1.75-.18.57-.12,1.14-.27,1.7-.45v4.08c-.59.26-1.32.48-2.19.66-.87.17-1.82.26-2.85.26-1.2,0-2.28-.2-3.23-.58-.95-.39-1.7-1.07-2.25-2.03-.55-.97-.82-2.31-.82-4.04v-9.69h-2.63v-2.32l3.02-1.83,1.58-4.24h3.51v4.28h5.63v4.12h-5.63v9.69c0,.77.22,1.34.66,1.72.44.38,1.02.57,1.74.57Z"/>
    <path class="cls-4" d="m1323.75,203.38c2.7,0,4.77.59,6.21,1.76,1.44,1.18,2.16,2.96,2.16,5.36v13.4h-3.83l-1.06-2.73h-.14c-.58.72-1.16,1.31-1.76,1.76s-1.29.79-2.07,1.01-1.73.32-2.84.32c-1.19,0-2.25-.23-3.19-.68-.94-.46-1.68-1.15-2.22-2.1-.54-.94-.81-2.14-.81-3.59,0-2.13.75-3.71,2.25-4.72s3.75-1.57,6.75-1.68l3.49-.11v-.88c0-1.06-.28-1.83-.83-2.32s-1.32-.74-2.3-.74-1.92.14-2.86.41-1.87.62-2.81,1.04l-1.82-3.71c1.07-.56,2.26-1.01,3.59-1.33s2.7-.49,4.11-.49Zm2.91,11.21l-2.12.07c-1.77.05-3.01.37-3.7.95-.69.59-1.03,1.36-1.03,2.32,0,.84.25,1.44.74,1.79.49.35,1.13.53,1.92.53,1.17,0,2.17-.35,2.98-1.04.81-.7,1.21-1.68,1.21-2.97v-1.65Z"/>
    <path class="cls-4" d="m1343.25,223.91h-5.49v-27.99h5.49v27.99Z"/>
  </g>
  <g>
    <g>
      <path class="cls-2" d="m1602.19,340.37c3.6,0,6.36.78,8.27,2.35,1.92,1.57,2.88,3.95,2.88,7.15v17.87h-5.11l-1.42-3.65h-.19c-.77.96-1.55,1.74-2.35,2.35-.8.61-1.72,1.06-2.76,1.34-1.04.29-2.3.43-3.79.43-1.58,0-3-.3-4.26-.91s-2.24-1.54-2.96-2.79c-.72-1.25-1.08-2.85-1.08-4.78,0-2.85,1-4.94,3-6.3,2-1.35,5-2.1,8.99-2.24l4.65-.14v-1.18c0-1.41-.37-2.44-1.1-3.09-.74-.66-1.76-.98-3.07-.98s-2.57.18-3.81.55c-1.25.37-2.5.83-3.74,1.39l-2.42-4.94c1.42-.75,3.02-1.34,4.78-1.77s3.59-.65,5.48-.65Zm3.88,14.94l-2.83.1c-2.37.06-4.01.49-4.93,1.27-.92.78-1.38,1.81-1.38,3.09,0,1.12.33,1.92.98,2.39.66.47,1.51.71,2.57.71,1.57,0,2.89-.46,3.97-1.39s1.62-2.25,1.62-3.96v-2.21Z"/>
      <g>
        <path class="cls-2" d="m1572.61,399.79c3.6,0,6.36.78,8.27,2.35,1.92,1.57,2.88,3.95,2.88,7.15v17.87h-5.11l-1.42-3.65h-.19c-.77.96-1.55,1.74-2.35,2.35-.8.61-1.72,1.06-2.76,1.34-1.04.29-2.3.43-3.79.43-1.58,0-3-.3-4.26-.91s-2.24-1.54-2.96-2.79c-.72-1.25-1.08-2.85-1.08-4.78,0-2.85,1-4.94,3-6.3,2-1.35,5-2.1,8.99-2.24l4.65-.14v-1.18c0-1.41-.37-2.44-1.1-3.09-.74-.66-1.76-.98-3.07-.98s-2.57.18-3.81.55c-1.25.37-2.5.83-3.74,1.39l-2.42-4.94c1.42-.75,3.02-1.34,4.78-1.77s3.59-.65,5.48-.65Zm3.88,14.94l-2.83.1c-2.37.06-4.01.49-4.93,1.27-.92.78-1.38,1.81-1.38,3.09,0,1.12.33,1.92.98,2.39.66.47,1.51.71,2.57.71,1.57,0,2.89-.46,3.97-1.39s1.62-2.25,1.62-3.96v-2.21Z"/>
        <path class="cls-2" d="m1604.1,407.22h9.28v5.25h-9.28v9.23h-5.25v-9.23h-9.28v-5.25h9.28v-9.35h5.25v9.35Z"/>
        <path class="cls-2" d="m1626.69,389.84v8.68c0,1.01-.03,2.01-.08,3-.06.99-.12,1.76-.2,2.3h.29c.7-1.1,1.66-2.04,2.88-2.82,1.21-.77,2.79-1.16,4.72-1.16,3,0,5.44,1.18,7.31,3.53,1.87,2.35,2.81,5.8,2.81,10.34,0,3.05-.43,5.62-1.29,7.69-.86,2.07-2.07,3.63-3.62,4.68-1.55,1.05-3.35,1.57-5.4,1.57s-3.52-.35-4.65-1.06c-1.14-.7-2.05-1.49-2.76-2.37h-.5l-1.22,2.95h-5.59v-37.32h7.32Zm5.25,15.85c-1.28,0-2.29.26-3.05.79-.75.53-1.3,1.32-1.64,2.37-.34,1.06-.53,2.39-.56,4.01v.79c0,2.61.38,4.6,1.15,5.98.77,1.38,2.17,2.07,4.2,2.07,1.5,0,2.7-.7,3.59-2.09.89-1.39,1.33-3.4,1.33-6.02s-.45-4.6-1.34-5.92c-.9-1.33-2.12-1.99-3.67-1.99Z"/>
      </g>
      <rect class="cls-2" x="1537.66" y="378.87" width="129.08" height="3.68"/>
    </g>
    <g>
      <rect class="cls-2" x="1680.12" y="371.77" width="18.57" height="3.68"/>
      <rect class="cls-2" x="1680.12" y="380.98" width="18.57" height="3.68"/>
    </g>
    <g>
      <path class="cls-2" d="m1741.48,379.35c0,2.83-.22,5.36-.66,7.58-.44,2.22-1.14,4.11-2.11,5.66-.97,1.55-2.23,2.73-3.8,3.55-1.57.82-3.47,1.22-5.71,1.22-2.81,0-5.12-.72-6.93-2.15-1.81-1.43-3.14-3.49-4.01-6.19-.86-2.69-1.29-5.92-1.29-9.68s.4-7.03,1.19-9.73c.79-2.69,2.08-4.76,3.87-6.2,1.79-1.44,4.18-2.16,7.17-2.16,2.8,0,5.1.72,6.92,2.15,1.81,1.43,3.16,3.49,4.04,6.19.88,2.69,1.32,5.94,1.32,9.75Zm-17.15,0c0,2.67.15,4.9.44,6.68s.79,3.12,1.5,4.02c.7.9,1.68,1.34,2.93,1.34s2.2-.44,2.91-1.33c.71-.89,1.22-2.22,1.52-4s.46-4.02.46-6.7-.15-4.9-.46-6.69c-.3-1.79-.81-3.14-1.52-4.04-.71-.9-1.68-1.35-2.91-1.35s-2.22.45-2.93,1.35c-.7.9-1.2,2.25-1.5,4.04-.3,1.79-.44,4.02-.44,6.69Z"/>
      <path class="cls-2" d="m1746.09,393.45c0-1.5.41-2.56,1.24-3.17.82-.61,1.82-.91,2.99-.91s2.11.3,2.94.91c.82.61,1.24,1.66,1.24,3.17s-.41,2.48-1.24,3.12c-.82.64-1.8.96-2.94.96s-2.16-.32-2.99-.96c-.82-.64-1.24-1.68-1.24-3.12Z"/>
      <path class="cls-2" d="m1782.4,369.66c0,1.61-.33,3.01-1.01,4.2-.67,1.18-1.58,2.15-2.72,2.9-1.14.75-2.43,1.3-3.85,1.65v.14c2.81.35,4.95,1.22,6.42,2.59s2.19,3.21,2.19,5.52c0,2.05-.5,3.88-1.5,5.49-1,1.62-2.54,2.89-4.62,3.81-2.08.93-4.76,1.39-8.03,1.39-1.93,0-3.74-.16-5.41-.47-1.67-.31-3.24-.79-4.71-1.43v-6.31c1.5.77,3.08,1.35,4.72,1.74,1.65.39,3.18.59,4.6.59,2.65,0,4.51-.46,5.58-1.38s1.6-2.21,1.6-3.87c0-.98-.25-1.8-.74-2.47-.5-.67-1.35-1.18-2.58-1.53-1.22-.35-2.93-.53-5.12-.53h-2.66v-5.68h2.71c2.16,0,3.8-.2,4.93-.61s1.89-.97,2.3-1.68c.41-.71.61-1.52.61-2.43,0-1.25-.38-2.22-1.15-2.93-.77-.7-2.05-1.06-3.84-1.06-1.12,0-2.14.14-3.06.42-.92.28-1.75.62-2.48,1.01-.74.39-1.38.77-1.94,1.14l-3.43-5.11c1.38-.99,2.99-1.81,4.83-2.47,1.85-.66,4.05-.98,6.61-.98,3.61,0,6.48.73,8.59,2.18,2.11,1.46,3.17,3.51,3.17,6.16Z"/>
      <path class="cls-2" d="m1787.1,381.99c0-2.01.15-4.01.44-5.98.29-1.97.81-3.84,1.55-5.59.73-1.75,1.77-3.3,3.09-4.65,1.33-1.35,3.01-2.41,5.06-3.19s4.52-1.16,7.43-1.16c.69,0,1.49.03,2.41.08.92.06,1.68.15,2.29.28v5.92c-.64-.14-1.32-.26-2.05-.35s-1.45-.13-2.17-.13c-2.91,0-5.16.46-6.75,1.39s-2.71,2.21-3.36,3.85c-.65,1.64-1.03,3.55-1.14,5.72h.31c.45-.78,1.01-1.48,1.69-2.09.68-.61,1.51-1.09,2.48-1.45.98-.36,2.12-.54,3.43-.54,2.05,0,3.82.44,5.32,1.31,1.5.87,2.66,2.13,3.48,3.78.82,1.65,1.22,3.65,1.22,6.02,0,2.53-.49,4.7-1.46,6.52s-2.35,3.22-4.14,4.19c-1.78.97-3.9,1.45-6.34,1.45-1.79,0-3.46-.31-5.01-.92-1.55-.62-2.91-1.55-4.08-2.82-1.17-1.26-2.08-2.86-2.73-4.78-.66-1.93-.98-4.21-.98-6.85Zm12.66,9.45c1.46,0,2.64-.5,3.55-1.49.91-.99,1.37-2.54,1.37-4.65,0-1.71-.4-3.06-1.19-4.04-.79-.98-1.99-1.48-3.59-1.48-1.09,0-2.04.24-2.87.73-.82.49-1.46,1.1-1.91,1.85s-.67,1.51-.67,2.29.11,1.62.33,2.42c.22.8.56,1.53,1.01,2.18.45.66,1,1.18,1.67,1.58.66.4,1.43.6,2.29.6Z"/>
    </g>
  </g>
  <g>
    <g>
      <path class="cls-3" d="m1604.3,535.6c-2.65,0-4.92-.48-6.79-1.45-1.87-.97-3.29-2.47-4.27-4.5-.97-2.03-1.46-4.63-1.46-7.79s.56-5.95,1.67-8.02c1.11-2.07,2.65-3.59,4.63-4.57,1.97-.97,4.26-1.46,6.87-1.46,1.85,0,3.46.18,4.81.54,1.35.36,2.53.79,3.54,1.28l-2.16,5.66c-1.15-.46-2.22-.84-3.21-1.14s-1.98-.44-2.97-.44c-1.28,0-2.34.3-3.19.9-.85.6-1.48,1.5-1.9,2.7-.42,1.2-.62,2.7-.62,4.51s.22,3.25.67,4.41c.45,1.17,1.09,2.03,1.94,2.6.85.57,1.88.85,3.09.85,1.52,0,2.87-.2,4.05-.61s2.33-.98,3.45-1.71v6.26c-1.12.7-2.29,1.21-3.51,1.52-1.22.31-2.77.47-4.64.47Z"/>
      <g>
        <path class="cls-3" d="m1574.72,595.02c-2.65,0-4.92-.48-6.79-1.45-1.87-.97-3.29-2.47-4.27-4.5-.97-2.03-1.46-4.63-1.46-7.79s.56-5.95,1.67-8.02c1.11-2.07,2.65-3.59,4.63-4.57,1.97-.97,4.26-1.46,6.87-1.46,1.85,0,3.46.18,4.81.54,1.35.36,2.53.79,3.54,1.28l-2.16,5.66c-1.15-.46-2.22-.84-3.21-1.14s-1.98-.44-2.97-.44c-1.28,0-2.34.3-3.19.9-.85.6-1.48,1.5-1.9,2.7-.42,1.2-.62,2.7-.62,4.51s.22,3.25.67,4.41c.45,1.17,1.09,2.04,1.94,2.6.85.57,1.88.85,3.09.85,1.52,0,2.87-.2,4.05-.61,1.18-.41,2.33-.98,3.45-1.71v6.26c-1.12.7-2.29,1.21-3.51,1.52-1.22.31-2.77.47-4.64.47Z"/>
        <path class="cls-3" d="m1601.89,574.61h9.28v5.25h-9.28v9.23h-5.25v-9.23h-9.28v-5.25h9.28v-9.35h5.25v9.35Z"/>
        <path class="cls-3" d="m1625.66,595.02c-2.99,0-5.42-1.17-7.3-3.51-1.88-2.34-2.82-5.78-2.82-10.32s.95-8.06,2.85-10.42c1.9-2.36,4.39-3.54,7.46-3.54,1.28,0,2.41.18,3.38.53.98.35,1.82.82,2.53,1.42.71.59,1.31,1.26,1.81,1.99h.24c-.1-.51-.21-1.27-.35-2.27-.14-1-.2-2.03-.2-3.08v-8.59h7.34v37.32h-5.61l-1.42-3.48h-.31c-.46.74-1.04,1.4-1.74,2-.7.6-1.52,1.08-2.48,1.43-.96.35-2.09.53-3.38.53Zm2.57-5.83c2,0,3.41-.6,4.23-1.79s1.26-2.99,1.31-5.38v-.79c0-2.61-.4-4.6-1.2-5.98-.8-1.38-2.29-2.07-4.46-2.07-1.62,0-2.88.7-3.79,2.09-.91,1.39-1.37,3.4-1.37,6.02s.46,4.6,1.38,5.92c.92,1.33,2.22,1.99,3.9,1.99Z"/>
      </g>
      <rect class="cls-3" x="1537.66" y="546.26" width="129.08" height="3.68"/>
    </g>
    <g>
      <rect class="cls-3" x="1680.12" y="539.16" width="18.57" height="3.68"/>
      <rect class="cls-3" x="1680.12" y="548.36" width="18.57" height="3.68"/>
    </g>
    <g>
      <path class="cls-3" d="m1741.48,546.74c0,2.83-.22,5.36-.66,7.58-.44,2.22-1.14,4.11-2.11,5.66-.97,1.55-2.23,2.73-3.8,3.55-1.57.82-3.47,1.22-5.71,1.22-2.81,0-5.12-.71-6.93-2.15-1.81-1.43-3.14-3.49-4.01-6.19-.86-2.69-1.29-5.92-1.29-9.68s.4-7.03,1.19-9.73c.79-2.69,2.08-4.76,3.87-6.2,1.79-1.44,4.18-2.16,7.17-2.16,2.8,0,5.1.72,6.92,2.15,1.81,1.43,3.16,3.49,4.04,6.19.88,2.69,1.32,5.94,1.32,9.75Zm-17.15,0c0,2.67.15,4.9.44,6.68.3,1.78.79,3.12,1.5,4.02.7.9,1.68,1.34,2.93,1.34s2.2-.44,2.91-1.33c.71-.89,1.22-2.22,1.52-4,.3-1.78.46-4.02.46-6.7s-.15-4.9-.46-6.69c-.3-1.79-.81-3.14-1.52-4.04-.71-.9-1.68-1.35-2.91-1.35s-2.22.45-2.93,1.35c-.7.9-1.2,2.25-1.5,4.04-.3,1.79-.44,4.02-.44,6.69Z"/>
      <path class="cls-3" d="m1746.09,560.84c0-1.5.41-2.56,1.24-3.17.82-.61,1.82-.91,2.99-.91s2.11.3,2.94.91c.82.61,1.24,1.66,1.24,3.17s-.41,2.48-1.24,3.12c-.82.64-1.8.96-2.94.96s-2.16-.32-2.99-.96c-.82-.64-1.24-1.68-1.24-3.12Z"/>
      <path class="cls-3" d="m1783.57,546.74c0,2.83-.22,5.36-.66,7.58-.44,2.22-1.14,4.11-2.11,5.66-.97,1.55-2.23,2.73-3.8,3.55-1.57.82-3.47,1.22-5.71,1.22-2.81,0-5.12-.71-6.93-2.15-1.81-1.43-3.14-3.49-4.01-6.19-.86-2.69-1.29-5.92-1.29-9.68s.4-7.03,1.19-9.73c.79-2.69,2.08-4.76,3.87-6.2,1.79-1.44,4.18-2.16,7.17-2.16,2.8,0,5.1.72,6.92,2.15,1.81,1.43,3.16,3.49,4.04,6.19.88,2.69,1.32,5.94,1.32,9.75Zm-17.15,0c0,2.67.15,4.9.44,6.68.3,1.78.79,3.12,1.5,4.02.7.9,1.68,1.34,2.93,1.34s2.2-.44,2.91-1.33c.71-.89,1.22-2.22,1.52-4,.3-1.78.46-4.02.46-6.7s-.15-4.9-.46-6.69c-.3-1.79-.81-3.14-1.52-4.04-.71-.9-1.68-1.35-2.91-1.35s-2.22.45-2.93,1.35c-.7.9-1.2,2.25-1.5,4.04-.3,1.79-.44,4.02-.44,6.69Z"/>
      <path class="cls-3" d="m1799.42,528.75c2.01,0,3.87.31,5.58.94s3.07,1.56,4.09,2.82c1.02,1.26,1.54,2.83,1.54,4.71,0,1.41-.28,2.64-.83,3.69-.55,1.06-1.3,1.98-2.24,2.77-.94.79-2.01,1.48-3.21,2.07,1.25.66,2.43,1.42,3.55,2.29,1.12.87,2.03,1.89,2.75,3.06.71,1.17,1.07,2.53,1.07,4.08,0,1.95-.52,3.64-1.56,5.07-1.04,1.43-2.48,2.54-4.32,3.32s-3.97,1.17-6.4,1.17c-2.62,0-4.85-.38-6.69-1.13s-3.24-1.83-4.2-3.23c-.96-1.4-1.44-3.07-1.44-5.02,0-1.6.3-2.99.9-4.17s1.41-2.2,2.43-3.06c1.02-.86,2.15-1.59,3.38-2.19-1.04-.66-1.99-1.4-2.84-2.23-.86-.83-1.53-1.78-2.04-2.85-.5-1.07-.76-2.3-.76-3.69,0-1.85.52-3.41,1.57-4.65,1.05-1.25,2.43-2.19,4.14-2.82,1.71-.63,3.56-.95,5.54-.95Zm-5.47,26.19c0,1.26.45,2.31,1.35,3.13s2.24,1.23,4.02,1.23,3.21-.4,4.12-1.19c.91-.79,1.37-1.83,1.37-3.13,0-.9-.26-1.68-.78-2.35-.52-.67-1.17-1.27-1.96-1.81-.78-.54-1.58-1.04-2.37-1.5l-.65-.34c-1.02.46-1.92.98-2.67,1.56-.76.58-1.36,1.22-1.79,1.94s-.65,1.54-.65,2.45Zm5.42-20.77c-1.21,0-2.22.31-3.02.94-.8.62-1.2,1.5-1.2,2.64,0,.8.2,1.5.59,2.1s.91,1.12,1.56,1.57c.65.45,1.35.86,2.12,1.25.74-.35,1.42-.74,2.06-1.17s1.16-.95,1.56-1.56c.4-.61.6-1.33.6-2.18,0-1.13-.4-2.01-1.21-2.64s-1.83-.94-3.06-.94Z"/>
    </g>
  </g>
  <g>
    <g>
      <g>
        <path class="cls-2" d="m1579.36,708.67c0,2.83-.22,5.36-.66,7.58-.44,2.22-1.14,4.11-2.11,5.66-.97,1.55-2.23,2.73-3.8,3.55-1.57.82-3.47,1.22-5.71,1.22-2.81,0-5.12-.71-6.93-2.15-1.81-1.43-3.14-3.49-4.01-6.19-.86-2.69-1.29-5.92-1.29-9.68s.4-7.03,1.19-9.72,2.08-4.76,3.87-6.2c1.79-1.44,4.18-2.16,7.17-2.16,2.8,0,5.1.72,6.92,2.15s3.16,3.49,4.04,6.19,1.32,5.94,1.32,9.75Zm-17.15,0c0,2.67.15,4.9.44,6.68.3,1.78.79,3.12,1.5,4.02.7.9,1.68,1.34,2.93,1.34s2.2-.44,2.91-1.33c.71-.89,1.22-2.22,1.52-4,.3-1.78.46-4.02.46-6.7s-.15-4.9-.46-6.69c-.3-1.79-.81-3.14-1.52-4.04-.71-.9-1.68-1.35-2.91-1.35s-2.22.45-2.93,1.35c-.7.9-1.2,2.25-1.5,4.04-.3,1.79-.44,4.02-.44,6.69Z"/>
        <path class="cls-2" d="m1583.96,722.77c0-1.5.41-2.56,1.24-3.17.82-.61,1.82-.91,2.99-.91s2.11.3,2.94.91c.82.61,1.24,1.66,1.24,3.17s-.41,2.48-1.24,3.12c-.82.64-1.8.96-2.94.96s-2.16-.32-2.99-.96c-.82-.64-1.24-1.68-1.24-3.12Z"/>
        <path class="cls-2" d="m1620.27,698.98c0,1.62-.33,3.01-1.01,4.2-.67,1.18-1.58,2.15-2.72,2.9-1.14.75-2.43,1.3-3.85,1.65v.14c2.81.35,4.95,1.21,6.42,2.59s2.19,3.21,2.19,5.52c0,2.05-.5,3.88-1.5,5.49-1,1.62-2.54,2.89-4.62,3.81-2.08.93-4.76,1.39-8.03,1.39-1.93,0-3.74-.16-5.41-.47-1.67-.31-3.24-.79-4.71-1.43v-6.31c1.5.77,3.08,1.35,4.72,1.74,1.65.39,3.18.59,4.6.59,2.65,0,4.51-.46,5.58-1.38,1.06-.92,1.6-2.21,1.6-3.87,0-.97-.25-1.8-.74-2.47-.5-.67-1.35-1.18-2.58-1.54-1.22-.35-2.93-.53-5.12-.53h-2.66v-5.68h2.71c2.16,0,3.8-.2,4.93-.61,1.13-.41,1.89-.97,2.3-1.68.41-.71.61-1.52.61-2.43,0-1.25-.38-2.22-1.15-2.93-.77-.7-2.05-1.05-3.84-1.05-1.12,0-2.14.14-3.06.42-.92.28-1.75.62-2.48,1.01-.74.39-1.38.77-1.94,1.14l-3.43-5.11c1.38-.99,2.99-1.81,4.83-2.47,1.85-.66,4.05-.98,6.61-.98,3.61,0,6.48.73,8.59,2.18s3.17,3.51,3.17,6.16Z"/>
        <path class="cls-2" d="m1624.97,711.3c0-2.01.15-4.01.44-5.98.29-1.97.81-3.84,1.55-5.59.73-1.75,1.77-3.3,3.09-4.65,1.33-1.35,3.01-2.41,5.06-3.19,2.05-.77,4.52-1.16,7.43-1.16.69,0,1.49.03,2.41.08.92.06,1.68.15,2.29.28v5.92c-.64-.14-1.32-.26-2.05-.35s-1.45-.13-2.17-.13c-2.91,0-5.16.46-6.75,1.39-1.59.93-2.71,2.21-3.36,3.85-.65,1.64-1.03,3.55-1.14,5.72h.31c.45-.78,1.01-1.48,1.69-2.09s1.51-1.09,2.48-1.45c.98-.36,2.12-.54,3.43-.54,2.05,0,3.82.44,5.32,1.31,1.5.87,2.66,2.13,3.48,3.78s1.22,3.65,1.22,6.02c0,2.53-.49,4.7-1.46,6.52s-2.35,3.22-4.14,4.18c-1.78.97-3.9,1.45-6.34,1.45-1.79,0-3.46-.31-5.01-.92-1.55-.62-2.91-1.55-4.08-2.82-1.17-1.26-2.08-2.86-2.73-4.78s-.98-4.21-.98-6.85Zm12.66,9.45c1.46,0,2.64-.5,3.55-1.49.91-.99,1.37-2.54,1.37-4.65,0-1.71-.4-3.06-1.19-4.04-.79-.98-1.99-1.47-3.59-1.47-1.09,0-2.04.24-2.87.73-.82.49-1.46,1.1-1.91,1.85s-.67,1.51-.67,2.29.11,1.62.33,2.42.56,1.53,1.01,2.18c.45.66,1,1.18,1.67,1.58.66.4,1.43.6,2.29.6Z"/>
      </g>
      <g>
        <path class="cls-3" d="m1579.36,768.08c0,2.83-.22,5.36-.66,7.58-.44,2.22-1.14,4.11-2.11,5.66-.97,1.55-2.23,2.73-3.8,3.55-1.57.82-3.47,1.22-5.71,1.22-2.81,0-5.12-.71-6.93-2.15-1.81-1.43-3.14-3.49-4.01-6.19-.86-2.69-1.29-5.92-1.29-9.68s.4-7.03,1.19-9.72,2.08-4.76,3.87-6.2c1.79-1.44,4.18-2.16,7.17-2.16,2.8,0,5.1.72,6.92,2.15s3.16,3.49,4.04,6.19,1.32,5.94,1.32,9.75Zm-17.15,0c0,2.67.15,4.9.44,6.68.3,1.78.79,3.12,1.5,4.02.7.9,1.68,1.34,2.93,1.34s2.2-.44,2.91-1.33c.71-.89,1.22-2.22,1.52-4,.3-1.78.46-4.02.46-6.7s-.15-4.9-.46-6.69c-.3-1.79-.81-3.14-1.52-4.04-.71-.9-1.68-1.35-2.91-1.35s-2.22.45-2.93,1.35c-.7.9-1.2,2.25-1.5,4.04-.3,1.79-.44,4.02-.44,6.69Z"/>
        <path class="cls-3" d="m1583.96,782.19c0-1.5.41-2.56,1.24-3.17.82-.61,1.82-.91,2.99-.91s2.11.3,2.94.91c.82.61,1.24,1.66,1.24,3.17s-.41,2.48-1.24,3.12c-.82.64-1.8.96-2.94.96s-2.16-.32-2.99-.96c-.82-.64-1.24-1.68-1.24-3.12Z"/>
        <path class="cls-3" d="m1621.45,768.08c0,2.83-.22,5.36-.66,7.58-.44,2.22-1.14,4.11-2.11,5.66-.97,1.55-2.23,2.73-3.8,3.55-1.57.82-3.47,1.22-5.71,1.22-2.81,0-5.12-.71-6.93-2.15-1.81-1.43-3.14-3.49-4.01-6.19-.86-2.69-1.29-5.92-1.29-9.68s.4-7.03,1.19-9.72,2.08-4.76,3.87-6.2c1.79-1.44,4.18-2.16,7.17-2.16,2.8,0,5.1.72,6.92,2.15s3.16,3.49,4.04,6.19,1.32,5.94,1.32,9.75Zm-17.15,0c0,2.67.15,4.9.44,6.68.3,1.78.79,3.12,1.5,4.02.7.9,1.68,1.34,2.93,1.34s2.2-.44,2.91-1.33c.71-.89,1.22-2.22,1.52-4,.3-1.78.46-4.02.46-6.7s-.15-4.9-.46-6.69c-.3-1.79-.81-3.14-1.52-4.04-.71-.9-1.68-1.35-2.91-1.35s-2.22.45-2.93,1.35c-.7.9-1.2,2.25-1.5,4.04-.3,1.79-.44,4.02-.44,6.69Z"/>
        <path class="cls-3" d="m1637.3,750.1c2.01,0,3.87.31,5.58.94s3.07,1.56,4.09,2.82,1.54,2.83,1.54,4.71c0,1.41-.28,2.64-.83,3.69-.55,1.06-1.3,1.98-2.24,2.77-.94.79-2.01,1.48-3.21,2.07,1.25.66,2.43,1.42,3.55,2.29,1.12.87,2.03,1.89,2.75,3.06.71,1.17,1.07,2.53,1.07,4.08,0,1.95-.52,3.64-1.56,5.07-1.04,1.43-2.48,2.54-4.32,3.32s-3.97,1.17-6.4,1.17c-2.62,0-4.85-.38-6.69-1.13s-3.24-1.83-4.2-3.23c-.96-1.4-1.44-3.07-1.44-5.02,0-1.6.3-2.99.9-4.17s1.41-2.2,2.43-3.06c1.02-.86,2.15-1.59,3.38-2.19-1.04-.66-1.99-1.4-2.84-2.23-.86-.83-1.53-1.78-2.04-2.85s-.76-2.3-.76-3.69c0-1.85.52-3.41,1.57-4.65,1.05-1.25,2.43-2.19,4.14-2.82,1.71-.63,3.56-.95,5.54-.95Zm-5.47,26.19c0,1.26.45,2.31,1.35,3.13s2.24,1.23,4.02,1.23,3.21-.4,4.12-1.19c.91-.79,1.37-1.83,1.37-3.13,0-.9-.26-1.68-.78-2.35-.52-.67-1.17-1.27-1.96-1.81-.78-.54-1.58-1.04-2.37-1.5l-.65-.34c-1.02.46-1.92.98-2.67,1.56-.76.58-1.36,1.22-1.79,1.94s-.65,1.54-.65,2.45Zm5.42-20.77c-1.21,0-2.22.31-3.02.94-.8.62-1.2,1.5-1.2,2.64,0,.8.2,1.5.59,2.1s.91,1.12,1.56,1.57c.65.45,1.35.86,2.12,1.25.74-.35,1.42-.74,2.06-1.17s1.16-.95,1.56-1.56c.4-.61.6-1.33.6-2.18,0-1.14-.4-2.01-1.21-2.64-.81-.62-1.83-.94-3.06-.94Z"/>
      </g>
      <rect class="cls-4" x="1537.66" y="737.33" width="129.08" height="3.68"/>
    </g>
    <g>
      <rect class="cls-4" x="1680.12" y="730.23" width="18.57" height="3.68"/>
      <rect class="cls-4" x="1680.12" y="739.44" width="18.57" height="3.68"/>
    </g>
    <g>
      <path class="cls-4" d="m1756.51,748.08h-4.22v7.27h-7.24v-7.27h-14.96v-5.16l15.37-22.64h6.83v22.04h4.22v5.76Zm-11.46-5.76v-5.95c0-.56.01-1.22.04-1.99.02-.77.05-1.54.08-2.3.03-.77.07-1.45.11-2.05s.07-1.02.08-1.26h-.19c-.3.66-.62,1.29-.96,1.91-.33.62-.73,1.26-1.17,1.93l-6.43,9.71h8.44Z"/>
      <path class="cls-4" d="m1760.13,751.92c0-1.5.41-2.56,1.24-3.17.82-.61,1.82-.91,2.99-.91s2.11.3,2.94.91c.82.61,1.24,1.66,1.24,3.17s-.41,2.48-1.24,3.12c-.82.64-1.8.96-2.94.96s-2.16-.32-2.99-.96c-.82-.64-1.24-1.68-1.24-3.12Z"/>
      <path class="cls-4" d="m1786.05,732.95c2.14,0,4.05.41,5.72,1.22s2.99,2.01,3.95,3.6c.96,1.58,1.44,3.53,1.44,5.85,0,2.53-.52,4.71-1.57,6.54-1.05,1.83-2.61,3.23-4.68,4.21-2.07.98-4.65,1.46-7.73,1.46-1.84,0-3.57-.16-5.19-.47-1.62-.31-3.04-.79-4.26-1.43v-6.4c1.21.64,2.67,1.18,4.38,1.62,1.7.44,3.31.66,4.81.66s2.71-.2,3.72-.59c1.01-.39,1.77-1,2.29-1.82s.78-1.87.78-3.15c0-1.71-.58-3.02-1.73-3.93-1.15-.91-2.92-1.37-5.3-1.37-.91,0-1.86.09-2.84.26-.98.18-1.8.35-2.46.53l-2.95-1.58,1.32-17.87h19.02v6.28h-12.52l-.65,6.88c.54-.11,1.13-.22,1.77-.33.64-.11,1.54-.17,2.69-.17Z"/>
    </g>
  </g>
</svg>