<?xml version="1.0" encoding="UTF-8"?><svg id="Layer_1" xmlns="http://www.w3.org/2000/svg" viewBox="0 0 149.703 188.497"><defs><style>.cls-1,.cls-2{fill:#3a0000;}.cls-3{fill:#fff;}.cls-4{fill:#c0cc54;}.cls-5{fill:#cc6155;}.cls-2{opacity:.3;}</style></defs><g><circle class="cls-5" cx="74.852" cy="113.646" r="74.852"/><circle class="cls-3" cx="74.852" cy="113.646" r="54.699"/><path class="cls-1" d="m74.852,188.497c41.338,0,74.85-33.511,74.851-74.849,0-.001,0-.002,0-.003-2.495,33.71-27.632,63.4-61.028,69.465C44.297,191.702,3.395,158.294,0,113.646,0,154.985,33.512,188.497,74.852,188.497Z"/></g><circle class="cls-5" cx="74.852" cy="113.646" r="41.271"/><circle class="cls-3" cx="74.852" cy="113.646" r="28.521"/><circle class="cls-5" cx="74.852" cy="113.646" r="14.646"/><polygon class="cls-1" points="72.807 114 114.432 28.125 117.432 29.25 73.932 115.875 72.807 114"/><path class="cls-2" d="m148.556,100.651l-75.749,13.349,1.125,1.875,75.425-9.353c-.187-1.982-.462-3.937-.801-5.872Z"/><path class="cls-4" d="m112.182,0l-2.988,8.171c.979,5.66,1.825,11.331,2.254,17.191-2.083-2.607-3.608-6.408-4.939-9.849l-1.138,3.112c1.994,5.053,3.634,10.235,3.453,14.991-2.05-2.762-3.432-6.275-5.277-9.232-.059-.094-.118-.191-.177-.286l-1.564,4.277,5.125,17,7.5-17.25-2.25-28.125Z"/><path class="cls-4" d="m116.489,38.181c4.017-1.879,8.076-3.738,12.142-5.573l2.708-5.321c-3.114.549-6.166,1.222-8.903,1.997,3.367-2.734,7.484-5.349,11.83-7.747l4.791-9.411-21.625,17.125-9.75,18.75,17.25-8.125,2.298-4.514c-3.588.954-7.008,2.192-10.741,2.82Z"/></svg>