<?xml version="1.0" encoding="utf-8"?><svg id="DAF_ICD_M1A4_RIM_06_Interativa" image-rendering="auto" baseProfile="basic" version="1.1" x="0px" y="0px" width="1068" height="580" xmlns="http://www.w3.org/2000/svg" xmlns:xlink="http://www.w3.org/1999/xlink"><defs><filter id="filter33" filterUnits="objectBoundingBox" width="100%" height="100%" x="0%" y="0%"><feColorMatrix type="matrix" in="SourceGraphic" values="1 0 0 0 1 0 1 0 0 1 0 0 1 0 1 0 0 0 9999999999999.99 0" result="colorTrans"/></filter><g id="graf1_2.0" overflow="visible"><path fill="#F00" stroke="none" d="M78.7 -19L17.15 -19 17.15 125.3 78.7 120.45 78.7 -19M17.15 -43.25L17.15 -19.05 78.7 -19.05 78.7 -43.25 17.15 -43.25Z"/></g><g id="graf1_4.0" overflow="visible"><path fill="#A11" stroke="none" d="M17.15 -38.3L0 -67.9 0 95.7 17.15 125.3 17.15 -38.3Z"/></g><g id="up5" overflow="visible"><path fill="#9CF1FF" stroke="none" d="M78.7 29.6L61.55 0 0 4.85 17.15 34.45 78.7 29.6Z"/></g><g id="Maskk" overflow="visible"><path fill="#F00" stroke="none" d="M78.8 211.95L0 211.95 0 341.15 78.8 341.15 78.8 211.95M78.7 32.6L78.7 24.8 37.5 24.8 37.5 18.05 24.45 18.05 24.45 .05 0 .05 0 211.9 78.8 211.9 78.8 32.6 78.7 32.6Z"/></g><g id="up6" overflow="visible"><path fill="#FFDAA4" stroke="none" d="M78.7 29.6L61.55 0 0 4.85 17.15 34.45 78.7 29.6Z"/></g><g id="up7" overflow="visible"><path fill="#CDFFB8" stroke="none" d="M78.7 29.6L61.55 0 0 4.85 17.15 34.45 78.7 29.6Z"/></g><g id="up8" overflow="visible"><path fill="#F6C0FF" stroke="none" d="M78.7 29.6L61.55 0 0 4.85 17.15 34.45 78.7 29.6Z"/></g><g id="up9" overflow="visible"><path fill="#FFB3B3" stroke="none" d="M78.7 29.6L61.55 0 0 4.85 17.15 34.45 78.7 29.6Z"/></g></defs><g id="Cena-1r1" overflow="visible"><g display="none"><image overflow="visible" xlink:href="img/flash0.ai/Camada_2/Image.png" height="2288" width="4451" transform="matrix(.24 0 0 .24 0 31)"/><animate attributeName="display" fill="freeze" repeatCount="1" dur="2.467s" keyTimes="0;.014;1" values="none;inline;inline"/></g><g><image overflow="visible" xlink:href="img/flash0.ai/Camada_2/Image.png" height="2288" width="4451" transform="matrix(.24 0 0 .24 0 31)"/><animate attributeName="display" fill="freeze" repeatCount="1" dur="2.467s" keyTimes="0;.014;1" values="inline;none;none"/></g><g display="none"><g id="base" transform="matrix(.007 0 0 .018 551.4 400.65)"><animateTransform attributeName="transform" additive="replace" type="translate" dur="2.467s" keyTimes="0;.20299;.203;.21599;.216;.22999;.23;.24299;.243;.25699;.257;.26999;.27;.28399;.284;.29699;.297;.31099;.311;.32399;.324;.33799;.338;.35099;.351;.36499;.365;.37799;.378;.39199;.392;.40499;.405;.41899;.419;.43199;.432;1" values="553.65,402.401;553.65,402.401;553.65,402.45;553.65,402.45;553.701,402.449;553.701,402.449;553.703,402.401;553.703,402.401;553.65,402.45;553.65,402.45;553.699,402.455;553.699,402.455;553.699,402.454;553.699,402.454;553.653,402.408;553.653,402.408;553.716,402.401;553.716,402.401;553.661,402.409;553.661,402.409;553.665,402.465;553.665,402.465;553.762,402.475;553.762,402.475;553.729,402.392;553.729,402.392;553.747,402.452;553.747,402.452;553.717,402.411;553.717,402.411;553.745,402.4;553.745,402.4;553.728,402.463;553.728,402.463;553.639,402.529;553.639,402.529;553.641,402.446;553.641,402.446" calcMode="discrete" fill="freeze"/><animateTransform attributeName="transform" additive="sum" type="scale" dur="2.467s" keyTimes="0;.20299;.203;.21599;.216;.22999;.23;.24299;.243;.25699;.257;.26999;.27;.28399;.284;.29699;.297;.31099;.311;.32399;.324;.33799;.338;.35099;.351;.36499;.365;.37799;.378;.39199;.392;.40499;.405;.41899;.419;.43199;.432;1" values=".007,.018;.007,.018;.012,.023;.012,.023;.026,.036;.026,.036;.048,.057;.048,.057;.08,.088;.08,.088;.121,.127;.121,.127;.171,.175;.171,.175;.23,.232;.23,.232;.298,.297;.298,.297;.376,.372;.376,.372;.462,.455;.462,.455;.558,.546;.558,.546;.662,.647;.662,.647;.776,.756;.776,.756;.899,.873;.899,.873;1.031,1;1.031,1;1.02,.99;1.02,.99;.994,.966;.994,.966;.983,.956;.983,.956" calcMode="discrete" fill="freeze"/><animateTransform attributeName="transform" additive="sum" type="translate" dur="2.467s" keyTimes="0;.20299;.203;.21599;.216;.22999;.23;.24299;.243;.25699;.257;.26999;.27;.28399;.284;.29699;.297;.31099;.311;.32399;.324;.33799;.338;.35099;.351;.37799;.378;.39199;.392;.40499;.405;.43199;.432;1" values="-308.25,-99.1;-308.25,-99.1;-308.5,-99.9;-308.5,-99.9;-304.3,-98.25;-304.3,-98.25;-301.8,-97.55;-301.8,-97.55;-301.75,-97.2;-301.75,-97.2;-301.3,-97.1;-301.3,-97.1;-301.5,-96.75;-301.5,-96.75;-301.4,-96.6;-301.4,-96.6;-301.25,-96.5;-301.25,-96.5;-301.15,-96.5;-301.15,-96.5;-301.1,-96.4;-301.1,-96.4;-301.1,-96.45;-301.1,-96.45;-301.05,-96.35;-301.05,-96.35;-301,-96.3;-301,-96.3;-300.4,-96.25;-300.4,-96.25;-300.4,-96.35;-300.4,-96.35;-300.35,-96.3;-300.35,-96.3" calcMode="discrete" fill="freeze"/><path fill="#0FF" stroke="none" d="M600.55 96.25Q600.55 76.8 577.75 59.2 554.95 41.55 512.2 27.95 469.75 14.4 415.05 7.2 360.35 0 300.3 0 240.25 0 185.55 7.2 130.85 14.4 88.4 27.95 45.65 41.55 22.85 59.2 0 76.85 0 96.25 0 115.7 22.85 133.35 45.65 151 88.4 164.6 130.85 178.15 185.55 185.35 240.25 192.55 300.3 192.55 360.35 192.55 415.05 185.35 469.75 178.15 512.2 164.6 554.95 151 577.75 133.35 600.55 115.7 600.55 96.25M575.05 59.6Q598.55 77.1 598.55 96.25 598.55 115.4 575.05 132.9 552.4 149.85 511.1 162.9 469.8 175.95 416.3 183.15 360.9 190.55 300.3 190.55 239.75 190.55 184.3 183.15 130.8 175.95 89.5 162.9 48.15 149.85 25.5 132.9 2 115.4 2 96.25 2 77.1 25.5 59.6 48.15 42.7 89.5 29.65 130.8 16.6 184.3 9.4 239.75 2 300.3 2 360.85 2 416.3 9.4 469.8 16.6 511.1 29.65 552.4 42.7 575.05 59.6Z"/><path fill="#0FF" fill-opacity=".4" stroke="none" d="M598.55 96.25Q598.55 77.1 575.05 59.6 552.4 42.7 511.1 29.65 469.8 16.6 416.3 9.4 360.85 2 300.3 2 239.75 2 184.3 9.4 130.8 16.6 89.5 29.65 48.15 42.7 25.5 59.6 2 77.1 2 96.25 2 115.4 25.5 132.9 48.15 149.85 89.5 162.9 130.8 175.95 184.3 183.15 239.75 190.55 300.3 190.55 360.9 190.55 416.3 183.15 469.8 175.95 511.1 162.9 552.4 149.85 575.05 132.9 598.55 115.4 598.55 96.25Z"/></g><animate attributeName="display" fill="freeze" repeatCount="1" dur="2.467s" keyTimes="0;.189;1" values="none;inline;inline"/></g><g display="none"><g id="graf1f24o68r1" transform="translate(663.95 284.05)"><g mask="url(#mask_57)" id="graf1_4.24"><path fill="#A11" stroke="none" d="M17.15 -38.3L0 -67.9 0 95.7 17.15 125.3 17.15 -38.3Z"/></g><mask id="mask_57"><g filter="url(#filter33)"><use xlink:href="#Maskk" transform="translate(0 -67.95)"/></g></mask><g mask="url(#mask_56)" id="graf1_2.24"><path fill="#F00" stroke="none" d="M78.7 -19L17.15 -19 17.15 125.3 78.7 120.45 78.7 -19M17.15 -43.25L17.15 -19.05 78.7 -19.05 78.7 -43.25 17.15 -43.25Z"/></g><mask id="mask_56"><g filter="url(#filter33)"><use xlink:href="#Maskk" transform="translate(0 -67.95)"/></g></mask><use xlink:href="#up9" transform="translate(0 -72.8)"/></g><animate attributeName="display" fill="freeze" repeatCount="1" dur="2.467s" keyTimes="0;.919;1" values="none;inline;inline"/></g><g display="none"><g id="graf1f23o67r1" transform="translate(663.95 284.05)"><g mask="url(#mask_55)"><use xlink:href="#graf1_4.0"/></g><mask id="mask_55"><g filter="url(#filter33)"><use xlink:href="#Maskk" transform="translate(0 -54.6)"/></g></mask><g mask="url(#mask_54)"><use xlink:href="#graf1_2.0"/></g><mask id="mask_54"><g filter="url(#filter33)"><use xlink:href="#Maskk" transform="translate(0 -54.6)"/></g></mask><use xlink:href="#up9" transform="translate(0 -59.45)"/></g><animate attributeName="display" fill="freeze" repeatCount="1" dur="2.467s" keyTimes="0;.905;.919;1" values="none;inline;none;none"/></g><g display="none"><g id="graf1f22o66r1" transform="translate(663.95 284.05)"><g mask="url(#mask_53)"><use xlink:href="#graf1_4.0"/></g><mask id="mask_53"><g filter="url(#filter33)"><use xlink:href="#Maskk" transform="translate(0 -41.8)"/></g></mask><g mask="url(#mask_52)"><use xlink:href="#graf1_2.0"/></g><mask id="mask_52"><g filter="url(#filter33)"><use xlink:href="#Maskk" transform="translate(0 -41.8)"/></g></mask><use xlink:href="#up9" transform="translate(0 -46.65)"/></g><animate attributeName="display" fill="freeze" repeatCount="1" dur="2.467s" keyTimes="0;.892;.905;1" values="none;inline;none;none"/></g><g display="none"><g id="graf1f21o65r1" transform="translate(663.95 284.05)"><g mask="url(#mask_51)"><use xlink:href="#graf1_4.0"/></g><mask id="mask_51"><g filter="url(#filter33)"><use xlink:href="#Maskk" transform="translate(0 -29.6)"/></g></mask><g mask="url(#mask_50)"><use xlink:href="#graf1_2.0"/></g><mask id="mask_50"><g filter="url(#filter33)"><use xlink:href="#Maskk" transform="translate(0 -29.6)"/></g></mask><use xlink:href="#up9" transform="translate(0 -34.45)"/></g><animate attributeName="display" fill="freeze" repeatCount="1" dur="2.467s" keyTimes="0;.878;.892;1" values="none;inline;none;none"/></g><g display="none"><g id="graf1f20o64r1" transform="translate(663.95 284.05)"><g mask="url(#mask_49)"><use xlink:href="#graf1_4.0"/></g><mask id="mask_49"><g filter="url(#filter33)"><use xlink:href="#Maskk" transform="translate(0 -17.95)"/></g></mask><g mask="url(#mask_48)"><use xlink:href="#graf1_2.0"/></g><mask id="mask_48"><g filter="url(#filter33)"><use xlink:href="#Maskk" transform="translate(0 -17.95)"/></g></mask><use xlink:href="#up9" transform="translate(0 -22.8)"/></g><animate attributeName="display" fill="freeze" repeatCount="1" dur="2.467s" keyTimes="0;.865;.878;1" values="none;inline;none;none"/></g><g display="none"><g id="graf1f19o63r1" transform="translate(663.95 284.05)"><g mask="url(#mask_47)"><use xlink:href="#graf1_4.0"/></g><mask id="mask_47"><g filter="url(#filter33)"><use xlink:href="#Maskk" transform="translate(0 -6.9)"/></g></mask><g mask="url(#mask_46)"><use xlink:href="#graf1_2.0"/></g><mask id="mask_46"><g filter="url(#filter33)"><use xlink:href="#Maskk" transform="translate(0 -6.9)"/></g></mask><use xlink:href="#up9" transform="translate(0 -11.7)"/></g><animate attributeName="display" fill="freeze" repeatCount="1" dur="2.467s" keyTimes="0;.851;.865;1" values="none;inline;none;none"/></g><g display="none"><g id="graf1f18o62r1" transform="translate(663.95 284.05)"><g mask="url(#mask_45)"><use xlink:href="#graf1_4.0"/></g><mask id="mask_45"><g filter="url(#filter33)"><use xlink:href="#Maskk" transform="translate(0 3.65)"/></g></mask><g mask="url(#mask_44)"><use xlink:href="#graf1_2.0"/></g><mask id="mask_44"><g filter="url(#filter33)"><use xlink:href="#Maskk" transform="translate(0 3.65)"/></g></mask><use xlink:href="#up9" transform="translate(0 -1.2)"/></g><animate attributeName="display" fill="freeze" repeatCount="1" dur="2.467s" keyTimes="0;.838;.851;1" values="none;inline;none;none"/></g><g display="none"><g id="graf1f17o61r1" transform="translate(663.95 284.05)"><g mask="url(#mask_43)"><use xlink:href="#graf1_4.0"/></g><mask id="mask_43"><g filter="url(#filter33)"><use xlink:href="#Maskk" transform="translate(0 13.55)"/></g></mask><g mask="url(#mask_42)"><use xlink:href="#graf1_2.0"/></g><mask id="mask_42"><g filter="url(#filter33)"><use xlink:href="#Maskk" transform="translate(0 13.55)"/></g></mask><use xlink:href="#up9" transform="translate(0 8.75)"/></g><animate attributeName="display" fill="freeze" repeatCount="1" dur="2.467s" keyTimes="0;.824;.838;1" values="none;inline;none;none"/></g><g display="none"><g id="graf1f16o60r1" transform="translate(663.95 284.05)"><g mask="url(#mask_41)"><use xlink:href="#graf1_4.0"/></g><mask id="mask_41"><g filter="url(#filter33)"><use xlink:href="#Maskk" transform="translate(0 22.95)"/></g></mask><g mask="url(#mask_40)"><use xlink:href="#graf1_2.0"/></g><mask id="mask_40"><g filter="url(#filter33)"><use xlink:href="#Maskk" transform="translate(0 22.95)"/></g></mask><use xlink:href="#up9" transform="translate(0 18.1)"/></g><animate attributeName="display" fill="freeze" repeatCount="1" dur="2.467s" keyTimes="0;.811;.824;1" values="none;inline;none;none"/></g><g display="none"><g id="graf1f15o59r1" transform="translate(663.95 284.05)"><g mask="url(#mask_39)"><use xlink:href="#graf1_4.0"/></g><mask id="mask_39"><g filter="url(#filter33)"><use xlink:href="#Maskk" transform="translate(0 31.75)"/></g></mask><g mask="url(#mask_38)"><use xlink:href="#graf1_2.0"/></g><mask id="mask_38"><g filter="url(#filter33)"><use xlink:href="#Maskk" transform="translate(0 31.75)"/></g></mask><use xlink:href="#up9" transform="translate(0 26.9)"/></g><animate attributeName="display" fill="freeze" repeatCount="1" dur="2.467s" keyTimes="0;.797;.811;1" values="none;inline;none;none"/></g><g display="none"><g id="graf1f14o58r1" transform="translate(663.95 284.05)"><g mask="url(#mask_37)"><use xlink:href="#graf1_4.0"/></g><mask id="mask_37"><g filter="url(#filter33)"><use xlink:href="#Maskk" transform="translate(0 40)"/></g></mask><g mask="url(#mask_36)"><use xlink:href="#graf1_2.0"/></g><mask id="mask_36"><g filter="url(#filter33)"><use xlink:href="#Maskk" transform="translate(0 40)"/></g></mask><use xlink:href="#up9" transform="translate(0 35.15)"/></g><animate attributeName="display" fill="freeze" repeatCount="1" dur="2.467s" keyTimes="0;.784;.797;1" values="none;inline;none;none"/></g><g display="none"><g id="graf1f13o57r1" transform="translate(663.95 284.05)"><g mask="url(#mask_35)"><use xlink:href="#graf1_4.0"/></g><mask id="mask_35"><g filter="url(#filter33)"><use xlink:href="#Maskk" transform="translate(0 47.65)"/></g></mask><g mask="url(#mask_34)"><use xlink:href="#graf1_2.0"/></g><mask id="mask_34"><g filter="url(#filter33)"><use xlink:href="#Maskk" transform="translate(0 47.65)"/></g></mask><use xlink:href="#up9" transform="translate(0 42.85)"/></g><animate attributeName="display" fill="freeze" repeatCount="1" dur="2.467s" keyTimes="0;.77;.784;1" values="none;inline;none;none"/></g><g display="none"><g id="graf1f12o56r1" transform="translate(663.95 284.05)"><g mask="url(#mask_33)"><use xlink:href="#graf1_4.0"/></g><mask id="mask_33"><g filter="url(#filter33)"><use xlink:href="#Maskk" transform="translate(0 54.75)"/></g></mask><g mask="url(#mask_32)"><use xlink:href="#graf1_2.0"/></g><mask id="mask_32"><g filter="url(#filter33)"><use xlink:href="#Maskk" transform="translate(0 54.75)"/></g></mask><use xlink:href="#up9" transform="translate(0 49.95)"/></g><animate attributeName="display" fill="freeze" repeatCount="1" dur="2.467s" keyTimes="0;.757;.77;1" values="none;inline;none;none"/></g><g display="none"><g id="graf1f11o55r1" transform="translate(663.95 284.05)"><g mask="url(#mask_31)"><use xlink:href="#graf1_4.0"/></g><mask id="mask_31"><g filter="url(#filter33)"><use xlink:href="#Maskk" transform="translate(0 61.3)"/></g></mask><g mask="url(#mask_30)"><use xlink:href="#graf1_2.0"/></g><mask id="mask_30"><g filter="url(#filter33)"><use xlink:href="#Maskk" transform="translate(0 61.3)"/></g></mask><use xlink:href="#up9" transform="translate(0 56.45)"/></g><animate attributeName="display" fill="freeze" repeatCount="1" dur="2.467s" keyTimes="0;.743;.757;1" values="none;inline;none;none"/></g><g display="none"><g id="graf1f10o54r1" transform="translate(663.95 284.05)"><g mask="url(#mask_29)"><use xlink:href="#graf1_4.0"/></g><mask id="mask_29"><g filter="url(#filter33)"><use xlink:href="#Maskk" transform="translate(0 67.25)"/></g></mask><g mask="url(#mask_28)"><use xlink:href="#graf1_2.0"/></g><mask id="mask_28"><g filter="url(#filter33)"><use xlink:href="#Maskk" transform="translate(0 67.25)"/></g></mask><use xlink:href="#up9" transform="translate(0 62.45)"/></g><animate attributeName="display" fill="freeze" repeatCount="1" dur="2.467s" keyTimes="0;.73;.743;1" values="none;inline;none;none"/></g><g display="none"><g id="graf1f9o53r1" transform="translate(663.95 284.05)"><g mask="url(#mask_27)"><use xlink:href="#graf1_4.0"/></g><mask id="mask_27"><g filter="url(#filter33)"><use xlink:href="#Maskk" transform="translate(0 72.65)"/></g></mask><g mask="url(#mask_26)"><use xlink:href="#graf1_2.0"/></g><mask id="mask_26"><g filter="url(#filter33)"><use xlink:href="#Maskk" transform="translate(0 72.65)"/></g></mask><use xlink:href="#up9" transform="translate(0 67.85)"/></g><animate attributeName="display" fill="freeze" repeatCount="1" dur="2.467s" keyTimes="0;.716;.73;1" values="none;inline;none;none"/></g><g display="none"><g id="graf1f8o52r1" transform="translate(663.95 284.05)"><g mask="url(#mask_25)"><use xlink:href="#graf1_4.0"/></g><mask id="mask_25"><g filter="url(#filter33)"><use xlink:href="#Maskk" transform="translate(0 77.45)"/></g></mask><g mask="url(#mask_24)"><use xlink:href="#graf1_2.0"/></g><mask id="mask_24"><g filter="url(#filter33)"><use xlink:href="#Maskk" transform="translate(0 77.45)"/></g></mask><use xlink:href="#up9" transform="translate(0 72.65)"/></g><animate attributeName="display" fill="freeze" repeatCount="1" dur="2.467s" keyTimes="0;.703;.716;1" values="none;inline;none;none"/></g><g display="none"><g id="graf1f7o51r1" transform="translate(663.95 284.05)"><g mask="url(#mask_23)"><use xlink:href="#graf1_4.0"/></g><mask id="mask_23"><g filter="url(#filter33)"><use xlink:href="#Maskk" transform="translate(0 81.75)"/></g></mask><g mask="url(#mask_22)"><use xlink:href="#graf1_2.0"/></g><mask id="mask_22"><g filter="url(#filter33)"><use xlink:href="#Maskk" transform="translate(0 81.75)"/></g></mask><use xlink:href="#up9" transform="translate(0 76.95)"/></g><animate attributeName="display" fill="freeze" repeatCount="1" dur="2.467s" keyTimes="0;.689;.703;1" values="none;inline;none;none"/></g><g display="none"><g id="graf1f6o50r1" transform="translate(663.95 284.05)"><g mask="url(#mask_21)"><use xlink:href="#graf1_4.0"/></g><mask id="mask_21"><g filter="url(#filter33)"><use xlink:href="#Maskk" transform="translate(0 85.45)"/></g></mask><g mask="url(#mask_20)"><use xlink:href="#graf1_2.0"/></g><mask id="mask_20"><g filter="url(#filter33)"><use xlink:href="#Maskk" transform="translate(0 85.45)"/></g></mask><use xlink:href="#up9" transform="translate(0 80.6)"/></g><animate attributeName="display" fill="freeze" repeatCount="1" dur="2.467s" keyTimes="0;.676;.689;1" values="none;inline;none;none"/></g><g display="none"><g id="graf1f5o49r1" transform="translate(663.95 284.05)"><g mask="url(#mask_19)"><use xlink:href="#graf1_4.0"/></g><mask id="mask_19"><g filter="url(#filter33)"><use xlink:href="#Maskk" transform="translate(0 88.55)"/></g></mask><g mask="url(#mask_18)"><use xlink:href="#graf1_2.0"/></g><mask id="mask_18"><g filter="url(#filter33)"><use xlink:href="#Maskk" transform="translate(0 88.55)"/></g></mask><use xlink:href="#up9" transform="translate(0 83.75)"/></g><animate attributeName="display" fill="freeze" repeatCount="1" dur="2.467s" keyTimes="0;.662;.676;1" values="none;inline;none;none"/></g><g display="none"><g id="graf1f4o48r1" transform="translate(663.95 284.05)"><g mask="url(#mask_17)"><use xlink:href="#graf1_4.0"/></g><mask id="mask_17"><g filter="url(#filter33)"><use xlink:href="#Maskk" transform="translate(0 91.1)"/></g></mask><g mask="url(#mask_16)"><use xlink:href="#graf1_2.0"/></g><mask id="mask_16"><g filter="url(#filter33)"><use xlink:href="#Maskk" transform="translate(0 91.1)"/></g></mask><use xlink:href="#up9" transform="translate(0 86.3)"/></g><animate attributeName="display" fill="freeze" repeatCount="1" dur="2.467s" keyTimes="0;.649;.662;1" values="none;inline;none;none"/></g><g display="none"><g id="graf1f3o47r1" transform="translate(663.95 284.05)"><g mask="url(#mask_15)"><use xlink:href="#graf1_4.0"/></g><mask id="mask_15"><g filter="url(#filter33)"><use xlink:href="#Maskk" transform="translate(0 93.1)"/></g></mask><g mask="url(#mask_14)"><use xlink:href="#graf1_2.0"/></g><mask id="mask_14"><g filter="url(#filter33)"><use xlink:href="#Maskk" transform="translate(0 93.1)"/></g></mask><use xlink:href="#up9" transform="translate(0 88.3)"/></g><animate attributeName="display" fill="freeze" repeatCount="1" dur="2.467s" keyTimes="0;.635;.649;1" values="none;inline;none;none"/></g><g display="none"><g id="graf1f2o46r1" transform="translate(663.95 284.05)"><g mask="url(#mask_13)"><use xlink:href="#graf1_4.0"/></g><mask id="mask_13"><g filter="url(#filter33)"><use xlink:href="#Maskk" transform="translate(0 94.5)"/></g></mask><g mask="url(#mask_12)"><use xlink:href="#graf1_2.0"/></g><mask id="mask_12"><g filter="url(#filter33)"><use xlink:href="#Maskk" transform="translate(0 94.5)"/></g></mask><use xlink:href="#up9" transform="translate(0 89.7)"/></g><animate attributeName="display" fill="freeze" repeatCount="1" dur="2.467s" keyTimes="0;.622;.635;1" values="none;inline;none;none"/></g><g display="none"><g id="graf1f1o45r1" transform="translate(663.95 284.05)"><g mask="url(#mask_11)"><use xlink:href="#graf1_4.0"/></g><mask id="mask_11"><g filter="url(#filter33)"><use xlink:href="#Maskk" transform="translate(0 95.35)"/></g></mask><g mask="url(#mask_10)"><use xlink:href="#graf1_2.0"/></g><mask id="mask_10"><g filter="url(#filter33)"><use xlink:href="#Maskk" transform="translate(0 95.35)"/></g></mask><use xlink:href="#up9" transform="translate(0 90.55)"/></g><animate attributeName="display" fill="freeze" repeatCount="1" dur="2.467s" keyTimes="0;.608;.622;1" values="none;inline;none;none"/></g><g display="none"><g id="graf1f0o44r1" transform="translate(663.95 284.05)"><g mask="url(#mask_9)"><use xlink:href="#graf1_4.0"/></g><mask id="mask_9"><g filter="url(#filter33)"><use xlink:href="#Maskk" transform="translate(0 95.65)"/></g></mask><g mask="url(#mask_8)"><use xlink:href="#graf1_2.0"/></g><mask id="mask_8"><g filter="url(#filter33)"><use xlink:href="#Maskk" transform="translate(0 95.65)"/></g></mask><use xlink:href="#up9" transform="translate(0 90.85)"/></g><animate attributeName="display" fill="freeze" repeatCount="1" dur="2.467s" keyTimes="0;.595;.608;1" values="none;inline;none;none"/></g><g display="none"><g id="graf2o41d74r1" transform="translate(597.25 288.75)"><g mask="url(#mask_7)" display="none" id="Layer17_0_FILL"><path fill="#A716C1" stroke="none" d="M17.15 -87.15L0 -116.75 0 95.7 17.15 125.3 17.15 -87.15Z"/><animate attributeName="display" fill="freeze" repeatCount="1" dur="2.467s" keyTimes="0;.554;1" values="none;inline;inline"/></g><mask id="mask_7"><g filter="url(#filter33)"><g display="none"><use xlink:href="#Maskk" transform="translate(0 95.65)"><animateTransform attributeName="transform" additive="replace" type="translate" dur="2.467s" keyTimes="0;.554;.878;1" values="0,95.65;0,95.65;0,-116.75;0,-116.75" fill="freeze"/></use><animate attributeName="display" fill="freeze" repeatCount="1" dur="2.467s" keyTimes="0;.554;1" values="none;inline;inline"/></g></g></mask><g mask="url(#mask_6)" display="none" id="Layer15_0_FILL"><path fill="#E950FF" stroke="none" d="M78.7 -92L17.15 -87.15 17.15 125.3 78.7 120.45 78.7 -92Z"/><animate attributeName="display" fill="freeze" repeatCount="1" dur="2.467s" keyTimes="0;.554;1" values="none;inline;inline"/></g><mask id="mask_6"><g filter="url(#filter33)"><g display="none"><use xlink:href="#Maskk" transform="translate(0 95.65)"><animateTransform attributeName="transform" additive="replace" type="translate" dur="2.467s" keyTimes="0;.554;.878;1" values="0,95.65;0,95.65;-.1,-116.75;-.1,-116.75" fill="freeze"/></use><animate attributeName="display" fill="freeze" repeatCount="1" dur="2.467s" keyTimes="0;.554;1" values="none;inline;inline"/></g></g></mask><g display="none"><use xlink:href="#up8" transform="translate(0 -121.65)"/><animate attributeName="display" fill="freeze" repeatCount="1" dur="2.467s" keyTimes="0;.878;1" values="none;inline;inline"/></g><g display="none"><use xlink:href="#up8" transform="translate(0 90.85)"><animateTransform attributeName="transform" additive="replace" type="translate" dur="2.467s" keyTimes="0;.554;.878;1" values="0,90.85;0,90.85;0,-121.65;0,-121.65" fill="freeze"/></use><animate attributeName="display" fill="freeze" repeatCount="1" dur="2.467s" keyTimes="0;.554;.878;1" values="none;inline;none;none"/></g></g><animate attributeName="display" fill="freeze" repeatCount="1" dur="2.467s" keyTimes="0;.554;1" values="none;inline;inline"/></g><g display="none"><g id="graf3o38d74r1" transform="translate(530.65 294.35)"><g mask="url(#mask_5)" display="none" id="Layer13_0_FILL"><path fill="#4FC41E" stroke="none" d="M17.15 -152.1L0 -181.7 0 95.7 17.15 125.3 17.15 -152.1Z"/><animate attributeName="display" fill="freeze" repeatCount="1" dur="2.467s" keyTimes="0;.514;1" values="none;inline;inline"/></g><mask id="mask_5"><g filter="url(#filter33)"><g display="none"><use xlink:href="#Maskk" transform="translate(0 95.65)"><animateTransform attributeName="transform" additive="replace" type="translate" dur="2.467s" keyTimes="0;.513;.838;1" values="0,95.65;0,95.65;-.1,-181.7;-.1,-181.7" fill="freeze"/></use><animate attributeName="display" fill="freeze" repeatCount="1" dur="2.467s" keyTimes="0;.514;1" values="none;inline;inline"/></g></g></mask><g mask="url(#mask_4)" display="none" id="Layer11_0_FILL"><path fill="#7DFF4D" stroke="none" d="M78.7 -157.1L17.15 -152.25 17.15 125.3 78.7 120.45 78.7 -157.1Z"/><animate attributeName="display" fill="freeze" repeatCount="1" dur="2.467s" keyTimes="0;.514;1" values="none;inline;inline"/></g><mask id="mask_4"><g filter="url(#filter33)"><g display="none"><use xlink:href="#Maskk" transform="translate(0 95.65)"><animateTransform attributeName="transform" additive="replace" type="translate" dur="2.467s" keyTimes="0;.513;.838;1" values="0,95.65;0,95.65;0,-181.7;0,-181.7" fill="freeze"/></use><animate attributeName="display" fill="freeze" repeatCount="1" dur="2.467s" keyTimes="0;.514;1" values="none;inline;inline"/></g></g></mask><g display="none"><use xlink:href="#up7" transform="translate(0 -186.6)"/><animate attributeName="display" fill="freeze" repeatCount="1" dur="2.467s" keyTimes="0;.838;1" values="none;inline;inline"/></g><g display="none"><use xlink:href="#up7" transform="translate(0 90.85)"><animateTransform attributeName="transform" additive="replace" type="translate" dur="2.467s" keyTimes="0;.513;.838;1" values="0,90.85;0,90.85;0,-186.6;0,-186.6" fill="freeze"/></use><animate attributeName="display" fill="freeze" repeatCount="1" dur="2.467s" keyTimes="0;.514;.838;1" values="none;inline;none;none"/></g></g><animate attributeName="display" fill="freeze" repeatCount="1" dur="2.467s" keyTimes="0;.514;1" values="none;inline;inline"/></g><g display="none"><g id="graf4o35d74r1" transform="translate(464.05 298.35)"><g mask="url(#mask_3)" display="none" id="Layer9_0_FILL"><path fill="#FFBB4D" stroke="none" d="M78.7 -22.45L17.15 -17.6 17.15 125.3 78.7 120.45 78.7 -22.45Z"/><animate attributeName="display" fill="freeze" repeatCount="1" dur="2.467s" keyTimes="0;.473;1" values="none;inline;inline"/></g><g mask="url(#mask_3)"><g display="none" id="Layer8_0_FILL"><path fill="#D8922B" stroke="none" d="M17.1 -17.8L17.05 -17.8 0 -47.2 0 95.7 17.15 125.3 17.1 -17.8Z"/><animate attributeName="display" fill="freeze" repeatCount="1" dur="2.467s" keyTimes="0;.797;1" values="none;inline;inline"/></g><g display="none" id="Layer7_0_FILL"><path fill="#D8922B" stroke="none" d="M17.05 -17.8L0 -47.2 0 95.7 17.15 125.3 17.1 -17.8 17.05 -17.8Z"/><animate attributeName="display" fill="freeze" repeatCount="1" dur="2.467s" keyTimes="0;.473;.797;1" values="none;inline;none;none"/></g></g><mask id="mask_3"><g filter="url(#filter33)"><g display="none"><use xlink:href="#Maskk" transform="translate(0 95.65)"><animateTransform attributeName="transform" additive="replace" type="translate" dur="2.467s" keyTimes="0;.473;.797;1" values="0,95.65;0,95.65;0,-46.75;0,-46.75" fill="freeze"/></use><animate attributeName="display" fill="freeze" repeatCount="1" dur="2.467s" keyTimes="0;.473;1" values="none;inline;inline"/></g></g></mask><mask id="mask_2"><g filter="url(#filter33)"><g display="none"><use xlink:href="#Maskk" transform="translate(0 95.65)"><animateTransform attributeName="transform" additive="replace" type="translate" dur="2.467s" keyTimes="0;.473;.797;1" values="0,95.65;0,95.65;0,-47;0,-47" fill="freeze"/></use><animate attributeName="display" fill="freeze" repeatCount="1" dur="2.467s" keyTimes="0;.473;1" values="none;inline;inline"/></g></g></mask><g display="none"><use xlink:href="#up6" transform="translate(0 -51.9)"/><animate attributeName="display" fill="freeze" repeatCount="1" dur="2.467s" keyTimes="0;.797;1" values="none;inline;inline"/></g><g display="none"><use xlink:href="#up6" transform="translate(0 90.85)"><animateTransform attributeName="transform" additive="replace" type="translate" dur="2.467s" keyTimes="0;.473;.797;1" values="0,90.85;0,90.85;0,-51.9;0,-51.9" fill="freeze"/></use><animate attributeName="display" fill="freeze" repeatCount="1" dur="2.467s" keyTimes="0;.473;.797;1" values="none;inline;none;none"/></g></g><animate attributeName="display" fill="freeze" repeatCount="1" dur="2.467s" keyTimes="0;.473;1" values="none;inline;inline"/></g><g display="none"><g id="graf5o32d74r1" transform="translate(397.45 304.75)"><g mask="url(#mask_1)" display="none" id="Layer5_0_FILL"><path fill="#36B8CE" stroke="none" d="M17.15 34.45L0 4.85 0 95.7 17.15 125.3 17.15 34.45Z"/><animate attributeName="display" fill="freeze" repeatCount="1" dur="2.467s" keyTimes="0;.432;1" values="none;inline;inline"/></g><mask id="mask_1"><g filter="url(#filter33)"><g display="none"><use xlink:href="#Maskk" transform="translate(0 95.65)"><animateTransform attributeName="transform" additive="replace" type="translate" dur="2.467s" keyTimes="0;.432;.757;1" values="0,95.65;0,95.65;0,4.85;0,4.85" fill="freeze"/></use><animate attributeName="display" fill="freeze" repeatCount="1" dur="2.467s" keyTimes="0;.432;1" values="none;inline;inline"/></g></g></mask><g mask="url(#mask_)" display="none" id="Layer3_0_FILL"><path fill="#4ADDFF" stroke="none" d="M78.7 29.6L17.15 34.45 17.15 125.3 78.7 120.45 78.7 29.6Z"/><animate attributeName="display" fill="freeze" repeatCount="1" dur="2.467s" keyTimes="0;.432;1" values="none;inline;inline"/></g><mask id="mask_"><g filter="url(#filter33)"><g display="none"><use xlink:href="#Maskk" transform="translate(0 95.65)"><animateTransform attributeName="transform" additive="replace" type="translate" dur="2.467s" keyTimes="0;.432;.757;1" values="0,95.65;0,95.65;0,4.85;0,4.85" fill="freeze"/></use><animate attributeName="display" fill="freeze" repeatCount="1" dur="2.467s" keyTimes="0;.432;1" values="none;inline;inline"/></g></g></mask><g display="none"><use xlink:href="#up5"/><animate attributeName="display" fill="freeze" repeatCount="1" dur="2.467s" keyTimes="0;.757;1" values="none;inline;inline"/></g><g display="none"><use xlink:href="#up5" transform="translate(0 90.85)"><animateTransform attributeName="transform" additive="replace" type="translate" dur="2.467s" keyTimes="0;.432;.757;1" values="0,90.85;0,90.85;0,0;0,0" fill="freeze"/></use><animate attributeName="display" fill="freeze" repeatCount="1" dur="2.467s" keyTimes="0;.432;.757;1" values="none;inline;none;none"/></g></g><animate attributeName="display" fill="freeze" repeatCount="1" dur="2.467s" keyTimes="0;.432;1" values="none;inline;inline"/></g><g id="Lupa" transform="translate(1073.15 0)"><animateTransform attributeName="transform" additive="replace" type="translate" dur="2.467s" keyTimes="0;.01399;.014;.02699;.027;.04099;.041;.05399;.054;.06799;.068;.08099;.081;.09499;.095;.10799;.108;.12199;.122;.13499;.135;.14899;.149;.16199;.162;.17599;.176;.18899;.189;.20299;.203;.21599;.216;.22999;.23;.24299;.243;.25699;.257;.26999;.27;.28399;.284;.29699;.297;.31099;.311;.32399;.324;.33799;.338;.35099;.351;.36499;.365;.37799;.378;.39199;.392;.40499;.405;.41899;.419;.43199;.432;.44599;.446;.45899;.459;.47299;.473;.48599;.486;.49999;.5;.51299;.513;.52699;.527;.53999;.54;.55399;.554;.56699;.567;.58099;.581;.59499;.595;.60799;.608;.62199;.622;.63499;.635;.64899;.649;.66199;.662;.67599;.676;.68899;.689;.70299;.703;.71599;.716;.72999;.73;.74299;.743;.75699;.757;.76999;.77;.78399;.784;.79699;.797;1" values="1073.15,0;1073.15,0;1013.1,.2;1013.1,.2;954.95,.45;954.95,.45;898.75,.65;898.75,.65;844.4,.85;844.4,.85;792,1.05;792,1.05;741.5,1.2;741.5,1.2;692.9,1.4;692.9,1.4;646.2,1.6;646.2,1.6;601.4,1.75;601.4,1.75;558.5,1.9;558.5,1.9;517.5,2.05;517.5,2.05;478.45,2.2;478.45,2.2;441.25,2.35;441.25,2.35;406,2.45;406,2.45;372.65,2.6;372.65,2.6;341.2,2.7;341.2,2.7;311.65,2.8;311.65,2.8;284,2.9;284,2.9;258.25,3;258.25,3;234.45,3.1;234.45,3.1;212.5,3.15;212.5,3.15;192.5,3.25;192.5,3.25;174.4,3.3;174.4,3.3;158.2,3.4;158.2,3.4;143.9,3.45;143.9,3.45;131.5,3.45;131.5,3.45;121.05,3.5;121.05,3.5;112.45,3.55;112.45,3.55;105.8,3.55;105.8,3.55;101,3.6;101,3.6;98.15,3.6;98.15,3.6;97.2,3.6;97.2,3.6;97.5,3.6;97.5,3.6;98.35,3.65;98.35,3.65;99.8,3.75;99.8,3.75;101.9,3.85;101.9,3.85;104.65,4;104.65,4;108.1,4.2;108.1,4.2;112.35,4.4;112.35,4.4;117.55,4.7;117.55,4.7;123.85,5;123.85,5;131.5,5.45;131.5,5.45;141.15,5.95;141.15,5.95;153.85,6.6;153.85,6.6;173.6,7.65;173.6,7.65;229.95,10.7;229.95,10.7;249.7,11.75;249.7,11.75;262.4,12.4;262.4,12.4;272.05,12.9;272.05,12.9;279.7,13.35;279.7,13.35;286,13.65;286,13.65;291.2,13.95;291.2,13.95;295.45,14.15;295.45,14.15;298.9,14.35;298.9,14.35;301.65,14.5;301.65,14.5;303.75,14.6;303.75,14.6;305.2,14.7;305.2,14.7;306.05,14.75;306.05,14.75;306.35,14.75;306.35,14.75" calcMode="discrete" fill="freeze"/><path fill="#00505A" stroke="none" d="M789.85 480.25Q787.95 468.75 780.6 460.15 779.35 458.65 777.95 457.3 765.65 445.2 739.5 427.4 710.95 407.95 677.5 389.8 610.95 353.75 555.75 338.65 542.35 335 529.6 332.55 527.8 332.2 526.05 331.9 533.95 300 533.95 266.95 533.95 213.45 513.75 164.75 493.6 116 455.75 78.2 417.95 40.35 369.2 20.2 320.45 0 266.95 0 213.45 0 164.75 20.2 116 40.35 78.2 78.2 40.35 116 20.2 164.75 0 213.45 0 266.95 0 320.45 20.2 369.2 40.35 417.95 78.2 455.75 116 493.6 164.75 513.75 213.45 533.95 266.95 533.95 320.45 533.95 369.2 513.75 417.95 493.6 455.75 455.75 468.45 443.05 479.65 428.4 500.65 448.4 529.6 467.2 535.9 471.3 542.6 475.35 574.85 494.8 615.8 512.95 649.8 528 683.05 539 712.5 548.75 729.9 551.65 743.25 553.9 755.45 547.75 767.55 541.6 773.75 529.45L785.8 505.85Q792 493.7 789.85 480.25M746.65 466.1L745.1 478.9 719.65 465.75 723.7 445.7Q734.2 454.7 746.65 466.1M758.65 485.9L759.6 478.15Q770.8 488.7 778.05 495.95L758.65 485.9M670.75 405.6Q685.15 414.25 705.45 430.5 703.2 440.9 700.4 455.8L535.2 370.3 563.45 361.85Q579.7 366.45 601.2 374.2 644.3 389.75 670.75 405.6M447.9 84.5Q448.3 84.85 448.7 85.25 484.25 120.8 503.75 166.95 523.95 214.65 523.95 266.95 523.95 319.25 503.75 367 484.25 413.1 448.7 448.7 413.1 484.25 367 503.75 319.25 523.95 266.95 523.95 214.65 523.95 166.95 503.75 120.8 484.25 85.25 448.7 49.7 413.1 30.2 367 26.9 359.1 24.1 351.1 24.05 350.95 24 350.85L23.7 350 10.25 277.5Q10.2 276.95 10.2 276.4 10.15 275.85 10.15 275.3 10.15 274.95 10.15 274.65 10.1 274.15 10.1 273.65 10.1 273.1 10.1 272.55 10.05 272.05 10.05 271.55 10.05 271 10.05 270.45 10 269.8 10 269.15 10 268.55 10 267.95 10 267.45 10 266.95 10 214.7 30.2 166.95 49.7 120.85 85.25 85.25 120.85 49.7 166.95 30.2 214.7 10 266.95 10 270.65 10 274.3 10.1 274.65 10.1 275.05 10.15 275.45 10.15 275.85 10.15L366.15 29.85Q369.25 31.1 372.3 32.5 372.5 32.6 372.7 32.7L442.25 79.05 447.9 84.5Z"/><path fill="#FFF" fill-opacity=".298" stroke="none" d="M447.9 84.5Q452.3 88.85 456.55 93.5 438.35 140.55 403.8 185.2 368 231.4 319.3 268.9 246.2 325.2 165.4 347.1 86.7 368.4 24.1 351.1 26.9 359.1 30.2 367 49.7 413.1 85.25 448.7 120.8 484.25 166.95 503.75 214.65 523.95 266.95 523.95 319.25 523.95 367 503.75 413.1 484.25 448.7 448.7 484.25 413.1 503.75 367 523.95 319.25 523.95 266.95 523.95 214.65 503.75 166.95 484.25 120.8 448.7 85.25 448.3 84.85 447.9 84.5Z"/><path fill="#FFF" fill-opacity=".498" stroke="none" d="M456.55 93.5Q452.3 88.85 447.9 84.5L442.25 79.05 372.7 32.7Q372.5 32.6 372.3 32.5 369.25 31.1 366.15 29.85L275.85 10.15Q275.45 10.15 275.05 10.15 274.65 10.1 274.3 10.1 270.65 10 266.95 10 214.7 10 166.95 30.2 120.85 49.7 85.25 85.25 49.7 120.85 30.2 166.95 10 214.7 10 266.95 10 267.45 10 267.95 10 268.55 10 269.15 10 269.8 10.05 270.45 10.05 271 10.05 271.55 10.05 272.05 10.1 272.55 10.1 273.1 10.1 273.65 10.1 274.15 10.15 274.65 10.15 274.95 10.15 275.3 10.15 275.85 10.2 276.4 10.2 276.95 10.25 277.5L23.7 350 24 350.85Q24.05 350.95 24.1 351.1 86.7 368.4 165.4 347.1 246.2 325.2 319.3 268.9 368 231.4 403.8 185.2 438.35 140.55 456.55 93.5Z"/><path fill="#00AF90" stroke="none" d="M705.45 430.5Q685.15 414.25 670.75 405.6 644.3 389.75 601.2 374.2 579.7 366.45 563.45 361.85L535.2 370.3 700.4 455.8Q703.2 440.9 705.45 430.5Z"/><path fill="#006464" stroke="none" d="M759.6 478.15L758.65 485.9 778.05 495.95Q770.8 488.7 759.6 478.15Z"/><path fill="#008781" stroke="none" d="M745.1 478.9L746.65 466.1Q734.2 454.7 723.7 445.7L719.65 465.75 745.1 478.9Z"/><path fill="#FFF" stroke="none" d="M535.55 370.2L535.2 370.3 535.55 370.5 535.55 370.2Z"/><path fill="#00505A" stroke="none" d="M455.75 78.2Q417.95 40.35 369.2 20.2 320.45 0 266.95 0 213.45 0 164.75 20.2 116 40.35 78.2 78.2 40.35 116 20.2 164.75 0 213.45 0 266.95 0 320.45 20.2 369.2 40.35 417.95 78.2 455.75 116 493.6 164.75 513.75 213.45 533.95 266.95 533.95 320.45 533.95 369.2 513.75 417.95 493.6 455.75 455.75 468.45 443.05 479.65 428.4 502.8 450.45 535.55 471L535.55 370.5 535.2 370.3 535.55 370.2 535.55 333.75Q530.75 332.75 526.05 331.9 533.95 300 533.95 266.95 533.95 213.45 513.75 164.75 493.6 116 455.75 78.2M363 39.45Q407.3 58.2 441.55 92.4 475.75 126.65 494.5 170.95 513.95 216.8 513.95 266.95 513.95 317.1 494.5 363 475.75 407.3 441.55 441.55 407.3 475.75 363 494.5 317.1 513.95 266.95 513.95 216.8 513.95 170.95 494.5 126.65 475.75 92.4 441.55 58.2 407.3 39.45 363 20 317.1 20 266.95 20 216.8 39.45 170.95 58.2 126.65 92.4 92.4 126.65 58.2 170.95 39.45 216.8 20 266.95 20 317.1 20 363 39.45Z"/></g></g></svg>