<?xml version="1.0" encoding="utf-8"?>
<!-- Generator: Adobe Illustrator 27.1.1, SVG Export Plug-In . SVG Version: 6.00 Build 0)  -->
<svg version="1.1" id="Camada_1" xmlns="http://www.w3.org/2000/svg" xmlns:xlink="http://www.w3.org/1999/xlink" x="0px" y="0px"
	 viewBox="0 0 675.8 128" style="enable-background:new 0 0 675.8 128;" xml:space="preserve">
<style type="text/css">
	.st0{fill:url(#SVGID_1_);}
	.st1{fill:url(#SVGID_00000073713098308875073270000000673590220503090857_);}
	.st2{fill:url(#SVGID_00000137105459169666565870000007312926802464263318_);}
	.st3{fill:#CCCCCC;}
	.st4{fill:url(#SVGID_00000025429754948954374700000004899225431746683833_);}
	.st5{opacity:0.6;fill:#F5F5F5;}
	.st6{fill:url(#SVGID_00000074427906678594498050000011334379209009476767_);}
	.st7{fill:url(#SVGID_00000067201192745993862600000008858922547206807450_);}
	.st8{fill:url(#SVGID_00000019663644810669897850000007159791069629214349_);}
	.st9{fill:url(#SVGID_00000169537789558625970910000004679037985145133192_);}
	.st10{opacity:0.6;fill:#C2C2C2;}
	.st11{fill:url(#SVGID_00000168087212474283198200000015668608566591895452_);}
	.st12{fill:url(#SVGID_00000133522279189542683730000016947568770274493374_);}
	.st13{opacity:0.8;fill:#F5F5F5;}
	.st14{fill:url(#SVGID_00000012471033035520164600000004606405361382789000_);}
	.st15{fill:url(#SVGID_00000142887335758405913900000007236884586194498446_);}
	.st16{fill:url(#SVGID_00000123441542692776901090000007257394237261563031_);}
	.st17{fill:url(#SVGID_00000122689905078729277950000016288009172046168714_);}
	.st18{opacity:0.8;fill:url(#SVGID_00000124860850965532239280000017136102596793214601_);}
	.st19{opacity:0.8;fill:url(#SVGID_00000173138372079031270820000004450769097526866073_);}
	.st20{opacity:0.8;fill:url(#SVGID_00000178179775342479356800000015647834895379648644_);}
	.st21{opacity:0.8;fill:url(#SVGID_00000134234020938308075410000004844357878055380634_);}
	.st22{fill:url(#SVGID_00000051355667863535846570000015024120719527764923_);}
	.st23{opacity:0.8;fill:url(#SVGID_00000063613157270899064480000000267760219912636052_);}
	.st24{opacity:0.8;fill:url(#SVGID_00000000181592720221246770000004547880820156695689_);}
	.st25{fill:url(#SVGID_00000170272740387068198720000000733197484019942065_);}
	.st26{opacity:0.8;fill:url(#SVGID_00000159455665266197495550000001419512155181144762_);}
	.st27{opacity:0.8;fill:url(#SVGID_00000003799149896490603870000006078347848669243560_);}
	.st28{fill:url(#SVGID_00000129904188364225604770000005097645063458024582_);}
	.st29{opacity:0.8;fill:url(#SVGID_00000044859100621034645950000010332327424302886795_);}
	.st30{opacity:0.8;fill:url(#SVGID_00000039104397868600104350000004056236393976399758_);}
	.st31{fill:url(#SVGID_00000116954260291314124560000002816870556253072292_);}
	.st32{fill:url(#SVGID_00000085947434076212685470000009565257642710060957_);}
	.st33{fill:url(#SVGID_00000096048604374303515240000004942512878357035909_);}
	.st34{fill:#F5F5F5;}
	.st35{fill:#898989;}
	.st36{fill:#DDDDDD;}
	.st37{fill:#D4D4D4;}
	.st38{fill:#C4C4C4;}
	.st39{fill:#ABABAB;}
	.st40{fill:#ECECEC;}
	.st41{fill:#D5D5D5;}
	.st42{fill:#FFFFFF;}
	.st43{fill:#C6C6C6;}
	.st44{fill:#7C7C7C;}
	.st45{fill:#ADADAD;}
	.st46{fill:#EFEFEF;}
	.st47{opacity:0.6;}
	.st48{fill:url(#SVGID_00000170998383072822019330000007741043225163819677_);}
	.st49{fill:#EAEAEA;}
	.st50{fill:#696969;}
	.st51{fill:#5E5E5E;}
	.st52{fill:#818181;}
	.st53{fill:url(#SVGID_00000084504594824582357340000000434049337938148026_);}
	.st54{fill:url(#SVGID_00000163760294270814610640000011699107905127950488_);}
	.st55{fill:url(#SVGID_00000178201388013568395890000015777421348288604595_);}
	.st56{fill:url(#SVGID_00000049931033985943247510000014858736313393466526_);}
	.st57{fill:url(#SVGID_00000084503619186908650290000005975516261804737980_);}
	.st58{fill:#8D8D8D;}
	.st59{fill:#D6D6D6;}
	.st60{opacity:0.6;fill:#D6D6D6;}
	.st61{fill:url(#SVGID_00000000204049594775732870000001759641448448529054_);}
	.st62{fill:#A2A2A2;}
	.st63{fill:#B4B4B4;}
	.st64{opacity:0.4;fill:#D5D5D5;}
</style>
<g>
	<g>
		<g>
			<g>
				<linearGradient id="SVGID_1_" gradientUnits="userSpaceOnUse" x1="79.2926" y1="51.177" x2="79.2926" y2="51.177">
					<stop  offset="5.586592e-03" style="stop-color:#E5E5E5"/>
					<stop  offset="1" style="stop-color:#FFFFFF;stop-opacity:0"/>
				</linearGradient>
				<path class="st0" d="M79.3,51.2"/>
				<g>
					
						<linearGradient id="SVGID_00000010305849075531153610000000200536563814760630_" gradientUnits="userSpaceOnUse" x1="-609.3928" y1="416.1315" x2="-582.3114" y2="400.5251" gradientTransform="matrix(1 0 0 -1 662.7 489.153)">
						<stop  offset="0" style="stop-color:#DDDDDD"/>
						<stop  offset="0.9569" style="stop-color:#929292"/>
					</linearGradient>
					<polygon style="fill:url(#SVGID_00000010305849075531153610000000200536563814760630_);" points="67.2,96.6 67.2,96.6 
						67.2,65.5 					"/>
					
						<linearGradient id="SVGID_00000116938576434315246070000017186973974394959757_" gradientUnits="userSpaceOnUse" x1="-599.9263" y1="432.5584" x2="-572.8449" y2="416.9521" gradientTransform="matrix(1 0 0 -1 662.7 489.153)">
						<stop  offset="0" style="stop-color:#DDDDDD"/>
						<stop  offset="0.9569" style="stop-color:#929292"/>
					</linearGradient>
					<polygon style="fill:url(#SVGID_00000116938576434315246070000017186973974394959757_);" points="79,59.6 67.2,65.5 79,59.6 
											"/>
					<polygon class="st3" points="79,59.6 79,59.6 79,59.6 					"/>
					
						<linearGradient id="SVGID_00000104675219600762911800000002508189411381548454_" gradientUnits="userSpaceOnUse" x1="-584.2853" y1="429.8663" x2="-583.1711" y2="429.2242" gradientTransform="matrix(1 0 0 -1 662.7 489.153)">
						<stop  offset="0" style="stop-color:#DDDDDD"/>
						<stop  offset="0.9569" style="stop-color:#929292"/>
					</linearGradient>
					<polygon style="fill:url(#SVGID_00000104675219600762911800000002508189411381548454_);" points="79,59.6 79,59.6 79,59.6 
											"/>
					<rect x="67.2" y="96.6" class="st5" width="24.6" height="3.1"/>
					<polygon class="st5" points="141.2,21.1 141.2,21.1 141.2,21.1 					"/>
					<polygon class="st5" points="141.2,45.2 141.2,45.3 141.2,45.3 141.2,99.6 141.3,99.6 141.3,45.2 					"/>
					
						<linearGradient id="SVGID_00000114044664653807862640000000660540577017072276_" gradientUnits="userSpaceOnUse" x1="89.4973" y1="54.0072" x2="111.9705" y2="43.5368">
						<stop  offset="0" style="stop-color:#CCCCCC"/>
						<stop  offset="0.239" style="stop-color:#C8C8C8"/>
						<stop  offset="0.5035" style="stop-color:#BABABA"/>
						<stop  offset="0.779" style="stop-color:#A4A4A4"/>
						<stop  offset="0.9569" style="stop-color:#929292"/>
					</linearGradient>
					<polygon style="fill:url(#SVGID_00000114044664653807862640000000660540577017072276_);" points="79,51.9 79,59.6 79,59.6 
						96.8,50.8 96.8,58.5 111.7,50.9 111.7,43.1 111.7,35.8 					"/>
					<polygon class="st3" points="141.2,45.3 141.2,45.3 141.2,45.2 141.2,21.1 141.2,21.1 					"/>
					<polygon class="st5" points="141.2,45.3 141.2,45.3 141.2,45.2 141.2,21.1 141.2,21.1 					"/>
					
						<linearGradient id="SVGID_00000126307481286485246160000010128381773864202133_" gradientUnits="userSpaceOnUse" x1="-606.6552" y1="420.882" x2="-579.5738" y2="405.2756" gradientTransform="matrix(1 0 0 -1 662.7 489.153)">
						<stop  offset="0" style="stop-color:#DDDDDD"/>
						<stop  offset="0.9569" style="stop-color:#929292"/>
					</linearGradient>
					<polygon style="fill:url(#SVGID_00000126307481286485246160000010128381773864202133_);" points="91.8,70.3 91.8,69.8 79,76.1 
						79,59.6 67.2,65.5 67.2,96.6 91.8,96.6 					"/>
					<polygon class="st5" points="91.8,70.3 91.8,69.8 79,76.1 79,59.6 67.2,65.5 67.2,96.6 91.8,96.6 					"/>
					<polygon class="st3" points="96.8,58.5 96.8,50.8 79,59.6 79,59.6 79,76.1 91.8,69.8 91.8,61.1 					"/>
					
						<linearGradient id="SVGID_00000041265963712366754970000003826401459720548754_" gradientUnits="userSpaceOnUse" x1="-596.6398" y1="438.2615" x2="-569.5583" y2="422.6551" gradientTransform="matrix(1 0 0 -1 662.7 489.153)">
						<stop  offset="0" style="stop-color:#DDDDDD"/>
						<stop  offset="0.9569" style="stop-color:#929292"/>
					</linearGradient>
					<polygon style="fill:url(#SVGID_00000041265963712366754970000003826401459720548754_);" points="96.8,58.5 96.8,50.8 79,59.6 
						79,59.6 79,76.1 91.8,69.8 91.8,61.1 					"/>
					
						<linearGradient id="SVGID_00000169554552271086480210000012193908293618602385_" gradientUnits="userSpaceOnUse" x1="126.455" y1="132.1309" x2="126.455" y2="40.7966" gradientTransform="matrix(1 0 0 -1 0 130.353)">
						<stop  offset="0" style="stop-color:#DDDDDD"/>
						<stop  offset="0.9569" style="stop-color:#929292"/>
					</linearGradient>
					<polygon style="fill:url(#SVGID_00000169554552271086480210000012193908293618602385_);" points="141.2,21.1 141.2,15.9 
						111.7,30.5 111.7,35.8 141.2,21.1 					"/>
					<polygon class="st10" points="141.2,21.1 141.2,15.9 111.7,30.5 111.7,35.8 141.2,21.1 					"/>
					
						<linearGradient id="SVGID_00000136400542745983801200000008330836623025680059_" gradientUnits="userSpaceOnUse" x1="134.2767" y1="132.1309" x2="134.2767" y2="40.7966" gradientTransform="matrix(1 0 0 -1 0 130.353)">
						<stop  offset="0" style="stop-color:#DDDDDD"/>
						<stop  offset="0.9569" style="stop-color:#929292"/>
					</linearGradient>
					<polygon style="fill:url(#SVGID_00000136400542745983801200000008330836623025680059_);" points="127.3,52.2 127.3,99.6 
						141.2,99.6 141.2,99.6 141.2,45.3 					"/>
					<polygon class="st5" points="127.3,52.2 127.3,99.6 141.2,99.6 141.2,99.6 141.2,45.3 					"/>
					<polygon class="st3" points="111.7,50.9 127.3,42.9 127.3,52.1 127.3,52.2 141.2,45.3 141.2,21.1 111.7,35.8 111.7,43.1 					
						"/>
					
						<linearGradient id="SVGID_00000060739576621527344280000016927810213739279275_" gradientUnits="userSpaceOnUse" x1="126.455" y1="132.1309" x2="126.455" y2="40.7966" gradientTransform="matrix(1 0 0 -1 0 130.353)">
						<stop  offset="0" style="stop-color:#DDDDDD"/>
						<stop  offset="0.9569" style="stop-color:#929292"/>
					</linearGradient>
					<polygon style="fill:url(#SVGID_00000060739576621527344280000016927810213739279275_);" points="111.7,50.9 127.3,42.9 
						127.3,52.1 127.3,52.2 141.2,45.3 141.2,21.1 111.7,35.8 111.7,43.1 					"/>
					<polygon class="st5" points="111.7,50.9 127.3,42.9 127.3,52.1 127.3,52.2 141.2,45.3 141.2,21.1 111.7,35.8 111.7,43.1 					
						"/>
					<polygon class="st5" points="96.8,67.3 96.8,67.7 111.7,60.1 111.7,59.9 					"/>
					<polygon class="st13" points="96.8,67.3 96.8,67.7 111.7,60.1 111.7,59.9 					"/>
					<polygon class="st3" points="96.8,67.3 111.7,59.9 111.7,50.9 96.8,58.5 					"/>
					<polygon class="st5" points="96.8,67.3 111.7,59.9 111.7,50.9 96.8,58.5 					"/>
					
						<linearGradient id="SVGID_00000123424861784360469200000016217522666256912037_" gradientUnits="userSpaceOnUse" x1="-597.3474" y1="437.0336" x2="-570.266" y2="421.4272" gradientTransform="matrix(1 0 0 -1 662.7 489.153)">
						<stop  offset="0" style="stop-color:#DDDDDD"/>
						<stop  offset="0.9569" style="stop-color:#929292"/>
					</linearGradient>
					<polygon style="fill:url(#SVGID_00000123424861784360469200000016217522666256912037_);" points="91.8,69.8 91.8,70.3 
						96.8,67.7 96.8,67.3 					"/>
					<polygon class="st5" points="91.8,69.8 91.8,70.3 96.8,67.7 96.8,67.3 					"/>
					<polygon class="st13" points="91.8,69.8 91.8,70.3 96.8,67.7 96.8,67.3 					"/>
					<polygon class="st3" points="96.8,58.5 91.8,61.1 91.8,69.8 96.8,67.3 					"/>
					
						<linearGradient id="SVGID_00000064314848730390824810000007078509447340937139_" gradientUnits="userSpaceOnUse" x1="-595.3418" y1="440.5138" x2="-568.2604" y2="424.9074" gradientTransform="matrix(1 0 0 -1 662.7 489.153)">
						<stop  offset="0" style="stop-color:#DDDDDD"/>
						<stop  offset="0.9569" style="stop-color:#929292"/>
					</linearGradient>
					<polygon style="fill:url(#SVGID_00000064314848730390824810000007078509447340937139_);" points="96.8,58.5 91.8,61.1 
						91.8,69.8 96.8,67.3 					"/>
					<polygon class="st5" points="96.8,58.5 91.8,61.1 91.8,69.8 96.8,67.3 					"/>
					
						<linearGradient id="SVGID_00000177474742235630768170000007402841276811636358_" gradientUnits="userSpaceOnUse" x1="117.2532" y1="132.1309" x2="117.2532" y2="40.7966" gradientTransform="matrix(1 0 0 -1 0 130.353)">
						<stop  offset="0" style="stop-color:#DDDDDD"/>
						<stop  offset="0.9569" style="stop-color:#929292"/>
					</linearGradient>
					<polygon style="fill:url(#SVGID_00000177474742235630768170000007402841276811636358_);" points="111.7,60.1 122.8,54.4 
						111.7,59.9 					"/>
					<polygon class="st5" points="111.7,60.1 122.8,54.4 111.7,59.9 					"/>
					<polygon class="st13" points="111.7,60.1 122.8,54.4 111.7,59.9 					"/>
					<polygon class="st3" points="127.3,42.9 111.7,50.9 111.7,59.9 122.8,54.4 127.3,52.1 					"/>
					
						<linearGradient id="SVGID_00000099652629743293809080000002633017163466766982_" gradientUnits="userSpaceOnUse" x1="119.4818" y1="132.1309" x2="119.4818" y2="40.7966" gradientTransform="matrix(1 0 0 -1 0 130.353)">
						<stop  offset="0" style="stop-color:#DDDDDD"/>
						<stop  offset="0.9569" style="stop-color:#929292"/>
					</linearGradient>
					<polygon style="fill:url(#SVGID_00000099652629743293809080000002633017163466766982_);" points="127.3,42.9 111.7,50.9 
						111.7,59.9 122.8,54.4 127.3,52.1 					"/>
					<polygon class="st5" points="127.3,42.9 111.7,50.9 111.7,59.9 122.8,54.4 127.3,52.1 					"/>
					
						<linearGradient id="SVGID_00000168799867343797995400000002400556870773805967_" gradientUnits="userSpaceOnUse" x1="101.7331" y1="94.7514" x2="101.7331" y2="104.5054">
						<stop  offset="5.586592e-03" style="stop-color:#D6D6D6"/>
						<stop  offset="4.895276e-02" style="stop-color:#D9D9D9;stop-opacity:0.9564"/>
						<stop  offset="0.3762" style="stop-color:#EEEEEE;stop-opacity:0.6273"/>
						<stop  offset="0.6965" style="stop-color:#FBFBFB;stop-opacity:0.3052"/>
						<stop  offset="1" style="stop-color:#FFFFFF;stop-opacity:0"/>
					</linearGradient>
					
						<rect x="91.8" y="99.6" style="opacity:0.8;fill:url(#SVGID_00000168799867343797995400000002400556870773805967_);" width="19.9" height="0"/>
					
						<linearGradient id="SVGID_00000014602920271607355550000011632586819678670732_" gradientUnits="userSpaceOnUse" x1="93.7846" y1="65.731" x2="102.4674" y2="102.7608">
						<stop  offset="5.586592e-03" style="stop-color:#D6D6D6"/>
						<stop  offset="4.895276e-02" style="stop-color:#D9D9D9;stop-opacity:0.9564"/>
						<stop  offset="0.3762" style="stop-color:#EEEEEE;stop-opacity:0.6273"/>
						<stop  offset="0.6965" style="stop-color:#FBFBFB;stop-opacity:0.3052"/>
						<stop  offset="1" style="stop-color:#FFFFFF;stop-opacity:0"/>
					</linearGradient>
					
						<rect x="91.8" y="99.6" style="opacity:0.8;fill:url(#SVGID_00000014602920271607355550000011632586819678670732_);" width="19.9" height="0"/>
					<polygon class="st5" points="111.7,60.1 96.8,67.7 96.8,96.6 91.8,96.6 91.8,99.6 111.7,99.6 					"/>
					
						<linearGradient id="SVGID_00000165915664564389637830000005000444717649883780_" gradientUnits="userSpaceOnUse" x1="101.7331" y1="55.5184" x2="101.7331" y2="95.847">
						<stop  offset="5.586592e-03" style="stop-color:#D6D6D6"/>
						<stop  offset="4.895276e-02" style="stop-color:#D9D9D9;stop-opacity:0.9564"/>
						<stop  offset="0.3762" style="stop-color:#EEEEEE;stop-opacity:0.6273"/>
						<stop  offset="0.6965" style="stop-color:#FBFBFB;stop-opacity:0.3052"/>
						<stop  offset="1" style="stop-color:#FFFFFF;stop-opacity:0"/>
					</linearGradient>
					<polygon style="opacity:0.8;fill:url(#SVGID_00000165915664564389637830000005000444717649883780_);" points="111.7,60.1 
						96.8,67.7 96.8,96.6 91.8,96.6 91.8,99.6 111.7,99.6 					"/>
					
						<linearGradient id="SVGID_00000173153823633384788200000012415693097526671543_" gradientUnits="userSpaceOnUse" x1="98.1753" y1="64.7015" x2="106.8582" y2="101.7312">
						<stop  offset="5.586592e-03" style="stop-color:#D6D6D6"/>
						<stop  offset="4.895276e-02" style="stop-color:#D9D9D9;stop-opacity:0.9564"/>
						<stop  offset="0.3762" style="stop-color:#EEEEEE;stop-opacity:0.6273"/>
						<stop  offset="0.6965" style="stop-color:#FBFBFB;stop-opacity:0.3052"/>
						<stop  offset="1" style="stop-color:#FFFFFF;stop-opacity:0"/>
					</linearGradient>
					<polygon style="opacity:0.8;fill:url(#SVGID_00000173153823633384788200000012415693097526671543_);" points="111.7,60.1 
						96.8,67.7 96.8,96.6 91.8,96.6 91.8,99.6 111.7,99.6 					"/>
					
						<linearGradient id="SVGID_00000088823193516313852130000001247898069493869474_" gradientUnits="userSpaceOnUse" x1="-603.1286" y1="427.0015" x2="-576.0472" y2="411.3951" gradientTransform="matrix(1 0 0 -1 662.7 489.153)">
						<stop  offset="0" style="stop-color:#DDDDDD"/>
						<stop  offset="0.9569" style="stop-color:#929292"/>
					</linearGradient>
					<polygon style="fill:url(#SVGID_00000088823193516313852130000001247898069493869474_);" points="91.8,96.6 96.8,96.6 
						96.8,67.7 91.8,70.3 					"/>
					<polygon class="st5" points="91.8,96.6 96.8,96.6 96.8,67.7 91.8,70.3 					"/>
					
						<linearGradient id="SVGID_00000012444078070709347520000003292689936580890800_" gradientUnits="userSpaceOnUse" x1="94.2818" y1="55.5184" x2="94.2818" y2="95.847">
						<stop  offset="5.586592e-03" style="stop-color:#D6D6D6"/>
						<stop  offset="4.895276e-02" style="stop-color:#D9D9D9;stop-opacity:0.9564"/>
						<stop  offset="0.3762" style="stop-color:#EEEEEE;stop-opacity:0.6273"/>
						<stop  offset="0.6965" style="stop-color:#FBFBFB;stop-opacity:0.3052"/>
						<stop  offset="1" style="stop-color:#FFFFFF;stop-opacity:0"/>
					</linearGradient>
					<polygon style="opacity:0.8;fill:url(#SVGID_00000012444078070709347520000003292689936580890800_);" points="91.8,96.6 
						96.8,96.6 96.8,67.7 91.8,70.3 					"/>
					
						<linearGradient id="SVGID_00000002386594660541574890000001698574983970738612_" gradientUnits="userSpaceOnUse" x1="90.6056" y1="66.4764" x2="99.2884" y2="103.5062">
						<stop  offset="5.586592e-03" style="stop-color:#D6D6D6"/>
						<stop  offset="4.895276e-02" style="stop-color:#D9D9D9;stop-opacity:0.9564"/>
						<stop  offset="0.3762" style="stop-color:#EEEEEE;stop-opacity:0.6273"/>
						<stop  offset="0.6965" style="stop-color:#FBFBFB;stop-opacity:0.3052"/>
						<stop  offset="1" style="stop-color:#FFFFFF;stop-opacity:0"/>
					</linearGradient>
					<polygon style="opacity:0.8;fill:url(#SVGID_00000002386594660541574890000001698574983970738612_);" points="91.8,96.6 
						96.8,96.6 96.8,67.7 91.8,70.3 					"/>
					
						<linearGradient id="SVGID_00000078020948045732459550000003532511906695140267_" gradientUnits="userSpaceOnUse" x1="119.4818" y1="132.1309" x2="119.4818" y2="40.7966" gradientTransform="matrix(1 0 0 -1 0 130.353)">
						<stop  offset="0" style="stop-color:#DDDDDD"/>
						<stop  offset="0.9569" style="stop-color:#929292"/>
					</linearGradient>
					<polygon style="fill:url(#SVGID_00000078020948045732459550000003532511906695140267_);" points="122.8,54.4 111.7,60.1 
						111.7,99.6 111.7,99.6 127.3,99.6 127.3,52.2 					"/>
					<polygon class="st5" points="122.8,54.4 111.7,60.1 111.7,99.6 111.7,99.6 127.3,99.6 127.3,52.2 					"/>
					
						<linearGradient id="SVGID_00000014631802285802258200000004807991846424712593_" gradientUnits="userSpaceOnUse" x1="119.4818" y1="55.5184" x2="119.4818" y2="95.847">
						<stop  offset="5.586592e-03" style="stop-color:#D6D6D6"/>
						<stop  offset="4.895276e-02" style="stop-color:#D9D9D9;stop-opacity:0.9564"/>
						<stop  offset="0.3762" style="stop-color:#EEEEEE;stop-opacity:0.6273"/>
						<stop  offset="0.6965" style="stop-color:#FBFBFB;stop-opacity:0.3052"/>
						<stop  offset="1" style="stop-color:#FFFFFF;stop-opacity:0"/>
					</linearGradient>
					<polygon style="opacity:0.8;fill:url(#SVGID_00000014631802285802258200000004807991846424712593_);" points="122.8,54.4 
						111.7,60.1 111.7,99.6 111.7,99.6 127.3,99.6 127.3,52.2 					"/>
					
						<linearGradient id="SVGID_00000103948470241279140560000017125628236827477918_" gradientUnits="userSpaceOnUse" x1="115.8791" y1="60.5502" x2="124.562" y2="97.58">
						<stop  offset="5.586592e-03" style="stop-color:#D6D6D6"/>
						<stop  offset="4.895276e-02" style="stop-color:#D9D9D9;stop-opacity:0.9564"/>
						<stop  offset="0.3762" style="stop-color:#EEEEEE;stop-opacity:0.6273"/>
						<stop  offset="0.6965" style="stop-color:#FBFBFB;stop-opacity:0.3052"/>
						<stop  offset="1" style="stop-color:#FFFFFF;stop-opacity:0"/>
					</linearGradient>
					<polygon style="opacity:0.8;fill:url(#SVGID_00000103948470241279140560000017125628236827477918_);" points="122.8,54.4 
						111.7,60.1 111.7,99.6 111.7,99.6 127.3,99.6 127.3,52.2 					"/>
					<polygon class="st3" points="122.8,54.4 127.3,52.2 127.3,52.1 					"/>
					
						<linearGradient id="SVGID_00000072994437659706076710000016427561384222784395_" gradientUnits="userSpaceOnUse" x1="125.0749" y1="132.1309" x2="125.0749" y2="40.7966" gradientTransform="matrix(1 0 0 -1 0 130.353)">
						<stop  offset="0" style="stop-color:#DDDDDD"/>
						<stop  offset="0.9569" style="stop-color:#929292"/>
					</linearGradient>
					<polygon style="fill:url(#SVGID_00000072994437659706076710000016427561384222784395_);" points="122.8,54.4 127.3,52.2 
						127.3,52.1 					"/>
					<polygon class="st5" points="122.8,54.4 127.3,52.2 127.3,52.1 					"/>
					
						<linearGradient id="SVGID_00000112623805661821825070000003642710188430474633_" gradientUnits="userSpaceOnUse" x1="125.0749" y1="55.5184" x2="125.0749" y2="95.847">
						<stop  offset="5.586592e-03" style="stop-color:#D6D6D6"/>
						<stop  offset="4.895276e-02" style="stop-color:#D9D9D9;stop-opacity:0.9564"/>
						<stop  offset="0.3762" style="stop-color:#EEEEEE;stop-opacity:0.6273"/>
						<stop  offset="0.6965" style="stop-color:#FBFBFB;stop-opacity:0.3052"/>
						<stop  offset="1" style="stop-color:#FFFFFF;stop-opacity:0"/>
					</linearGradient>
					<polygon style="opacity:0.8;fill:url(#SVGID_00000112623805661821825070000003642710188430474633_);" points="122.8,54.4 
						127.3,52.2 127.3,52.1 					"/>
					
						<linearGradient id="SVGID_00000153688727766084276160000012438442106404717198_" gradientUnits="userSpaceOnUse" x1="126.2143" y1="58.1268" x2="134.8971" y2="95.1566">
						<stop  offset="5.586592e-03" style="stop-color:#D6D6D6"/>
						<stop  offset="4.895276e-02" style="stop-color:#D9D9D9;stop-opacity:0.9564"/>
						<stop  offset="0.3762" style="stop-color:#EEEEEE;stop-opacity:0.6273"/>
						<stop  offset="0.6965" style="stop-color:#FBFBFB;stop-opacity:0.3052"/>
						<stop  offset="1" style="stop-color:#FFFFFF;stop-opacity:0"/>
					</linearGradient>
					<polygon style="opacity:0.8;fill:url(#SVGID_00000153688727766084276160000012438442106404717198_);" points="122.8,54.4 
						127.3,52.2 127.3,52.1 					"/>
				</g>
				<g>
					<g>
						
							<linearGradient id="SVGID_00000166648919685599238820000006324459950071790229_" gradientUnits="userSpaceOnUse" x1="89.4376" y1="109.4873" x2="76.839" y2="76.6287">
							<stop  offset="0" style="stop-color:#DDDDDD"/>
							<stop  offset="0.3582" style="stop-color:#DBDBDB"/>
							<stop  offset="0.5438" style="stop-color:#D3D3D3"/>
							<stop  offset="0.6898" style="stop-color:#C6C6C6"/>
							<stop  offset="0.8152" style="stop-color:#B3B3B3"/>
							<stop  offset="0.9263" style="stop-color:#9A9A9A"/>
							<stop  offset="0.9569" style="stop-color:#929292"/>
						</linearGradient>
						<polygon style="fill:url(#SVGID_00000166648919685599238820000006324459950071790229_);" points="92.5,69.3 67.2,81.9 
							67.2,99.6 91.8,99.6 91.8,70.3 						"/>
						
							<linearGradient id="SVGID_00000125570425342993223490000013935745930233613223_" gradientUnits="userSpaceOnUse" x1="139.7831" y1="86.7673" x2="127.1845" y2="53.9088">
							<stop  offset="0" style="stop-color:#DDDDDD"/>
							<stop  offset="0.4559" style="stop-color:#DBDBDB"/>
							<stop  offset="0.6201" style="stop-color:#D4D4D4"/>
							<stop  offset="0.7372" style="stop-color:#C9C9C9"/>
							<stop  offset="0.8318" style="stop-color:#B8B8B8"/>
							<stop  offset="0.9118" style="stop-color:#A2A2A2"/>
							<stop  offset="0.9569" style="stop-color:#929292"/>
						</linearGradient>
						<polygon style="fill:url(#SVGID_00000125570425342993223490000013935745930233613223_);" points="141.3,45.2 126.8,52.3 
							127.3,52.2 127.3,99.6 141.3,99.6 						"/>
						
							<linearGradient id="SVGID_00000065796703967977311370000013950840239437882283_" gradientUnits="userSpaceOnUse" x1="108.8844" y1="66.8377" x2="111.0977" y2="96.802">
							<stop  offset="0" style="stop-color:#929292"/>
							<stop  offset="2.853474e-02" style="stop-color:#969696"/>
							<stop  offset="0.1971" style="stop-color:#ABABAB"/>
							<stop  offset="0.388" style="stop-color:#B9B9B9"/>
							<stop  offset="0.6182" style="stop-color:#C2C2C2"/>
							<stop  offset="0.9944" style="stop-color:#C4C4C4"/>
						</linearGradient>
						<polygon style="fill:url(#SVGID_00000065796703967977311370000013950840239437882283_);" points="126.8,52.3 92.5,69.3 
							91.8,70.3 91.8,99.6 127.3,99.6 127.3,52.2 						"/>
					</g>
					<rect x="101.5" y="56.7" class="st34" width="39.8" height="35.4"/>
					<rect x="138.1" y="60.1" class="st35" width="3.1" height="29.4"/>
					<g transform="matrix( 4.3228759765625, 0, 0, 4.3228759765625, -1195.3,-1568.55) ">
						<g>
							<g id="S_mbolo_12_0_Layer0_0_MEMBER_0_MEMBER_2_MEMBER_0_FILL_00000134248628371086879480000005027429193570149546_">
								<path class="st36" d="M307.7,383.6V378h-1v5.6H307.7z"/>
							</g>
						</g>
					</g>
					<g transform="matrix( 4.3228759765625, 0, 0, 4.3228759765625, -1190.05,-1568.55) ">
						<g>
							<g id="S_mbolo_12_0_Layer0_0_MEMBER_0_MEMBER_3_MEMBER_0_FILL_00000143602565891991254970000014824152712877035455_">
								<path class="st37" d="M304.7,383.6V381h-1v2.5H304.7z"/>
							</g>
						</g>
					</g>
					<g transform="matrix( 2.190216064453125, 0, 0, 2.190216064453125, -260.55,-303.25) ">
						<g>
							<g id="S_mbolo_12_0_Layer0_1_MEMBER_0_FILL_00000177449172411453528710000014809818712880052896_">
								<path class="st38" d="M150.6,175.1c0,0.8,0.1,1.6,0.4,2.3c0.3,0.7,0.7,1.4,1.2,1.9l4.7-4.2H150.6z"/>
							</g>
						</g>
					</g>
					<g transform="matrix( 2.190216064453125, 0, 0, 2.190216064453125, -260.55,-303.25) ">
						<g>
							<g id="S_mbolo_12_0_Layer0_1_MEMBER_1_FILL_00000005947330331393658970000016795773949127953076_">
								<path class="st39" d="M151.6,180.8c1,1.1,2.1,1.7,3.6,2c0.4,0.1,0.8,0.1,1.2,0.1v-6.4L151.6,180.8z"/>
							</g>
						</g>
					</g>
					<g transform="matrix( 2.190216064453125, 0, 0, 2.190216064453125, -260.55,-303.25) ">
						<g>
							<g id="S_mbolo_12_0_Layer0_1_MEMBER_2_FILL_00000168109819804702992790000002751870859127325118_">
								<path class="st40" d="M156.9,175.1v6.4c1.8,0,3.3-0.6,4.5-1.9c1.2-1.2,1.9-2.7,1.9-4.5H156.9z"/>
							</g>
						</g>
					</g>
					<g transform="matrix( 2.190216064453125, 0, 0, 2.190216064453125, -260.55,-303.25) ">
						<g>
							<g id="S_mbolo_12_0_Layer0_1_MEMBER_3_FILL_00000031928850773559629380000018152684145118623933_">
								<path class="st41" d="M159.3,169.2l-2.4,5.9h6.4c0-1.3-0.4-2.5-1.1-3.6C161.5,170.4,160.5,169.7,159.3,169.2z"/>
							</g>
						</g>
					</g>
					<g>
						<path class="st5" d="M79,59.6L79,59.6l0,2.8c0.9-0.2,1.9-0.3,2.8-0.3v12.7l1.5-0.8V62.1c1.8,0,3.6,0.3,5.3,1l-4.2,10.3
							l7.4-3.7v-8.7l5-2.5v-7.7L79,59.6z"/>
						<polygon class="st5" points="79,76.1 80.9,75.2 79,73.2 						"/>
						<polygon class="st42" points="83.3,76 84.4,73.4 83.3,74 						"/>
						<path class="st43" d="M83.3,62.1V74l1-0.5l4.2-10.3C86.9,62.4,85.2,62.1,83.3,62.1z"/>
						<polygon class="st44" points="81.8,76 81.8,74.7 80.9,75.2 						"/>
						<path class="st44" d="M76.4,63.2c-1.7,0.7-3.2,1.7-4.4,3l7.1,7V62.4C78.1,62.5,77.2,62.8,76.4,63.2z"/>
						<path class="st45" d="M79,62.4v10.8l2,2l0.9-0.4V62.1C80.8,62.1,79.9,62.2,79,62.4z"/>
					</g>
					<g transform="matrix( 2.190216064453125, 0, 0, 2.190216064453125, -260.55,-303.25) ">
						<g>
							<g id="S_mbolo_12_0_Layer0_1_MEMBER_6_FILL_00000120529057640457487100000007474495296807056520_">
								<path class="st46" d="M151.1,172.6c-0.3,0.8-0.5,1.6-0.5,2.5h6.4l-4.5-4.5C151.8,171.1,151.4,171.8,151.1,172.6z"/>
							</g>
						</g>
					</g>
					<g class="st47">
						<g transform="matrix( 1.336395263671875, 0, 0, 1.336395263671875, -323.95,-522) ">
							<g>
								<g id="S_mbolo_12_0_Layer0_2_MEMBER_0_FILL_00000086678790699968273770000018307907756927341742_">
									
										<linearGradient id="SVGID_00000162326931132591005950000010063107059785889432_" gradientUnits="userSpaceOnUse" x1="89.7262" y1="473.4453" x2="94.3116" y2="473.4453" gradientTransform="matrix(1.3364 0 0 -1.3364 206.3239 1050.8153)">
										<stop  offset="0" style="stop-color:#FFFFFF"/>
										<stop  offset="0.5216" style="stop-color:#FFFFFF"/>
										<stop  offset="1" style="stop-color:#FFFFFF"/>
									</linearGradient>
									<path style="fill:url(#SVGID_00000162326931132591005950000010063107059785889432_);" d="M329.3,412.7
										c-1.1,0.2-1.9,0.7-2.4,1.5c-1.2,1.9-0.5,5,2.2,9.5l0.8-0.5c-1.4-2.3-2.2-4.2-2.5-5.8c-0.2-1.2-0.1-2.1,0.3-2.7
										c0.4-0.6,1-0.9,1.9-1.1c0.4-0.1,0.9-0.1,1.2,0l0.1-0.9C330.4,412.6,329.8,412.6,329.3,412.7z"/>
								</g>
							</g>
						</g>
						<g transform="matrix( 1.336395263671875, 0, 0, 1.336395263671875, -323.95,-522) ">
							<g>
								<g id="S_mbolo_12_0_Layer0_2_MEMBER_1_MEMBER_0_FILL_00000030451488865084877500000003101071446164376996_">
									<path class="st49" d="M329.3,412.7c-1.1,0.2-1.9,0.7-2.4,1.5c-1.2,1.9-0.5,5,2.2,9.5l0.8-0.5c-1.4-2.3-2.2-4.2-2.5-5.8
										c-0.2-1.2-0.1-2.1,0.3-2.7c0.4-0.6,1-0.9,1.9-1.1c0.4-0.1,0.9-0.1,1.2,0l0.1-0.9C330.4,412.6,329.8,412.6,329.3,412.7z"/>
								</g>
							</g>
						</g>
						<g transform="matrix( 1.336395263671875, 0, 0, 1.336395263671875, -323.95,-522) ">
							<g>
								<g id="S_mbolo_12_0_Layer0_2_MEMBER_1_MEMBER_1_FILL_00000066502853382058907210000013745259177247356063_">
									<path class="st49" d="M328.7,413c-0.8,0.2-1.4,0.6-1.8,1.2c-0.3,0.5-0.5,1.2-0.5,2c0,1.7,0.8,4,2.5,6.9l0.2-0.1
										c-1.6-2.8-2.5-5.1-2.5-6.7c0-0.7,0.2-1.3,0.5-1.8c0.3-0.5,0.9-0.9,1.6-1.1c0.5-0.1,1-0.2,1.5-0.2l0-0.3
										C329.7,412.8,329.2,412.8,328.7,413z"/>
								</g>
							</g>
						</g>
						<g transform="matrix( 1.336395263671875, 0, 0, 1.336395263671875, -323.95,-522) ">
							<g>
								<g id="S_mbolo_12_0_Layer0_2_MEMBER_2_MEMBER_0_FILL_00000031908890171285514850000008445131357760696492_">
									<path class="st49" d="M342.7,414.1c-0.5-0.8-1.3-1.3-2.5-1.5c-1,0-1.6-0.1-1.6-0.1l0.1,0.9c0,0,0.4,0,1.2,0
										c0.9,0.1,1.5,0.5,1.9,1.1c0.4,0.6,0.5,1.5,0.3,2.7c-0.3,1.5-1.1,3.5-2.5,5.8l0.8,0.5C343.1,419.2,343.9,416,342.7,414.1z"
										/>
								</g>
							</g>
						</g>
						<g transform="matrix( 1.336395263671875, 0, 0, 1.336395263671875, -323.95,-522) ">
							<g>
								<g id="S_mbolo_12_0_Layer0_2_MEMBER_2_MEMBER_1_FILL_00000042729026489742905530000013584485352579501242_">
									<path class="st49" d="M342.6,414.2c-0.4-0.6-1-1-1.8-1.2c-0.5-0.1-1-0.2-1.6-0.2l0,0.3c0.6,0,1.1,0.1,1.5,0.2
										c0.7,0.2,1.3,0.6,1.6,1.1c0.3,0.5,0.5,1.1,0.5,1.8c0,1.6-0.8,3.9-2.5,6.7l0.2,0.1c1.7-2.9,2.5-5.2,2.5-6.9
										C343.1,415.4,343,414.7,342.6,414.2z"/>
								</g>
							</g>
						</g>
						<g transform="matrix( 1.336395263671875, 0, 0, 1.336395263671875, -323.95,-522) ">
							<g>
								<g id="S_mbolo_12_0_Layer0_2_MEMBER_3_FILL_00000161618669658891009580000009691677115178312870_">
									<path class="st50" d="M339.6,422.8c-0.5,0.9-1.1,1.7-1.8,2.6c-1.3,1.7-2.4,2.5-3.1,2.5c-0.9-0.1-2-1-3.3-2.7l-1.6-2.5
										c0-0.1-0.1-0.1-0.1-0.1c-0.1,0-0.1,0-0.2,0l-0.9,0.3c-0.1,0-0.1,0-0.1,0.1c0,0.1,0,0.1,0,0.2l0.5,0.9
										c0.4,0.7,0.8,1.4,1.3,2c1.4,2,2.9,3.1,4.4,3.2c1,0.1,2.3-0.8,4-2.8c0.8-1,1.6-2,2.2-3c0,0,0-0.1,0-0.1c0-0.1,0-0.1-0.1-0.1
										l-0.9-0.5c-0.1,0-0.1,0-0.2,0C339.6,422.7,339.6,422.7,339.6,422.8z"/>
								</g>
							</g>
						</g>
						<g transform="matrix( 1.336395263671875, 0, 0, 1.336395263671875, -323.95,-522) ">
							<g>
								<g id="S_mbolo_12_0_Layer0_2_MEMBER_4_MEMBER_0_FILL_00000091013367007744090140000004364181683824703879_">
									<path class="st51" d="M339.6,422.8c-0.5,0.9-1.1,1.7-1.8,2.6c-1.3,1.7-2.4,2.5-3.1,2.5c-0.9-0.1-2-1-3.3-2.7l-1.6-2.5
										c0-0.1-0.1-0.1-0.1-0.1c-0.1,0-0.1,0-0.2,0l-0.9,0.3c-0.1,0-0.1,0-0.1,0.1c0,0.1,0,0.1,0,0.2l0.5,0.9
										c0.4,0.7,0.8,1.4,1.3,2c1.4,2,2.9,3.1,4.4,3.2c1,0.1,2.3-0.8,4-2.8c0.8-1,1.6-2,2.2-3c0,0,0-0.1,0-0.1c0-0.1,0-0.1-0.1-0.1
										l-0.9-0.5c-0.1,0-0.1,0-0.2,0C339.6,422.7,339.6,422.7,339.6,422.8z"/>
								</g>
							</g>
						</g>
						<g transform="matrix( 1.336395263671875, 0, 0, 1.336395263671875, -323.95,-522) ">
							<g>
								<g id="S_mbolo_12_0_Layer0_2_MEMBER_4_MEMBER_1_FILL_00000030464294644789086890000002554251051363715007_">
									<path class="st52" d="M339.8,422.9c-0.5,0.8-1.1,1.6-1.7,2.5c-1.4,1.8-2.6,2.7-3.5,2.6c-1-0.1-2.1-0.9-3.3-2.4
										c-0.7-0.9-1.3-1.8-1.9-2.9l-0.5,0.2c0.5,1.1,1.2,2.2,1.9,3.1c1.2,1.6,2.5,2.4,3.7,2.5c0.7,0.1,1.6-0.5,2.8-1.8
										c1-1,2-2.2,2.9-3.6L339.8,422.9z"/>
								</g>
							</g>
						</g>
						<g transform="matrix( 1.336395263671875, 0, 0, 1.336395263671875, -323.95,-522) ">
							<g>
								<g id="S_mbolo_12_0_Layer0_2_MEMBER_5_FILL_00000124846089728963269420000000693653377058452884_">
									<path class="st52" d="M344.7,433.4l-0.4-0.8c-0.3,0.1-0.6,0.7-1.1,1.5c-0.5,1.1-1,1.8-1.3,2.2c-1.4,1.6-3.4,1.4-6-0.8
										c-1-0.9-1.3-2.5-0.7-5.1l-0.9-0.2c-0.6,2.7-0.2,4.7,1.1,6c2.8,2.8,5.1,3.1,7.1,1.1c0.6-0.6,1.2-1.5,1.7-2.5
										C344.5,433.9,344.7,433.5,344.7,433.4z"/>
								</g>
							</g>
						</g>
						<g transform="matrix( 1.336395263671875, 0, 0, 1.336395263671875, -323.95,-522) ">
							<g>
								<g id="S_mbolo_12_0_Layer0_2_MEMBER_6_FILL_00000034064059134666733410000014925387571220595597_">
									
										<linearGradient id="SVGID_00000176034387872451083850000002999203925721045419_" gradientUnits="userSpaceOnUse" x1="99.3589" y1="456.8727" x2="99.7561" y2="468.6485" gradientTransform="matrix(1.3364 0 0 -1.3364 206.3239 1050.8153)">
										<stop  offset="3.921568e-03" style="stop-color:#8B8B8B"/>
										<stop  offset="0.4902" style="stop-color:#FFFFFF"/>
										<stop  offset="0.5373" style="stop-color:#FFFFFF"/>
										<stop  offset="0.702" style="stop-color:#C8C8C8"/>
										<stop  offset="0.8392" style="stop-color:#959595"/>
										<stop  offset="0.9412" style="stop-color:#767676"/>
										<stop  offset="1" style="stop-color:#696969"/>
									</linearGradient>
									<path style="fill:url(#SVGID_00000176034387872451083850000002999203925721045419_);" d="M342.9,436
										c0.3-0.5,0.7-1.3,1.2-2.5l0.1-0.3l-0.1-0.1c-0.2,0.2-0.4,0.6-0.6,1.1c-0.6,1.1-0.9,1.8-1.1,2.1c-0.5,0.7-1.1,1.2-1.9,1.3
										c-1.3,0.3-2.9-0.4-4.8-1.9c-0.2-0.2-0.5-0.5-0.6-0.7c0.2,0.3,0.4,0.6,0.6,0.9c1.7,1.7,3.3,2.5,4.6,2.2
										C341.3,437.8,342.2,437.1,342.9,436 M334.8,430.6L334.8,430.6c-0.2,0.6-0.3,1.2-0.3,1.8c0,0.6,0.1,1.1,0.2,1.6
										c-0.1-0.4-0.2-0.9-0.2-1.5C334.6,432,334.7,431.4,334.8,430.6z"/>
								</g>
							</g>
						</g>
						<g transform="matrix( 1.336395263671875, 0, 0, 1.336395263671875, -323.95,-522) ">
							<g>
								<g id="S_mbolo_12_0_Layer0_2_MEMBER_7_FILL_00000092457133504765378980000012390268484376923541_">
									<path class="st50" d="M344.9,433.8l0.5-0.8l-1.3-0.8l-0.5,0.8L344.9,433.8z"/>
								</g>
							</g>
						</g>
						<g class="st47">
							
								<linearGradient id="SVGID_00000114780092364494966920000007718479086300033968_" gradientUnits="userSpaceOnUse" x1="137.8173" y1="58.9448" x2="137.8173" y2="49.3343">
								<stop  offset="0" style="stop-color:#FFFFFF"/>
								<stop  offset="0.1843" style="stop-color:#FFFFFF"/>
								<stop  offset="0.7098" style="stop-color:#FFFFFF"/>
								<stop  offset="1" style="stop-color:#FFFFFF"/>
							</linearGradient>
							<path style="fill:url(#SVGID_00000114780092364494966920000007718479086300033968_);" d="M141.2,55.1
								C141.2,55.1,141.2,55.1,141.2,55.1c-0.7,0.7-1.5,1.1-2.5,1.1c-1,0-1.8-0.3-2.4-1c-0.7-0.7-1-1.5-1-2.4c0-1,0.3-1.8,1-2.4
								c0.7-0.7,1.5-1,2.4-1s1.8,0.3,2.4,1c0,0,0,0,0,0v0c0-0.9-0.7-1.7-1.6-1.9c-0.3-0.1-0.6-0.1-0.9-0.1c-1.2,0-2.2,0.4-3.1,1.3
								c-1.2,1.2-1.6,2.7-1.1,4.6c0,0.2,0.1,0.4,0.2,0.5c1,1.6,2.3,2.4,4,2.4c0.3,0,0.6,0,0.9-0.1C140.6,56.8,141.2,56,141.2,55.1
								L141.2,55.1z"/>
							
								<linearGradient id="SVGID_00000065789205324643636070000017157536467512252301_" gradientUnits="userSpaceOnUse" x1="138.2723" y1="57.6511" x2="138.2723" y2="50.0255">
								<stop  offset="0" style="stop-color:#FFFFFF"/>
								<stop  offset="0.1843" style="stop-color:#FFFFFF"/>
								<stop  offset="0.7098" style="stop-color:#FFFFFF"/>
								<stop  offset="1" style="stop-color:#FFFFFF"/>
							</linearGradient>
							<path style="fill:url(#SVGID_00000065789205324643636070000017157536467512252301_);" d="M141.2,52.8c0,0.6-0.3,1.2-0.7,1.6
								c-0.5,0.5-1.1,0.7-1.7,0.7c-0.7,0-1.3-0.2-1.7-0.7c-0.5-0.5-0.7-1.1-0.7-1.7c0-0.7,0.2-1.3,0.7-1.7c0.5-0.5,1.1-0.7,1.7-0.7
								c0.7,0,1.3,0.2,1.7,0.7c0.5,0.5,0.7,1,0.7,1.6v-2.3c-0.7-0.7-1.5-1-2.5-1c-1,0-1.8,0.3-2.5,1c-0.7,0.7-1,1.5-1,2.5
								s0.3,1.8,1,2.5c0.7,0.7,1.5,1,2.5,1c1,0,1.8-0.3,2.5-1V52.8z"/>
							
								<linearGradient id="SVGID_00000129172370360055308090000006212824511311474054_" gradientUnits="userSpaceOnUse" x1="138.4544" y1="57.1335" x2="138.4544" y2="50.302">
								<stop  offset="0" style="stop-color:#FFFFFF"/>
								<stop  offset="0.1843" style="stop-color:#FFFFFF"/>
								<stop  offset="0.7098" style="stop-color:#FFFFFF"/>
								<stop  offset="1" style="stop-color:#FFFFFF"/>
							</linearGradient>
							<path style="fill:url(#SVGID_00000129172370360055308090000006212824511311474054_);" d="M141.2,50.8
								c-0.1-0.1-0.2-0.2-0.3-0.3c-0.6-0.6-1.3-0.9-2.2-0.9c-0.9,0-1.6,0.3-2.2,0.9c-0.6,0.6-0.9,1.3-0.9,2.2c0,0.9,0.3,1.6,0.9,2.2
								c0.6,0.6,1.4,0.9,2.2,0.9c0.9,0,1.6-0.3,2.2-0.9c0.1-0.1,0.2-0.2,0.3-0.3V50.8z M140.1,54c-0.4,0.4-0.8,0.6-1.3,0.6
								c-0.5,0-1-0.2-1.3-0.6c-0.4-0.4-0.6-0.8-0.6-1.3c0-0.5,0.2-1,0.6-1.3c0.4-0.4,0.8-0.6,1.3-0.6c0.5,0,1,0.2,1.3,0.6
								c0.4,0.4,0.6,0.8,0.6,1.3C140.7,53.2,140.5,53.7,140.1,54z"/>
							<g transform="matrix( 1.336395263671875, 0, 0, 1.336395263671875, -323.95,-522) ">
								<g>
									<g id="S_mbolo_12_0_Layer0_2_MEMBER_11_FILL_00000137845261809900546930000010580883669136696715_">
										
											<radialGradient id="SVGID_00000087386933500727914500000001506692566748803508_" cx="85.2668" cy="1075.5414" r="1.421" fx="85.4372" fy="1075.9169" gradientTransform="matrix(0.5524 1.2169 -1.2169 0.5524 1607.86 -268.0087)" gradientUnits="userSpaceOnUse">
											<stop  offset="0" style="stop-color:#FFFFFF"/>
											<stop  offset="0.2235" style="stop-color:#FFFFFF"/>
											<stop  offset="0.5804" style="stop-color:#FFFFFF"/>
											<stop  offset="1" style="stop-color:#FFFFFF"/>
										</radialGradient>
										<path style="fill:url(#SVGID_00000087386933500727914500000001506692566748803508_);" d="M347.7,430c0-0.4-0.1-0.7-0.4-1
											c-0.3-0.3-0.6-0.4-1-0.4c-0.4,0-0.7,0.1-1,0.4c-0.3,0.3-0.4,0.6-0.4,1c0,0.4,0.1,0.7,0.4,1c0.3,0.3,0.6,0.4,1,0.4
											s0.7-0.1,1-0.4C347.5,430.7,347.7,430.4,347.7,430z"/>
									</g>
								</g>
							</g>
						</g>
						<g transform="matrix( 1.336395263671875, 0, 0, 1.336395263671875, -323.95,-522) ">
							<g>
								<g id="S_mbolo_12_0_Layer0_2_MEMBER_12_FILL_00000108284915848446107600000008444901612343061929_">
									<path class="st51" d="M335.6,430.2l0.3-0.8c0.1-0.2,0-0.4-0.1-0.5c-0.1-0.2-0.3-0.2-0.5-0.2h-1c-0.2,0-0.4,0.1-0.5,0.2
										c-0.1,0.1-0.1,0.3-0.1,0.5l0.3,0.8c0.2,0.5,0.5,0.8,0.8,0.8C335,431,335.3,430.8,335.6,430.2z"/>
								</g>
							</g>
						</g>
						<g transform="matrix( 1.336395263671875, 0, 0, 1.336395263671875, -323.95,-522) ">
							<g>
								<g id="S_mbolo_12_0_Layer0_2_MEMBER_13_FILL_00000177446973726512249620000007410185367741087390_">
									<path class="st58" d="M332.6,414.1c0.1-0.1,0.2-0.3,0.2-0.5v-1c0-0.2-0.1-0.4-0.2-0.5c-0.1-0.1-0.3-0.1-0.5-0.1
										c-0.3,0.1-0.5,0.2-0.8,0.3c-0.5,0.2-0.8,0.5-0.8,0.8s0.3,0.6,0.8,0.8c0.3,0.1,0.5,0.2,0.8,0.3
										C332.3,414.2,332.4,414.2,332.6,414.1z"/>
								</g>
							</g>
						</g>
						<g transform="matrix( 1.336395263671875, 0, 0, 1.336395263671875, -323.95,-522) ">
							<g>
								<g id="S_mbolo_12_0_Layer0_2_MEMBER_14_FILL_00000085947971788800913440000017188565721786495165_">
									<path class="st58" d="M336.7,412.5v1c0,0.2,0.1,0.4,0.2,0.5c0.1,0.1,0.3,0.1,0.5,0.1l0.8-0.3c0.5-0.2,0.8-0.5,0.8-0.8
										s-0.3-0.6-0.8-0.8l-0.8-0.3c-0.2-0.1-0.4,0-0.5,0.1S336.7,412.3,336.7,412.5z"/>
								</g>
							</g>
						</g>
						<g transform="matrix( 1.336395263671875, 0, 0, 1.336395263671875, -323.95,-522) " class="st47">
							<g>
								<g id="S_mbolo_12_0_Layer0_2_MEMBER_15_FILL_00000008836579830246496350000012484550007605136824_">
									<path class="st59" d="M332.6,412.2c-0.1-0.1-0.3-0.1-0.4-0.1c-0.2,0.1-0.4,0.1-0.7,0.2c-0.5,0.2-0.7,0.4-0.7,0.7
										c0.2,0.1,0.4,0.1,0.7,0.1c0.5,0,0.9-0.2,1.3-0.5v0C332.8,412.4,332.7,412.3,332.6,412.2z"/>
								</g>
							</g>
						</g>
						<g transform="matrix( 1.336395263671875, 0, 0, 1.336395263671875, -323.95,-522) ">
							<g>
								<g id="S_mbolo_12_0_Layer0_2_MEMBER_16_FILL_00000168080415426016573570000012664414935624698287_">
									<path class="st60" d="M337.5,412.1c-0.2,0-0.3,0-0.5,0.1c-0.1,0.1-0.2,0.2-0.2,0.4v0c0.4,0.3,0.8,0.5,1.3,0.5
										c0.2,0,0.5,0,0.7-0.1c0-0.2-0.2-0.5-0.7-0.7L337.5,412.1z"/>
								</g>
							</g>
						</g>
						<g transform="matrix( 1.336395263671875, 0, 0, 1.336395263671875, -323.95,-522) ">
							<g>
								<g id="S_mbolo_12_0_Layer0_2_MEMBER_17_FILL_00000111889125144273722840000000470230816826438834_">
									
										<linearGradient id="SVGID_00000047031480242648429770000012398265586294062011_" gradientUnits="userSpaceOnUse" x1="95.7925" y1="464.4034" x2="97.2113" y2="465.2831" gradientTransform="matrix(1.3364 0 0 -1.3364 206.3239 1050.8153)">
										<stop  offset="0" style="stop-color:#FFFFFF"/>
										<stop  offset="0.2118" style="stop-color:#FFFFFF"/>
										<stop  offset="0.4941" style="stop-color:#C9C9C9"/>
										<stop  offset="0.7255" style="stop-color:#969696"/>
										<stop  offset="0.902" style="stop-color:#767676"/>
										<stop  offset="1" style="stop-color:#696969"/>
									</linearGradient>
									<path style="fill:url(#SVGID_00000047031480242648429770000012398265586294062011_);" d="M335.6,429.4c0-0.2,0-0.3-0.1-0.5
										c-0.1-0.1-0.2-0.2-0.4-0.2h0c-0.3,0.4-0.5,0.8-0.5,1.3c0,0.2,0,0.4,0.1,0.7c0.2,0,0.5-0.2,0.7-0.7L335.6,429.4z"/>
								</g>
							</g>
						</g>
					</g>
					<g transform="matrix( 1, 0, 0, 1, 0,0) ">
						<g>
							<g id="S_mbolo_12_0_Layer0_0_MEMBER_1_FILL_00000059280630050281797570000010396047295244178072_">
								<path class="st62" d="M102.6,99.6h5.1l-1.2-3l-1.1-2.7l-4.3,4.3L102.6,99.6 M105.5,90.9h-3.1l3.1,3.1V90.9 M112.6,99.6
									l-0.9-3.4l-1,1l-1-1l-0.9,3.4H112.6 M115.9,90.9l0,1.3l0,1.7l-1.1,2.6l0,0.1l-1.2,2.9h5.1l1.4-1.4l-4.2-4.1l2.9-3.2H115.9"
									/>
								<path class="st63" d="M109.7,96.2l1,1l1-1l-1-3.7L109.7,96.2 M105.5,93.9l-3.1-3.1h-2.6c-2.5,0-4.7,0.9-6.5,2.7
									c-1.7,1.7-2.6,3.7-2.7,6h12l-1.4-1.4L105.5,93.9z"/>
								<path class="st42" d="M107.7,99.6h1l0.9-3.4l1-3.7l-4.1,4.2L107.7,99.6 M115.9,92.2l0-1.3l-4.2,1.6c-0.2,0-0.5,0-0.7,0h-0.2
									l4.1,4.1l0,0l1.1-2.6h0L115.9,92.2z"/>
								<path class="st42" d="M110.7,92.5h-0.2c-0.2,0-0.4,0-0.6,0c-1.6-0.1-3-0.7-4.4-1.6h0v3.1l1.1,2.7L110.7,92.5z"/>
								<path class="st42" d="M112.6,99.6h0.9l1.2-2.9l0-0.1l-4.1-4.1l1,3.7L112.6,99.6z"/>
								<path class="st42" d="M111.7,92.5l4.2-1.6v-3c-1.6,1.4-3.3,2.1-5.2,2.1h-0.1c-1.7,0-3.3-0.6-4.9-1.8l4.2,4.2
									c0.2,0,0.4,0,0.6,0h0.2h0.2C111.2,92.5,111.4,92.5,111.7,92.5z"/>
								<path class="st42" d="M121,77.9l0.1-3.6c-0.2-0.3-0.6-0.6-1.2-0.9c-1.1-0.6-2.4-0.9-3.8-0.9c-1.3,0-2.6,0.7-3.9,2.2
									l-0.4,0.4V82c0,0.3-0.1,0.6-0.3,0.9c-0.2,0.2-0.5,0.4-0.8,0.4v6.9c1.8,0,3.6-0.7,5.2-2.1c0.6-0.5,1.2-1.2,1.7-1.9
									C119.5,83.6,120.7,80.9,121,77.9z"/>
								<path class="st42" d="M121.1,74.3v-1.4c0-2.4-0.7-4.5-2.2-6.4c-2.5-3.2-6.2-4.4-11-3.6c-4.9,0.7-7.5,3.7-7.8,8.7v6.3
									c0.3,3,1.5,5.7,3.5,8.2c0.6,0.8,1.2,1.4,1.9,2v2.8h0c1.4,0.9,2.8,1.4,4.4,1.6l-4.2-4.2c1.5,1.2,3.1,1.8,4.9,1.8h0.1v-6.9
									c0.3,0,0.6-0.1,0.8-0.4c0.2-0.3,0.3-0.5,0.3-0.9v-6.8l0.4-0.4c1.4-1.4,2.7-2.2,3.9-2.2c1.4,0,2.7,0.3,3.8,0.9
									C120.5,73.7,120.9,74,121.1,74.3z"/>
							</g>
							<path class="st38" d="M126.6,92.4l-5.1-1.5h-2.7l-2.9,3.2l4.2,4.1l-1.4,1.4h12c-0.1-2.3-1-4.3-2.7-6
								C127.5,93.2,127.1,92.8,126.6,92.4z"/>
						</g>
					</g>
				</g>
			</g>
			<polygon class="st64" points="111.7,50.9 96.8,58.5 91.8,61.1 91.8,69.8 96.8,67.3 111.7,59.9 122.8,54.4 127.3,52.1 127.3,42.9 
							"/>
		</g>
	</g>
	<g>
		<path class="st42" d="M154.5,33.4h3.4l-1.7,21.5h-3.4L154.5,33.4z"/>
		<path class="st42" d="M160.4,33.4h4.2l2.3,12.9h0.1l1-12.9h3l-1.7,21.5h-3.5L163,39.2h-0.1l-1.3,15.7h-3L160.4,33.4z"/>
		<path class="st42" d="M175.9,36.4h-3.5l0.2-3.1h10.5l-0.2,3.1h-3.5l-1.5,18.4h-3.4L175.9,36.4z"/>
		<path class="st42" d="M184.7,33.4h5c1.7,0,3,0.4,3.7,1.2c0.7,0.8,1,2.1,0.9,3.7l-0.1,1.3c-0.2,2.2-1,3.6-2.6,4.2l0,0.1
			c0.8,0.2,1.3,0.7,1.6,1.5c0.3,0.8,0.4,1.8,0.3,3l-0.3,3.8c0,0.6-0.1,1.1-0.1,1.5c0,0.4,0.1,0.8,0.2,1.1H190
			c-0.1-0.3-0.2-0.7-0.2-1c0-0.3,0-0.9,0.1-1.7l0.3-3.9c0.1-1,0-1.7-0.3-2.1c-0.3-0.4-0.8-0.6-1.6-0.6h-1.2l-0.7,9.2H183L184.7,33.4
			z M188.6,42.6c0.7,0,1.2-0.2,1.6-0.5c0.4-0.3,0.6-0.9,0.6-1.8l0.1-1.7c0.1-0.8,0-1.3-0.3-1.7c-0.2-0.3-0.7-0.5-1.3-0.5h-1.5
			l-0.5,6.1H188.6z"/>
		<path class="st42" d="M196.5,53.8c-0.8-0.9-1.1-2.3-1-4l0.9-11.3c0.1-1.7,0.7-3.1,1.6-4c1-0.9,2.3-1.4,3.9-1.4s2.9,0.5,3.7,1.4
			c0.8,0.9,1.1,2.3,1,4l-0.9,11.3c-0.1,1.7-0.7,3.1-1.6,4c-1,0.9-2.3,1.4-3.9,1.4C198.6,55.2,197.3,54.7,196.5,53.8z M202.4,50
			l0.9-11.7c0.1-1.4-0.4-2.1-1.6-2.1s-1.8,0.7-1.9,2.1L198.9,50c-0.1,1.4,0.4,2.1,1.6,2.1C201.6,52.1,202.3,51.4,202.4,50z"/>
		<path class="st42" d="M209.4,33.4h5.2c1.7,0,2.9,0.5,3.7,1.4c0.8,0.9,1.1,2.2,0.9,4l-0.9,10.9c-0.1,1.7-0.7,3.1-1.6,4
			c-0.9,0.9-2.2,1.4-3.9,1.4h-5.2L209.4,33.4z M213,51.8c0.6,0,1-0.2,1.3-0.5c0.3-0.3,0.5-0.9,0.6-1.6l0.9-11.2
			c0.1-0.7,0-1.3-0.3-1.6c-0.3-0.3-0.7-0.5-1.2-0.5h-1.7l-1.2,15.4H213z"/>
		<path class="st42" d="M221.4,53.8c-0.8-0.9-1.1-2.3-1-4l1.3-16.4h3.4L223.8,50c-0.1,0.7,0,1.3,0.3,1.6c0.3,0.3,0.7,0.5,1.2,0.5
			c0.6,0,1-0.2,1.3-0.5c0.3-0.3,0.5-0.9,0.6-1.6l1.3-16.7h3.3l-1.3,16.4c-0.1,1.7-0.7,3.1-1.6,4c-0.9,0.9-2.2,1.4-3.9,1.4
			C223.4,55.2,222.2,54.7,221.4,53.8z"/>
		<path class="st42" d="M240.2,40.6l0.2-2.5c0.1-1.3-0.4-2-1.5-2c-1.1,0-1.7,0.7-1.9,2l-1,12c-0.1,1.3,0.4,2,1.5,2
			c1.1,0,1.7-0.7,1.8-2l0.3-3.3h3.2l-0.2,3c-0.1,1.5-0.6,2.8-1.4,3.7c-0.8,0.9-1.9,1.4-3.2,1.6l-0.1,0.9c0.7,0,1.2,0.1,1.6,0.3
			c0.3,0.2,0.5,0.6,0.4,1.1c-0.1,0.8-0.4,1.3-0.9,1.5c-0.5,0.2-1.3,0.4-2.4,0.4c-0.9,0-1.7-0.1-2.2-0.4c-0.5-0.3-0.7-0.7-0.7-1.4
			l0-0.3h2.3l0,0.2c0,0.2,0,0.4,0.2,0.5c0.1,0.1,0.3,0.2,0.5,0.2c0.3,0,0.5-0.1,0.6-0.2c0.1-0.1,0.2-0.3,0.2-0.6
			c0-0.3-0.1-0.5-0.2-0.6c-0.2-0.1-0.5-0.2-0.8-0.2h-0.2l0.1-1.5c-1.4-0.1-2.4-0.7-3.1-1.6c-0.7-0.9-0.9-2.1-0.8-3.7l0.9-11.6
			c0.1-1.7,0.7-3,1.6-3.9c0.9-0.9,2.2-1.4,3.8-1.4c1.6,0,2.8,0.5,3.6,1.4c0.8,0.9,1.1,2.2,1,3.9l-0.2,2.3H240.2z"/>
		<path class="st42" d="M248.6,33.4h4.6l1.8,21.5h-3.4l-0.3-4.3l0,0.1h-3.8l-1,4.2h-3.1L248.6,33.4z M246.9,31.1
			c0.5-0.9,0.9-1.5,1.4-2c0.5-0.4,1-0.6,1.6-0.6c0.4,0,0.7,0.1,1,0.2c0.3,0.1,0.5,0.2,0.8,0.4c0.2,0.1,0.3,0.2,0.5,0.3
			c0.2,0.1,0.3,0.1,0.5,0.1c0.2,0,0.5-0.1,0.7-0.3c0.2-0.2,0.4-0.5,0.7-0.9l1.6,1c-0.5,0.9-0.9,1.5-1.4,2c-0.5,0.4-1,0.6-1.6,0.6
			c-0.4,0-0.7-0.1-1-0.2c-0.3-0.1-0.5-0.2-0.8-0.4c-0.2-0.1-0.3-0.2-0.5-0.3c-0.2-0.1-0.3-0.1-0.5-0.1c-0.2,0-0.5,0.1-0.7,0.3
			c-0.2,0.2-0.4,0.5-0.7,0.9L246.9,31.1z M251.2,47.8l-0.6-10.6h-0.1l-2.3,10.6H251.2z"/>
		<path class="st42" d="M257.7,53.8c-0.8-0.9-1.1-2.3-1-4l0.9-11.3c0.1-1.7,0.7-3.1,1.6-4c1-0.9,2.3-1.4,3.9-1.4s2.9,0.5,3.7,1.4
			c0.8,0.9,1.1,2.3,1,4L267,49.8c-0.1,1.7-0.7,3.1-1.6,4c-1,0.9-2.3,1.4-3.9,1.4S258.5,54.7,257.7,53.8z M263.6,50l0.9-11.7
			c0.1-1.4-0.4-2.1-1.6-2.1c-1.2,0-1.8,0.7-1.9,2.1L260.1,50c-0.1,1.4,0.4,2.1,1.6,2.1S263.5,51.4,263.6,50z"/>
		<path class="st42" d="M278.1,33.4h4.6l1.8,21.5h-3.4l-0.3-4.3l0,0.1H277l-1,4.2h-3.1L278.1,33.4z M276.8,28.4h3.7l1.9,3.5h-2.6
			L276.8,28.4z M280.6,47.8L280,37.1h-0.1l-2.3,10.6H280.6z"/>
		<path class="st42" d="M151.1,88.4c-0.8-0.9-1.1-2.2-1-3.9l0.9-11.6c0.1-1.7,0.7-3,1.6-3.9c0.9-0.9,2.2-1.4,3.8-1.4
			c1.6,0,2.8,0.5,3.6,1.4c0.8,0.9,1.1,2.2,1,3.9l-0.2,2.3h-3.2l0.2-2.5c0.1-1.3-0.4-2-1.5-2c-1.1,0-1.7,0.7-1.9,2l-1,12
			c-0.1,1.3,0.4,2,1.5,2c1.1,0,1.7-0.7,1.8-2l0.3-3.3h3.2l-0.2,3c-0.1,1.7-0.7,3-1.6,3.9c-0.9,0.9-2.2,1.4-3.8,1.4
			C153.1,89.8,151.9,89.3,151.1,88.4z"/>
		<path class="st42" d="M163.5,68h3.4l-1.7,21.5h-3.4L163.5,68z"/>
		<path class="st42" d="M169.4,68h9.2l-0.2,3.1h-5.8l-0.5,5.7h4.6l-0.2,3.1h-4.6l-0.5,6.6h5.8l-0.2,3.1h-9.2L169.4,68z M172.8,63
			h3.2l2.2,3.5h-2.6l-1.4-1.7l-1.7,1.7H170L172.8,63z"/>
		<path class="st42" d="M180.5,68h4.2l2.3,12.9h0.1l1-12.9h3l-1.7,21.5h-3.5l-2.8-15.7h-0.1l-1.3,15.7h-3L180.5,68z"/>
		<path class="st42" d="M193.1,88.4c-0.8-0.9-1.1-2.2-1-3.9l0.9-11.6c0.1-1.7,0.7-3,1.6-3.9c0.9-0.9,2.2-1.4,3.8-1.4
			c1.6,0,2.8,0.5,3.6,1.4c0.8,0.9,1.1,2.2,1,3.9l-0.2,2.3h-3.2l0.2-2.5c0.1-1.3-0.4-2-1.5-2c-1.1,0-1.7,0.7-1.9,2l-1,12
			c-0.1,1.3,0.4,2,1.5,2c1.1,0,1.7-0.7,1.8-2l0.3-3.3h3.2l-0.2,3c-0.1,1.7-0.7,3-1.6,3.9c-0.9,0.9-2.2,1.4-3.8,1.4
			C195.1,89.8,193.9,89.3,193.1,88.4z"/>
		<path class="st42" d="M205.4,68h3.4l-1.7,21.5h-3.4L205.4,68z"/>
		<path class="st42" d="M214,68h4.6l1.8,21.5h-3.4l-0.3-4.3l0,0.1h-3.8l-1,4.2h-3.1L214,68z M216.5,82.3l-0.6-10.6h-0.1l-2.3,10.6
			H216.5z"/>
		<path class="st42" d="M228.6,68h5.2c1.7,0,2.9,0.5,3.7,1.4c0.8,0.9,1.1,2.2,0.9,4l-0.9,10.9c-0.1,1.7-0.7,3.1-1.6,4
			c-0.9,0.9-2.2,1.4-3.9,1.4h-5.2L228.6,68z M232.2,86.4c0.6,0,1-0.2,1.3-0.5c0.3-0.3,0.5-0.9,0.6-1.6l0.9-11.2
			c0.1-0.7,0-1.3-0.3-1.6c-0.3-0.3-0.7-0.5-1.2-0.5h-1.7l-1.2,15.4H232.2z"/>
		<path class="st42" d="M241.1,68h9.2l-0.2,3.1h-5.8l-0.5,5.7h4.6l-0.2,3.1h-4.6l-0.5,6.6h5.8l-0.2,3.1h-9.2L241.1,68z"/>
		<path class="st42" d="M257.2,68h5.2c1.7,0,2.9,0.5,3.7,1.4c0.8,0.9,1.1,2.2,0.9,4l-0.9,10.9c-0.1,1.7-0.7,3.1-1.6,4
			c-0.9,0.9-2.2,1.4-3.9,1.4h-5.2L257.2,68z M260.8,86.4c0.6,0,1-0.2,1.3-0.5c0.3-0.3,0.5-0.9,0.6-1.6l0.9-11.2
			c0.1-0.7,0-1.3-0.3-1.6c-0.3-0.3-0.7-0.5-1.2-0.5h-1.7L259,86.4H260.8z"/>
		<path class="st42" d="M272.2,68h4.6l1.8,21.5h-3.4l-0.3-4.3l0,0.1H271l-1,4.2h-3.1L272.2,68z M274.7,82.3l-0.6-10.6H274l-2.3,10.6
			H274.7z"/>
		<path class="st42" d="M281.9,68h5.2c1.7,0,2.9,0.5,3.7,1.4c0.8,0.9,1.1,2.2,0.9,4l-0.9,10.9c-0.1,1.7-0.7,3.1-1.6,4
			c-0.9,0.9-2.2,1.4-3.9,1.4h-5.2L281.9,68z M285.5,86.4c0.6,0,1-0.2,1.3-0.5c0.3-0.3,0.5-0.9,0.6-1.6l0.9-11.2
			c0.1-0.7,0-1.3-0.3-1.6c-0.3-0.3-0.7-0.5-1.2-0.5H285l-1.2,15.4H285.5z"/>
		<path class="st42" d="M293.8,88.4c-0.8-0.9-1.1-2.3-1-4l0.9-11.3c0.1-1.7,0.7-3.1,1.6-4c1-0.9,2.3-1.4,3.9-1.4s2.9,0.5,3.7,1.4
			c0.8,0.9,1.1,2.3,1,4l-0.9,11.3c-0.1,1.7-0.7,3.1-1.6,4c-1,0.9-2.3,1.4-3.9,1.4S294.6,89.3,293.8,88.4z M299.7,84.6l0.9-11.7
			c0.1-1.4-0.4-2.1-1.6-2.1s-1.8,0.7-1.9,2.1l-0.9,11.7c-0.1,1.4,0.4,2.1,1.6,2.1S299.6,86,299.7,84.6z"/>
		<path class="st42" d="M305.7,88.4c-0.8-0.9-1.1-2.3-0.9-4l0.1-1.2h3.2l-0.1,1.5c-0.1,1.4,0.4,2.1,1.6,2.1c0.6,0,1-0.2,1.3-0.5
			c0.3-0.3,0.5-0.9,0.6-1.6c0.1-0.9-0.1-1.7-0.4-2.4c-0.4-0.7-1-1.5-2.1-2.5c-1.3-1.2-2.2-2.3-2.7-3.3c-0.5-1-0.7-2.1-0.6-3.4
			c0.1-1.7,0.7-3,1.6-4c0.9-0.9,2.2-1.4,3.9-1.4c1.6,0,2.8,0.5,3.6,1.4c0.8,0.9,1.1,2.3,0.9,4l-0.1,0.9h-3.2l0.1-1.1
			c0.1-0.7,0-1.3-0.3-1.6c-0.3-0.3-0.7-0.5-1.2-0.5c-1.1,0-1.7,0.7-1.9,2.1c-0.1,0.8,0.1,1.5,0.5,2.2c0.4,0.7,1.1,1.5,2.1,2.5
			c1.3,1.2,2.2,2.3,2.7,3.4c0.5,1,0.6,2.2,0.5,3.5c-0.1,1.8-0.7,3.1-1.6,4.1c-0.9,0.9-2.3,1.4-3.9,1.4
			C307.7,89.8,306.5,89.3,305.7,88.4z"/>
	</g>
	<g>
		<path class="st42" d="M479.4,64.5v-3h2.9v-1.2h-2.9v-1.7h3.1v-1.2h-4.6v7.1H479.4L479.4,64.5z M484.8,57.4h-1.5v7.1h1.5V57.4
			L484.8,57.4z M489.2,64.6c2.3,0,3.4-1.6,3.4-3.7c0-2.1-1.1-3.7-3.4-3.7c-2.3,0-3.4,1.6-3.4,3.7C485.8,63,486.8,64.6,489.2,64.6
			L489.2,64.6z M489.2,58.3c1.5,0,1.8,1.4,1.8,2.6c0,1.2-0.3,2.6-1.8,2.6c-1.5,0-1.8-1.4-1.8-2.6C487.4,59.7,487.7,58.3,489.2,58.3
			L489.2,58.3z M499.3,59.7c-0.1-1.8-1.3-2.4-3-2.4c-2.1,0-3,1.6-3,3.7c0,2.1,0.9,3.7,3,3.7c1.6,0,2.9-0.7,3-2.4h-1.6
			c0,0.7-0.4,1.3-1.4,1.3c-1.1,0-1.4-1.6-1.4-2.6c0-1,0.3-2.6,1.4-2.6c0.9,0,1.4,0.6,1.4,1.3H499.3L499.3,59.7z M501.7,58.5h1.3
			c0.7,0,1.1,0.3,1.1,0.9c0,0.6-0.4,1-1.1,1h-1.3V58.5L501.7,58.5z M501.7,61.6h1.6c0.5,0,0.6,0.6,0.6,1c0.1,0.6,0.1,1.3,0.3,1.9
			h1.7c-0.3-0.4-0.3-1.2-0.4-1.7c-0.1-1-0.1-1.7-1.3-1.8v0c0.9-0.2,1.5-0.8,1.5-1.7c0-1.4-1.2-1.8-2.5-1.9h-3v7.1h1.5V61.6
			L501.7,61.6z M511.5,57.4v3.9c0,1.2-0.1,2.3-1.6,2.3c-1.5,0-1.6-1.1-1.6-2.3v-3.9h-1.5v4.4c0,1.9,1.4,2.8,3.1,2.8
			c1.7,0,3.1-0.9,3.1-2.8v-4.4H511.5L511.5,57.4z M514.1,64.5h5.4v-1.2h-3.6l3.5-4.7v-1.2h-5.1v1.2h3.3l-3.5,4.7V64.5z"/>
		<path class="st42" d="M479.4,94.3v-1.9h1.2c0.7,0,1.2,0.1,1.2,0.9c0,0.8-0.5,0.9-1.2,0.9H479.4L479.4,94.3z M479.4,91.2v-1.7h1.2
			c0.6,0,1,0.3,1,0.8c0,0.6-0.4,0.8-1,0.8H479.4L479.4,91.2z M480.5,95.4c1.1,0.1,2.9-0.4,2.9-1.8c0-1-0.7-1.7-1.6-1.8v0
			c0.7-0.2,1.2-0.8,1.2-1.6c0-1.4-1.3-1.9-2.6-1.8h-2.7v7.1H480.5L480.5,95.4z M484.2,90.5c0,0.4,0,0.8,0,1l0,4h1.5V93
			c0-0.3,0-0.6,0.2-0.9c0.1-0.2,0.5-0.3,0.7-0.4h0.6v-1.3c-0.7,0-1.4,0.2-1.7,1h0l0-0.9H484.2L484.2,90.5z M490.9,93.1
			c0,0.6,0,1.5-0.8,1.5c-0.4,0-0.7-0.3-0.7-0.7C489.4,93.1,490.4,93.1,490.9,93.1L490.9,93.1z M489.6,91.9c0-0.2,0.1-0.7,0.7-0.7
			c0.5,0,0.7,0.4,0.7,0.6v0.5c-0.6,0-1.3,0-1.9,0.3c-0.9,0.4-1.1,1.2-1.1,1.6c0,1,0.7,1.5,1.6,1.5c0.7,0,1.2-0.2,1.5-0.8h0
			c0,0.2,0,0.4,0,0.7h1.3c0-0.1-0.1-0.3-0.1-0.5v-2.7c0-1.5-1.1-1.8-2.1-1.8c-0.5,0-1.1,0.1-1.5,0.3c-0.4,0.2-0.7,0.6-0.7,1.2H489.6
			L489.6,91.9z M497.5,91.8c-0.1-1.1-1-1.5-2-1.5c-0.9,0-2.1,0.4-2.1,1.5c0,1.1,0.9,1.4,1.8,1.6c0.3,0.1,1,0.2,1,0.6
			c0,0.4-0.3,0.5-0.7,0.5c-0.4,0-0.8-0.2-0.8-0.6h-1.4c0,1.1,1,1.6,2.2,1.6c0.9,0,2.2-0.5,2.2-1.6c0-1.8-2.8-1.4-2.8-2.2
			c0-0.3,0.2-0.4,0.6-0.4c0.3,0,0.6,0.1,0.7,0.5H497.5L497.5,91.8z M499.5,88.3l-0.8,1.4h0.8l1.3-1.4H499.5L499.5,88.3z M500,95.4
			v-4.9h-1.5v4.9H500L500,95.4z M501.3,88.3v7.1h1.5v-7.1H501.3L501.3,88.3z M504,90.5v4.9h1.5v-4.9H504L504,90.5z M504,88.3v1.3
			h1.6v-1.3H504L504,88.3z M509.5,93.1c0,0.6,0,1.5-0.8,1.5c-0.4,0-0.7-0.3-0.7-0.7C507.9,93.1,509,93.1,509.5,93.1L509.5,93.1z
			 M508.2,91.9c0-0.2,0.1-0.7,0.7-0.7c0.5,0,0.7,0.4,0.7,0.6v0.5c-0.6,0-1.3,0-1.9,0.3c-0.9,0.4-1,1.2-1,1.6c0,1,0.7,1.5,1.6,1.5
			c0.7,0,1.2-0.2,1.5-0.8h0c0,0.2,0,0.4,0,0.7h1.3c0-0.1-0.1-0.3-0.1-0.5v-2.7c0-1.5-1.1-1.8-2.1-1.8c-0.5,0-1.1,0.1-1.5,0.3
			c-0.4,0.2-0.7,0.6-0.7,1.2H508.2z"/>
		<path class="st42" d="M484.4,31.9h1v-7.1h-1.6l-2,5.9h0l-2.1-5.9h-1.8v7.1h1v-6.4h0l2.3,6.4h0.9l2.3-6.4h0V31.9L484.4,31.9z
			 M488.2,31.9v-5h-0.9v5H488.2L488.2,31.9z M487.2,25.8h1.1v-1h-1.1V25.8L487.2,25.8z M490.9,27H490v5h0.9v-2.7
			c0-1,0.3-1.2,0.4-1.3c0.4-0.4,0.9-0.4,0.9-0.4c0.8,0,1.1,0.4,1.1,1.3v3.1h0.9v-3.4c0-1.6-1.5-1.7-1.9-1.7c-0.5,0-1.2,0.3-1.5,0.9
			h0V27L490.9,27z M497,31.9v-5H496v5H497L497,31.9z M496,25.8h1.1v-1H496V25.8L496,25.8z M498.4,28.3c0,1.9,3,1.1,3,2.2
			c0,0.6-0.6,0.9-1.1,0.9c-0.6,0-1-0.3-1-0.9h-1c0,1.1,0.9,1.6,1.9,1.6c1,0,2.2-0.4,2.2-1.6c0-1.1-1-1.2-1.8-1.5
			c-0.4-0.1-1.2-0.1-1.2-0.7c0-0.6,0.4-0.8,0.9-0.8c0.5,0,1,0.2,1,0.8h1c0.1-1.1-1-1.5-1.9-1.5C499.4,26.8,498.4,27.3,498.4,28.3
			L498.4,28.3z M502.9,27v0.7l0.8,0v3.1c0,0.7,0.1,0.7,0.2,0.9c0.2,0.2,0.4,0.3,0.6,0.3c0.2,0,0.4,0,0.6,0c0.2,0,0.4,0,0.6-0.1v-0.7
			c-0.1,0-0.3,0.1-0.5,0.1c-0.3,0-0.6-0.2-0.6-0.5v-3.2l1.1,0V27l-1.1,0v-1.4l-0.9,0.3V27L502.9,27L502.9,27z M509.3,24.8l-0.8,1.4
			h0.6l1.2-1.4H509.3L509.3,24.8z M511.1,29.6v-0.5c0-1.4-0.7-2.3-2.2-2.3c-1.6,0-2.3,1.2-2.3,2.7c0,1.5,0.6,2.6,2.2,2.6
			c1.2,0,2.1-0.6,2.2-1.7h-1c-0.1,0.7-0.5,1-1.2,1c-1,0-1.3-0.9-1.2-1.8H511.1L511.1,29.6z M507.6,29c0-0.8,0.5-1.5,1.2-1.5
			c0.9,0,1.3,0.6,1.3,1.5H507.6L507.6,29z M513.5,29.5c0-1,0.2-1.7,1.4-1.7c0.1,0,0.3,0,0.4,0v-0.9c-0.1,0-0.2,0-0.3,0
			c-0.7,0-1.3,0.3-1.5,1h0v-1h-0.9v5h0.9V29.5L513.5,29.5z M517.3,31.9v-5h-0.9v5H517.3L517.3,31.9z M516.3,25.8h1.1v-1h-1.1V25.8
			L516.3,25.8z M521.2,26.8c-1.6,0-2.5,1.1-2.5,2.6c0,1.5,0.8,2.6,2.5,2.6c1.6,0,2.5-1.1,2.5-2.6C523.7,27.9,522.9,26.8,521.2,26.8
			L521.2,26.8z M519.7,29.5c0-1.1,0.4-1.9,1.5-1.9c1.1,0,1.5,0.9,1.5,1.9c0,1.1-0.4,1.9-1.5,1.9C520.1,31.4,519.7,30.5,519.7,29.5
			L519.7,29.5z M528.5,29.5c0-0.9,0.3-2,1.4-2c1.1,0,1.4,1.1,1.4,2c0,0.9-0.3,2-1.4,2C528.8,31.4,528.5,30.4,528.5,29.5L528.5,29.5z
			 M531.3,27.7L531.3,27.7c-0.3-0.6-0.9-0.8-1.6-0.8c-1.5,0-2.2,1.3-2.2,2.6c0,1.3,0.6,2.6,2.1,2.6c0.7,0,1.4-0.2,1.7-0.9h0v0l0,0.7
			h1c0-0.3,0-0.6,0-0.9v-6.3h-0.9V27.7L531.3,27.7z M536.8,29.5c0,0.9-0.2,1.9-1.3,1.9c-0.6,0-1-0.3-1-0.9c0-0.7,0.8-0.9,1.3-1
			H536.8L536.8,29.5z M536,28.9c-1.2,0-2.4,0.4-2.4,1.8c0,1,0.9,1.4,1.7,1.4c0.7,0,1.2-0.3,1.5-0.9h0c0,0.2,0,0.4,0.1,0.7
			c0,0.1,0.2,0.1,0.3,0.1h0.6c0-0.4,0-0.8,0-1v-2.4c0-1.4-1-1.7-2-1.7c-1,0-1.8,0.4-1.9,1.5h1c0-0.5,0.5-0.8,0.9-0.8
			c1,0,1,0.5,1,1.4H536L536,28.9z M541.8,29.9c0,1.6,1,2.2,2.5,2.2c1.4,0,2.9-0.6,2.9-2.2c0-1.8-1.8-1.8-3.1-2.2
			c-0.6-0.2-1.2-0.2-1.2-1.1c0-0.9,1-1.1,1.7-1.1c0.7,0,1.4,0.3,1.4,1.1h1c0-1.4-1.2-1.9-2.4-1.9c-1.3,0-2.7,0.6-2.7,2.1
			c0,1.6,2,1.9,3.1,2.1c0.6,0.1,1.2,0.4,1.2,1.1c0,1-1,1.2-1.8,1.2c-1,0-1.5-0.4-1.6-1.4H541.8L541.8,29.9z M551.6,29.5
			c0,0.9-0.2,1.9-1.3,1.9c-0.6,0-1-0.3-1-0.9c0-0.7,0.8-0.9,1.3-1H551.6L551.6,29.5z M550.8,28.9c-1.2,0-2.4,0.4-2.4,1.8
			c0,1,0.9,1.4,1.7,1.4c0.7,0,1.2-0.3,1.5-0.9h0c0,0.2,0,0.4,0.1,0.7c0,0.1,0.2,0.1,0.3,0.1h0.6c0-0.4,0-0.8,0-1v-2.4
			c0-1.4-1-1.7-2-1.7c-1,0-1.8,0.4-1.9,1.5h1c0-0.5,0.5-0.8,0.9-0.8c1,0,1,0.5,1,1.4H550.8L550.8,28.9z M556.8,24.8l-0.8,1.4h0.6
			l1.2-1.4H556.8L556.8,24.8z M557.6,29.5c0,0.1,0,0.7-0.2,1.2c-0.2,0.5-0.7,0.7-1.1,0.7c-0.9,0-1.1-0.6-1.1-1.5V27h-0.9v3.3
			c0,1,0.6,1.8,1.6,1.8c0.7,0,1.3-0.3,1.7-0.9h0v0.7h0.9v-5h-0.9V29.5L557.6,29.5z M560.9,29.5c0-0.9,0.3-2,1.4-2
			c1.1,0,1.4,1.1,1.4,2c0,0.9-0.3,2-1.4,2C561.3,31.4,560.9,30.4,560.9,29.5L560.9,29.5z M563.7,27.7L563.7,27.7
			c-0.3-0.6-0.9-0.8-1.6-0.8c-1.5,0-2.2,1.3-2.2,2.6c0,1.3,0.6,2.6,2.1,2.6c0.7,0,1.4-0.2,1.7-0.9h0v0l0,0.7h1
			c0-0.3-0.1-0.6-0.1-0.9v-6.3h-0.9V27.7L563.7,27.7z M570.4,29.6v-0.5c0-1.4-0.7-2.3-2.2-2.3c-1.6,0-2.3,1.2-2.3,2.7
			c0,1.5,0.6,2.6,2.2,2.6c1.2,0,2.1-0.6,2.2-1.7h-1c-0.1,0.7-0.5,1-1.2,1c-1,0-1.3-0.9-1.2-1.8H570.4L570.4,29.6z M566.9,29
			c0-0.8,0.5-1.5,1.2-1.5c0.9,0,1.3,0.6,1.3,1.5H566.9z"/>
		<path class="st42" d="M480,75h2.9v-1.4H480V72h3.1v-1.4h-5v7.1h2V75L480,75z M487.4,77.7h1.9c0-0.5-0.1-0.8-0.1-1.3v-3.7h-1.9v2.8
			c0,0.1,0.1,1.1-0.8,1.1c-0.6,0-0.7-0.5-0.7-1v-2.9H484v3.3c0,1.1,0.8,1.8,1.9,1.8c0.6,0,1.1-0.2,1.6-0.7L487.4,77.7L487.4,77.7z
			 M492.4,72.8h-1.9c0,0.5,0.1,0.8,0.1,1.3v3.7h1.9v-2.8c0-0.1-0.1-1.1,0.8-1.1c0.6,0,0.7,0.5,0.7,1v2.9h1.9v-3.3
			c0-1.1-0.8-1.8-1.9-1.8c-0.6,0-1.1,0.2-1.5,0.7L492.4,72.8L492.4,72.8z M500.7,77.7h1.8v-7.1h-1.9v2.8h0c-0.4-0.5-1-0.7-1.6-0.7
			c-1.5,0-2.1,1.3-2.1,2.6c0,1.2,0.7,2.6,2.1,2.6c0.7,0,1.4-0.3,1.6-0.9h0L500.7,77.7L500.7,77.7z M499.8,73.7
			c0.8,0,0.9,0.9,0.9,1.5c0,0.7-0.2,1.5-0.9,1.5c-0.8,0-0.9-0.9-0.9-1.5C498.8,74.6,498.9,73.7,499.8,73.7L499.8,73.7z M505.2,76.1
			c0-0.3,0.2-0.5,0.5-0.7c0.3-0.1,0.6-0.1,1-0.1c0,0.7-0.1,1.4-0.9,1.4C505.5,76.8,505.2,76.5,505.2,76.1L505.2,76.1z M508.6,77.7
			c-0.1-0.6-0.1-0.8-0.1-1v-2.5c0-1.1-1.2-1.5-2.2-1.5c-0.6,0-1.2,0.1-1.7,0.3c-0.5,0.2-0.9,0.6-0.9,1.3h1.8c0-0.3,0.1-0.7,0.6-0.8
			c0.7,0,0.7,0.6,0.7,1h-0.6c-1.6,0-2.7,0.5-2.7,1.7c0,1,0.6,1.7,1.8,1.7c0.9,0,1.4-0.5,1.6-0.8h0c0,0.4,0,0.5,0,0.7H508.6
			L508.6,77.7z M514.8,74.5c-0.1-1.4-1.3-1.9-2.5-1.9c-1.5,0-2.7,0.8-2.7,2.6c0,1.5,0.6,2.4,2,2.6l-0.6,0.8l0.3,0.2
			c0.2-0.1,0.3-0.1,0.5-0.1c0.2,0,0.5,0.2,0.5,0.4c0,0.2-0.4,0.3-0.7,0.3c-0.3,0-0.7-0.1-1-0.2l-0.2,0.5c0.4,0.1,0.7,0.2,1.1,0.2
			c0.5,0,0.9,0,1.3-0.2c0.3-0.1,0.5-0.3,0.5-0.7c0-0.6-0.5-0.8-1.1-0.8c-0.1,0-0.3,0-0.3,0l0.3-0.3h0c0.7,0,1.3-0.2,1.8-0.5
			c0.5-0.3,0.8-0.9,0.8-1.6h-1.9c0,0.4-0.1,0.9-0.7,1c-0.7,0-0.7-1-0.7-1.5c0-0.5,0-1.5,0.7-1.5c0.3,0,0.5,0.1,0.6,0.2
			c0.1,0.1,0.2,0.3,0.2,0.6H514.8L514.8,74.5z M516.8,72c0.1-0.2,0.2-0.4,0.4-0.4c0.2,0,0.5,0.1,0.8,0.2c0.3,0.1,0.7,0.2,1,0.2
			c0.4,0,0.7-0.2,0.9-0.5c0.2-0.3,0.4-0.6,0.4-0.9h-0.8c0,0.1-0.1,0.4-0.3,0.4c-0.2,0-0.5-0.1-0.8-0.2c-0.3-0.1-0.7-0.2-1-0.2
			c-0.4,0-0.7,0.2-1,0.4c-0.2,0.3-0.4,0.6-0.4,1H516.8L516.8,72z M517.3,76.1c0-0.3,0.2-0.5,0.5-0.7c0.3-0.1,0.6-0.1,1-0.1
			c0,0.7-0.1,1.4-0.9,1.4C517.6,76.8,517.3,76.5,517.3,76.1L517.3,76.1z M520.7,77.7c-0.1-0.6-0.1-0.8-0.1-1v-2.5
			c0-1.1-1.2-1.5-2.2-1.5c-0.6,0-1.2,0.1-1.7,0.3c-0.5,0.2-0.9,0.6-0.9,1.3h1.8c0-0.3,0.1-0.7,0.6-0.8c0.8,0,0.7,0.6,0.7,1h-0.6
			c-1.6,0-2.7,0.5-2.7,1.7c0,1,0.6,1.7,1.8,1.7c0.9,0,1.4-0.5,1.6-0.8h0c0,0.4,0,0.5,0,0.7H520.7L520.7,77.7z M523.5,75.2
			c0-0.7,0.2-1.5,1-1.5c0.8,0,1,0.8,1,1.5c0,0.7-0.2,1.5-1,1.5C523.7,76.8,523.5,75.9,523.5,75.2L523.5,75.2z M524.5,72.6
			c-1.5,0-2.9,0.8-2.9,2.6c0,1.8,1.3,2.6,2.9,2.6c1.5,0,2.9-0.8,2.9-2.6C527.4,73.4,526,72.6,524.5,72.6L524.5,72.6z M536.8,74.2
			c0,1.1-0.3,2.3-1.6,2.3c-1.3,0-1.6-1.2-1.6-2.3c0-1.1,0.3-2.4,1.6-2.4C536.5,71.8,536.8,73.1,536.8,74.2L536.8,74.2z M535.2,77.9
			c2.4,0,3.7-1.4,3.7-3.7c0-2.4-1.3-3.7-3.7-3.7c-2.4,0-3.7,1.4-3.7,3.7C531.5,76.5,532.8,77.9,535.2,77.9L535.2,77.9z M544.3,74.3
			c-0.1-1.4-1.2-1.7-2.3-1.7c-1,0-2.3,0.3-2.3,1.6c0,1.8,2.9,1.3,2.9,2.2c0,0.3-0.3,0.5-0.6,0.5c-0.2,0-0.3-0.1-0.4-0.2
			c-0.1-0.1-0.2-0.3-0.1-0.4h-1.8c0,1.5,1.2,1.8,2.4,1.8c1.1,0,2.4-0.3,2.4-1.7c0-0.8-0.4-1.2-1-1.4c-1.2-0.4-1.9-0.3-1.9-0.7
			c0-0.3,0.2-0.4,0.4-0.4c0.3,0,0.4,0.1,0.5,0.2c0.1,0.1,0.1,0.2,0.1,0.4H544.3L544.3,74.3z M548.5,77.7l1-3.5h0l0.9,3.5h2.1l1.6-5
			h-1.7l-0.9,3.5h0l-0.9-3.5h-2.1l-0.9,3.5h0l-0.8-3.5h-1.9l1.5,5H548.5L548.5,77.7z M556.2,76.1c0-0.3,0.2-0.5,0.5-0.7
			c0.3-0.1,0.6-0.1,1-0.1c0,0.7-0.1,1.4-0.9,1.4C556.5,76.8,556.2,76.5,556.2,76.1L556.2,76.1z M559.6,77.7c-0.1-0.6-0.1-0.8-0.1-1
			v-2.5c0-1.1-1.2-1.5-2.2-1.5c-0.6,0-1.2,0.1-1.7,0.3c-0.5,0.2-0.9,0.6-0.9,1.3h1.8c0-0.3,0.1-0.7,0.6-0.8c0.8,0,0.7,0.6,0.7,1
			h-0.6c-1.6,0-2.7,0.5-2.7,1.7c0,1,0.6,1.7,1.8,1.7c0.9,0,1.4-0.5,1.6-0.8h0c0,0.4,0,0.5,0,0.7H559.6L559.6,77.7z M562.7,77.7v-7.1
			h-1.9v7.1H562.7L562.7,77.7z M567.6,77.7h1.8v-7.1h-1.9v2.8h0c-0.4-0.5-1-0.7-1.6-0.7c-1.5,0-2.1,1.3-2.1,2.6
			c0,1.2,0.7,2.6,2.1,2.6c0.7,0,1.4-0.3,1.7-0.9h0L567.6,77.7L567.6,77.7z M566.7,73.7c0.8,0,0.9,0.9,0.9,1.5c0,0.7-0.1,1.5-0.9,1.5
			c-0.8,0-0.9-0.9-0.9-1.5C565.8,74.6,565.9,73.7,566.7,73.7L566.7,73.7z M572.4,75.2c0-0.7,0.2-1.5,1-1.5c0.8,0,1,0.8,1,1.5
			c0,0.7-0.2,1.5-1,1.5C572.5,76.8,572.4,75.9,572.4,75.2L572.4,75.2z M573.3,72.6c-1.6,0-2.9,0.8-2.9,2.6c0,1.8,1.3,2.6,2.9,2.6
			c1.6,0,2.9-0.8,2.9-2.6C576.2,73.4,574.9,72.6,573.3,72.6L573.3,72.6z M587.2,72.8c0-1.8-1.7-2.4-3.4-2.4c-2.2,0-3.4,1.3-3.4,3.7
			c0,2.4,1.2,3.7,3.4,3.7c1.7,0,3.4-0.6,3.4-2.4h-2.1c0,0.7-0.5,1-1.3,1c-1.1,0-1.3-1.2-1.3-2.3c0-1.1,0.2-2.4,1.3-2.4
			c0.8,0,1.3,0.4,1.3,1H587.2L587.2,72.8z M590.1,72.8h-1.9c0.1,0.5,0.1,0.8,0.1,1.3v3.7h1.9v-2c0-0.9,0.3-1.5,1.3-1.5
			c0.1,0,0.3,0,0.4,0v-1.6c-0.8,0-1.4,0.3-1.7,1.1h0L590.1,72.8L590.1,72.8z M596,77.7h1.9c-0.1-0.5-0.1-0.8-0.1-1.3v-3.7H596v2.8
			c0,0.1,0.1,1.1-0.8,1.1c-0.6,0-0.7-0.5-0.7-1v-2.9h-1.9v3.3c0,1.1,0.8,1.8,1.9,1.8c0.6,0,1.1-0.2,1.5-0.7L596,77.7L596,77.7z
			 M601.6,73.9l-2.6,2.6v1.2h4.6v-1.2h-2.7l2.6-2.6v-1.2h-4.4v1.2H601.6z"/>
		<path class="st42" d="M463.8,43.6v-11h-1l0-0.8c0.4-0.7,0.7-1.7,0.7-2.6c0-2.2-1.7-4.1-3.8-4.5l0-0.4c0.2-0.2,0.3-0.4,0.3-0.7
			c0-0.3-0.2-0.6-0.4-0.8l-0.3-3.1c0,0,0-0.1,0-0.1c0-0.2-0.2-0.3-0.3-0.3c-0.2,0-0.3,0.2-0.3,0.3c0,0,0,0,0,0.1h0l-0.3,3.1
			c-0.3,0.2-0.4,0.5-0.4,0.8c0,0.3,0.1,0.5,0.3,0.7l0,0.4c-2,0.4-3.7,2.3-3.7,4.4c0,0.9,0.4,1.9,0.7,2.6v0.8h-1v11h-2.8v-7.8
			l0.9-0.9v0v-1.3l-0.9-0.5l0-0.1l-0.5-0.9h-1.3l0,0l-0.7,0.7c0,0,0,0,0,0l0,0.1l-0.1,0.1h0l0,0h-5l-0.9-0.9h0h-1.3l-0.9,0.9h-2.1
			l-0.9-0.9h0h-1.3l-0.9,0.9h-4.8l-0.1-0.1l-0.9-0.9h0h-1.3l-0.3,0.5l0,0l-0.2,0.5l-0.3,0.2v0l-0.6,0.3v1.3l0,0l0.9,0.9v7.8H425
			v-9.4v0v-1.6v-0.1H424l0-0.7c0.4-0.7,0.7-1.7,0.7-2.6c0-2.2-1.6-4.1-3.7-4.4l0-0.4c0.2-0.2,0.3-0.4,0.3-0.7c0-0.3-0.2-0.6-0.4-0.8
			l-0.3-3.1h0c0,0,0,0,0-0.1c0-0.2-0.2-0.3-0.3-0.3c-0.2,0-0.3,0.2-0.3,0.3c0,0.1,0,0.1,0,0.1l-0.3,3c-0.3,0.2-0.4,0.5-0.4,0.8
			c0,0.3,0.1,0.5,0.3,0.7l0,0.4c-2.1,0.4-3.7,2.3-3.7,4.5c0,0.9,0.4,1.9,0.7,2.6v0.7h-0.9v0.1l0,0v11h-2.8v1.7h0h0.1l1.1,0.9v9.3
			h-0.6h-0.5v1.6l0,0l1.1,1v6.4h-0.6h-0.5v1.6l0,0l1.1,1V73h0l-1.1,0.9v2.5h-0.1v1.7h0h53.6v-1.7h0v-2.5l-1.1-0.9v-0.1h0v0v-5.8
			l1.1-1v0v-1.6h-0.5h-0.6v-6.4l1.1-1v0v-1.6h-0.5h-0.6v-9.3l1-0.9h0.1v0v-1.7H463.8z M463.6,73L463.6,73L463.6,73l1.1,2l0,1.4
			h-50.2V75l1.1-2l0,0l0,0h0h0V45.4h0h0.5h1.2V34.3h1v0h0v-1.7h0l0-1.5l0,0c-0.5-0.6-0.8-1.2-0.8-1.9c0-1.5,1.3-2.7,2.8-2.7
			c1.5,0,2.8,1.2,2.8,2.7c0,0.7-0.2,1.4-0.7,1.8l0,0v0l0,1.6h0v1l0,0.7h1v11.1h0.1l0,0h0h4.7v0h1.7v0h0v-1.7h0v-8l-0.3-0.7h0h0
			l-0.1-0.2l1.3,0.2h18.3l0,0l0,0l0.8-0.1l0.3,0L450,35h0l-0.3,0.6l0,9.7h1.7v0h3.4l0,0h1.1V34.3h1l0-3.2l0,0
			c-0.5-0.6-0.8-1.2-0.8-1.9c0-1.5,1.3-2.7,2.8-2.7c1.5,0,2.8,1.2,2.8,2.7c0,0.7-0.2,1.4-0.7,1.8l0,0v0v3.3h1v11.1h1.5L463.6,73
			L463.6,73L463.6,73z"/>
	</g>
	<g>
		<path class="st42" d="M481.1,109h-2.5v2.3h2.7v0.7h-3.6v-6.3h3.4v0.7h-2.6v2h2.5V109z"/>
		<path class="st42" d="M482.3,111.2c0.2,0.2,0.7,0.3,1.1,0.3c0.6,0,0.9-0.3,0.9-0.7c0-0.4-0.2-0.6-0.8-0.8
			c-0.8-0.3-1.2-0.7-1.2-1.3c0-0.7,0.6-1.3,1.6-1.3c0.5,0,0.9,0.1,1.1,0.3l-0.2,0.6c-0.2-0.1-0.5-0.3-0.9-0.3
			c-0.5,0-0.8,0.3-0.8,0.6c0,0.4,0.3,0.5,0.9,0.8c0.8,0.3,1.2,0.7,1.2,1.4c0,0.8-0.6,1.4-1.7,1.4c-0.5,0-1-0.1-1.3-0.3L482.3,111.2z
			"/>
		<path class="st42" d="M489.4,111.8c-0.2,0.1-0.7,0.3-1.3,0.3c-1.4,0-2.3-0.9-2.3-2.3c0-1.4,1-2.4,2.4-2.4c0.5,0,0.9,0.1,1.1,0.2
			l-0.2,0.6c-0.2-0.1-0.5-0.2-1-0.2c-1,0-1.6,0.8-1.6,1.7c0,1.1,0.7,1.7,1.6,1.7c0.5,0,0.8-0.1,1-0.2L489.4,111.8z"/>
		<path class="st42" d="M494.4,109.7c0,1.7-1.2,2.4-2.3,2.4c-1.2,0-2.2-0.9-2.2-2.3c0-1.5,1-2.4,2.3-2.4
			C493.5,107.4,494.4,108.3,494.4,109.7z M490.8,109.8c0,1,0.6,1.8,1.4,1.8c0.8,0,1.4-0.7,1.4-1.8c0-0.8-0.4-1.8-1.4-1.8
			C491.2,108,490.8,108.9,490.8,109.8z"/>
		<path class="st42" d="M495.4,105.3h0.8v6.7h-0.8V105.3z"/>
		<path class="st42" d="M500.2,112l-0.1-0.6h0c-0.3,0.4-0.7,0.7-1.4,0.7c-0.9,0-1.4-0.6-1.4-1.3c0-1.1,1-1.7,2.7-1.7V109
			c0-0.4-0.1-1.1-1-1.1c-0.4,0-0.9,0.1-1.2,0.3l-0.2-0.5c0.4-0.2,0.9-0.4,1.5-0.4c1.4,0,1.7,1,1.7,1.9v1.7c0,0.4,0,0.8,0.1,1.1
			H500.2z M500.1,109.7c-0.9,0-1.9,0.1-1.9,1c0,0.5,0.4,0.8,0.8,0.8c0.6,0,1-0.4,1.1-0.8c0-0.1,0-0.2,0-0.3V109.7z"/>
		<path class="st42" d="M508.1,105.3v5.5c0,0.4,0,0.9,0,1.2h-0.7l0-0.8h0c-0.3,0.5-0.8,0.9-1.6,0.9c-1.1,0-1.9-0.9-1.9-2.3
			c0-1.5,0.9-2.4,2-2.4c0.7,0,1.2,0.3,1.4,0.7h0v-2.7H508.1z M507.3,109.3c0-0.1,0-0.2,0-0.3c-0.1-0.5-0.6-1-1.2-1
			c-0.9,0-1.4,0.8-1.4,1.8c0,0.9,0.5,1.7,1.3,1.7c0.6,0,1.1-0.4,1.2-1c0-0.1,0-0.2,0-0.4V109.3z"/>
		<path class="st42" d="M510,109.9c0,1.1,0.7,1.6,1.6,1.6c0.6,0,1-0.1,1.3-0.2l0.1,0.6c-0.3,0.1-0.8,0.3-1.5,0.3
			c-1.4,0-2.2-0.9-2.2-2.3c0-1.4,0.8-2.5,2.1-2.5c1.5,0,1.9,1.3,1.9,2.1c0,0.2,0,0.3,0,0.4H510z M512.4,109.3c0-0.5-0.2-1.3-1.1-1.3
			c-0.8,0-1.2,0.8-1.3,1.3H512.4z"/>
		<path class="st42" d="M521.1,111.7c-0.4,0.1-1.1,0.3-1.9,0.3c-1,0-1.8-0.2-2.4-0.8c-0.5-0.5-0.9-1.4-0.9-2.4
			c0-1.9,1.3-3.3,3.4-3.3c0.7,0,1.3,0.2,1.6,0.3l-0.2,0.7c-0.3-0.2-0.8-0.3-1.4-0.3c-1.5,0-2.6,1-2.6,2.6c0,1.6,1,2.6,2.4,2.6
			c0.5,0,0.9-0.1,1.1-0.2v-1.9H519v-0.7h2.1V111.7z"/>
		<path class="st42" d="M526.5,109.7c0,1.7-1.2,2.4-2.3,2.4c-1.2,0-2.2-0.9-2.2-2.3c0-1.5,1-2.4,2.3-2.4
			C525.6,107.4,526.5,108.3,526.5,109.7z M522.8,109.8c0,1,0.6,1.8,1.4,1.8c0.8,0,1.4-0.7,1.4-1.8c0-0.8-0.4-1.8-1.4-1.8
			C523.3,108,522.8,108.9,522.8,109.8z"/>
		<path class="st42" d="M527.8,107.5l0.9,2.6c0.2,0.4,0.3,0.8,0.4,1.2h0c0.1-0.4,0.2-0.8,0.4-1.2l0.9-2.6h0.9l-1.8,4.6h-0.8
			l-1.7-4.6H527.8z"/>
		<path class="st42" d="M532.3,109.9c0,1.1,0.7,1.6,1.6,1.6c0.6,0,1-0.1,1.3-0.2l0.1,0.6c-0.3,0.1-0.8,0.3-1.5,0.3
			c-1.4,0-2.2-0.9-2.2-2.3c0-1.4,0.8-2.5,2.1-2.5c1.5,0,1.9,1.3,1.9,2.1c0,0.2,0,0.3,0,0.4H532.3z M534.8,109.3
			c0-0.5-0.2-1.3-1.1-1.3c-0.8,0-1.2,0.8-1.3,1.3H534.8z"/>
		<path class="st42" d="M536.6,108.9c0-0.5,0-1,0-1.4h0.7l0,0.9h0c0.2-0.6,0.7-1,1.3-1c0.1,0,0.2,0,0.2,0v0.8c-0.1,0-0.2,0-0.3,0
			c-0.6,0-1,0.4-1.1,1.1c0,0.1,0,0.2,0,0.4v2.4h-0.8V108.9z"/>
		<path class="st42" d="M539.7,108.7c0-0.5,0-0.9,0-1.2h0.7l0,0.8h0c0.2-0.4,0.8-0.9,1.5-0.9c0.6,0,1.6,0.4,1.6,1.9v2.7h-0.8v-2.6
			c0-0.7-0.3-1.3-1.1-1.3c-0.5,0-1,0.4-1.1,0.8c0,0.1-0.1,0.2-0.1,0.4v2.7h-0.8V108.7z"/>
		<path class="st42" d="M549.1,109.7c0,1.7-1.2,2.4-2.3,2.4c-1.2,0-2.2-0.9-2.2-2.3c0-1.5,1-2.4,2.3-2.4
			C548.2,107.4,549.1,108.3,549.1,109.7z M545.4,109.8c0,1,0.6,1.8,1.4,1.8c0.8,0,1.4-0.7,1.4-1.8c0-0.8-0.4-1.8-1.4-1.8
			C545.9,108,545.4,108.9,545.4,109.8z"/>
		<path class="st42" d="M552.1,105.7h3.4v0.7h-2.6v2.1h2.4v0.7h-2.4v2.9h-0.8V105.7z"/>
		<path class="st42" d="M557.4,106.2c0,0.3-0.2,0.5-0.5,0.5c-0.3,0-0.5-0.2-0.5-0.5c0-0.3,0.2-0.5,0.5-0.5
			C557.2,105.7,557.4,105.9,557.4,106.2z M556.4,112v-4.6h0.8v4.6H556.4z"/>
		<path class="st42" d="M562.8,109.7c0,1.7-1.2,2.4-2.3,2.4c-1.2,0-2.2-0.9-2.2-2.3c0-1.5,1-2.4,2.3-2.4
			C561.9,107.4,562.8,108.3,562.8,109.7z M559.2,109.8c0,1,0.6,1.8,1.4,1.8c0.8,0,1.4-0.7,1.4-1.8c0-0.8-0.4-1.8-1.4-1.8
			C559.6,108,559.2,108.9,559.2,109.8z"/>
		<path class="st42" d="M567.1,111.8c-0.2,0.1-0.7,0.3-1.3,0.3c-1.4,0-2.3-0.9-2.3-2.3c0-1.4,1-2.4,2.4-2.4c0.5,0,0.9,0.1,1.1,0.2
			l-0.2,0.6c-0.2-0.1-0.5-0.2-1-0.2c-1,0-1.6,0.8-1.6,1.7c0,1.1,0.7,1.7,1.6,1.7c0.5,0,0.8-0.1,1-0.2L567.1,111.8z"/>
		<path class="st42" d="M568,108.9c0-0.5,0-1,0-1.4h0.7l0,0.9h0c0.2-0.6,0.7-1,1.3-1c0.1,0,0.2,0,0.2,0v0.8c-0.1,0-0.2,0-0.3,0
			c-0.6,0-1,0.4-1.1,1.1c0,0.1,0,0.2,0,0.4v2.4H568V108.9z"/>
		<path class="st42" d="M574.9,110.8c0,0.5,0,0.9,0,1.2h-0.7l0-0.7h0c-0.2,0.4-0.7,0.8-1.5,0.8c-0.7,0-1.6-0.4-1.6-2v-2.7h0.8v2.5
			c0,0.9,0.3,1.4,1,1.4c0.6,0,0.9-0.4,1.1-0.8c0-0.1,0.1-0.3,0.1-0.4v-2.8h0.8V110.8z"/>
		<path class="st42" d="M575.8,111.5l2.1-2.7c0.2-0.2,0.4-0.5,0.6-0.7v0H576v-0.7h3.5l0,0.5l-2,2.6c-0.2,0.3-0.4,0.5-0.6,0.7v0h2.7
			v0.7h-3.7V111.5z"/>
		<path class="st42" d="M582.3,105.8c0.4-0.1,0.9-0.1,1.5-0.1c0.8,0,1.3,0.1,1.7,0.5c0.3,0.2,0.5,0.6,0.5,1.1c0,0.6-0.4,1.1-1.1,1.4
			v0c0.6,0.2,1.3,0.6,1.3,1.6c0,0.5-0.2,1-0.5,1.3c-0.4,0.4-1.2,0.6-2.2,0.6c-0.6,0-1,0-1.3-0.1V105.8z M583.2,108.4h0.7
			c0.9,0,1.4-0.5,1.4-1.1c0-0.7-0.6-1-1.4-1c-0.4,0-0.6,0-0.7,0.1V108.4z M583.2,111.4c0.2,0,0.4,0,0.7,0c0.8,0,1.6-0.3,1.6-1.2
			c0-0.9-0.7-1.2-1.6-1.2h-0.7V111.4z"/>
		<path class="st42" d="M587.4,108.9c0-0.5,0-1,0-1.4h0.7l0,0.9h0c0.2-0.6,0.7-1,1.3-1c0.1,0,0.2,0,0.2,0v0.8c-0.1,0-0.2,0-0.3,0
			c-0.6,0-1,0.4-1.1,1.1c0,0.1,0,0.2,0,0.4v2.4h-0.8V108.9z"/>
		<path class="st42" d="M593,112l-0.1-0.6h0c-0.3,0.4-0.7,0.7-1.4,0.7c-0.9,0-1.4-0.6-1.4-1.3c0-1.1,1-1.7,2.7-1.7V109
			c0-0.4-0.1-1.1-1-1.1c-0.4,0-0.9,0.1-1.2,0.3l-0.2-0.5c0.4-0.2,0.9-0.4,1.5-0.4c1.4,0,1.7,1,1.7,1.9v1.7c0,0.4,0,0.8,0.1,1.1H593z
			 M592.9,109.7c-0.9,0-1.9,0.1-1.9,1c0,0.5,0.4,0.8,0.8,0.8c0.6,0,1-0.4,1.1-0.8c0-0.1,0-0.2,0-0.3V109.7z"/>
		<path class="st42" d="M594.9,111.2c0.2,0.2,0.7,0.3,1.1,0.3c0.6,0,0.9-0.3,0.9-0.7c0-0.4-0.2-0.6-0.8-0.8
			c-0.8-0.3-1.2-0.7-1.2-1.3c0-0.7,0.6-1.3,1.6-1.3c0.5,0,0.9,0.1,1.1,0.3l-0.2,0.6c-0.2-0.1-0.5-0.3-0.9-0.3
			c-0.5,0-0.8,0.3-0.8,0.6c0,0.4,0.3,0.5,0.9,0.8c0.8,0.3,1.2,0.7,1.2,1.4c0,0.8-0.6,1.4-1.7,1.4c-0.5,0-1-0.1-1.3-0.3L594.9,111.2z
			"/>
		<path class="st42" d="M600.4,105.5l-1.1,1.3h-0.6l0.8-1.3H600.4z M598.7,112v-4.6h0.8v4.6H598.7z"/>
		<path class="st42" d="M600.9,105.3h0.8v6.7h-0.8V105.3z"/>
		<path class="st42" d="M604.1,106.2c0,0.3-0.2,0.5-0.5,0.5c-0.3,0-0.5-0.2-0.5-0.5c0-0.3,0.2-0.5,0.5-0.5
			C603.9,105.7,604.1,105.9,604.1,106.2z M603.1,112v-4.6h0.8v4.6H603.1z"/>
		<path class="st42" d="M607.9,112l-0.1-0.6h0c-0.3,0.4-0.7,0.7-1.4,0.7c-0.9,0-1.4-0.6-1.4-1.3c0-1.1,1-1.7,2.7-1.7V109
			c0-0.4-0.1-1.1-1-1.1c-0.4,0-0.9,0.1-1.2,0.3l-0.2-0.5c0.4-0.2,0.9-0.4,1.5-0.4c1.4,0,1.7,1,1.7,1.9v1.7c0,0.4,0,0.8,0.1,1.1
			H607.9z M607.8,109.7c-0.9,0-1.9,0.1-1.9,1c0,0.5,0.4,0.8,0.8,0.8c0.6,0,1-0.4,1.1-0.8c0-0.1,0-0.2,0-0.3V109.7z"/>
	</g>
</g>
</svg>
