<?xml version="1.0" encoding="utf-8"?>
<!-- Generator: Adobe Illustrator 27.1.1, SVG Export Plug-In . SVG Version: 6.00 Build 0)  -->
<svg version="1.1" id="Layer_1" xmlns="http://www.w3.org/2000/svg" xmlns:xlink="http://www.w3.org/1999/xlink" x="0px" y="0px"
	 viewBox="0 0 423 524.1" style="enable-background:new 0 0 423 524.1;" xml:space="preserve">
<style type="text/css">
	.st0{opacity:0.15;fill:#55BECB;enable-background:new    ;}
	.st1{opacity:0.15;}
	.st2{fill:url(#SVGID_1_);}
	.st3{fill:url(#SVGID_00000036941837065787851850000002575656949266711470_);}
	.st4{fill:url(#SVGID_00000016076550068429408860000008551281178401098686_);}
	.st5{fill:url(#SVGID_00000181780478699657982260000016956690579143781044_);}
	.st6{fill:url(#SVGID_00000147191099109845795000000015496544175874625172_);}
	.st7{fill:url(#SVGID_00000047782608571369371020000010671533517028318080_);}
	.st8{fill:url(#SVGID_00000096765377628909424870000018236169031582838971_);}
	.st9{fill:url(#SVGID_00000034050422878633628590000006357900975540303264_);}
	.st10{fill:url(#SVGID_00000015350764493696007540000016505992140031190430_);}
	.st11{fill:url(#SVGID_00000104677943952285043450000003976126965916245409_);}
	.st12{fill:url(#SVGID_00000165913192835765398340000014724387297863278504_);}
	.st13{fill:url(#SVGID_00000054948345529541990700000013859309072144699019_);}
	.st14{opacity:0.2;}
	.st15{fill:url(#SVGID_00000147912537027905511390000003478846577975495614_);}
	.st16{fill:url(#SVGID_00000044892584134903680430000006392455434640543876_);}
	.st17{fill:url(#SVGID_00000097478674868466232070000009604062080117089674_);}
	.st18{fill:url(#SVGID_00000116234821049643475230000004999329607026078106_);}
</style>
<polygon class="st0" points="117.6,0.6 117.6,523.3 250.8,457.3 250.8,0.6 "/>
<polygon class="st0" points="198.6,0.6 198.6,447.2 312.3,390.9 312.3,0.6 "/>
<polygon class="st0" points="66.5,0.6 66.5,292.1 173.5,239.1 173.5,0.6 "/>
<polygon class="st0" points="93.9,0.6 93.9,186.2 141.2,162.8 141.2,0.6 "/>
<polygon class="st0" points="163.6,0.6 163.6,93.1 187.3,81.4 187.3,0.6 "/>
<polygon class="st0" points="297.6,0.6 297.6,261.3 389.2,215.9 389.2,0.6 "/>
<g class="st1">
	
		<linearGradient id="SVGID_1_" gradientUnits="userSpaceOnUse" x1="1381.076" y1="4653.0889" x2="1743.623" y2="4653.0889" gradientTransform="matrix(6.123234e-17 1 1 -6.123234e-17 -4498.7749 -1355.269)">
		<stop  offset="0" style="stop-color:#00EDFF"/>
		<stop  offset="5.000000e-03" style="stop-color:#89E6FC"/>
		<stop  offset="0.19" style="stop-color:#73D3E6"/>
		<stop  offset="0.739" style="stop-color:#369FAA"/>
		<stop  offset="1" style="stop-color:#1F8B93"/>
	</linearGradient>
	<path class="st2" d="M156.9,379.9c1,0,2,0.4,2.7,1l39.4-39.4V255l-87.9-87.9V34.2c-1.9-0.4-3.4-2.1-3.4-4.2c0-2.3,1.9-4.2,4.2-4.2
		s4.2,1.9,4.2,4.2c0,2-1.4,3.7-3.3,4.1v132.2l87.9,87.9v88l-40.1,40.1c0.3,0.5,0.4,1.1,0.4,1.8c0,2.3-1.9,4.2-4.2,4.2
		s-4.2-1.9-4.2-4.2S154.6,379.9,156.9,379.9L156.9,379.9z"/>
	
		<linearGradient id="SVGID_00000052802123453488334630000001451700185983973548_" gradientUnits="userSpaceOnUse" x1="1381.076" y1="4638.3745" x2="1744.076" y2="4638.3745" gradientTransform="matrix(6.123234e-17 1 1 -6.123234e-17 -4498.7749 -1355.269)">
		<stop  offset="0" style="stop-color:#00EDFF"/>
		<stop  offset="5.000000e-03" style="stop-color:#89E6FC"/>
		<stop  offset="0.19" style="stop-color:#73D3E6"/>
		<stop  offset="0.739" style="stop-color:#369FAA"/>
		<stop  offset="1" style="stop-color:#1F8B93"/>
	</linearGradient>
	<path style="fill:url(#SVGID_00000052802123453488334630000001451700185983973548_);" d="M147.1,384.6c0-0.9-0.3-1.7-0.7-2.4l40-40
		v-88l-87.9-87.9V34.1c1.7-0.6,2.9-2.1,2.9-4c0-2.3-1.9-4.2-4.2-4.2s-4.2,1.9-4.2,4.2c0,2.2,1.6,3.9,3.7,4.2v132.8l87.9,87.9v86.5
		L145,380.9c-0.6-0.4-1.4-0.6-2.2-0.6c-2.3,0-4.2,1.9-4.2,4.2s1.9,4.2,4.2,4.2S147.1,386.9,147.1,384.6L147.1,384.6z"/>
	
		<linearGradient id="SVGID_00000014621449085228509970000003526520088781287083_" gradientUnits="userSpaceOnUse" x1="1381.076" y1="4623.9727" x2="1743.963" y2="4623.9727" gradientTransform="matrix(6.123234e-17 1 1 -6.123234e-17 -4498.7749 -1355.269)">
		<stop  offset="0" style="stop-color:#00EDFF"/>
		<stop  offset="5.000000e-03" style="stop-color:#89E6FC"/>
		<stop  offset="0.19" style="stop-color:#73D3E6"/>
		<stop  offset="0.739" style="stop-color:#369FAA"/>
		<stop  offset="1" style="stop-color:#1F8B93"/>
	</linearGradient>
	<path style="fill:url(#SVGID_00000014621449085228509970000003526520088781287083_);" d="M132.6,384.5c0-0.9-0.3-1.7-0.7-2.4
		l39.9-39.9v-88l-87.9-87.9V34.1c1.8-0.5,3.2-2.1,3.2-4.1c0-2.3-1.9-4.2-4.2-4.2s-4.2,1.9-4.2,4.2c0,2.1,1.5,3.8,3.5,4.2v132.9
		L170,255v86.5l-39.4,39.4c-0.6-0.4-1.4-0.6-2.2-0.6c-2.3,0-4.2,1.9-4.2,4.2s1.9,4.2,4.2,4.2C130.8,388.7,132.6,386.8,132.6,384.5
		L132.6,384.5z"/>
	
		<linearGradient id="SVGID_00000173144627917771319130000003777900166457447869_" gradientUnits="userSpaceOnUse" x1="1381.077" y1="4609.3999" x2="1743.7351" y2="4609.3999" gradientTransform="matrix(6.123234e-17 1 1 -6.123234e-17 -4498.7749 -1355.269)">
		<stop  offset="0" style="stop-color:#00EDFF"/>
		<stop  offset="5.000000e-03" style="stop-color:#89E6FC"/>
		<stop  offset="0.19" style="stop-color:#73D3E6"/>
		<stop  offset="0.739" style="stop-color:#369FAA"/>
		<stop  offset="1" style="stop-color:#1F8B93"/>
	</linearGradient>
	<path style="fill:url(#SVGID_00000173144627917771319130000003777900166457447869_);" d="M109.7,384.2c0,2.3,1.9,4.2,4.2,4.2
		s4.2-1.9,4.2-4.2c0-0.9-0.3-1.6-0.7-2.3l39.7-39.7v-88l-87.9-87.9V34.1c1.8-0.5,3.1-2.1,3.1-4.1c0-2.3-1.9-4.2-4.2-4.2
		S64,27.7,64,30.1c0,2.1,1.5,3.8,3.5,4.2v132.9l87.9,87.9v86.5l-39.2,39.2c-0.7-0.4-1.4-0.7-2.3-0.7
		C111.6,380,109.7,381.9,109.7,384.2z"/>
	
		<linearGradient id="SVGID_00000178920864348029366690000016176867386194022817_" gradientUnits="userSpaceOnUse" x1="1381.077" y1="4594.771" x2="1743.8491" y2="4594.771" gradientTransform="matrix(6.123234e-17 1 1 -6.123234e-17 -4498.7749 -1355.269)">
		<stop  offset="0" style="stop-color:#00EDFF"/>
		<stop  offset="5.000000e-03" style="stop-color:#89E6FC"/>
		<stop  offset="0.19" style="stop-color:#73D3E6"/>
		<stop  offset="0.739" style="stop-color:#369FAA"/>
		<stop  offset="1" style="stop-color:#1F8B93"/>
	</linearGradient>
	<path style="fill:url(#SVGID_00000178920864348029366690000016176867386194022817_);" d="M95.3,384.3c0,2.3,1.9,4.2,4.2,4.2
		s4.2-1.9,4.2-4.2c0-0.9-0.3-1.8-0.8-2.4l39.7-39.7v-88l-87.9-87.9V34.1c1.7-0.5,3-2.1,3-4c0-2.3-1.9-4.2-4.2-4.2s-4.2,1.9-4.2,4.2
		c0,2.2,1.6,3.9,3.7,4.2v132.8l87.9,87.9v86.5l-39.2,39.2c-0.6-0.4-1.3-0.6-2.1-0.6C97.2,380.1,95.3,382,95.3,384.3L95.3,384.3z"/>
	
		<linearGradient id="SVGID_00000146467390206966135560000012488480575112551829_" gradientUnits="userSpaceOnUse" x1="1381.076" y1="4580.1689" x2="1743.8491" y2="4580.1689" gradientTransform="matrix(6.123234e-17 1 1 -6.123234e-17 -4498.7749 -1355.269)">
		<stop  offset="0" style="stop-color:#00EDFF"/>
		<stop  offset="5.000000e-03" style="stop-color:#89E6FC"/>
		<stop  offset="0.19" style="stop-color:#73D3E6"/>
		<stop  offset="0.739" style="stop-color:#369FAA"/>
		<stop  offset="1" style="stop-color:#1F8B93"/>
	</linearGradient>
	<path style="fill:url(#SVGID_00000146467390206966135560000012488480575112551829_);" d="M126.3,255v86.5L87,380.8
		c-0.7-0.4-1.5-0.7-2.3-0.7c-2.3,0-4.2,1.9-4.2,4.2s1.9,4.2,4.2,4.2s4.2-1.9,4.2-4.2c0-0.8-0.2-1.6-0.6-2.2l39.9-39.9v-88
		l-87.9-87.9V34c1.7-0.6,2.9-2.1,2.9-4c0-2.3-1.9-4.2-4.2-4.2s-4.2,1.9-4.2,4.2c0,2.2,1.7,4,3.8,4.2v132.8L126.3,255z"/>
</g>
<g class="st1">
	
		<linearGradient id="SVGID_00000060740862229495397080000010866797290910706057_" gradientUnits="userSpaceOnUse" x1="1585.0751" y1="3129.5305" x2="2166.4612" y2="3129.5305" gradientTransform="matrix(6.123234e-17 -1 -1 -6.123234e-17 3342.2839 2082.9971)">
		<stop  offset="5.000000e-03" style="stop-color:#55CB9C"/>
		<stop  offset="0.627" style="stop-color:#559BBB"/>
		<stop  offset="1" style="stop-color:#5584CB"/>
	</linearGradient>
	<path style="fill:url(#SVGID_00000060740862229495397080000010866797290910706057_);" d="M281.9,484.5V271.4L141,130.5V0.6h-2.9
		v131L279,272.6v211.9c-3,0.7-5.2,3.4-5.2,6.6c0,3.8,3,6.8,6.8,6.8s6.8-3,6.8-6.8C287.4,487.8,285.1,485.1,281.9,484.5z"/>
	
		<linearGradient id="SVGID_00000021086037945038814860000012461199236838260892_" gradientUnits="userSpaceOnUse" x1="1585.0762" y1="3105.9324" x2="2167.1912" y2="3105.9324" gradientTransform="matrix(6.123234e-17 -1 -1 -6.123234e-17 3342.2839 2082.9971)">
		<stop  offset="5.000000e-03" style="stop-color:#55CB9C"/>
		<stop  offset="0.627" style="stop-color:#559BBB"/>
		<stop  offset="1" style="stop-color:#5584CB"/>
	</linearGradient>
	<path style="fill:url(#SVGID_00000021086037945038814860000012461199236838260892_);" d="M305.3,484.4v-213L164.3,130.5V0.6h-2.9
		v131l140.9,140.9v212.1c-2.7,0.9-4.7,3.4-4.7,6.4c0,3.8,3,6.8,6.8,6.8s6.8-3,6.8-6.8C311.3,487.6,308.6,484.8,305.3,484.4z"/>
	
		<linearGradient id="SVGID_00000176731387300728469090000000256617668155124654_" gradientUnits="userSpaceOnUse" x1="1585.0751" y1="3082.8359" x2="2167.009" y2="3082.8359" gradientTransform="matrix(6.123234e-17 -1 -1 -6.123234e-17 3342.2839 2082.9971)">
		<stop  offset="5.000000e-03" style="stop-color:#55CB9C"/>
		<stop  offset="0.627" style="stop-color:#559BBB"/>
		<stop  offset="1" style="stop-color:#5584CB"/>
	</linearGradient>
	<path style="fill:url(#SVGID_00000176731387300728469090000000256617668155124654_);" d="M328.6,484.4V271.4L187.7,130.5V0.6h-2.9
		v131l140.9,140.9v212c-2.9,0.7-5.1,3.4-5.1,6.6c0,3.8,3,6.8,6.8,6.8s6.8-3,6.8-6.8C334.1,487.8,331.7,485,328.6,484.4z"/>
	
		<linearGradient id="SVGID_00000101798674183701237760000003015435889967520153_" gradientUnits="userSpaceOnUse" x1="1585.0762" y1="3059.4685" x2="2166.644" y2="3059.4685" gradientTransform="matrix(6.123234e-17 -1 -1 -6.123234e-17 3342.2839 2082.9971)">
		<stop  offset="5.000000e-03" style="stop-color:#55CB9C"/>
		<stop  offset="0.627" style="stop-color:#559BBB"/>
		<stop  offset="1" style="stop-color:#5584CB"/>
	</linearGradient>
	<path style="fill:url(#SVGID_00000101798674183701237760000003015435889967520153_);" d="M351.9,484.4V271.4L211,130.5V0.6h-2.9
		v131L349,272.6v212c-2.9,0.8-5,3.4-5,6.5c0,3.8,3,6.8,6.8,6.8s6.8-3,6.8-6.8C357.6,487.8,355.1,485,351.9,484.4z"/>
	
		<linearGradient id="SVGID_00000031904019624509719320000009376875672693880238_" gradientUnits="userSpaceOnUse" x1="1585.0751" y1="3036.0085" x2="2166.8262" y2="3036.0085" gradientTransform="matrix(6.123234e-17 -1 -1 -6.123234e-17 3342.2839 2082.9971)">
		<stop  offset="5.000000e-03" style="stop-color:#55CB9C"/>
		<stop  offset="0.627" style="stop-color:#559BBB"/>
		<stop  offset="1" style="stop-color:#5584CB"/>
	</linearGradient>
	<path style="fill:url(#SVGID_00000031904019624509719320000009376875672693880238_);" d="M375.2,484.4v-213L234.3,130.5V0.6h-2.9
		v131l140.9,140.9v212.1c-2.8,0.9-4.8,3.4-4.8,6.5c0,3.8,3,6.8,6.8,6.8s6.8-3,6.8-6.8C381.2,487.7,378.6,484.8,375.2,484.4z"/>
	
		<linearGradient id="SVGID_00000159447352965706721360000002323026544569013633_" gradientUnits="userSpaceOnUse" x1="1585.076" y1="3012.5935" x2="2166.8262" y2="3012.5935" gradientTransform="matrix(6.123234e-17 -1 -1 -6.123234e-17 3342.2839 2082.9971)">
		<stop  offset="5.000000e-03" style="stop-color:#55CB9C"/>
		<stop  offset="0.627" style="stop-color:#559BBB"/>
		<stop  offset="1" style="stop-color:#5584CB"/>
	</linearGradient>
	<path style="fill:url(#SVGID_00000159447352965706721360000002323026544569013633_);" d="M398.6,484.4v-213L257.6,130.5V0.6h-2.9
		v131l140.9,140.9v212.1c-2.7,0.9-4.6,3.4-4.6,6.4c0,3.8,3,6.8,6.8,6.8s6.8-3,6.8-6.8C404.7,487.6,402,484.7,398.6,484.4z"/>
</g>
<g class="st14">
	
		<linearGradient id="SVGID_00000029755376258878836560000014939944336224021908_" gradientUnits="userSpaceOnUse" x1="2202.5972" y1="2999.1211" x2="2532.7761" y2="2999.1211" gradientTransform="matrix(6.123234e-17 1 -1 6.123234e-17 3342.2839 -2340.3831)">
		<stop  offset="0" style="stop-color:#1F8B93"/>
		<stop  offset="0.433" style="stop-color:#6AA975"/>
		<stop  offset="0.818" style="stop-color:#A7C15E"/>
		<stop  offset="1" style="stop-color:#BFCB55"/>
	</linearGradient>
	<path style="fill:url(#SVGID_00000029755376258878836560000014939944336224021908_);" d="M347.2,184.7c-0.9,0-1.8,0.4-2.5,0.9
		l-35.9-35.9V70.9l70.3-70.3h-2.3l-69.6,69.6v80.2l36.5,36.5c-0.2,0.5-0.4,1-0.4,1.6c0,2.1,1.7,3.9,3.9,3.9s3.9-1.7,3.9-3.9l0,0
		C351.1,186.4,349.4,184.7,347.2,184.7z"/>
	
		<linearGradient id="SVGID_00000093897478214077523460000005283788620756994226_" gradientUnits="userSpaceOnUse" x1="2202.5959" y1="2985.8748" x2="2533.1902" y2="2985.8748" gradientTransform="matrix(6.123234e-17 1 -1 6.123234e-17 3342.2839 -2340.3831)">
		<stop  offset="0" style="stop-color:#1F8B93"/>
		<stop  offset="0.433" style="stop-color:#6AA975"/>
		<stop  offset="0.818" style="stop-color:#A7C15E"/>
		<stop  offset="1" style="stop-color:#BFCB55"/>
	</linearGradient>
	<path style="fill:url(#SVGID_00000093897478214077523460000005283788620756994226_);" d="M360.1,185.1c-0.7,0-1.4,0.2-2,0.6l-36-36
		V70.9l70.3-70.3H390l-69.6,69.6v80.2l36.4,36.4c-0.4,0.6-0.7,1.4-0.7,2.2c0,2.1,1.7,3.9,3.9,3.9c2.1,0,3.9-1.7,3.9-3.9
		C363.9,186.8,362.2,185.1,360.1,185.1z"/>
	
		<linearGradient id="SVGID_00000147925603360046325410000009970602793441870980_" gradientUnits="userSpaceOnUse" x1="2202.5959" y1="2972.6287" x2="2533.0872" y2="2972.6287" gradientTransform="matrix(6.123234e-17 1 -1 6.123234e-17 3342.2839 -2340.3831)">
		<stop  offset="0" style="stop-color:#1F8B93"/>
		<stop  offset="0.433" style="stop-color:#6AA975"/>
		<stop  offset="0.818" style="stop-color:#A7C15E"/>
		<stop  offset="1" style="stop-color:#BFCB55"/>
	</linearGradient>
	<path style="fill:url(#SVGID_00000147925603360046325410000009970602793441870980_);" d="M373.2,185c-0.7,0-1.4,0.2-2,0.6
		l-35.9-35.9V70.9l70.3-70.3h-2.3l-69.6,69.6v80.2l36.3,36.3c-0.4,0.6-0.7,1.4-0.7,2.2c0,2.1,1.7,3.9,3.9,3.9c2.1,0,3.9-1.7,3.9-3.9
		C377.1,186.7,375.3,185,373.2,185z"/>
	
		<linearGradient id="SVGID_00000180327831946506132720000017587528166595249319_" gradientUnits="userSpaceOnUse" x1="2202.5959" y1="2959.3828" x2="2532.8792" y2="2959.3828" gradientTransform="matrix(6.123234e-17 1 -1 6.123234e-17 3342.2839 -2340.3831)">
		<stop  offset="0" style="stop-color:#1F8B93"/>
		<stop  offset="0.433" style="stop-color:#6AA975"/>
		<stop  offset="0.818" style="stop-color:#A7C15E"/>
		<stop  offset="1" style="stop-color:#BFCB55"/>
	</linearGradient>
	<path style="fill:url(#SVGID_00000180327831946506132720000017587528166595249319_);" d="M386.3,184.8L386.3,184.8
		c-0.8,0-1.5,0.2-2.1,0.6l-35.7-35.7V70.9l70.3-70.3h-2.3l-69.6,69.6v80.2l36.2,36.2c-0.4,0.6-0.6,1.3-0.6,2.1
		c0,2.1,1.7,3.9,3.9,3.9s3.9-1.7,3.9-3.9C390.2,186.5,388.5,184.8,386.3,184.8z"/>
</g>
</svg>
