<?xml version="1.0" encoding="UTF-8"?><svg xmlns="http://www.w3.org/2000/svg" viewBox="0 0 423.05 524.056"><defs><style>.cls-1,.cls-2{fill:#55becb;}.cls-3{fill:#358466;}.cls-4{opacity:.5;}.cls-5{fill:#cb6155;}.cls-6{fill:#0e212a;}.cls-7{opacity:.2;}.cls-8{fill:#5584cb;}.cls-8,.cls-9,.cls-10,.cls-2{opacity:.15;}.cls-11{fill:#1f8b93;}.cls-12,.cls-9{fill:#55cb9c;}.cls-13,.cls-10{fill:#bfcb55;}.cls-14{opacity:.4;}.cls-15{fill:#3e2822;}.cls-16{opacity:.3;}.cls-17{fill:#051713;}.cls-18{fill:#7e8a3c;}.cls-19{fill:#2e3c1e;}.cls-20{fill:#5a332c;}.cls-21{fill:#071c1e;}.cls-22{fill:#022a2c;}.cls-23{fill:#01505a;}.cls-24{fill:#197076;}</style></defs><g id="Layer_1"><g><polygon class="cls-2" points="114.778 65.968 114.778 523.292 247.992 523.292 247.992 0 114.778 65.968"/><polygon class="cls-2" points="53.29 132.355 53.29 523.292 166.98 523.292 166.98 76.056 53.29 132.355"/><polygon class="cls-2" points="188.499 180.213 188.499 523.292 288.271 523.292 288.271 130.806 188.499 180.213"/><polygon class="cls-2" points="224.321 360.5 224.321 523.292 271.663 523.292 271.663 337.056 224.321 360.5"/><polygon class="cls-2" points="178.288 441.896 178.288 523.292 201.959 523.292 201.959 430.174 178.288 441.896"/><polygon class="cls-2" points="64.344 307.373 64.344 523.292 155.926 523.292 155.926 262.021 64.344 307.373"/><g><polygon class="cls-10" points="339.936 299.333 333.632 288.413 339.936 277.493 352.546 277.493 358.851 288.413 352.546 299.333 339.936 299.333"/><polygon class="cls-8" points="144.301 262.021 132.105 240.897 144.301 219.773 168.693 219.773 180.889 240.897 168.693 262.021 144.301 262.021"/><polygon class="cls-9" points="16.705 219.773 12.105 211.806 16.705 203.839 25.904 203.839 30.504 211.806 25.904 219.773 16.705 219.773"/><polygon class="cls-10" points="64.894 105.773 52.794 84.816 64.894 63.859 89.093 63.859 101.193 84.816 89.093 105.773 64.894 105.773"/><polygon class="cls-9" points="386.751 453.368 374.652 432.411 386.751 411.454 410.95 411.454 423.05 432.411 410.95 453.368 386.751 453.368"/><polygon class="cls-8" points="240.57 399.348 235.036 389.763 240.57 380.179 251.637 380.179 257.171 389.763 251.637 399.348 240.57 399.348"/><polygon class="cls-10" points="170.41 399.561 144.715 355.056 170.41 310.55 221.801 310.55 247.496 355.056 221.801 399.561 170.41 399.561"/><polygon class="cls-9" points="93.965 261.271 .387 261.271 0 261.941 0 422.682 .387 423.353 93.965 423.353 140.754 342.312 93.965 261.271"/><polygon class="cls-8" points="368.255 524.056 386.477 492.495 339.688 411.454 246.11 411.454 199.32 492.495 217.542 524.056 368.255 524.056"/></g></g></g><g id="Layer_2"><g class="cls-16"><g><g><rect class="cls-1" x="191.343" y="37.807" width="43" height="43"/><polygon class="cls-24" points="170.343 43.807 191.343 37.807 191.343 80.807 170.343 86.807 170.343 43.807"/><polygon class="cls-23" points="170.343 86.807 191.343 80.807 234.343 80.807 213.343 86.807 170.343 86.807"/></g><g><rect class="cls-1" x="135.343" y="37.807" width="43" height="43"/><polygon class="cls-24" points="114.343 43.807 135.343 37.807 135.343 80.807 114.343 86.807 114.343 43.807"/><polygon class="cls-23" points="114.343 86.807 135.343 80.807 178.343 80.807 157.343 86.807 114.343 86.807"/></g><g><rect class="cls-1" x="80.343" y="37.807" width="43" height="43"/><polygon class="cls-24" points="59.343 43.807 80.343 37.807 80.343 80.807 59.343 86.807 59.343 43.807"/><polygon class="cls-23" points="59.343 86.807 80.343 80.807 123.343 80.807 102.343 86.807 59.343 86.807"/></g><g><rect class="cls-1" x="191.343" y="88.807" width="43" height="43"/><polygon class="cls-24" points="170.343 94.807 191.343 88.807 191.343 131.807 170.343 137.807 170.343 94.807"/><polygon class="cls-23" points="170.343 137.807 191.343 131.807 234.343 131.807 213.343 137.807 170.343 137.807"/></g><g><rect class="cls-1" x="135.343" y="88.807" width="43" height="43"/><polygon class="cls-24" points="114.343 94.807 135.343 88.807 135.343 131.807 114.343 137.807 114.343 94.807"/><polygon class="cls-23" points="114.343 137.807 135.343 131.807 178.343 131.807 157.343 137.807 114.343 137.807"/></g><g><rect class="cls-1" x="80.343" y="88.807" width="43" height="43"/><polygon class="cls-24" points="59.343 94.807 80.343 88.807 80.343 131.807 59.343 137.807 59.343 94.807"/><polygon class="cls-23" points="59.343 137.807 80.343 131.807 123.343 131.807 102.343 137.807 59.343 137.807"/></g><g><rect class="cls-1" x="191.343" y="139.807" width="43" height="43"/><polygon class="cls-24" points="170.343 145.807 191.343 139.807 191.343 182.807 170.343 188.807 170.343 145.807"/><polygon class="cls-23" points="170.343 188.807 191.343 182.807 234.343 182.807 213.343 188.807 170.343 188.807"/></g><g><rect class="cls-1" x="135.343" y="139.807" width="43" height="43"/><polygon class="cls-24" points="114.343 145.807 135.343 139.807 135.343 182.807 114.343 188.807 114.343 145.807"/><polygon class="cls-23" points="114.343 188.807 135.343 182.807 178.343 182.807 157.343 188.807 114.343 188.807"/></g><g><rect class="cls-1" x="80.343" y="139.807" width="43" height="43"/><polygon class="cls-24" points="59.343 145.807 80.343 139.807 80.343 182.807 59.343 188.807 59.343 145.807"/><polygon class="cls-23" points="59.343 188.807 80.343 182.807 123.343 182.807 102.343 188.807 59.343 188.807"/></g><g class="cls-4"><polygon class="cls-6" points="191.343 37.807 178.343 41.521 178.343 37.807 135.343 37.807 123.343 41.236 123.343 37.807 80.343 37.807 59.343 43.807 59.343 86.807 102.343 86.807 114.343 83.378 114.343 86.807 157.343 86.807 170.343 83.093 170.343 86.807 213.343 86.807 234.343 80.807 234.343 37.807 191.343 37.807"/><polygon class="cls-6" points="178.343 92.521 178.343 88.807 135.343 88.807 123.343 92.236 123.343 88.807 80.343 88.807 59.343 94.807 59.343 137.807 102.343 137.807 114.343 134.378 114.343 137.807 157.343 137.807 170.343 134.093 170.343 137.807 213.343 137.807 234.343 131.807 234.343 88.807 191.343 88.807 178.343 92.521"/><polygon class="cls-6" points="178.343 143.521 178.343 139.807 135.343 139.807 123.343 143.236 123.343 139.807 80.343 139.807 59.343 145.807 59.343 188.807 102.343 188.807 114.343 185.378 114.343 188.807 157.343 188.807 170.343 185.093 170.343 188.807 213.343 188.807 234.343 182.807 234.343 139.807 191.343 139.807 178.343 143.521"/></g></g><g><g><rect class="cls-1" x="219.343" y="23.307" width="43" height="43"/><polygon class="cls-24" points="198.343 29.307 219.343 23.307 219.343 66.307 198.343 72.307 198.343 29.307"/><polygon class="cls-23" points="198.343 72.307 219.343 66.307 262.343 66.307 241.343 72.307 198.343 72.307"/></g><g><rect class="cls-1" x="163.343" y="23.307" width="43" height="43"/><polygon class="cls-24" points="142.343 29.307 163.343 23.307 163.343 66.307 142.343 72.307 142.343 29.307"/><polygon class="cls-23" points="142.343 72.307 163.343 66.307 206.343 66.307 185.343 72.307 142.343 72.307"/></g><g><rect class="cls-1" x="108.343" y="23.307" width="43" height="43"/><polygon class="cls-24" points="87.343 29.307 108.343 23.307 108.343 66.307 87.343 72.307 87.343 29.307"/><polygon class="cls-23" points="87.343 72.307 108.343 66.307 151.343 66.307 130.343 72.307 87.343 72.307"/></g><g><rect class="cls-1" x="219.343" y="74.307" width="43" height="43"/><polygon class="cls-24" points="198.343 80.307 219.343 74.307 219.343 117.307 198.343 123.307 198.343 80.307"/><polygon class="cls-23" points="198.343 123.307 219.343 117.307 262.343 117.307 241.343 123.307 198.343 123.307"/></g><g><rect class="cls-1" x="163.343" y="74.307" width="43" height="43"/><polygon class="cls-24" points="142.343 80.307 163.343 74.307 163.343 117.307 142.343 123.307 142.343 80.307"/><polygon class="cls-23" points="142.343 123.307 163.343 117.307 206.343 117.307 185.343 123.307 142.343 123.307"/></g><g><rect class="cls-1" x="108.343" y="74.307" width="43" height="43"/><polygon class="cls-24" points="87.343 80.307 108.343 74.307 108.343 117.307 87.343 123.307 87.343 80.307"/><polygon class="cls-23" points="87.343 123.307 108.343 117.307 151.343 117.307 130.343 123.307 87.343 123.307"/></g><g><rect class="cls-1" x="219.343" y="125.307" width="43" height="43"/><polygon class="cls-24" points="198.343 131.307 219.343 125.307 219.343 168.307 198.343 174.307 198.343 131.307"/><polygon class="cls-23" points="198.343 174.307 219.343 168.307 262.343 168.307 241.343 174.307 198.343 174.307"/></g><g><rect class="cls-1" x="163.343" y="125.307" width="43" height="43"/><polygon class="cls-24" points="142.343 131.307 163.343 125.307 163.343 168.307 142.343 174.307 142.343 131.307"/><polygon class="cls-23" points="142.343 174.307 163.343 168.307 206.343 168.307 185.343 174.307 142.343 174.307"/></g><g><rect class="cls-1" x="108.343" y="125.307" width="43" height="43"/><polygon class="cls-24" points="87.343 131.307 108.343 125.307 108.343 168.307 87.343 174.307 87.343 131.307"/><polygon class="cls-23" points="87.343 174.307 108.343 168.307 151.343 168.307 130.343 174.307 87.343 174.307"/></g><g class="cls-16"><polygon class="cls-21" points="219.343 23.307 206.343 27.021 206.343 23.307 163.343 23.307 151.343 26.736 151.343 23.307 108.343 23.307 87.343 29.307 87.343 72.307 130.343 72.307 142.343 68.878 142.343 72.307 185.343 72.307 198.343 68.593 198.343 72.307 241.343 72.307 262.343 66.307 262.343 23.307 219.343 23.307"/><polygon class="cls-21" points="206.343 78.021 206.343 74.307 163.343 74.307 151.343 77.736 151.343 74.307 108.343 74.307 87.343 80.307 87.343 123.307 130.343 123.307 142.343 119.878 142.343 123.307 185.343 123.307 198.343 119.593 198.343 123.307 241.343 123.307 262.343 117.307 262.343 74.307 219.343 74.307 206.343 78.021"/><polygon class="cls-21" points="206.343 129.021 206.343 125.307 163.343 125.307 151.343 128.736 151.343 125.307 108.343 125.307 87.343 131.307 87.343 174.307 130.343 174.307 142.343 170.878 142.343 174.307 185.343 174.307 198.343 170.593 198.343 174.307 241.343 174.307 262.343 168.307 262.343 125.307 219.343 125.307 206.343 129.021"/></g></g><g><g><rect class="cls-1" x="247.343" y="8.807" width="43" height="43"/><polygon class="cls-24" points="226.343 14.807 247.343 8.807 247.343 51.807 226.343 57.807 226.343 14.807"/><polygon class="cls-23" points="226.343 57.807 247.343 51.807 290.343 51.807 269.343 57.807 226.343 57.807"/></g><g><rect class="cls-1" x="191.343" y="8.807" width="43" height="43"/><polygon class="cls-24" points="170.343 14.807 191.343 8.807 191.343 51.807 170.343 57.807 170.343 14.807"/><polygon class="cls-23" points="170.343 57.807 191.343 51.807 234.343 51.807 213.343 57.807 170.343 57.807"/></g><g><rect class="cls-1" x="136.343" y="8.807" width="43" height="43"/><polygon class="cls-24" points="115.343 14.807 136.343 8.807 136.343 51.807 115.343 57.807 115.343 14.807"/><polygon class="cls-23" points="115.343 57.807 136.343 51.807 179.343 51.807 158.343 57.807 115.343 57.807"/></g><g><rect class="cls-1" x="247.343" y="59.807" width="43" height="43"/><polygon class="cls-24" points="226.343 65.807 247.343 59.807 247.343 102.807 226.343 108.807 226.343 65.807"/><polygon class="cls-23" points="226.343 108.807 247.343 102.807 290.343 102.807 269.343 108.807 226.343 108.807"/></g><g><rect class="cls-13" x="191.343" y="59.807" width="43" height="43"/><polygon class="cls-18" points="170.343 65.807 191.343 59.807 191.343 102.807 170.343 108.807 170.343 65.807"/><polygon class="cls-19" points="170.343 108.807 191.343 102.807 234.343 102.807 213.343 108.807 170.343 108.807"/></g><g><rect class="cls-1" x="136.343" y="59.807" width="43" height="43"/><polygon class="cls-24" points="115.343 65.807 136.343 59.807 136.343 102.807 115.343 108.807 115.343 65.807"/><polygon class="cls-23" points="115.343 108.807 136.343 102.807 179.343 102.807 158.343 108.807 115.343 108.807"/></g><g><rect class="cls-1" x="247.343" y="110.807" width="43" height="43"/><polygon class="cls-24" points="226.343 116.807 247.343 110.807 247.343 153.807 226.343 159.807 226.343 116.807"/><polygon class="cls-23" points="226.343 159.807 247.343 153.807 290.343 153.807 269.343 159.807 226.343 159.807"/></g><g><rect class="cls-1" x="191.343" y="110.807" width="43" height="43"/><polygon class="cls-24" points="170.343 116.807 191.343 110.807 191.343 153.807 170.343 159.807 170.343 116.807"/><polygon class="cls-23" points="170.343 159.807 191.343 153.807 234.343 153.807 213.343 159.807 170.343 159.807"/></g><g><rect class="cls-1" x="136.343" y="110.807" width="43" height="43"/><polygon class="cls-24" points="115.343 116.807 136.343 110.807 136.343 153.807 115.343 159.807 115.343 116.807"/><polygon class="cls-23" points="115.343 159.807 136.343 153.807 179.343 153.807 158.343 159.807 115.343 159.807"/></g></g></g><g class="cls-14"><rect class="cls-5" x="288.637" y="168.778" width="43" height="43"/><polygon class="cls-20" points="267.637 174.778 288.637 168.778 288.637 211.778 267.637 217.778 267.637 174.778"/><polygon class="cls-15" points="267.637 217.778 288.637 211.778 331.637 211.778 310.637 217.778 267.637 217.778"/></g><g class="cls-7"><rect class="cls-11" x="72.196" y="277.807" width="201.811" height="201.811"/><polygon class="cls-23" points="-26.363 305.967 72.196 277.807 72.196 479.618 -26.363 507.778 -26.363 305.967"/><polygon class="cls-22" points="-24.032 507.778 74.527 479.618 276.338 479.618 177.779 507.778 -24.032 507.778"/></g><g class="cls-14"><rect class="cls-12" x="24.681" y="28.675" width="24.662" height="24.662"/><polygon class="cls-3" points="12.637 32.116 24.681 28.675 24.681 53.336 12.637 56.778 12.637 32.116"/><polygon class="cls-17" points="12.637 56.778 24.681 53.336 49.343 53.336 37.299 56.778 12.637 56.778"/></g><g class="cls-14"><rect class="cls-12" x="263.681" y="463.675" width="24.662" height="24.662"/><polygon class="cls-3" points="251.637 467.116 263.681 463.675 263.681 488.336 251.637 491.778 251.637 467.116"/><polygon class="cls-17" points="251.637 491.778 263.681 488.336 288.343 488.336 276.299 491.778 251.637 491.778"/></g><g class="cls-14"><rect class="cls-13" x="48.51" y="251.409" width="46.834" height="46.834"/><polygon class="cls-18" points="25.637 257.944 48.51 251.409 48.51 298.243 25.637 304.778 25.637 257.944"/><polygon class="cls-19" points="25.637 304.778 48.51 298.243 95.343 298.243 72.471 304.778 25.637 304.778"/></g></g></svg>